####
#
# OBJ File Generated by Meshlab
#
####
# Object Cube0.1x0.1_vis.obj
#
# Vertices: 8
# Faces: 12
#
####
mtllib ./Cube0.1x0.1_vis.obj.mtl

vn 1.570796 -1.570796 1.570796
v 0.000050 -0.000050 0.000100
vn 1.570796 -1.570796 -1.570796
v 0.000050 -0.000050 0.000000
vn 1.570796 1.570796 -1.570796
v 0.000050 0.000050 0.000000
vn 1.570796 1.570796 1.570796
v 0.000050 0.000050 0.000100
vn -1.570796 1.570796 -1.570796
v -0.000050 0.000050 0.000000
vn -1.570796 1.570796 1.570796
v -0.000050 0.000050 0.000100
vn -1.570796 -1.570796 -1.570796
v -0.000050 -0.000050 0.000000
vn -1.570796 -1.570796 1.570796
v -0.000050 -0.000050 0.000100
# 8 vertices, 0 vertices normals


usemtl material_0
f 1//1 2//2 3//3
f 3//3 4//4 1//1
f 4//4 3//3 5//5
f 5//5 6//6 4//4
f 6//6 5//5 7//7
f 7//7 8//8 6//6
f 8//8 7//7 2//2
f 2//2 1//1 8//8
f 1//1 4//4 6//6
f 6//6 8//8 1//1
f 2//2 7//7 5//5
f 5//5 3//3 2//2
# 12 faces, 0 coords texture

# End of File
