solid Default
  facet normal 0.000000e+00 0.000000e+00 1.000000e+00
    outer loop
      vertex -1.499999e+00 9.750023e+00 8.055000e+01
      vertex -3.374999e+00 9.750023e+00 8.055000e+01
      vertex -1.499999e+00 8.250046e+00 8.055000e+01
    endloop
  endfacet
  facet normal 0.000000e+00 0.000000e+00 1.000000e+00
    outer loop
      vertex -1.499999e+00 8.250046e+00 8.055000e+01
      vertex -3.374999e+00 9.750023e+00 8.055000e+01
      vertex -3.374999e+00 8.250046e+00 8.055000e+01
    endloop
  endfacet
  facet normal -1.000000e+00 0.000000e+00 0.000000e+00
    outer loop
      vertex -1.499999e+00 9.750023e+00 8.055000e+01
      vertex -1.499999e+00 8.250046e+00 8.055000e+01
      vertex -1.499999e+00 9.750023e+00 8.205000e+01
    endloop
  endfacet
  facet normal -1.000000e+00 0.000000e+00 0.000000e+00
    outer loop
      vertex -1.499999e+00 9.750023e+00 8.205000e+01
      vertex -1.499999e+00 8.250046e+00 8.055000e+01
      vertex -1.499999e+00 8.250046e+00 8.205000e+01
    endloop
  endfacet
  facet normal -1.000000e+00 -0.000000e+00 -0.000000e+00
    outer loop
      vertex -3.374999e+00 9.750023e+00 8.055000e+01
      vertex -3.374999e+00 9.750023e+00 7.875000e+01
      vertex -3.374999e+00 8.250046e+00 8.055000e+01
    endloop
  endfacet
  facet normal -1.000000e+00 4.440893e-15 3.700765e-15
    outer loop
      vertex -3.374999e+00 8.250046e+00 8.055000e+01
      vertex -3.374999e+00 9.750023e+00 7.875000e+01
      vertex -3.374999e+00 8.250046e+00 7.875000e+01
    endloop
  endfacet
  facet normal 1.000000e+00 0.000000e+00 0.000000e+00
    outer loop
      vertex 1.499998e+00 9.750023e+00 8.055000e+01
      vertex 1.499998e+00 9.750023e+00 8.205000e+01
      vertex 1.499998e+00 8.250046e+00 8.055000e+01
    endloop
  endfacet
  facet normal 1.000000e+00 0.000000e+00 0.000000e+00
    outer loop
      vertex 1.499998e+00 8.250046e+00 8.055000e+01
      vertex 1.499998e+00 9.750023e+00 8.205000e+01
      vertex 1.499998e+00 8.250046e+00 8.205000e+01
    endloop
  endfacet
  facet normal 0.000000e+00 0.000000e+00 1.000000e+00
    outer loop
      vertex 3.374998e+00 9.750023e+00 8.055000e+01
      vertex 1.499998e+00 9.750023e+00 8.055000e+01
      vertex 3.374998e+00 8.250046e+00 8.055000e+01
    endloop
  endfacet
  facet normal 0.000000e+00 0.000000e+00 1.000000e+00
    outer loop
      vertex 3.374998e+00 8.250046e+00 8.055000e+01
      vertex 1.499998e+00 9.750023e+00 8.055000e+01
      vertex 1.499998e+00 8.250046e+00 8.055000e+01
    endloop
  endfacet
  facet normal 0.000000e+00 5.960464e-06 1.000000e+00
    outer loop
      vertex 1.499998e+00 9.750023e+00 8.205000e+01
      vertex -1.499999e+00 9.750023e+00 8.205000e+01
      vertex 1.499998e+00 8.250046e+00 8.205000e+01
    endloop
  endfacet
  facet normal 0.000000e+00 5.960464e-06 1.000000e+00
    outer loop
      vertex 1.499998e+00 8.250046e+00 8.205000e+01
      vertex -1.499999e+00 9.750023e+00 8.205000e+01
      vertex -1.499999e+00 8.250046e+00 8.205000e+01
    endloop
  endfacet
  facet normal 0.000000e+00 0.000000e+00 1.000000e+00
    outer loop
      vertex 1.499998e+00 4.874954e+00 8.205000e+01
      vertex -1.499999e+00 8.250046e+00 8.205000e+01
      vertex -1.499999e+00 4.874954e+00 8.205000e+01
    endloop
  endfacet
  facet normal 0.000000e+00 0.000000e+00 1.000000e+00
    outer loop
      vertex 1.499998e+00 4.874954e+00 8.205000e+01
      vertex 1.499998e+00 8.250046e+00 8.205000e+01
      vertex -1.499999e+00 8.250046e+00 8.205000e+01
    endloop
  endfacet
  facet normal 0.000000e+00 1.000000e+00 0.000000e+00
    outer loop
      vertex -1.499999e+00 9.750023e+00 8.205000e+01
      vertex 1.499998e+00 9.750023e+00 8.205000e+01
      vertex -1.499999e+00 9.750023e+00 8.055000e+01
    endloop
  endfacet
  facet normal 0.000000e+00 1.000000e+00 0.000000e+00
    outer loop
      vertex -1.499999e+00 9.750023e+00 8.055000e+01
      vertex 1.499998e+00 9.750023e+00 8.205000e+01
      vertex 1.499998e+00 9.750023e+00 8.055000e+01
    endloop
  endfacet
  facet normal 0.000000e+00 1.000000e+00 1.184245e-13
    outer loop
      vertex -3.374999e+00 9.750023e+00 7.875000e+01
      vertex 1.499998e+00 9.750023e+00 8.055000e+01
      vertex 3.374998e+00 9.750023e+00 7.875000e+01
    endloop
  endfacet
  facet normal 0.000000e+00 1.000000e+00 0.000000e+00
    outer loop
      vertex -4.875002e+00 9.750023e+00 4.950000e+01
      vertex 3.374998e+00 9.750023e+00 7.875000e+01
      vertex 4.875000e+00 9.750023e+00 4.950000e+01
    endloop
  endfacet
  facet normal 0.000000e+00 1.000000e+00 -6.932124e-15
    outer loop
      vertex -6.375000e+00 9.750023e+00 1.875000e+01
      vertex 4.875000e+00 9.750023e+00 4.950000e+01
      vertex 6.374998e+00 9.750023e+00 1.875000e+01
    endloop
  endfacet
  facet normal 0.000000e+00 1.000000e+00 0.000000e+00
    outer loop
      vertex -1.837500e+01 9.750023e+00 0.000000e+00
      vertex 6.374998e+00 9.750023e+00 1.875000e+01
      vertex 1.837500e+01 9.750023e+00 0.000000e+00
    endloop
  endfacet
  facet normal 0.000000e+00 1.000000e+00 0.000000e+00
    outer loop
      vertex -1.837500e+01 9.750023e+00 0.000000e+00
      vertex -6.375000e+00 9.750023e+00 1.875000e+01
      vertex 6.374998e+00 9.750023e+00 1.875000e+01
    endloop
  endfacet
  facet normal 0.000000e+00 1.000000e+00 0.000000e+00
    outer loop
      vertex -1.837500e+01 9.750023e+00 0.000000e+00
      vertex -1.837500e+01 9.750023e+00 1.875000e+01
      vertex -6.375000e+00 9.750023e+00 1.875000e+01
    endloop
  endfacet
  facet normal -1.136868e-13 1.000000e+00 0.000000e+00
    outer loop
      vertex 1.499998e+00 9.750023e+00 8.055000e+01
      vertex 3.374998e+00 9.750023e+00 8.055000e+01
      vertex 3.374998e+00 9.750023e+00 7.875000e+01
    endloop
  endfacet
  facet normal 0.000000e+00 1.000000e+00 0.000000e+00
    outer loop
      vertex 3.374998e+00 9.750023e+00 7.875000e+01
      vertex 4.875000e+00 9.750023e+00 7.875000e+01
      vertex 4.875000e+00 9.750023e+00 4.950000e+01
    endloop
  endfacet
  facet normal 0.000000e+00 1.000000e+00 -6.932124e-15
    outer loop
      vertex 4.875000e+00 9.750023e+00 4.950000e+01
      vertex 6.374998e+00 9.750023e+00 4.950000e+01
      vertex 6.374998e+00 9.750023e+00 1.875000e+01
    endloop
  endfacet
  facet normal 0.000000e+00 1.000000e+00 0.000000e+00
    outer loop
      vertex 6.374998e+00 9.750023e+00 1.875000e+01
      vertex 1.837500e+01 9.750023e+00 1.875000e+01
      vertex 1.837500e+01 9.750023e+00 0.000000e+00
    endloop
  endfacet
  facet normal 0.000000e+00 1.000000e+00 -6.932124e-15
    outer loop
      vertex -6.375000e+00 9.750023e+00 4.950000e+01
      vertex -4.875002e+00 9.750023e+00 4.950000e+01
      vertex -6.375000e+00 9.750023e+00 1.875000e+01
    endloop
  endfacet
  facet normal 0.000000e+00 1.000000e+00 -6.932124e-15
    outer loop
      vertex -6.375000e+00 9.750023e+00 1.875000e+01
      vertex -4.875002e+00 9.750023e+00 4.950000e+01
      vertex 4.875000e+00 9.750023e+00 4.950000e+01
    endloop
  endfacet
  facet normal 0.000000e+00 1.000000e+00 0.000000e+00
    outer loop
      vertex -4.875002e+00 9.750023e+00 7.875000e+01
      vertex -3.374999e+00 9.750023e+00 7.875000e+01
      vertex -4.875002e+00 9.750023e+00 4.950000e+01
    endloop
  endfacet
  facet normal 0.000000e+00 1.000000e+00 0.000000e+00
    outer loop
      vertex -4.875002e+00 9.750023e+00 4.950000e+01
      vertex -3.374999e+00 9.750023e+00 7.875000e+01
      vertex 3.374998e+00 9.750023e+00 7.875000e+01
    endloop
  endfacet
  facet normal 0.000000e+00 1.000000e+00 1.184245e-13
    outer loop
      vertex -3.374999e+00 9.750023e+00 8.055000e+01
      vertex -1.499999e+00 9.750023e+00 8.055000e+01
      vertex -3.374999e+00 9.750023e+00 7.875000e+01
    endloop
  endfacet
  facet normal 0.000000e+00 1.000000e+00 1.184245e-13
    outer loop
      vertex -3.374999e+00 9.750023e+00 7.875000e+01
      vertex -1.499999e+00 9.750023e+00 8.055000e+01
      vertex 1.499998e+00 9.750023e+00 8.055000e+01
    endloop
  endfacet
  facet normal -1.000000e+00 0.000000e+00 0.000000e+00
    outer loop
      vertex -1.499999e+00 -9.750023e+00 8.055000e+01
      vertex -1.499999e+00 -9.750023e+00 8.205000e+01
      vertex -1.499999e+00 -8.250046e+00 8.055000e+01
    endloop
  endfacet
  facet normal -1.000000e+00 0.000000e+00 0.000000e+00
    outer loop
      vertex -1.499999e+00 -8.250046e+00 8.055000e+01
      vertex -1.499999e+00 -9.750023e+00 8.205000e+01
      vertex -1.499999e+00 -8.250046e+00 8.205000e+01
    endloop
  endfacet
  facet normal 0.000000e+00 0.000000e+00 1.000000e+00
    outer loop
      vertex -3.374999e+00 -9.750023e+00 8.055000e+01
      vertex -1.499999e+00 -9.750023e+00 8.055000e+01
      vertex -3.374999e+00 -8.250046e+00 8.055000e+01
    endloop
  endfacet
  facet normal 0.000000e+00 0.000000e+00 1.000000e+00
    outer loop
      vertex -3.374999e+00 -8.250046e+00 8.055000e+01
      vertex -1.499999e+00 -9.750023e+00 8.055000e+01
      vertex -1.499999e+00 -8.250046e+00 8.055000e+01
    endloop
  endfacet
  facet normal 0.000000e+00 -5.960464e-06 1.000000e+00
    outer loop
      vertex -1.499999e+00 -9.750023e+00 8.205000e+01
      vertex 1.499998e+00 -9.750023e+00 8.205000e+01
      vertex -1.499999e+00 -8.250046e+00 8.205000e+01
    endloop
  endfacet
  facet normal 0.000000e+00 -5.960464e-06 1.000000e+00
    outer loop
      vertex -1.499999e+00 -8.250046e+00 8.205000e+01
      vertex 1.499998e+00 -9.750023e+00 8.205000e+01
      vertex 1.499998e+00 -8.250046e+00 8.205000e+01
    endloop
  endfacet
  facet normal 0.000000e+00 0.000000e+00 1.000000e+00
    outer loop
      vertex -1.499999e+00 -4.874954e+00 8.205000e+01
      vertex 1.499998e+00 -8.250046e+00 8.205000e+01
      vertex 1.499998e+00 -4.874954e+00 8.205000e+01
    endloop
  endfacet
  facet normal 0.000000e+00 0.000000e+00 1.000000e+00
    outer loop
      vertex -1.499999e+00 -4.874954e+00 8.205000e+01
      vertex -1.499999e+00 -8.250046e+00 8.205000e+01
      vertex 1.499998e+00 -8.250046e+00 8.205000e+01
    endloop
  endfacet
  facet normal -0.000000e+00 -1.000000e+00 -0.000000e+00
    outer loop
      vertex 1.499998e+00 -9.750023e+00 8.205000e+01
      vertex -1.499999e+00 -9.750023e+00 8.205000e+01
      vertex 1.499998e+00 -9.750023e+00 8.055000e+01
    endloop
  endfacet
  facet normal -0.000000e+00 -1.000000e+00 -0.000000e+00
    outer loop
      vertex 1.499998e+00 -9.750023e+00 8.055000e+01
      vertex -1.499999e+00 -9.750023e+00 8.205000e+01
      vertex -1.499999e+00 -9.750023e+00 8.055000e+01
    endloop
  endfacet
  facet normal 0.000000e+00 -1.000000e+00 1.184245e-13
    outer loop
      vertex 3.374998e+00 -9.750023e+00 7.875000e+01
      vertex -1.499999e+00 -9.750023e+00 8.055000e+01
      vertex -3.374999e+00 -9.750023e+00 7.875000e+01
    endloop
  endfacet
  facet normal 0.000000e+00 -1.000000e+00 0.000000e+00
    outer loop
      vertex 4.875000e+00 -9.750023e+00 4.950000e+01
      vertex -3.374999e+00 -9.750023e+00 7.875000e+01
      vertex -4.875002e+00 -9.750023e+00 4.950000e+01
    endloop
  endfacet
  facet normal -0.000000e+00 -1.000000e+00 -6.932124e-15
    outer loop
      vertex -6.375000e+00 -9.750023e+00 1.875000e+01
      vertex -4.875002e+00 -9.750023e+00 4.950000e+01
      vertex -6.375000e+00 -9.750023e+00 4.950000e+01
    endloop
  endfacet
  facet normal -0.000000e+00 -1.000000e+00 -6.932124e-15
    outer loop
      vertex -6.375000e+00 -9.750023e+00 1.875000e+01
      vertex 4.875000e+00 -9.750023e+00 4.950000e+01
      vertex -4.875002e+00 -9.750023e+00 4.950000e+01
    endloop
  endfacet
  facet normal 0.000000e+00 -1.000000e+00 -6.932124e-15
    outer loop
      vertex -6.375000e+00 -9.750023e+00 1.875000e+01
      vertex 6.374998e+00 -9.750023e+00 1.875000e+01
      vertex 4.875000e+00 -9.750023e+00 4.950000e+01
    endloop
  endfacet
  facet normal 0.000000e+00 -1.000000e+00 0.000000e+00
    outer loop
      vertex -6.375000e+00 -9.750023e+00 1.875000e+01
      vertex 1.837500e+01 -9.750023e+00 0.000000e+00
      vertex 6.374998e+00 -9.750023e+00 1.875000e+01
    endloop
  endfacet
  facet normal 0.000000e+00 -1.000000e+00 0.000000e+00
    outer loop
      vertex -6.375000e+00 -9.750023e+00 1.875000e+01
      vertex -1.837500e+01 -9.750023e+00 0.000000e+00
      vertex 1.837500e+01 -9.750023e+00 0.000000e+00
    endloop
  endfacet
  facet normal -0.000000e+00 -1.000000e+00 -0.000000e+00
    outer loop
      vertex -6.375000e+00 -9.750023e+00 1.875000e+01
      vertex -1.837500e+01 -9.750023e+00 1.875000e+01
      vertex -1.837500e+01 -9.750023e+00 0.000000e+00
    endloop
  endfacet
  facet normal 1.136868e-13 -1.000000e+00 0.000000e+00
    outer loop
      vertex -1.499999e+00 -9.750023e+00 8.055000e+01
      vertex -3.374999e+00 -9.750023e+00 8.055000e+01
      vertex -3.374999e+00 -9.750023e+00 7.875000e+01
    endloop
  endfacet
  facet normal -0.000000e+00 -1.000000e+00 -0.000000e+00
    outer loop
      vertex -3.374999e+00 -9.750023e+00 7.875000e+01
      vertex -4.875002e+00 -9.750023e+00 7.875000e+01
      vertex -4.875002e+00 -9.750023e+00 4.950000e+01
    endloop
  endfacet
  facet normal 0.000000e+00 -1.000000e+00 0.000000e+00
    outer loop
      vertex 1.837500e+01 -9.750023e+00 0.000000e+00
      vertex 1.837500e+01 -9.750023e+00 1.875000e+01
      vertex 6.374998e+00 -9.750023e+00 1.875000e+01
    endloop
  endfacet
  facet normal -0.000000e+00 -1.000000e+00 -6.932124e-15
    outer loop
      vertex 6.374998e+00 -9.750023e+00 1.875000e+01
      vertex 6.374998e+00 -9.750023e+00 4.950000e+01
      vertex 4.875000e+00 -9.750023e+00 4.950000e+01
    endloop
  endfacet
  facet normal -0.000000e+00 -1.000000e+00 -0.000000e+00
    outer loop
      vertex 4.875000e+00 -9.750023e+00 7.875000e+01
      vertex 3.374998e+00 -9.750023e+00 7.875000e+01
      vertex 4.875000e+00 -9.750023e+00 4.950000e+01
    endloop
  endfacet
  facet normal 0.000000e+00 -1.000000e+00 0.000000e+00
    outer loop
      vertex 4.875000e+00 -9.750023e+00 4.950000e+01
      vertex 3.374998e+00 -9.750023e+00 7.875000e+01
      vertex -3.374999e+00 -9.750023e+00 7.875000e+01
    endloop
  endfacet
  facet normal -1.136868e-13 -1.000000e+00 0.000000e+00
    outer loop
      vertex 3.374998e+00 -9.750023e+00 8.055000e+01
      vertex 1.499998e+00 -9.750023e+00 8.055000e+01
      vertex 3.374998e+00 -9.750023e+00 7.875000e+01
    endloop
  endfacet
  facet normal 0.000000e+00 -1.000000e+00 1.184245e-13
    outer loop
      vertex 3.374998e+00 -9.750023e+00 7.875000e+01
      vertex 1.499998e+00 -9.750023e+00 8.055000e+01
      vertex -1.499999e+00 -9.750023e+00 8.055000e+01
    endloop
  endfacet
  facet normal 0.000000e+00 0.000000e+00 1.000000e+00
    outer loop
      vertex 1.499998e+00 -9.750023e+00 8.055000e+01
      vertex 3.374998e+00 -9.750023e+00 8.055000e+01
      vertex 1.499998e+00 -8.250046e+00 8.055000e+01
    endloop
  endfacet
  facet normal 0.000000e+00 0.000000e+00 1.000000e+00
    outer loop
      vertex 1.499998e+00 -8.250046e+00 8.055000e+01
      vertex 3.374998e+00 -9.750023e+00 8.055000e+01
      vertex 3.374998e+00 -8.250046e+00 8.055000e+01
    endloop
  endfacet
  facet normal 1.000000e+00 0.000000e+00 0.000000e+00
    outer loop
      vertex 1.499998e+00 -9.750023e+00 8.055000e+01
      vertex 1.499998e+00 -8.250046e+00 8.055000e+01
      vertex 1.499998e+00 -9.750023e+00 8.205000e+01
    endloop
  endfacet
  facet normal 1.000000e+00 0.000000e+00 0.000000e+00
    outer loop
      vertex 1.499998e+00 -9.750023e+00 8.205000e+01
      vertex 1.499998e+00 -8.250046e+00 8.055000e+01
      vertex 1.499998e+00 -8.250046e+00 8.205000e+01
    endloop
  endfacet
  facet normal 0.000000e+00 0.000000e+00 1.000000e+00
    outer loop
      vertex -3.374999e+00 -4.874954e+00 8.055000e+01
      vertex 3.374998e+00 -4.874954e+00 8.055000e+01
      vertex -3.374999e+00 4.874954e+00 8.055000e+01
    endloop
  endfacet
  facet normal 0.000000e+00 0.000000e+00 1.000000e+00
    outer loop
      vertex -3.374999e+00 4.874954e+00 8.055000e+01
      vertex 3.374998e+00 -4.874954e+00 8.055000e+01
      vertex 3.374998e+00 4.874954e+00 8.055000e+01
    endloop
  endfacet
  facet normal -1.000000e+00 0.000000e+00 0.000000e+00
    outer loop
      vertex -3.374999e+00 4.874954e+00 8.055000e+01
      vertex -3.374999e+00 3.374977e+00 7.875000e+01
      vertex -3.374999e+00 -4.874954e+00 8.055000e+01
    endloop
  endfacet
  facet normal -1.000000e+00 0.000000e+00 0.000000e+00
    outer loop
      vertex -3.374999e+00 4.874954e+00 8.055000e+01
      vertex -3.374999e+00 4.874954e+00 7.875000e+01
      vertex -3.374999e+00 3.374977e+00 7.875000e+01
    endloop
  endfacet
  facet normal -1.000000e+00 -0.000000e+00 -0.000000e+00
    outer loop
      vertex -3.374999e+00 -4.874954e+00 8.055000e+01
      vertex -3.374999e+00 3.374977e+00 7.875000e+01
      vertex -3.374999e+00 -3.374977e+00 7.875000e+01
    endloop
  endfacet
  facet normal -1.000000e+00 0.000000e+00 0.000000e+00
    outer loop
      vertex -3.374999e+00 -4.874954e+00 7.875000e+01
      vertex -3.374999e+00 -4.874954e+00 8.055000e+01
      vertex -3.374999e+00 -3.374977e+00 7.875000e+01
    endloop
  endfacet
  facet normal -1.000000e+00 0.000000e+00 0.000000e+00
    outer loop
      vertex -3.374999e+00 -3.374977e+00 4.950000e+01
      vertex -3.374999e+00 -3.374977e+00 7.875000e+01
      vertex -3.374999e+00 3.374977e+00 4.950000e+01
    endloop
  endfacet
  facet normal -1.000000e+00 0.000000e+00 0.000000e+00
    outer loop
      vertex -3.374999e+00 3.374977e+00 4.950000e+01
      vertex -3.374999e+00 -3.374977e+00 7.875000e+01
      vertex -3.374999e+00 3.374977e+00 7.875000e+01
    endloop
  endfacet
  facet normal 0.000000e+00 1.000000e+00 0.000000e+00
    outer loop
      vertex -3.374999e+00 -4.874954e+00 7.875000e+01
      vertex -4.875002e+00 -4.874954e+00 7.875000e+01
      vertex -3.374999e+00 -4.874954e+00 8.055000e+01
    endloop
  endfacet
  facet normal 0.000000e+00 1.000000e+00 0.000000e+00
    outer loop
      vertex -3.374999e+00 -4.874954e+00 8.055000e+01
      vertex -4.875002e+00 -4.874954e+00 7.875000e+01
      vertex -4.875002e+00 -4.874954e+00 8.535000e+01
    endloop
  endfacet
  facet normal 0.000000e+00 1.000000e+00 0.000000e+00
    outer loop
      vertex -1.499999e+00 -4.874954e+00 8.205000e+01
      vertex -4.875002e+00 -4.874954e+00 8.535000e+01
      vertex -1.499999e+00 -4.874954e+00 8.535000e+01
    endloop
  endfacet
  facet normal 0.000000e+00 1.000000e+00 0.000000e+00
    outer loop
      vertex -1.499999e+00 -4.874954e+00 8.205000e+01
      vertex -3.374999e+00 -4.874954e+00 8.055000e+01
      vertex -4.875002e+00 -4.874954e+00 8.535000e+01
    endloop
  endfacet
  facet normal 0.000000e+00 1.000000e+00 0.000000e+00
    outer loop
      vertex -1.499999e+00 -4.874954e+00 8.205000e+01
      vertex 1.499998e+00 -4.874954e+00 8.205000e+01
      vertex -3.374999e+00 -4.874954e+00 8.055000e+01
    endloop
  endfacet
  facet normal 0.000000e+00 1.000000e+00 0.000000e+00
    outer loop
      vertex -3.374999e+00 -4.874954e+00 8.055000e+01
      vertex 1.499998e+00 -4.874954e+00 8.205000e+01
      vertex 3.374998e+00 -4.874954e+00 8.055000e+01
    endloop
  endfacet
  facet normal 0.000000e+00 1.000000e+00 0.000000e+00
    outer loop
      vertex 3.374998e+00 -4.874954e+00 8.055000e+01
      vertex 1.499998e+00 -4.874954e+00 8.205000e+01
      vertex 4.875000e+00 -4.874954e+00 8.535000e+01
    endloop
  endfacet
  facet normal 0.000000e+00 1.000000e+00 0.000000e+00
    outer loop
      vertex 4.875000e+00 -4.874954e+00 7.875000e+01
      vertex 3.374998e+00 -4.874954e+00 8.055000e+01
      vertex 4.875000e+00 -4.874954e+00 8.535000e+01
    endloop
  endfacet
  facet normal 0.000000e+00 1.000000e+00 0.000000e+00
    outer loop
      vertex 4.875000e+00 -4.874954e+00 7.875000e+01
      vertex 3.374998e+00 -4.874954e+00 7.875000e+01
      vertex 3.374998e+00 -4.874954e+00 8.055000e+01
    endloop
  endfacet
  facet normal 0.000000e+00 1.000000e+00 0.000000e+00
    outer loop
      vertex 1.499998e+00 -4.874954e+00 8.205000e+01
      vertex 1.499998e+00 -4.874954e+00 8.535000e+01
      vertex 4.875000e+00 -4.874954e+00 8.535000e+01
    endloop
  endfacet
  facet normal 0.000000e+00 0.000000e+00 1.000000e+00
    outer loop
      vertex 1.837500e+01 4.500046e+00 1.725000e+01
      vertex 6.374998e+00 4.500046e+00 1.725000e+01
      vertex 1.837500e+01 -4.500046e+00 1.725000e+01
    endloop
  endfacet
  facet normal 0.000000e+00 0.000000e+00 1.000000e+00
    outer loop
      vertex 1.837500e+01 -4.500046e+00 1.725000e+01
      vertex 6.374998e+00 4.500046e+00 1.725000e+01
      vertex 6.374998e+00 -4.500046e+00 1.725000e+01
    endloop
  endfacet
  facet normal 0.000000e+00 1.000000e+00 0.000000e+00
    outer loop
      vertex 1.837500e+01 -4.500046e+00 1.875000e+01
      vertex 1.837500e+01 -4.500046e+00 1.725000e+01
      vertex 6.374998e+00 -4.500046e+00 1.875000e+01
    endloop
  endfacet
  facet normal 0.000000e+00 1.000000e+00 0.000000e+00
    outer loop
      vertex 6.374998e+00 -4.500046e+00 1.875000e+01
      vertex 1.837500e+01 -4.500046e+00 1.725000e+01
      vertex 6.374998e+00 -4.500046e+00 1.725000e+01
    endloop
  endfacet
  facet normal 0.000000e+00 -1.000000e+00 0.000000e+00
    outer loop
      vertex 1.837500e+01 4.500046e+00 1.725000e+01
      vertex 1.837500e+01 4.500046e+00 1.875000e+01
      vertex 6.374998e+00 4.500046e+00 1.725000e+01
    endloop
  endfacet
  facet normal 0.000000e+00 -1.000000e+00 0.000000e+00
    outer loop
      vertex 6.374998e+00 4.500046e+00 1.725000e+01
      vertex 1.837500e+01 4.500046e+00 1.875000e+01
      vertex 6.374998e+00 4.500046e+00 1.875000e+01
    endloop
  endfacet
  facet normal 1.000000e+00 0.000000e+00 0.000000e+00
    outer loop
      vertex 1.837500e+01 4.500046e+00 1.875000e+01
      vertex 1.837500e+01 4.500046e+00 1.725000e+01
      vertex 1.837500e+01 9.750023e+00 1.875000e+01
    endloop
  endfacet
  facet normal 1.000000e+00 0.000000e+00 0.000000e+00
    outer loop
      vertex 1.837500e+01 9.750023e+00 1.875000e+01
      vertex 1.837500e+01 4.500046e+00 1.725000e+01
      vertex 1.837500e+01 9.750023e+00 0.000000e+00
    endloop
  endfacet
  facet normal 1.000000e+00 0.000000e+00 0.000000e+00
    outer loop
      vertex 1.837500e+01 9.750023e+00 0.000000e+00
      vertex 1.837500e+01 4.500046e+00 1.725000e+01
      vertex 1.837500e+01 -9.750023e+00 0.000000e+00
    endloop
  endfacet
  facet normal 1.000000e+00 0.000000e+00 0.000000e+00
    outer loop
      vertex 1.837500e+01 -9.750023e+00 0.000000e+00
      vertex 1.837500e+01 4.500046e+00 1.725000e+01
      vertex 1.837500e+01 -4.500046e+00 1.725000e+01
    endloop
  endfacet
  facet normal 1.000000e+00 0.000000e+00 0.000000e+00
    outer loop
      vertex 1.837500e+01 -9.750023e+00 1.875000e+01
      vertex 1.837500e+01 -4.500046e+00 1.725000e+01
      vertex 1.837500e+01 -4.500046e+00 1.875000e+01
    endloop
  endfacet
  facet normal 1.000000e+00 0.000000e+00 0.000000e+00
    outer loop
      vertex 1.837500e+01 -9.750023e+00 1.875000e+01
      vertex 1.837500e+01 -9.750023e+00 0.000000e+00
      vertex 1.837500e+01 -4.500046e+00 1.725000e+01
    endloop
  endfacet
  facet normal 0.000000e+00 0.000000e+00 1.000000e+00
    outer loop
      vertex 1.837500e+01 -4.500046e+00 1.875000e+01
      vertex 6.374998e+00 -4.500046e+00 1.875000e+01
      vertex 1.837500e+01 -9.750023e+00 1.875000e+01
    endloop
  endfacet
  facet normal 0.000000e+00 0.000000e+00 1.000000e+00
    outer loop
      vertex 1.837500e+01 -9.750023e+00 1.875000e+01
      vertex 6.374998e+00 -4.500046e+00 1.875000e+01
      vertex 6.374998e+00 -9.750023e+00 1.875000e+01
    endloop
  endfacet
  facet normal 0.000000e+00 0.000000e+00 1.000000e+00
    outer loop
      vertex 6.374998e+00 4.500046e+00 1.875000e+01
      vertex 1.837500e+01 4.500046e+00 1.875000e+01
      vertex 6.374998e+00 9.750023e+00 1.875000e+01
    endloop
  endfacet
  facet normal 0.000000e+00 0.000000e+00 1.000000e+00
    outer loop
      vertex 6.374998e+00 9.750023e+00 1.875000e+01
      vertex 1.837500e+01 4.500046e+00 1.875000e+01
      vertex 1.837500e+01 9.750023e+00 1.875000e+01
    endloop
  endfacet
  facet normal 1.000000e+00 0.000000e+00 2.035281e-08
    outer loop
      vertex 6.374998e+00 -9.750023e+00 1.875000e+01
      vertex 6.374998e+00 -4.500046e+00 1.875000e+01
      vertex 6.374998e+00 -9.750023e+00 4.950000e+01
    endloop
  endfacet
  facet normal 1.000000e+00 0.000000e+00 2.035281e-08
    outer loop
      vertex 6.374998e+00 -9.750023e+00 4.950000e+01
      vertex 6.374998e+00 -4.500046e+00 1.875000e+01
      vertex 6.374998e+00 4.500046e+00 1.875000e+01
    endloop
  endfacet
  facet normal 1.000000e+00 0.000000e+00 2.035281e-08
    outer loop
      vertex 6.374998e+00 9.750023e+00 4.950000e+01
      vertex 6.374998e+00 4.500046e+00 1.875000e+01
      vertex 6.374998e+00 9.750023e+00 1.875000e+01
    endloop
  endfacet
  facet normal 1.000000e+00 0.000000e+00 2.035281e-08
    outer loop
      vertex 6.374998e+00 9.750023e+00 4.950000e+01
      vertex 6.374998e+00 -9.750023e+00 4.950000e+01
      vertex 6.374998e+00 4.500046e+00 1.875000e+01
    endloop
  endfacet
  facet normal 1.000000e+00 0.000000e+00 0.000000e+00
    outer loop
      vertex 6.374998e+00 -4.500046e+00 1.875000e+01
      vertex 6.374998e+00 -4.500046e+00 1.725000e+01
      vertex 6.374998e+00 4.500046e+00 1.875000e+01
    endloop
  endfacet
  facet normal 1.000000e+00 0.000000e+00 0.000000e+00
    outer loop
      vertex 6.374998e+00 4.500046e+00 1.875000e+01
      vertex 6.374998e+00 -4.500046e+00 1.725000e+01
      vertex 6.374998e+00 4.500046e+00 1.725000e+01
    endloop
  endfacet
  facet normal 1.000000e+00 4.440893e-15 -3.700765e-15
    outer loop
      vertex 3.374998e+00 8.250046e+00 8.055000e+01
      vertex 3.374998e+00 8.250046e+00 7.875000e+01
      vertex 3.374998e+00 9.750023e+00 8.055000e+01
    endloop
  endfacet
  facet normal 1.000000e+00 0.000000e+00 0.000000e+00
    outer loop
      vertex 3.374998e+00 9.750023e+00 8.055000e+01
      vertex 3.374998e+00 8.250046e+00 7.875000e+01
      vertex 3.374998e+00 9.750023e+00 7.875000e+01
    endloop
  endfacet
  facet normal -1.000000e+00 0.000000e+00 3.700765e-15
    outer loop
      vertex -3.374999e+00 -8.250046e+00 8.055000e+01
      vertex -3.374999e+00 -8.250046e+00 7.875000e+01
      vertex -3.374999e+00 -9.750023e+00 8.055000e+01
    endloop
  endfacet
  facet normal -1.000000e+00 -4.440893e-15 0.000000e+00
    outer loop
      vertex -3.374999e+00 -9.750023e+00 8.055000e+01
      vertex -3.374999e+00 -8.250046e+00 7.875000e+01
      vertex -3.374999e+00 -9.750023e+00 7.875000e+01
    endloop
  endfacet
  facet normal 1.000000e+00 -4.440893e-15 0.000000e+00
    outer loop
      vertex 3.374998e+00 -9.750023e+00 8.055000e+01
      vertex 3.374998e+00 -9.750023e+00 7.875000e+01
      vertex 3.374998e+00 -8.250046e+00 8.055000e+01
    endloop
  endfacet
  facet normal 1.000000e+00 0.000000e+00 -3.700765e-15
    outer loop
      vertex 3.374998e+00 -8.250046e+00 8.055000e+01
      vertex 3.374998e+00 -9.750023e+00 7.875000e+01
      vertex 3.374998e+00 -8.250046e+00 7.875000e+01
    endloop
  endfacet
  facet normal -1.000000e+00 -0.000000e+00 -0.000000e+00
    outer loop
      vertex -4.875002e+00 9.750023e+00 7.875000e+01
      vertex -4.875002e+00 9.750023e+00 4.950000e+01
      vertex -4.875002e+00 8.250046e+00 7.875000e+01
    endloop
  endfacet
  facet normal -1.000000e+00 -0.000000e+00 -0.000000e+00
    outer loop
      vertex -4.875002e+00 8.250046e+00 7.875000e+01
      vertex -4.875002e+00 9.750023e+00 4.950000e+01
      vertex -4.875002e+00 3.374977e+00 4.950000e+01
    endloop
  endfacet
  facet normal -1.000000e+00 0.000000e+00 0.000000e+00
    outer loop
      vertex -4.875002e+00 4.874954e+00 7.875000e+01
      vertex -4.875002e+00 3.374977e+00 4.950000e+01
      vertex -4.875002e+00 3.374977e+00 7.875000e+01
    endloop
  endfacet
  facet normal -1.000000e+00 0.000000e+00 0.000000e+00
    outer loop
      vertex -4.875002e+00 4.874954e+00 7.875000e+01
      vertex -4.875002e+00 8.250046e+00 7.875000e+01
      vertex -4.875002e+00 3.374977e+00 4.950000e+01
    endloop
  endfacet
  facet normal -1.000000e+00 0.000000e+00 0.000000e+00
    outer loop
      vertex -4.875002e+00 4.874954e+00 7.875000e+01
      vertex -4.875002e+00 4.874954e+00 8.535000e+01
      vertex -4.875002e+00 8.250046e+00 7.875000e+01
    endloop
  endfacet
  facet normal -1.000000e+00 0.000000e+00 0.000000e+00
    outer loop
      vertex -4.875002e+00 8.250046e+00 7.875000e+01
      vertex -4.875002e+00 4.874954e+00 8.535000e+01
      vertex -4.875002e+00 8.250046e+00 8.535000e+01
    endloop
  endfacet
  facet normal 1.000000e+00 0.000000e+00 0.000000e+00
    outer loop
      vertex 4.875000e+00 3.374977e+00 7.875000e+01
      vertex 4.875000e+00 3.374977e+00 4.950000e+01
      vertex 4.875000e+00 4.874954e+00 7.875000e+01
    endloop
  endfacet
  facet normal 1.000000e+00 0.000000e+00 0.000000e+00
    outer loop
      vertex 4.875000e+00 4.874954e+00 7.875000e+01
      vertex 4.875000e+00 3.374977e+00 4.950000e+01
      vertex 4.875000e+00 8.250046e+00 7.875000e+01
    endloop
  endfacet
  facet normal 1.000000e+00 0.000000e+00 0.000000e+00
    outer loop
      vertex 4.875000e+00 8.250046e+00 8.535000e+01
      vertex 4.875000e+00 4.874954e+00 7.875000e+01
      vertex 4.875000e+00 8.250046e+00 7.875000e+01
    endloop
  endfacet
  facet normal 1.000000e+00 0.000000e+00 0.000000e+00
    outer loop
      vertex 4.875000e+00 8.250046e+00 8.535000e+01
      vertex 4.875000e+00 4.874954e+00 8.535000e+01
      vertex 4.875000e+00 4.874954e+00 7.875000e+01
    endloop
  endfacet
  facet normal 1.000000e+00 1.044916e-15 -1.741526e-16
    outer loop
      vertex 4.875000e+00 3.374977e+00 4.950000e+01
      vertex 4.875000e+00 9.750023e+00 4.950000e+01
      vertex 4.875000e+00 8.250046e+00 7.875000e+01
    endloop
  endfacet
  facet normal 1.000000e+00 4.440893e-15 0.000000e+00
    outer loop
      vertex 4.875000e+00 8.250046e+00 7.875000e+01
      vertex 4.875000e+00 9.750023e+00 4.950000e+01
      vertex 4.875000e+00 9.750023e+00 7.875000e+01
    endloop
  endfacet
  facet normal 0.000000e+00 -1.000000e+00 0.000000e+00
    outer loop
      vertex -3.374999e+00 3.374977e+00 4.950000e+01
      vertex -3.374999e+00 3.374977e+00 7.875000e+01
      vertex -4.875002e+00 3.374977e+00 4.950000e+01
    endloop
  endfacet
  facet normal 0.000000e+00 -1.000000e+00 0.000000e+00
    outer loop
      vertex -4.875002e+00 3.374977e+00 4.950000e+01
      vertex -3.374999e+00 3.374977e+00 7.875000e+01
      vertex -4.875002e+00 3.374977e+00 7.875000e+01
    endloop
  endfacet
  facet normal 0.000000e+00 1.000000e+00 0.000000e+00
    outer loop
      vertex -4.875002e+00 -3.374977e+00 4.950000e+01
      vertex -4.875002e+00 -3.374977e+00 7.875000e+01
      vertex -3.374999e+00 -3.374977e+00 4.950000e+01
    endloop
  endfacet
  facet normal 0.000000e+00 1.000000e+00 0.000000e+00
    outer loop
      vertex -3.374999e+00 -3.374977e+00 4.950000e+01
      vertex -4.875002e+00 -3.374977e+00 7.875000e+01
      vertex -3.374999e+00 -3.374977e+00 7.875000e+01
    endloop
  endfacet
  facet normal 0.000000e+00 0.000000e+00 -1.000000e+00
    outer loop
      vertex -1.837500e+01 9.750023e+00 0.000000e+00
      vertex 1.837500e+01 9.750023e+00 0.000000e+00
      vertex -1.837500e+01 -9.750023e+00 0.000000e+00
    endloop
  endfacet
  facet normal 0.000000e+00 0.000000e+00 -1.000000e+00
    outer loop
      vertex -1.837500e+01 -9.750023e+00 0.000000e+00
      vertex 1.837500e+01 9.750023e+00 0.000000e+00
      vertex 1.837500e+01 -9.750023e+00 0.000000e+00
    endloop
  endfacet
  facet normal 0.000000e+00 0.000000e+00 1.000000e+00
    outer loop
      vertex 4.875000e+00 4.874954e+00 7.875000e+01
      vertex 3.374998e+00 4.874954e+00 7.875000e+01
      vertex 4.875000e+00 3.374977e+00 7.875000e+01
    endloop
  endfacet
  facet normal 0.000000e+00 0.000000e+00 1.000000e+00
    outer loop
      vertex 4.875000e+00 3.374977e+00 7.875000e+01
      vertex 3.374998e+00 4.874954e+00 7.875000e+01
      vertex 3.374998e+00 3.374977e+00 7.875000e+01
    endloop
  endfacet
  facet normal 0.000000e+00 0.000000e+00 1.000000e+00
    outer loop
      vertex 3.374998e+00 -9.750023e+00 7.875000e+01
      vertex 4.875000e+00 -9.750023e+00 7.875000e+01
      vertex 3.374998e+00 -8.250046e+00 7.875000e+01
    endloop
  endfacet
  facet normal 0.000000e+00 0.000000e+00 1.000000e+00
    outer loop
      vertex 3.374998e+00 -8.250046e+00 7.875000e+01
      vertex 4.875000e+00 -9.750023e+00 7.875000e+01
      vertex 4.875000e+00 -8.250046e+00 7.875000e+01
    endloop
  endfacet
  facet normal 0.000000e+00 0.000000e+00 1.000000e+00
    outer loop
      vertex 3.374998e+00 -4.874954e+00 7.875000e+01
      vertex 4.875000e+00 -4.874954e+00 7.875000e+01
      vertex 3.374998e+00 -3.374977e+00 7.875000e+01
    endloop
  endfacet
  facet normal 0.000000e+00 0.000000e+00 1.000000e+00
    outer loop
      vertex 3.374998e+00 -3.374977e+00 7.875000e+01
      vertex 4.875000e+00 -4.874954e+00 7.875000e+01
      vertex 4.875000e+00 -3.374977e+00 7.875000e+01
    endloop
  endfacet
  facet normal 0.000000e+00 0.000000e+00 1.000000e+00
    outer loop
      vertex -3.374999e+00 -8.250046e+00 7.875000e+01
      vertex -4.875002e+00 -8.250046e+00 7.875000e+01
      vertex -3.374999e+00 -9.750023e+00 7.875000e+01
    endloop
  endfacet
  facet normal 0.000000e+00 0.000000e+00 1.000000e+00
    outer loop
      vertex -3.374999e+00 -9.750023e+00 7.875000e+01
      vertex -4.875002e+00 -8.250046e+00 7.875000e+01
      vertex -4.875002e+00 -9.750023e+00 7.875000e+01
    endloop
  endfacet
  facet normal 0.000000e+00 0.000000e+00 1.000000e+00
    outer loop
      vertex -4.875002e+00 -4.874954e+00 7.875000e+01
      vertex -3.374999e+00 -4.874954e+00 7.875000e+01
      vertex -4.875002e+00 -3.374977e+00 7.875000e+01
    endloop
  endfacet
  facet normal 0.000000e+00 0.000000e+00 1.000000e+00
    outer loop
      vertex -4.875002e+00 -3.374977e+00 7.875000e+01
      vertex -3.374999e+00 -4.874954e+00 7.875000e+01
      vertex -3.374999e+00 -3.374977e+00 7.875000e+01
    endloop
  endfacet
  facet normal 0.000000e+00 0.000000e+00 1.000000e+00
    outer loop
      vertex 3.374998e+00 8.250046e+00 7.875000e+01
      vertex 4.875000e+00 8.250046e+00 7.875000e+01
      vertex 3.374998e+00 9.750023e+00 7.875000e+01
    endloop
  endfacet
  facet normal 0.000000e+00 0.000000e+00 1.000000e+00
    outer loop
      vertex 3.374998e+00 9.750023e+00 7.875000e+01
      vertex 4.875000e+00 8.250046e+00 7.875000e+01
      vertex 4.875000e+00 9.750023e+00 7.875000e+01
    endloop
  endfacet
  facet normal 0.000000e+00 0.000000e+00 1.000000e+00
    outer loop
      vertex -4.875002e+00 8.250046e+00 7.875000e+01
      vertex -3.374999e+00 8.250046e+00 7.875000e+01
      vertex -4.875002e+00 9.750023e+00 7.875000e+01
    endloop
  endfacet
  facet normal 0.000000e+00 0.000000e+00 1.000000e+00
    outer loop
      vertex -4.875002e+00 9.750023e+00 7.875000e+01
      vertex -3.374999e+00 8.250046e+00 7.875000e+01
      vertex -3.374999e+00 9.750023e+00 7.875000e+01
    endloop
  endfacet
  facet normal 0.000000e+00 0.000000e+00 1.000000e+00
    outer loop
      vertex -3.374999e+00 4.874954e+00 7.875000e+01
      vertex -4.875002e+00 4.874954e+00 7.875000e+01
      vertex -3.374999e+00 3.374977e+00 7.875000e+01
    endloop
  endfacet
  facet normal 0.000000e+00 0.000000e+00 1.000000e+00
    outer loop
      vertex -3.374999e+00 3.374977e+00 7.875000e+01
      vertex -4.875002e+00 4.874954e+00 7.875000e+01
      vertex -4.875002e+00 3.374977e+00 7.875000e+01
    endloop
  endfacet
  facet normal 0.000000e+00 -1.000000e+00 0.000000e+00
    outer loop
      vertex 4.875000e+00 3.374977e+00 4.950000e+01
      vertex 4.875000e+00 3.374977e+00 7.875000e+01
      vertex 3.374998e+00 3.374977e+00 4.950000e+01
    endloop
  endfacet
  facet normal 0.000000e+00 -1.000000e+00 0.000000e+00
    outer loop
      vertex 3.374998e+00 3.374977e+00 4.950000e+01
      vertex 4.875000e+00 3.374977e+00 7.875000e+01
      vertex 3.374998e+00 3.374977e+00 7.875000e+01
    endloop
  endfacet
  facet normal 0.000000e+00 1.000000e+00 0.000000e+00
    outer loop
      vertex 3.374998e+00 -3.374977e+00 4.950000e+01
      vertex 3.374998e+00 -3.374977e+00 7.875000e+01
      vertex 4.875000e+00 -3.374977e+00 4.950000e+01
    endloop
  endfacet
  facet normal 0.000000e+00 1.000000e+00 0.000000e+00
    outer loop
      vertex 4.875000e+00 -3.374977e+00 4.950000e+01
      vertex 3.374998e+00 -3.374977e+00 7.875000e+01
      vertex 4.875000e+00 -3.374977e+00 7.875000e+01
    endloop
  endfacet
  facet normal 1.000000e+00 0.000000e+00 0.000000e+00
    outer loop
      vertex 3.374998e+00 4.874954e+00 7.875000e+01
      vertex 3.374998e+00 4.874954e+00 8.055000e+01
      vertex 3.374998e+00 3.374977e+00 7.875000e+01
    endloop
  endfacet
  facet normal 1.000000e+00 0.000000e+00 0.000000e+00
    outer loop
      vertex 3.374998e+00 3.374977e+00 7.875000e+01
      vertex 3.374998e+00 4.874954e+00 8.055000e+01
      vertex 3.374998e+00 -4.874954e+00 8.055000e+01
    endloop
  endfacet
  facet normal 1.000000e+00 0.000000e+00 0.000000e+00
    outer loop
      vertex 3.374998e+00 -3.374977e+00 7.875000e+01
      vertex 3.374998e+00 -4.874954e+00 8.055000e+01
      vertex 3.374998e+00 -4.874954e+00 7.875000e+01
    endloop
  endfacet
  facet normal 1.000000e+00 0.000000e+00 0.000000e+00
    outer loop
      vertex 3.374998e+00 -3.374977e+00 7.875000e+01
      vertex 3.374998e+00 3.374977e+00 7.875000e+01
      vertex 3.374998e+00 -4.874954e+00 8.055000e+01
    endloop
  endfacet
  facet normal 1.000000e+00 0.000000e+00 0.000000e+00
    outer loop
      vertex 3.374998e+00 -3.374977e+00 7.875000e+01
      vertex 3.374998e+00 -3.374977e+00 4.950000e+01
      vertex 3.374998e+00 3.374977e+00 7.875000e+01
    endloop
  endfacet
  facet normal 1.000000e+00 0.000000e+00 0.000000e+00
    outer loop
      vertex 3.374998e+00 3.374977e+00 7.875000e+01
      vertex 3.374998e+00 -3.374977e+00 4.950000e+01
      vertex 3.374998e+00 3.374977e+00 4.950000e+01
    endloop
  endfacet
  facet normal 0.000000e+00 0.000000e+00 1.000000e+00
    outer loop
      vertex 4.875000e+00 9.750023e+00 4.950000e+01
      vertex 4.875000e+00 3.374977e+00 4.950000e+01
      vertex 6.374998e+00 9.750023e+00 4.950000e+01
    endloop
  endfacet
  facet normal 0.000000e+00 0.000000e+00 1.000000e+00
    outer loop
      vertex 6.374998e+00 9.750023e+00 4.950000e+01
      vertex 4.875000e+00 3.374977e+00 4.950000e+01
      vertex 6.374998e+00 -9.750023e+00 4.950000e+01
    endloop
  endfacet
  facet normal 0.000000e+00 0.000000e+00 1.000000e+00
    outer loop
      vertex 6.374998e+00 -9.750023e+00 4.950000e+01
      vertex 4.875000e+00 3.374977e+00 4.950000e+01
      vertex 4.875000e+00 -3.374977e+00 4.950000e+01
    endloop
  endfacet
  facet normal 0.000000e+00 0.000000e+00 1.000000e+00
    outer loop
      vertex 4.875000e+00 -9.750023e+00 4.950000e+01
      vertex 6.374998e+00 -9.750023e+00 4.950000e+01
      vertex 4.875000e+00 -3.374977e+00 4.950000e+01
    endloop
  endfacet
  facet normal 0.000000e+00 0.000000e+00 1.000000e+00
    outer loop
      vertex 4.875000e+00 3.374977e+00 4.950000e+01
      vertex 3.374998e+00 3.374977e+00 4.950000e+01
      vertex 4.875000e+00 -3.374977e+00 4.950000e+01
    endloop
  endfacet
  facet normal 0.000000e+00 0.000000e+00 1.000000e+00
    outer loop
      vertex 4.875000e+00 -3.374977e+00 4.950000e+01
      vertex 3.374998e+00 3.374977e+00 4.950000e+01
      vertex 3.374998e+00 -3.374977e+00 4.950000e+01
    endloop
  endfacet
  facet normal 0.000000e+00 0.000000e+00 1.000000e+00
    outer loop
      vertex -4.875002e+00 9.750023e+00 4.950000e+01
      vertex -6.375000e+00 9.750023e+00 4.950000e+01
      vertex -4.875002e+00 3.374977e+00 4.950000e+01
    endloop
  endfacet
  facet normal 0.000000e+00 0.000000e+00 1.000000e+00
    outer loop
      vertex -4.875002e+00 3.374977e+00 4.950000e+01
      vertex -6.375000e+00 9.750023e+00 4.950000e+01
      vertex -6.375000e+00 -9.750023e+00 4.950000e+01
    endloop
  endfacet
  facet normal 0.000000e+00 0.000000e+00 1.000000e+00
    outer loop
      vertex -4.875002e+00 -3.374977e+00 4.950000e+01
      vertex -6.375000e+00 -9.750023e+00 4.950000e+01
      vertex -4.875002e+00 -9.750023e+00 4.950000e+01
    endloop
  endfacet
  facet normal 0.000000e+00 0.000000e+00 1.000000e+00
    outer loop
      vertex -4.875002e+00 -3.374977e+00 4.950000e+01
      vertex -4.875002e+00 3.374977e+00 4.950000e+01
      vertex -6.375000e+00 -9.750023e+00 4.950000e+01
    endloop
  endfacet
  facet normal 0.000000e+00 0.000000e+00 1.000000e+00
    outer loop
      vertex -4.875002e+00 -3.374977e+00 4.950000e+01
      vertex -3.374999e+00 -3.374977e+00 4.950000e+01
      vertex -4.875002e+00 3.374977e+00 4.950000e+01
    endloop
  endfacet
  facet normal 0.000000e+00 0.000000e+00 1.000000e+00
    outer loop
      vertex -4.875002e+00 3.374977e+00 4.950000e+01
      vertex -3.374999e+00 -3.374977e+00 4.950000e+01
      vertex -3.374999e+00 3.374977e+00 4.950000e+01
    endloop
  endfacet
  facet normal -1.000000e+00 0.000000e+00 -2.035281e-08
    outer loop
      vertex -6.375000e+00 -9.750023e+00 1.875000e+01
      vertex -6.375000e+00 -9.750023e+00 4.950000e+01
      vertex -6.375000e+00 9.750023e+00 1.875000e+01
    endloop
  endfacet
  facet normal -1.000000e+00 0.000000e+00 -2.035281e-08
    outer loop
      vertex -6.375000e+00 9.750023e+00 1.875000e+01
      vertex -6.375000e+00 -9.750023e+00 4.950000e+01
      vertex -6.375000e+00 9.750023e+00 4.950000e+01
    endloop
  endfacet
  facet normal -1.000000e+00 0.000000e+00 0.000000e+00
    outer loop
      vertex -1.837500e+01 -9.750023e+00 0.000000e+00
      vertex -1.837500e+01 -9.750023e+00 1.875000e+01
      vertex -1.837500e+01 9.750023e+00 0.000000e+00
    endloop
  endfacet
  facet normal -1.000000e+00 0.000000e+00 0.000000e+00
    outer loop
      vertex -1.837500e+01 9.750023e+00 0.000000e+00
      vertex -1.837500e+01 -9.750023e+00 1.875000e+01
      vertex -1.837500e+01 9.750023e+00 1.875000e+01
    endloop
  endfacet
  facet normal 0.000000e+00 0.000000e+00 1.000000e+00
    outer loop
      vertex -6.375000e+00 9.750023e+00 1.875000e+01
      vertex -1.837500e+01 9.750023e+00 1.875000e+01
      vertex -6.375000e+00 -9.750023e+00 1.875000e+01
    endloop
  endfacet
  facet normal 0.000000e+00 0.000000e+00 1.000000e+00
    outer loop
      vertex -6.375000e+00 -9.750023e+00 1.875000e+01
      vertex -1.837500e+01 9.750023e+00 1.875000e+01
      vertex -1.837500e+01 -9.750023e+00 1.875000e+01
    endloop
  endfacet
  facet normal 8.903435e-01 0.000000e+00 4.552893e-01
    outer loop
      vertex -1.499999e+00 8.250046e+00 8.535000e+01
      vertex -3.187502e+00 6.562500e+00 8.865000e+01
      vertex -1.499999e+00 4.874954e+00 8.535000e+01
    endloop
  endfacet
  facet normal -8.903435e-01 0.000000e+00 4.552893e-01
    outer loop
      vertex -3.187502e+00 6.562500e+00 8.865000e+01
      vertex -4.875002e+00 8.250046e+00 8.535000e+01
      vertex -4.875002e+00 4.874954e+00 8.535000e+01
    endloop
  endfacet
  facet normal 0.000000e+00 8.903435e-01 4.552893e-01
    outer loop
      vertex -4.875002e+00 8.250046e+00 8.535000e+01
      vertex -3.187502e+00 6.562500e+00 8.865000e+01
      vertex -1.499999e+00 8.250046e+00 8.535000e+01
    endloop
  endfacet
  facet normal 0.000000e+00 -8.903435e-01 4.552893e-01
    outer loop
      vertex -3.187502e+00 6.562500e+00 8.865000e+01
      vertex -4.875002e+00 4.874954e+00 8.535000e+01
      vertex -1.499999e+00 4.874954e+00 8.535000e+01
    endloop
  endfacet
  facet normal 1.033517e-13 -1.000000e+00 3.229740e-14
    outer loop
      vertex -4.875002e+00 4.874954e+00 7.875000e+01
      vertex -3.374999e+00 4.874954e+00 8.055000e+01
      vertex -4.875002e+00 4.874954e+00 8.535000e+01
    endloop
  endfacet
  facet normal 0.000000e+00 -1.000000e+00 1.184238e-13
    outer loop
      vertex -4.875002e+00 4.874954e+00 7.875000e+01
      vertex -3.374999e+00 4.874954e+00 7.875000e+01
      vertex -3.374999e+00 4.874954e+00 8.055000e+01
    endloop
  endfacet
  facet normal 0.000000e+00 -1.000000e+00 0.000000e+00
    outer loop
      vertex 3.374998e+00 4.874954e+00 8.055000e+01
      vertex 1.499998e+00 4.874954e+00 8.205000e+01
      vertex -3.374999e+00 4.874954e+00 8.055000e+01
    endloop
  endfacet
  facet normal 0.000000e+00 -1.000000e+00 0.000000e+00
    outer loop
      vertex 3.374998e+00 4.874954e+00 8.055000e+01
      vertex 4.875000e+00 4.874954e+00 8.535000e+01
      vertex 1.499998e+00 4.874954e+00 8.205000e+01
    endloop
  endfacet
  facet normal -1.033517e-13 -1.000000e+00 3.229740e-14
    outer loop
      vertex 3.374998e+00 4.874954e+00 8.055000e+01
      vertex 4.875000e+00 4.874954e+00 7.875000e+01
      vertex 4.875000e+00 4.874954e+00 8.535000e+01
    endloop
  endfacet
  facet normal 0.000000e+00 -1.000000e+00 1.184238e-13
    outer loop
      vertex 3.374998e+00 4.874954e+00 8.055000e+01
      vertex 3.374998e+00 4.874954e+00 7.875000e+01
      vertex 4.875000e+00 4.874954e+00 7.875000e+01
    endloop
  endfacet
  facet normal -0.000000e+00 -1.000000e+00 -0.000000e+00
    outer loop
      vertex 4.875000e+00 4.874954e+00 8.535000e+01
      vertex 1.499998e+00 4.874954e+00 8.535000e+01
      vertex 1.499998e+00 4.874954e+00 8.205000e+01
    endloop
  endfacet
  facet normal 0.000000e+00 -1.000000e+00 0.000000e+00
    outer loop
      vertex 1.499998e+00 4.874954e+00 8.205000e+01
      vertex -1.499999e+00 4.874954e+00 8.205000e+01
      vertex -3.374999e+00 4.874954e+00 8.055000e+01
    endloop
  endfacet
  facet normal 0.000000e+00 -1.000000e+00 0.000000e+00
    outer loop
      vertex -3.374999e+00 4.874954e+00 8.055000e+01
      vertex -1.499999e+00 4.874954e+00 8.205000e+01
      vertex -4.875002e+00 4.874954e+00 8.535000e+01
    endloop
  endfacet
  facet normal 0.000000e+00 -1.000000e+00 0.000000e+00
    outer loop
      vertex -4.875002e+00 4.874954e+00 8.535000e+01
      vertex -1.499999e+00 4.874954e+00 8.205000e+01
      vertex -1.499999e+00 4.874954e+00 8.535000e+01
    endloop
  endfacet
  facet normal 0.000000e+00 1.000000e+00 0.000000e+00
    outer loop
      vertex -1.499999e+00 8.250046e+00 8.535000e+01
      vertex -1.499999e+00 8.250046e+00 8.205000e+01
      vertex -4.875002e+00 8.250046e+00 8.535000e+01
    endloop
  endfacet
  facet normal -6.252760e-14 1.000000e+00 -6.394868e-14
    outer loop
      vertex -4.875002e+00 8.250046e+00 8.535000e+01
      vertex -1.499999e+00 8.250046e+00 8.205000e+01
      vertex -3.374999e+00 8.250046e+00 8.055000e+01
    endloop
  endfacet
  facet normal 0.000000e+00 1.000000e+00 -1.184245e-13
    outer loop
      vertex -4.875002e+00 8.250046e+00 7.875000e+01
      vertex -3.374999e+00 8.250046e+00 8.055000e+01
      vertex -3.374999e+00 8.250046e+00 7.875000e+01
    endloop
  endfacet
  facet normal -6.459522e-14 1.000000e+00 -6.459481e-14
    outer loop
      vertex -4.875002e+00 8.250046e+00 7.875000e+01
      vertex -4.875002e+00 8.250046e+00 8.535000e+01
      vertex -3.374999e+00 8.250046e+00 8.055000e+01
    endloop
  endfacet
  facet normal 0.000000e+00 1.000000e+00 -1.421077e-13
    outer loop
      vertex -1.499999e+00 8.250046e+00 8.205000e+01
      vertex -1.499999e+00 8.250046e+00 8.055000e+01
      vertex -3.374999e+00 8.250046e+00 8.055000e+01
    endloop
  endfacet
  facet normal 1.000000e+00 0.000000e+00 0.000000e+00
    outer loop
      vertex -1.499999e+00 4.874954e+00 8.535000e+01
      vertex -1.499999e+00 4.874954e+00 8.205000e+01
      vertex -1.499999e+00 8.250046e+00 8.535000e+01
    endloop
  endfacet
  facet normal 1.000000e+00 0.000000e+00 0.000000e+00
    outer loop
      vertex -1.499999e+00 8.250046e+00 8.535000e+01
      vertex -1.499999e+00 4.874954e+00 8.205000e+01
      vertex -1.499999e+00 8.250046e+00 8.205000e+01
    endloop
  endfacet
  facet normal 8.903435e-01 0.000000e+00 4.552893e-01
    outer loop
      vertex 4.875000e+00 8.250046e+00 8.535000e+01
      vertex 3.187501e+00 6.562500e+00 8.865000e+01
      vertex 4.875000e+00 4.874954e+00 8.535000e+01
    endloop
  endfacet
  facet normal -8.903435e-01 0.000000e+00 4.552893e-01
    outer loop
      vertex 3.187501e+00 6.562500e+00 8.865000e+01
      vertex 1.499998e+00 8.250046e+00 8.535000e+01
      vertex 1.499998e+00 4.874954e+00 8.535000e+01
    endloop
  endfacet
  facet normal 0.000000e+00 8.903435e-01 4.552893e-01
    outer loop
      vertex 1.499998e+00 8.250046e+00 8.535000e+01
      vertex 3.187501e+00 6.562500e+00 8.865000e+01
      vertex 4.875000e+00 8.250046e+00 8.535000e+01
    endloop
  endfacet
  facet normal 0.000000e+00 -8.903435e-01 4.552893e-01
    outer loop
      vertex 3.187501e+00 6.562500e+00 8.865000e+01
      vertex 1.499998e+00 4.874954e+00 8.535000e+01
      vertex 4.875000e+00 4.874954e+00 8.535000e+01
    endloop
  endfacet
  facet normal -1.000000e+00 -0.000000e+00 -0.000000e+00
    outer loop
      vertex 1.499998e+00 8.250046e+00 8.535000e+01
      vertex 1.499998e+00 8.250046e+00 8.205000e+01
      vertex 1.499998e+00 4.874954e+00 8.535000e+01
    endloop
  endfacet
  facet normal -1.000000e+00 -0.000000e+00 -0.000000e+00
    outer loop
      vertex 1.499998e+00 4.874954e+00 8.535000e+01
      vertex 1.499998e+00 8.250046e+00 8.205000e+01
      vertex 1.499998e+00 4.874954e+00 8.205000e+01
    endloop
  endfacet
  facet normal 6.459522e-14 1.000000e+00 -6.459481e-14
    outer loop
      vertex 4.875000e+00 8.250046e+00 7.875000e+01
      vertex 3.374998e+00 8.250046e+00 8.055000e+01
      vertex 4.875000e+00 8.250046e+00 8.535000e+01
    endloop
  endfacet
  facet normal 0.000000e+00 1.000000e+00 -1.184245e-13
    outer loop
      vertex 4.875000e+00 8.250046e+00 7.875000e+01
      vertex 3.374998e+00 8.250046e+00 7.875000e+01
      vertex 3.374998e+00 8.250046e+00 8.055000e+01
    endloop
  endfacet
  facet normal 0.000000e+00 1.000000e+00 -1.421077e-13
    outer loop
      vertex 1.499998e+00 8.250046e+00 8.055000e+01
      vertex 1.499998e+00 8.250046e+00 8.205000e+01
      vertex 3.374998e+00 8.250046e+00 8.055000e+01
    endloop
  endfacet
  facet normal 6.252760e-14 1.000000e+00 -6.394868e-14
    outer loop
      vertex 3.374998e+00 8.250046e+00 8.055000e+01
      vertex 1.499998e+00 8.250046e+00 8.205000e+01
      vertex 4.875000e+00 8.250046e+00 8.535000e+01
    endloop
  endfacet
  facet normal 0.000000e+00 1.000000e+00 0.000000e+00
    outer loop
      vertex 4.875000e+00 8.250046e+00 8.535000e+01
      vertex 1.499998e+00 8.250046e+00 8.205000e+01
      vertex 1.499998e+00 8.250046e+00 8.535000e+01
    endloop
  endfacet
  facet normal 8.903437e-01 0.000000e+00 4.552891e-01
    outer loop
      vertex 4.875000e+00 -4.874954e+00 8.535000e+01
      vertex 3.187501e+00 -6.562500e+00 8.865000e+01
      vertex 4.875000e+00 -8.250046e+00 8.535000e+01
    endloop
  endfacet
  facet normal -8.903437e-01 0.000000e+00 4.552891e-01
    outer loop
      vertex 3.187501e+00 -6.562500e+00 8.865000e+01
      vertex 1.499998e+00 -4.874954e+00 8.535000e+01
      vertex 1.499998e+00 -8.250046e+00 8.535000e+01
    endloop
  endfacet
  facet normal 0.000000e+00 8.903437e-01 4.552891e-01
    outer loop
      vertex 1.499998e+00 -4.874954e+00 8.535000e+01
      vertex 3.187501e+00 -6.562500e+00 8.865000e+01
      vertex 4.875000e+00 -4.874954e+00 8.535000e+01
    endloop
  endfacet
  facet normal 0.000000e+00 -8.903437e-01 4.552891e-01
    outer loop
      vertex 3.187501e+00 -6.562500e+00 8.865000e+01
      vertex 1.499998e+00 -8.250046e+00 8.535000e+01
      vertex 4.875000e+00 -8.250046e+00 8.535000e+01
    endloop
  endfacet
  facet normal 0.000000e+00 -1.000000e+00 0.000000e+00
    outer loop
      vertex 1.499998e+00 -8.250046e+00 8.535000e+01
      vertex 1.499998e+00 -8.250046e+00 8.205000e+01
      vertex 4.875000e+00 -8.250046e+00 8.535000e+01
    endloop
  endfacet
  facet normal 0.000000e+00 -1.000000e+00 0.000000e+00
    outer loop
      vertex 4.875000e+00 -8.250046e+00 8.535000e+01
      vertex 1.499998e+00 -8.250046e+00 8.205000e+01
      vertex 3.374998e+00 -8.250046e+00 8.055000e+01
    endloop
  endfacet
  facet normal 1.421085e-13 -1.000000e+00 -5.259103e-28
    outer loop
      vertex 4.875000e+00 -8.250046e+00 7.875000e+01
      vertex 3.374998e+00 -8.250046e+00 8.055000e+01
      vertex 3.374998e+00 -8.250046e+00 7.875000e+01
    endloop
  endfacet
  facet normal 1.033519e-13 -1.000000e+00 -3.229740e-14
    outer loop
      vertex 4.875000e+00 -8.250046e+00 7.875000e+01
      vertex 4.875000e+00 -8.250046e+00 8.535000e+01
      vertex 3.374998e+00 -8.250046e+00 8.055000e+01
    endloop
  endfacet
  facet normal 0.000000e+00 -1.000000e+00 0.000000e+00
    outer loop
      vertex 1.499998e+00 -8.250046e+00 8.205000e+01
      vertex 1.499998e+00 -8.250046e+00 8.055000e+01
      vertex 3.374998e+00 -8.250046e+00 8.055000e+01
    endloop
  endfacet
  facet normal -1.000000e+00 -0.000000e+00 -0.000000e+00
    outer loop
      vertex 1.499998e+00 -4.874954e+00 8.535000e+01
      vertex 1.499998e+00 -4.874954e+00 8.205000e+01
      vertex 1.499998e+00 -8.250046e+00 8.535000e+01
    endloop
  endfacet
  facet normal -1.000000e+00 -0.000000e+00 -0.000000e+00
    outer loop
      vertex 1.499998e+00 -8.250046e+00 8.535000e+01
      vertex 1.499998e+00 -4.874954e+00 8.205000e+01
      vertex 1.499998e+00 -8.250046e+00 8.205000e+01
    endloop
  endfacet
  facet normal 1.000000e+00 0.000000e+00 0.000000e+00
    outer loop
      vertex 4.875000e+00 -8.250046e+00 8.535000e+01
      vertex 4.875000e+00 -8.250046e+00 7.875000e+01
      vertex 4.875000e+00 -4.874954e+00 8.535000e+01
    endloop
  endfacet
  facet normal 1.000000e+00 0.000000e+00 0.000000e+00
    outer loop
      vertex 4.875000e+00 -4.874954e+00 8.535000e+01
      vertex 4.875000e+00 -8.250046e+00 7.875000e+01
      vertex 4.875000e+00 -4.874954e+00 7.875000e+01
    endloop
  endfacet
  facet normal 1.000000e+00 0.000000e+00 -2.277381e-16
    outer loop
      vertex 4.875000e+00 -4.874954e+00 7.875000e+01
      vertex 4.875000e+00 -8.250046e+00 7.875000e+01
      vertex 4.875000e+00 -9.750023e+00 4.950000e+01
    endloop
  endfacet
  facet normal 1.000000e+00 -1.044916e-15 -5.358543e-17
    outer loop
      vertex 4.875000e+00 -3.374977e+00 4.950000e+01
      vertex 4.875000e+00 -4.874954e+00 7.875000e+01
      vertex 4.875000e+00 -9.750023e+00 4.950000e+01
    endloop
  endfacet
  facet normal 1.000000e+00 0.000000e+00 0.000000e+00
    outer loop
      vertex 4.875000e+00 -3.374977e+00 4.950000e+01
      vertex 4.875000e+00 -3.374977e+00 7.875000e+01
      vertex 4.875000e+00 -4.874954e+00 7.875000e+01
    endloop
  endfacet
  facet normal 1.000000e+00 -4.440893e-15 0.000000e+00
    outer loop
      vertex 4.875000e+00 -8.250046e+00 7.875000e+01
      vertex 4.875000e+00 -9.750023e+00 7.875000e+01
      vertex 4.875000e+00 -9.750023e+00 4.950000e+01
    endloop
  endfacet
  facet normal 8.903435e-01 0.000000e+00 4.552893e-01
    outer loop
      vertex -1.499999e+00 -4.874954e+00 8.535000e+01
      vertex -3.187502e+00 -6.562500e+00 8.865000e+01
      vertex -1.499999e+00 -8.250046e+00 8.535000e+01
    endloop
  endfacet
  facet normal -8.903435e-01 0.000000e+00 4.552893e-01
    outer loop
      vertex -3.187502e+00 -6.562500e+00 8.865000e+01
      vertex -4.875002e+00 -4.874954e+00 8.535000e+01
      vertex -4.875002e+00 -8.250046e+00 8.535000e+01
    endloop
  endfacet
  facet normal 0.000000e+00 8.903435e-01 4.552893e-01
    outer loop
      vertex -4.875002e+00 -4.874954e+00 8.535000e+01
      vertex -3.187502e+00 -6.562500e+00 8.865000e+01
      vertex -1.499999e+00 -4.874954e+00 8.535000e+01
    endloop
  endfacet
  facet normal 0.000000e+00 -8.903435e-01 4.552893e-01
    outer loop
      vertex -3.187502e+00 -6.562500e+00 8.865000e+01
      vertex -4.875002e+00 -8.250046e+00 8.535000e+01
      vertex -1.499999e+00 -8.250046e+00 8.535000e+01
    endloop
  endfacet
  facet normal 0.000000e+00 -1.000000e+00 0.000000e+00
    outer loop
      vertex -4.875002e+00 -8.250046e+00 7.875000e+01
      vertex -3.374999e+00 -8.250046e+00 8.055000e+01
      vertex -4.875002e+00 -8.250046e+00 8.535000e+01
    endloop
  endfacet
  facet normal 0.000000e+00 -1.000000e+00 0.000000e+00
    outer loop
      vertex -4.875002e+00 -8.250046e+00 7.875000e+01
      vertex -3.374999e+00 -8.250046e+00 7.875000e+01
      vertex -3.374999e+00 -8.250046e+00 8.055000e+01
    endloop
  endfacet
  facet normal 0.000000e+00 -1.000000e+00 0.000000e+00
    outer loop
      vertex -1.499999e+00 -8.250046e+00 8.055000e+01
      vertex -1.499999e+00 -8.250046e+00 8.205000e+01
      vertex -3.374999e+00 -8.250046e+00 8.055000e+01
    endloop
  endfacet
  facet normal 0.000000e+00 -1.000000e+00 0.000000e+00
    outer loop
      vertex -3.374999e+00 -8.250046e+00 8.055000e+01
      vertex -1.499999e+00 -8.250046e+00 8.205000e+01
      vertex -4.875002e+00 -8.250046e+00 8.535000e+01
    endloop
  endfacet
  facet normal 0.000000e+00 -1.000000e+00 0.000000e+00
    outer loop
      vertex -4.875002e+00 -8.250046e+00 8.535000e+01
      vertex -1.499999e+00 -8.250046e+00 8.205000e+01
      vertex -1.499999e+00 -8.250046e+00 8.535000e+01
    endloop
  endfacet
  facet normal -1.000000e+00 -0.000000e+00 -0.000000e+00
    outer loop
      vertex -4.875002e+00 -4.874954e+00 8.535000e+01
      vertex -4.875002e+00 -4.874954e+00 7.875000e+01
      vertex -4.875002e+00 -8.250046e+00 8.535000e+01
    endloop
  endfacet
  facet normal -1.000000e+00 -0.000000e+00 -0.000000e+00
    outer loop
      vertex -4.875002e+00 -8.250046e+00 8.535000e+01
      vertex -4.875002e+00 -4.874954e+00 7.875000e+01
      vertex -4.875002e+00 -8.250046e+00 7.875000e+01
    endloop
  endfacet
  facet normal -1.000000e+00 0.000000e+00 0.000000e+00
    outer loop
      vertex -4.875002e+00 -8.250046e+00 7.875000e+01
      vertex -4.875002e+00 -4.874954e+00 7.875000e+01
      vertex -4.875002e+00 -9.750023e+00 4.950000e+01
    endloop
  endfacet
  facet normal -1.000000e+00 0.000000e+00 0.000000e+00
    outer loop
      vertex -4.875002e+00 -9.750023e+00 7.875000e+01
      vertex -4.875002e+00 -8.250046e+00 7.875000e+01
      vertex -4.875002e+00 -9.750023e+00 4.950000e+01
    endloop
  endfacet
  facet normal -1.000000e+00 -0.000000e+00 -0.000000e+00
    outer loop
      vertex -4.875002e+00 -3.374977e+00 7.875000e+01
      vertex -4.875002e+00 -3.374977e+00 4.950000e+01
      vertex -4.875002e+00 -4.874954e+00 7.875000e+01
    endloop
  endfacet
  facet normal -1.000000e+00 -0.000000e+00 -0.000000e+00
    outer loop
      vertex -4.875002e+00 -4.874954e+00 7.875000e+01
      vertex -4.875002e+00 -3.374977e+00 4.950000e+01
      vertex -4.875002e+00 -9.750023e+00 4.950000e+01
    endloop
  endfacet
  facet normal 1.000000e+00 0.000000e+00 0.000000e+00
    outer loop
      vertex -1.499999e+00 -8.250046e+00 8.535000e+01
      vertex -1.499999e+00 -8.250046e+00 8.205000e+01
      vertex -1.499999e+00 -4.874954e+00 8.535000e+01
    endloop
  endfacet
  facet normal 1.000000e+00 0.000000e+00 0.000000e+00
    outer loop
      vertex -1.499999e+00 -4.874954e+00 8.535000e+01
      vertex -1.499999e+00 -8.250046e+00 8.205000e+01
      vertex -1.499999e+00 -4.874954e+00 8.205000e+01
    endloop
  endfacet
endsolid Default
