solid Buckle
facet normal 0.0 0.0 3.9999988898635486e-05
	outer loop
		vertex 0.02800000086426735 0.016499999910593033 0.03999996557831764
		vertex 0.020000001415610313 0.016499999910593033 0.03999996557831764
		vertex 0.02800000086426735 0.011500000953674316 0.03999996557831764
	endloop
endfacet
facet normal 0.0 0.0 3.9999988898635486e-05
	outer loop
		vertex 0.02800000086426735 0.011500000953674316 0.03999996557831764
		vertex 0.020000001415610313 0.016499999910593033 0.03999996557831764
		vertex 0.020000001415610313 0.011500000953674316 0.03999996557831764
	endloop
endfacet
facet normal -0.0 1.0 0.0
	outer loop
		vertex 0.020000001415610313 0.016499999910593033 0.03999996557831764
		vertex 0.02800000086426735 0.016499999910593033 0.03999996557831764
		vertex 0.02800000086426735 0.016499999910593033 -3.725290298461914e-08
	endloop
endfacet
facet normal -0.0 1.0 0.0
	outer loop
		vertex 0.020000001415610313 0.016499999910593033 0.004999963566660881
		vertex 0.020000001415610313 0.016499999910593033 0.03999996557831764
		vertex 0.02800000086426735 0.016499999910593033 -3.725290298461914e-08
	endloop
endfacet
facet normal -0.0 1.0 0.0
	outer loop
		vertex -0.02800000086426735 0.016499999910593033 0.03999996557831764
		vertex -0.020000001415610313 0.016499999910593033 0.03999996557831764
		vertex -0.02800000086426735 0.016499999910593033 -3.725290298461914e-08
	endloop
endfacet
facet normal 0.0 1.0 0.0
	outer loop
		vertex -0.02800000086426735 0.016499999910593033 -3.725290298461914e-08
		vertex -0.020000001415610313 0.016499999910593033 0.004999963566660881
		vertex 0.02800000086426735 0.016499999910593033 -3.725290298461914e-08
	endloop
endfacet
facet normal -0.0 1.0 0.0
	outer loop
		vertex -0.020000001415610313 0.016499999910593033 0.004999963566660881
		vertex 0.020000001415610313 0.016499999910593033 0.004999963566660881
		vertex 0.02800000086426735 0.016499999910593033 -3.725290298461914e-08
	endloop
endfacet
facet normal 0.0 1.0 0.0
	outer loop
		vertex -0.020000001415610313 0.016499999910593033 0.03999996557831764
		vertex -0.020000001415610313 0.016499999910593033 0.004999963566660881
		vertex -0.02800000086426735 0.016499999910593033 -3.725290298461914e-08
	endloop
endfacet
facet normal 1.0 0.0 0.0
	outer loop
		vertex 0.02800000086426735 0.016499999910593033 0.03999996557831764
		vertex 0.02800000086426735 0.011500000953674316 0.03999996557831764
		vertex 0.02800000086426735 0.016499999910593033 -3.725290298461914e-08
	endloop
endfacet
facet normal 1.0 0.0 0.0
	outer loop
		vertex 0.02800000086426735 0.016499999910593033 -3.725290298461914e-08
		vertex 0.02800000086426735 0.011500000953674316 0.03999996557831764
		vertex 0.02800000086426735 0.011500000953674316 0.004999963566660881
	endloop
endfacet
facet normal 1.0 0.0 0.0
	outer loop
		vertex 0.02800000086426735 0.016499999910593033 -3.725290298461914e-08
		vertex 0.02800000086426735 0.011500000953674316 0.004999963566660881
		vertex 0.02800000086426735 -0.011500000953674316 0.004999963566660881
	endloop
endfacet
facet normal 1.0 0.0 -0.0
	outer loop
		vertex 0.02800000086426735 -0.011500000953674316 0.004999963566660881
		vertex 0.02800000086426735 -0.011500000953674316 0.03999996557831764
		vertex 0.02800000086426735 -0.016499999910593033 0.03999996557831764
	endloop
endfacet
facet normal 1.0 0.0 0.0
	outer loop
		vertex 0.02800000086426735 -0.011500000953674316 0.004999963566660881
		vertex 0.02800000086426735 -0.016499999910593033 0.03999996557831764
		vertex 0.02800000086426735 -0.016499999910593033 -3.725290298461914e-08
	endloop
endfacet
facet normal 1.0 0.0 0.0
	outer loop
		vertex 0.02800000086426735 -0.011500000953674316 0.004999963566660881
		vertex 0.02800000086426735 -0.016499999910593033 -3.725290298461914e-08
		vertex 0.02800000086426735 0.016499999910593033 -3.725290298461914e-08
	endloop
endfacet
facet normal 0.0 -1.0 0.0
	outer loop
		vertex 0.020000001415610313 0.011500000953674316 0.004999963566660881
		vertex 0.02800000086426735 0.011500000953674316 0.004999963566660881
		vertex 0.020000001415610313 0.011500000953674316 0.03999996557831764
	endloop
endfacet
facet normal 0.0 -1.0 0.0
	outer loop
		vertex 0.020000001415610313 0.011500000953674316 0.03999996557831764
		vertex 0.02800000086426735 0.011500000953674316 0.004999963566660881
		vertex 0.02800000086426735 0.011500000953674316 0.03999996557831764
	endloop
endfacet
facet normal -1.0 0.0 0.0
	outer loop
		vertex 0.020000001415610313 0.011500000953674316 0.03999996557831764
		vertex 0.020000001415610313 0.016499999910593033 0.03999996557831764
		vertex 0.020000001415610313 0.016499999910593033 0.004999963566660881
	endloop
endfacet
facet normal -1.0 0.0 0.0
	outer loop
		vertex 0.020000001415610313 0.011500000953674316 0.004999963566660881
		vertex 0.020000001415610313 0.011500000953674316 0.03999996557831764
		vertex 0.020000001415610313 0.016499999910593033 0.004999963566660881
	endloop
endfacet
facet normal 0.0 0.0 1.0
	outer loop
		vertex -0.020000001415610313 0.011500000953674316 0.004999963566660881
		vertex 0.020000001415610313 0.011500000953674316 0.004999963566660881
		vertex -0.020000001415610313 0.016499999910593033 0.004999963566660881
	endloop
endfacet
facet normal -0.0 0.0 1.0
	outer loop
		vertex -0.020000001415610313 0.016499999910593033 0.004999963566660881
		vertex 0.020000001415610313 0.011500000953674316 0.004999963566660881
		vertex 0.020000001415610313 0.016499999910593033 0.004999963566660881
	endloop
endfacet
facet normal 1.0 0.0 0.0
	outer loop
		vertex -0.020000001415610313 0.016499999910593033 0.03999996557831764
		vertex -0.020000001415610313 0.011500000953674316 0.03999996557831764
		vertex -0.020000001415610313 0.016499999910593033 0.004999963566660881
	endloop
endfacet
facet normal 1.0 0.0 0.0
	outer loop
		vertex -0.020000001415610313 0.016499999910593033 0.004999963566660881
		vertex -0.020000001415610313 0.011500000953674316 0.03999996557831764
		vertex -0.020000001415610313 0.011500000953674316 0.004999963566660881
	endloop
endfacet
facet normal 0.0 0.0 3.9999988898635486e-05
	outer loop
		vertex -0.020000001415610313 0.016499999910593033 0.03999996557831764
		vertex -0.02800000086426735 0.016499999910593033 0.03999996557831764
		vertex -0.020000001415610313 0.011500000953674316 0.03999996557831764
	endloop
endfacet
facet normal 0.0 0.0 3.9999988898635486e-05
	outer loop
		vertex -0.020000001415610313 0.011500000953674316 0.03999996557831764
		vertex -0.02800000086426735 0.016499999910593033 0.03999996557831764
		vertex -0.02800000086426735 0.011500000953674316 0.03999996557831764
	endloop
endfacet
facet normal -1.0 0.0 0.0
	outer loop
		vertex -0.02800000086426735 0.011500000953674316 0.03999996557831764
		vertex -0.02800000086426735 0.016499999910593033 0.03999996557831764
		vertex -0.02800000086426735 0.016499999910593033 -3.725290298461914e-08
	endloop
endfacet
facet normal -1.0 0.0 0.0
	outer loop
		vertex -0.02800000086426735 0.011500000953674316 0.004999963566660881
		vertex -0.02800000086426735 0.011500000953674316 0.03999996557831764
		vertex -0.02800000086426735 0.016499999910593033 -3.725290298461914e-08
	endloop
endfacet
facet normal -1.0 0.0 0.0
	outer loop
		vertex -0.02800000086426735 -0.016499999910593033 0.03999996557831764
		vertex -0.02800000086426735 -0.011500000953674316 0.03999996557831764
		vertex -0.02800000086426735 -0.016499999910593033 -3.725290298461914e-08
	endloop
endfacet
facet normal -1.0 0.0 0.0
	outer loop
		vertex -0.02800000086426735 -0.016499999910593033 -3.725290298461914e-08
		vertex -0.02800000086426735 -0.011500000953674316 0.004999963566660881
		vertex -0.02800000086426735 0.016499999910593033 -3.725290298461914e-08
	endloop
endfacet
facet normal -1.0 0.0 0.0
	outer loop
		vertex -0.02800000086426735 -0.011500000953674316 0.004999963566660881
		vertex -0.02800000086426735 0.011500000953674316 0.004999963566660881
		vertex -0.02800000086426735 0.016499999910593033 -3.725290298461914e-08
	endloop
endfacet
facet normal -1.0 0.0 -0.0
	outer loop
		vertex -0.02800000086426735 -0.011500000953674316 0.03999996557831764
		vertex -0.02800000086426735 -0.011500000953674316 0.004999963566660881
		vertex -0.02800000086426735 -0.016499999910593033 -3.725290298461914e-08
	endloop
endfacet
facet normal 0.0 0.0 -1.0
	outer loop
		vertex -0.02800000086426735 0.016499999910593033 -3.725290298461914e-08
		vertex 0.02800000086426735 0.016499999910593033 -3.725290298461914e-08
		vertex 0.02800000086426735 -0.016499999910593033 -3.725290298461914e-08
	endloop
endfacet
facet normal 0.0 0.0 -1.0
	outer loop
		vertex -0.02800000086426735 -0.016499999910593033 -3.725290298461914e-08
		vertex -0.02800000086426735 0.016499999910593033 -3.725290298461914e-08
		vertex 0.02800000086426735 -0.016499999910593033 -3.725290298461914e-08
	endloop
endfacet
facet normal -0.0 -1.0 -0.0
	outer loop
		vertex 0.02800000086426735 -0.016499999910593033 0.03999996557831764
		vertex 0.020000001415610313 -0.016499999910593033 0.03999996557831764
		vertex 0.02800000086426735 -0.016499999910593033 -3.725290298461914e-08
	endloop
endfacet
facet normal 0.0 -1.0 0.0
	outer loop
		vertex 0.02800000086426735 -0.016499999910593033 -3.725290298461914e-08
		vertex 0.020000001415610313 -0.016499999910593033 0.03999996557831764
		vertex 0.020000001415610313 -0.016499999910593033 0.004999963566660881
	endloop
endfacet
facet normal 0.0 -1.0 0.0
	outer loop
		vertex 0.02800000086426735 -0.016499999910593033 -3.725290298461914e-08
		vertex 0.020000001415610313 -0.016499999910593033 0.004999963566660881
		vertex -0.020000001415610313 -0.016499999910593033 0.004999963566660881
	endloop
endfacet
facet normal 0.0 -1.0 0.0
	outer loop
		vertex -0.020000001415610313 -0.016499999910593033 0.004999963566660881
		vertex -0.020000001415610313 -0.016499999910593033 0.03999996557831764
		vertex -0.02800000086426735 -0.016499999910593033 0.03999996557831764
	endloop
endfacet
facet normal -0.0 -1.0 0.0
	outer loop
		vertex -0.020000001415610313 -0.016499999910593033 0.004999963566660881
		vertex -0.02800000086426735 -0.016499999910593033 0.03999996557831764
		vertex -0.02800000086426735 -0.016499999910593033 -3.725290298461914e-08
	endloop
endfacet
facet normal 0.0 -1.0 -0.0
	outer loop
		vertex -0.020000001415610313 -0.016499999910593033 0.004999963566660881
		vertex -0.02800000086426735 -0.016499999910593033 -3.725290298461914e-08
		vertex 0.02800000086426735 -0.016499999910593033 -3.725290298461914e-08
	endloop
endfacet
facet normal 0.0 0.0 3.9999988898635486e-05
	outer loop
		vertex 0.02800000086426735 -0.011500000953674316 0.03999996557831764
		vertex 0.020000001415610313 -0.011500000953674316 0.03999996557831764
		vertex 0.02800000086426735 -0.016499999910593033 0.03999996557831764
	endloop
endfacet
facet normal 0.0 0.0 3.9999988898635486e-05
	outer loop
		vertex 0.02800000086426735 -0.016499999910593033 0.03999996557831764
		vertex 0.020000001415610313 -0.011500000953674316 0.03999996557831764
		vertex 0.020000001415610313 -0.016499999910593033 0.03999996557831764
	endloop
endfacet
facet normal 0.0 1.0 0.0
	outer loop
		vertex 0.02800000086426735 -0.011500000953674316 0.004999963566660881
		vertex 0.020000001415610313 -0.011500000953674316 0.004999963566660881
		vertex 0.020000001415610313 -0.011500000953674316 0.03999996557831764
	endloop
endfacet
facet normal 0.0 1.0 0.0
	outer loop
		vertex 0.02800000086426735 -0.011500000953674316 0.03999996557831764
		vertex 0.02800000086426735 -0.011500000953674316 0.004999963566660881
		vertex 0.020000001415610313 -0.011500000953674316 0.03999996557831764
	endloop
endfacet
facet normal -0.0 0.0 1.0
	outer loop
		vertex -0.02800000086426735 0.011500000953674316 0.004999963566660881
		vertex -0.02800000086426735 -0.011500000953674316 0.004999963566660881
		vertex -0.020000001415610313 0.011500000953674316 0.004999963566660881
	endloop
endfacet
facet normal -0.0 0.0 1.0
	outer loop
		vertex -0.020000001415610313 0.011500000953674316 0.004999963566660881
		vertex -0.02800000086426735 -0.011500000953674316 0.004999963566660881
		vertex 0.020000001415610313 0.011500000953674316 0.004999963566660881
	endloop
endfacet
facet normal 0.0 0.0 1.0
	outer loop
		vertex 0.020000001415610313 0.011500000953674316 0.004999963566660881
		vertex -0.02800000086426735 -0.011500000953674316 0.004999963566660881
		vertex -0.020000001415610313 -0.011500000953674316 0.004999963566660881
	endloop
endfacet
facet normal 0.0 0.0 1.0
	outer loop
		vertex 0.020000001415610313 0.011500000953674316 0.004999963566660881
		vertex -0.020000001415610313 -0.011500000953674316 0.004999963566660881
		vertex 0.020000001415610313 -0.011500000953674316 0.004999963566660881
	endloop
endfacet
facet normal 0.0 0.0 1.0
	outer loop
		vertex 0.020000001415610313 0.011500000953674316 0.004999963566660881
		vertex 0.020000001415610313 -0.011500000953674316 0.004999963566660881
		vertex 0.02800000086426735 -0.011500000953674316 0.004999963566660881
	endloop
endfacet
facet normal -0.0 0.0 1.0
	outer loop
		vertex 0.020000001415610313 0.011500000953674316 0.004999963566660881
		vertex 0.02800000086426735 -0.011500000953674316 0.004999963566660881
		vertex 0.02800000086426735 0.011500000953674316 0.004999963566660881
	endloop
endfacet
facet normal 0.0 -1.0 0.0
	outer loop
		vertex -0.02800000086426735 0.011500000953674316 0.004999963566660881
		vertex -0.020000001415610313 0.011500000953674316 0.004999963566660881
		vertex -0.02800000086426735 0.011500000953674316 0.03999996557831764
	endloop
endfacet
facet normal 0.0 -1.0 0.0
	outer loop
		vertex -0.02800000086426735 0.011500000953674316 0.03999996557831764
		vertex -0.020000001415610313 0.011500000953674316 0.004999963566660881
		vertex -0.020000001415610313 0.011500000953674316 0.03999996557831764
	endloop
endfacet
facet normal 0.0 1.0 0.0
	outer loop
		vertex -0.020000001415610313 -0.011500000953674316 0.004999963566660881
		vertex -0.02800000086426735 -0.011500000953674316 0.004999963566660881
		vertex -0.02800000086426735 -0.011500000953674316 0.03999996557831764
	endloop
endfacet
facet normal 0.0 1.0 0.0
	outer loop
		vertex -0.020000001415610313 -0.011500000953674316 0.03999996557831764
		vertex -0.020000001415610313 -0.011500000953674316 0.004999963566660881
		vertex -0.02800000086426735 -0.011500000953674316 0.03999996557831764
	endloop
endfacet
facet normal 0.0 0.0 3.9999988898635486e-05
	outer loop
		vertex -0.020000001415610313 -0.011500000953674316 0.03999996557831764
		vertex -0.02800000086426735 -0.011500000953674316 0.03999996557831764
		vertex -0.020000001415610313 -0.016499999910593033 0.03999996557831764
	endloop
endfacet
facet normal 0.0 0.0 3.9999988898635486e-05
	outer loop
		vertex -0.020000001415610313 -0.016499999910593033 0.03999996557831764
		vertex -0.02800000086426735 -0.011500000953674316 0.03999996557831764
		vertex -0.02800000086426735 -0.016499999910593033 0.03999996557831764
	endloop
endfacet
facet normal 1.0 0.0 0.0
	outer loop
		vertex -0.020000001415610313 -0.011500000953674316 0.03999996557831764
		vertex -0.020000001415610313 -0.016499999910593033 0.03999996557831764
		vertex -0.020000001415610313 -0.011500000953674316 0.004999963566660881
	endloop
endfacet
facet normal 1.0 0.0 0.0
	outer loop
		vertex -0.020000001415610313 -0.011500000953674316 0.004999963566660881
		vertex -0.020000001415610313 -0.016499999910593033 0.03999996557831764
		vertex -0.020000001415610313 -0.016499999910593033 0.004999963566660881
	endloop
endfacet
facet normal 0.0 0.0 1.0
	outer loop
		vertex -0.020000001415610313 -0.016499999910593033 0.004999963566660881
		vertex 0.020000001415610313 -0.016499999910593033 0.004999963566660881
		vertex -0.020000001415610313 -0.011500000953674316 0.004999963566660881
	endloop
endfacet
facet normal -0.0 0.0 1.0
	outer loop
		vertex -0.020000001415610313 -0.011500000953674316 0.004999963566660881
		vertex 0.020000001415610313 -0.016499999910593033 0.004999963566660881
		vertex 0.020000001415610313 -0.011500000953674316 0.004999963566660881
	endloop
endfacet
facet normal -1.0 0.0 0.0
	outer loop
		vertex 0.020000001415610313 -0.016499999910593033 0.03999996557831764
		vertex 0.020000001415610313 -0.011500000953674316 0.03999996557831764
		vertex 0.020000001415610313 -0.011500000953674316 0.004999963566660881
	endloop
endfacet
facet normal -1.0 0.0 0.0
	outer loop
		vertex 0.020000001415610313 -0.016499999910593033 0.004999963566660881
		vertex 0.020000001415610313 -0.016499999910593033 0.03999996557831764
		vertex 0.020000001415610313 -0.011500000953674316 0.004999963566660881
	endloop
endfacet
endsolid Buckle