solid Default
  facet normal 1.836970e-16 2.449294e-16 1.000000e+00
    outer loop
      vertex 2.800000e+01 1.650000e+01 4.000000e+01
      vertex 2.000000e+01 1.650000e+01 4.000000e+01
      vertex 2.800000e+01 1.150000e+01 4.000000e+01
    endloop
  endfacet
  facet normal 1.836970e-16 2.449294e-16 1.000000e+00
    outer loop
      vertex 2.800000e+01 1.150000e+01 4.000000e+01
      vertex 2.000000e+01 1.650000e+01 4.000000e+01
      vertex 2.000000e+01 1.150000e+01 4.000000e+01
    endloop
  endfacet
  facet normal 1.224647e-16 1.000000e+00 -2.449294e-16
    outer loop
      vertex 2.000000e+01 1.650000e+01 4.000000e+01
      vertex 2.800000e+01 1.650000e+01 4.000000e+01
      vertex 2.800000e+01 1.650000e+01 0.000000e+00
    endloop
  endfacet
  facet normal 1.224647e-16 1.000000e+00 -2.449294e-16
    outer loop
      vertex 2.000000e+01 1.650000e+01 5.000000e+00
      vertex 2.000000e+01 1.650000e+01 4.000000e+01
      vertex 2.800000e+01 1.650000e+01 0.000000e+00
    endloop
  endfacet
  facet normal 1.224647e-16 1.000000e+00 -2.449294e-16
    outer loop
      vertex -2.800000e+01 1.650000e+01 4.000000e+01
      vertex -2.000000e+01 1.650000e+01 4.000000e+01
      vertex -2.800000e+01 1.650000e+01 1.421085e-14
    endloop
  endfacet
  facet normal 1.224647e-16 1.000000e+00 -2.449294e-16
    outer loop
      vertex -2.800000e+01 1.650000e+01 1.421085e-14
      vertex -2.000000e+01 1.650000e+01 5.000000e+00
      vertex 2.800000e+01 1.650000e+01 0.000000e+00
    endloop
  endfacet
  facet normal 1.224647e-16 1.000000e+00 -2.449294e-16
    outer loop
      vertex -2.000000e+01 1.650000e+01 5.000000e+00
      vertex 2.000000e+01 1.650000e+01 5.000000e+00
      vertex 2.800000e+01 1.650000e+01 0.000000e+00
    endloop
  endfacet
  facet normal 1.224647e-16 1.000000e+00 -2.449294e-16
    outer loop
      vertex -2.000000e+01 1.650000e+01 4.000000e+01
      vertex -2.000000e+01 1.650000e+01 5.000000e+00
      vertex -2.800000e+01 1.650000e+01 1.421085e-14
    endloop
  endfacet
  facet normal 1.000000e+00 -1.224647e-16 -1.836970e-16
    outer loop
      vertex 2.800000e+01 1.650000e+01 4.000000e+01
      vertex 2.800000e+01 1.150000e+01 4.000000e+01
      vertex 2.800000e+01 1.650000e+01 0.000000e+00
    endloop
  endfacet
  facet normal 1.000000e+00 -1.224647e-16 -1.836970e-16
    outer loop
      vertex 2.800000e+01 1.650000e+01 0.000000e+00
      vertex 2.800000e+01 1.150000e+01 4.000000e+01
      vertex 2.800000e+01 1.150000e+01 5.000000e+00
    endloop
  endfacet
  facet normal 1.000000e+00 -1.224647e-16 -1.836970e-16
    outer loop
      vertex 2.800000e+01 1.650000e+01 0.000000e+00
      vertex 2.800000e+01 1.150000e+01 5.000000e+00
      vertex 2.800000e+01 -1.150000e+01 5.000000e+00
    endloop
  endfacet
  facet normal 1.000000e+00 -1.224647e-16 -1.836970e-16
    outer loop
      vertex 2.800000e+01 -1.150000e+01 5.000000e+00
      vertex 2.800000e+01 -1.150000e+01 4.000000e+01
      vertex 2.800000e+01 -1.650000e+01 4.000000e+01
    endloop
  endfacet
  facet normal 1.000000e+00 -1.224647e-16 -1.836970e-16
    outer loop
      vertex 2.800000e+01 -1.150000e+01 5.000000e+00
      vertex 2.800000e+01 -1.650000e+01 4.000000e+01
      vertex 2.800000e+01 -1.650000e+01 7.105427e-15
    endloop
  endfacet
  facet normal 1.000000e+00 -1.224647e-16 -1.836970e-16
    outer loop
      vertex 2.800000e+01 -1.150000e+01 5.000000e+00
      vertex 2.800000e+01 -1.650000e+01 7.105427e-15
      vertex 2.800000e+01 1.650000e+01 0.000000e+00
    endloop
  endfacet
  facet normal -1.224647e-16 -1.000000e+00 2.449294e-16
    outer loop
      vertex 2.000000e+01 1.150000e+01 5.000000e+00
      vertex 2.800000e+01 1.150000e+01 5.000000e+00
      vertex 2.000000e+01 1.150000e+01 4.000000e+01
    endloop
  endfacet
  facet normal -1.224647e-16 -1.000000e+00 2.449294e-16
    outer loop
      vertex 2.000000e+01 1.150000e+01 4.000000e+01
      vertex 2.800000e+01 1.150000e+01 5.000000e+00
      vertex 2.800000e+01 1.150000e+01 4.000000e+01
    endloop
  endfacet
  facet normal -1.000000e+00 1.224647e-16 1.836970e-16
    outer loop
      vertex 2.000000e+01 1.150000e+01 4.000000e+01
      vertex 2.000000e+01 1.650000e+01 4.000000e+01
      vertex 2.000000e+01 1.650000e+01 5.000000e+00
    endloop
  endfacet
  facet normal -1.000000e+00 1.224647e-16 1.836970e-16
    outer loop
      vertex 2.000000e+01 1.150000e+01 5.000000e+00
      vertex 2.000000e+01 1.150000e+01 4.000000e+01
      vertex 2.000000e+01 1.650000e+01 5.000000e+00
    endloop
  endfacet
  facet normal 1.836970e-16 2.449294e-16 1.000000e+00
    outer loop
      vertex -2.000000e+01 1.150000e+01 5.000000e+00
      vertex 2.000000e+01 1.150000e+01 5.000000e+00
      vertex -2.000000e+01 1.650000e+01 5.000000e+00
    endloop
  endfacet
  facet normal 1.836970e-16 2.449294e-16 1.000000e+00
    outer loop
      vertex -2.000000e+01 1.650000e+01 5.000000e+00
      vertex 2.000000e+01 1.150000e+01 5.000000e+00
      vertex 2.000000e+01 1.650000e+01 5.000000e+00
    endloop
  endfacet
  facet normal 1.000000e+00 -1.224647e-16 -1.836970e-16
    outer loop
      vertex -2.000000e+01 1.650000e+01 4.000000e+01
      vertex -2.000000e+01 1.150000e+01 4.000000e+01
      vertex -2.000000e+01 1.650000e+01 5.000000e+00
    endloop
  endfacet
  facet normal 1.000000e+00 -1.224647e-16 -1.836970e-16
    outer loop
      vertex -2.000000e+01 1.650000e+01 5.000000e+00
      vertex -2.000000e+01 1.150000e+01 4.000000e+01
      vertex -2.000000e+01 1.150000e+01 5.000000e+00
    endloop
  endfacet
  facet normal 1.836970e-16 2.449294e-16 1.000000e+00
    outer loop
      vertex -2.000000e+01 1.650000e+01 4.000000e+01
      vertex -2.800000e+01 1.650000e+01 4.000000e+01
      vertex -2.000000e+01 1.150000e+01 4.000000e+01
    endloop
  endfacet
  facet normal 1.836970e-16 2.449294e-16 1.000000e+00
    outer loop
      vertex -2.000000e+01 1.150000e+01 4.000000e+01
      vertex -2.800000e+01 1.650000e+01 4.000000e+01
      vertex -2.800000e+01 1.150000e+01 4.000000e+01
    endloop
  endfacet
  facet normal -1.000000e+00 1.224647e-16 1.836970e-16
    outer loop
      vertex -2.800000e+01 1.150000e+01 4.000000e+01
      vertex -2.800000e+01 1.650000e+01 4.000000e+01
      vertex -2.800000e+01 1.650000e+01 1.421085e-14
    endloop
  endfacet
  facet normal -1.000000e+00 1.224647e-16 1.836970e-16
    outer loop
      vertex -2.800000e+01 1.150000e+01 5.000000e+00
      vertex -2.800000e+01 1.150000e+01 4.000000e+01
      vertex -2.800000e+01 1.650000e+01 1.421085e-14
    endloop
  endfacet
  facet normal -1.000000e+00 1.224647e-16 1.836970e-16
    outer loop
      vertex -2.800000e+01 -1.650000e+01 4.000000e+01
      vertex -2.800000e+01 -1.150000e+01 4.000000e+01
      vertex -2.800000e+01 -1.650000e+01 2.131628e-14
    endloop
  endfacet
  facet normal -1.000000e+00 1.224647e-16 1.836970e-16
    outer loop
      vertex -2.800000e+01 -1.650000e+01 2.131628e-14
      vertex -2.800000e+01 -1.150000e+01 5.000000e+00
      vertex -2.800000e+01 1.650000e+01 1.421085e-14
    endloop
  endfacet
  facet normal -1.000000e+00 1.224647e-16 1.836970e-16
    outer loop
      vertex -2.800000e+01 -1.150000e+01 5.000000e+00
      vertex -2.800000e+01 1.150000e+01 5.000000e+00
      vertex -2.800000e+01 1.650000e+01 1.421085e-14
    endloop
  endfacet
  facet normal -1.000000e+00 1.224647e-16 1.836970e-16
    outer loop
      vertex -2.800000e+01 -1.150000e+01 4.000000e+01
      vertex -2.800000e+01 -1.150000e+01 5.000000e+00
      vertex -2.800000e+01 -1.650000e+01 2.131628e-14
    endloop
  endfacet
  facet normal -1.836970e-16 -2.449294e-16 -1.000000e+00
    outer loop
      vertex -2.800000e+01 1.650000e+01 1.421085e-14
      vertex 2.800000e+01 1.650000e+01 0.000000e+00
      vertex 2.800000e+01 -1.650000e+01 7.105427e-15
    endloop
  endfacet
  facet normal -1.836970e-16 -2.449294e-16 -1.000000e+00
    outer loop
      vertex -2.800000e+01 -1.650000e+01 2.131628e-14
      vertex -2.800000e+01 1.650000e+01 1.421085e-14
      vertex 2.800000e+01 -1.650000e+01 7.105427e-15
    endloop
  endfacet
  facet normal -1.224647e-16 -1.000000e+00 2.449294e-16
    outer loop
      vertex 2.800000e+01 -1.650000e+01 4.000000e+01
      vertex 2.000000e+01 -1.650000e+01 4.000000e+01
      vertex 2.800000e+01 -1.650000e+01 7.105427e-15
    endloop
  endfacet
  facet normal -1.224647e-16 -1.000000e+00 2.449294e-16
    outer loop
      vertex 2.800000e+01 -1.650000e+01 7.105427e-15
      vertex 2.000000e+01 -1.650000e+01 4.000000e+01
      vertex 2.000000e+01 -1.650000e+01 5.000000e+00
    endloop
  endfacet
  facet normal -1.224647e-16 -1.000000e+00 2.449294e-16
    outer loop
      vertex 2.800000e+01 -1.650000e+01 7.105427e-15
      vertex 2.000000e+01 -1.650000e+01 5.000000e+00
      vertex -2.000000e+01 -1.650000e+01 5.000000e+00
    endloop
  endfacet
  facet normal -1.224647e-16 -1.000000e+00 2.449294e-16
    outer loop
      vertex -2.000000e+01 -1.650000e+01 5.000000e+00
      vertex -2.000000e+01 -1.650000e+01 4.000000e+01
      vertex -2.800000e+01 -1.650000e+01 4.000000e+01
    endloop
  endfacet
  facet normal -1.224647e-16 -1.000000e+00 2.449294e-16
    outer loop
      vertex -2.000000e+01 -1.650000e+01 5.000000e+00
      vertex -2.800000e+01 -1.650000e+01 4.000000e+01
      vertex -2.800000e+01 -1.650000e+01 2.131628e-14
    endloop
  endfacet
  facet normal -1.224647e-16 -1.000000e+00 2.449294e-16
    outer loop
      vertex -2.000000e+01 -1.650000e+01 5.000000e+00
      vertex -2.800000e+01 -1.650000e+01 2.131628e-14
      vertex 2.800000e+01 -1.650000e+01 7.105427e-15
    endloop
  endfacet
  facet normal 1.836970e-16 2.449294e-16 1.000000e+00
    outer loop
      vertex 2.800000e+01 -1.150000e+01 4.000000e+01
      vertex 2.000000e+01 -1.150000e+01 4.000000e+01
      vertex 2.800000e+01 -1.650000e+01 4.000000e+01
    endloop
  endfacet
  facet normal 1.836970e-16 2.449294e-16 1.000000e+00
    outer loop
      vertex 2.800000e+01 -1.650000e+01 4.000000e+01
      vertex 2.000000e+01 -1.150000e+01 4.000000e+01
      vertex 2.000000e+01 -1.650000e+01 4.000000e+01
    endloop
  endfacet
  facet normal 1.224647e-16 1.000000e+00 -2.449294e-16
    outer loop
      vertex 2.800000e+01 -1.150000e+01 5.000000e+00
      vertex 2.000000e+01 -1.150000e+01 5.000000e+00
      vertex 2.000000e+01 -1.150000e+01 4.000000e+01
    endloop
  endfacet
  facet normal 1.224647e-16 1.000000e+00 -2.449294e-16
    outer loop
      vertex 2.800000e+01 -1.150000e+01 4.000000e+01
      vertex 2.800000e+01 -1.150000e+01 5.000000e+00
      vertex 2.000000e+01 -1.150000e+01 4.000000e+01
    endloop
  endfacet
  facet normal 1.836970e-16 2.449294e-16 1.000000e+00
    outer loop
      vertex -2.800000e+01 1.150000e+01 5.000000e+00
      vertex -2.800000e+01 -1.150000e+01 5.000000e+00
      vertex -2.000000e+01 1.150000e+01 5.000000e+00
    endloop
  endfacet
  facet normal 1.836970e-16 2.449294e-16 1.000000e+00
    outer loop
      vertex -2.000000e+01 1.150000e+01 5.000000e+00
      vertex -2.800000e+01 -1.150000e+01 5.000000e+00
      vertex 2.000000e+01 1.150000e+01 5.000000e+00
    endloop
  endfacet
  facet normal 1.836970e-16 2.449294e-16 1.000000e+00
    outer loop
      vertex 2.000000e+01 1.150000e+01 5.000000e+00
      vertex -2.800000e+01 -1.150000e+01 5.000000e+00
      vertex -2.000000e+01 -1.150000e+01 5.000000e+00
    endloop
  endfacet
  facet normal 1.836970e-16 2.449294e-16 1.000000e+00
    outer loop
      vertex 2.000000e+01 1.150000e+01 5.000000e+00
      vertex -2.000000e+01 -1.150000e+01 5.000000e+00
      vertex 2.000000e+01 -1.150000e+01 5.000000e+00
    endloop
  endfacet
  facet normal 1.836970e-16 2.449294e-16 1.000000e+00
    outer loop
      vertex 2.000000e+01 1.150000e+01 5.000000e+00
      vertex 2.000000e+01 -1.150000e+01 5.000000e+00
      vertex 2.800000e+01 -1.150000e+01 5.000000e+00
    endloop
  endfacet
  facet normal 1.836970e-16 2.449294e-16 1.000000e+00
    outer loop
      vertex 2.000000e+01 1.150000e+01 5.000000e+00
      vertex 2.800000e+01 -1.150000e+01 5.000000e+00
      vertex 2.800000e+01 1.150000e+01 5.000000e+00
    endloop
  endfacet
  facet normal -1.224647e-16 -1.000000e+00 2.449294e-16
    outer loop
      vertex -2.800000e+01 1.150000e+01 5.000000e+00
      vertex -2.000000e+01 1.150000e+01 5.000000e+00
      vertex -2.800000e+01 1.150000e+01 4.000000e+01
    endloop
  endfacet
  facet normal -1.224647e-16 -1.000000e+00 2.449294e-16
    outer loop
      vertex -2.800000e+01 1.150000e+01 4.000000e+01
      vertex -2.000000e+01 1.150000e+01 5.000000e+00
      vertex -2.000000e+01 1.150000e+01 4.000000e+01
    endloop
  endfacet
  facet normal 1.224647e-16 1.000000e+00 -2.449294e-16
    outer loop
      vertex -2.000000e+01 -1.150000e+01 5.000000e+00
      vertex -2.800000e+01 -1.150000e+01 5.000000e+00
      vertex -2.800000e+01 -1.150000e+01 4.000000e+01
    endloop
  endfacet
  facet normal 1.224647e-16 1.000000e+00 -2.449294e-16
    outer loop
      vertex -2.000000e+01 -1.150000e+01 4.000000e+01
      vertex -2.000000e+01 -1.150000e+01 5.000000e+00
      vertex -2.800000e+01 -1.150000e+01 4.000000e+01
    endloop
  endfacet
  facet normal 1.836970e-16 2.449294e-16 1.000000e+00
    outer loop
      vertex -2.000000e+01 -1.150000e+01 4.000000e+01
      vertex -2.800000e+01 -1.150000e+01 4.000000e+01
      vertex -2.000000e+01 -1.650000e+01 4.000000e+01
    endloop
  endfacet
  facet normal 1.836970e-16 2.449294e-16 1.000000e+00
    outer loop
      vertex -2.000000e+01 -1.650000e+01 4.000000e+01
      vertex -2.800000e+01 -1.150000e+01 4.000000e+01
      vertex -2.800000e+01 -1.650000e+01 4.000000e+01
    endloop
  endfacet
  facet normal 1.000000e+00 -1.224647e-16 -1.836970e-16
    outer loop
      vertex -2.000000e+01 -1.150000e+01 4.000000e+01
      vertex -2.000000e+01 -1.650000e+01 4.000000e+01
      vertex -2.000000e+01 -1.150000e+01 5.000000e+00
    endloop
  endfacet
  facet normal 1.000000e+00 -1.224647e-16 -1.836970e-16
    outer loop
      vertex -2.000000e+01 -1.150000e+01 5.000000e+00
      vertex -2.000000e+01 -1.650000e+01 4.000000e+01
      vertex -2.000000e+01 -1.650000e+01 5.000000e+00
    endloop
  endfacet
  facet normal 1.836970e-16 2.449294e-16 1.000000e+00
    outer loop
      vertex -2.000000e+01 -1.650000e+01 5.000000e+00
      vertex 2.000000e+01 -1.650000e+01 5.000000e+00
      vertex -2.000000e+01 -1.150000e+01 5.000000e+00
    endloop
  endfacet
  facet normal 1.836970e-16 2.449294e-16 1.000000e+00
    outer loop
      vertex -2.000000e+01 -1.150000e+01 5.000000e+00
      vertex 2.000000e+01 -1.650000e+01 5.000000e+00
      vertex 2.000000e+01 -1.150000e+01 5.000000e+00
    endloop
  endfacet
  facet normal -1.000000e+00 1.224647e-16 1.836970e-16
    outer loop
      vertex 2.000000e+01 -1.650000e+01 4.000000e+01
      vertex 2.000000e+01 -1.150000e+01 4.000000e+01
      vertex 2.000000e+01 -1.150000e+01 5.000000e+00
    endloop
  endfacet
  facet normal -1.000000e+00 1.224647e-16 1.836970e-16
    outer loop
      vertex 2.000000e+01 -1.650000e+01 5.000000e+00
      vertex 2.000000e+01 -1.650000e+01 4.000000e+01
      vertex 2.000000e+01 -1.150000e+01 5.000000e+00
    endloop
  endfacet
endsolid Default
