solid Disconnected_torus
facet normal -1.9534999999999995e-05 -9.21100000000001e-06 0.0
	outer loop
		vertex 0.0176031 0.00949368 0.0
		vertex 0.0185242 0.00754018 0.0
		vertex 0.0185242 0.00754018 0.01
	endloop
endfacet
facet normal -1.8428200000000004e-05 -1.1263000000000002e-05 0.0
	outer loop
		vertex 0.0164768 0.0113365 0.0
		vertex 0.0176031 0.00949368 0.0
		vertex 0.0176031 0.00949368 0.01
	endloop
endfacet
facet normal -1.7106000000000015e-05 -1.3185000000000003e-05 0.0
	outer loop
		vertex 0.0151583 0.0130471 0.0
		vertex 0.0164768 0.0113365 0.0
		vertex 0.0164768 0.0113365 0.01
	endloop
endfacet
facet normal -1.5584e-05 -1.4952999999999997e-05 0.0
	outer loop
		vertex 0.013663 0.0146055 0.0
		vertex 0.0151583 0.0130471 0.0
		vertex 0.0151583 0.0130471 0.01
	endloop
endfacet
facet normal -1.3881999999999992e-05 -1.6544999999999998e-05 0.0
	outer loop
		vertex 0.0120085 0.0159937 0.0
		vertex 0.013663 0.0146055 0.0
		vertex 0.013663 0.0146055 0.01
	endloop
endfacet
facet normal -1.2016000000000007e-05 -1.7947e-05 0.0
	outer loop
		vertex 0.0102138 0.0171953 0.0
		vertex 0.0120085 0.0159937 0.0
		vertex 0.0120085 0.0159937 0.01
	endloop
endfacet
facet normal -1.0011000000000013e-05 -1.913680000000001e-05 0.0
	outer loop
		vertex 0.00830012 0.0181964 0.0
		vertex 0.0102138 0.0171953 0.0
		vertex 0.0102138 0.0171953 0.01
	endloop
endfacet
facet normal -7.888999999999987e-06 -2.0105199999999992e-05 0.0
	outer loop
		vertex 0.0062896 0.0189853 0.0
		vertex 0.00830012 0.0181964 0.0
		vertex 0.00830012 0.0181964 0.01
	endloop
endfacet
facet normal -5.6749999999999855e-06 -2.08386e-05 0.0
	outer loop
		vertex 0.00420574 0.0195528 0.0
		vertex 0.0062896 0.0189853 0.0
		vertex 0.0062896 0.0189853 0.01
	endloop
endfacet
facet normal -3.39500000000003e-06 -2.1329000000000005e-05 0.0
	outer loop
		vertex 0.00207284 0.0198923 0.0
		vertex 0.00420574 0.0195528 0.0
		vertex 0.00420574 0.0195528 0.01
	endloop
endfacet
facet normal -1.0749999999999997e-06 -2.1570784e-05 0.0
	outer loop
		vertex -8.42384e-05 0.0199998 0.0
		vertex 0.00207284 0.0198923 0.0
		vertex 0.00207284 0.0198923 0.01
	endloop
endfacet
facet normal 1.257000000000029e-06 -2.1560916e-05 0.0
	outer loop
		vertex -0.00224033 0.0198741 0.0
		vertex -8.42384e-05 0.0199998 0.0
		vertex -8.42384e-05 0.0199998 0.01
	endloop
endfacet
facet normal 3.573999999999973e-06 -2.12997e-05 0.0
	outer loop
		vertex -0.0043703 0.0195167 0.0
		vertex -0.00224033 0.0198741 0.0
		vertex -0.00224033 0.0198741 0.01
	endloop
endfacet
facet normal 5.851000000000016e-06 -2.07901e-05 0.0
	outer loop
		vertex -0.00644931 0.0189316 0.0
		vertex -0.0043703 0.0195167 0.0
		vertex -0.0043703 0.0195167 0.01
	endloop
endfacet
facet normal 8.05799999999999e-06 -2.0038e-05 0.0
	outer loop
		vertex -0.00845311 0.0181258 0.0
		vertex -0.00644931 0.0189316 0.0
		vertex -0.00644931 0.0189316 0.01
	endloop
endfacet
facet normal 1.0171999999999993e-05 -1.905190000000001e-05 0.0
	outer loop
		vertex -0.0103583 0.0171086 0.0
		vertex -0.00845311 0.0181258 0.0
		vertex -0.00845311 0.0181258 0.01
	endloop
endfacet
facet normal 1.216700000000001e-05 -1.7844999999999996e-05 0.0
	outer loop
		vertex -0.0121428 0.0158919 0.0
		vertex -0.0103583 0.0171086 0.0
		vertex -0.0103583 0.0171086 0.01
	endloop
endfacet
facet normal 1.4020000000000005e-05 -1.6428e-05 0.0
	outer loop
		vertex -0.0137856 0.0144899 0.0
		vertex -0.0121428 0.0158919 0.0
		vertex -0.0121428 0.0158919 0.01
	endloop
endfacet
facet normal 1.5709999999999994e-05 -1.4821000000000001e-05 0.0
	outer loop
		vertex -0.0152677 0.0129189 0.0
		vertex -0.0137856 0.0144899 0.0
		vertex -0.0137856 0.0144899 0.01
	endloop
endfacet
facet normal 1.7216000000000003e-05 -1.3040000000000014e-05 0.0
	outer loop
		vertex -0.0165717 0.0111973 0.0
		vertex -0.0152677 0.0129189 0.0
		vertex -0.0152677 0.0129189 0.01
	endloop
endfacet
facet normal 1.8522399999999997e-05 -1.1107999999999986e-05 0.0
	outer loop
		vertex -0.0176825 0.00934506 0.0
		vertex -0.0165717 0.0111973 0.0
		vertex -0.0165717 0.0111973 0.01
	endloop
endfacet
facet normal 1.9611900000000008e-05 -9.045999999999984e-06 0.0
	outer loop
		vertex -0.0185871 0.00738387 0.0
		vertex -0.0176825 0.00934506 0.0
		vertex -0.0176825 0.00934506 0.01
	endloop
endfacet
facet normal 2.0473000000000002e-05 -6.878000000000023e-06 0.0
	outer loop
		vertex -0.0192749 0.00533657 0.0
		vertex -0.0185871 0.00738387 0.0
		vertex -0.0185871 0.00738387 0.01
	endloop
endfacet
facet normal 2.1095299999999998e-05 -4.629999999999981e-06 0.0
	outer loop
		vertex -0.0197379 0.00322704 0.0
		vertex -0.0192749 0.00533657 0.0
		vertex -0.0192749 0.00533657 0.01
	endloop
endfacet
facet normal 2.14716e-05 -2.3290000000000115e-06 0.0
	outer loop
		vertex -0.0199708 0.00107988 0.0
		vertex -0.0197379 0.00322704 0.0
		vertex -0.0197379 0.00322704 0.01
	endloop
endfacet
facet normal 2.15976e-05 0.0 0.0
	outer loop
		vertex -0.0199708 -0.00107988 0.0
		vertex -0.0199708 0.00107988 0.0
		vertex -0.0199708 0.00107988 0.01
	endloop
endfacet
facet normal 2.14716e-05 2.3290000000000115e-06 0.0
	outer loop
		vertex -0.0197379 -0.00322704 0.0
		vertex -0.0199708 -0.00107988 0.0
		vertex -0.0199708 -0.00107988 0.01
	endloop
endfacet
facet normal 2.1095299999999998e-05 4.629999999999981e-06 0.0
	outer loop
		vertex -0.0192749 -0.00533657 0.0
		vertex -0.0197379 -0.00322704 0.0
		vertex -0.0197379 -0.00322704 0.01
	endloop
endfacet
facet normal 2.0473000000000002e-05 6.878000000000023e-06 0.0
	outer loop
		vertex -0.0185871 -0.00738387 0.0
		vertex -0.0192749 -0.00533657 0.0
		vertex -0.0192749 -0.00533657 0.01
	endloop
endfacet
facet normal 1.9611900000000008e-05 9.045999999999984e-06 0.0
	outer loop
		vertex -0.0176825 -0.00934506 0.0
		vertex -0.0185871 -0.00738387 0.0
		vertex -0.0185871 -0.00738387 0.01
	endloop
endfacet
facet normal 1.8522399999999997e-05 1.1107999999999986e-05 0.0
	outer loop
		vertex -0.0165717 -0.0111973 0.0
		vertex -0.0176825 -0.00934506 0.0
		vertex -0.0176825 -0.00934506 0.01
	endloop
endfacet
facet normal 1.7216000000000003e-05 1.3040000000000014e-05 0.0
	outer loop
		vertex -0.0152677 -0.0129189 0.0
		vertex -0.0165717 -0.0111973 0.0
		vertex -0.0165717 -0.0111973 0.01
	endloop
endfacet
facet normal 1.5709999999999994e-05 1.4821000000000001e-05 0.0
	outer loop
		vertex -0.0137856 -0.0144899 0.0
		vertex -0.0152677 -0.0129189 0.0
		vertex -0.0152677 -0.0129189 0.01
	endloop
endfacet
facet normal 1.4020000000000005e-05 1.6428e-05 0.0
	outer loop
		vertex -0.0121428 -0.0158919 0.0
		vertex -0.0137856 -0.0144899 0.0
		vertex -0.0137856 -0.0144899 0.01
	endloop
endfacet
facet normal 1.216700000000001e-05 1.7844999999999996e-05 0.0
	outer loop
		vertex -0.0103583 -0.0171086 0.0
		vertex -0.0121428 -0.0158919 0.0
		vertex -0.0121428 -0.0158919 0.01
	endloop
endfacet
facet normal 1.0171999999999993e-05 1.905190000000001e-05 0.0
	outer loop
		vertex -0.00845311 -0.0181258 0.0
		vertex -0.0103583 -0.0171086 0.0
		vertex -0.0103583 -0.0171086 0.01
	endloop
endfacet
facet normal 8.05799999999999e-06 2.0038e-05 0.0
	outer loop
		vertex -0.00644931 -0.0189316 0.0
		vertex -0.00845311 -0.0181258 0.0
		vertex -0.00845311 -0.0181258 0.01
	endloop
endfacet
facet normal 5.851000000000016e-06 2.07901e-05 0.0
	outer loop
		vertex -0.0043703 -0.0195167 0.0
		vertex -0.00644931 -0.0189316 0.0
		vertex -0.00644931 -0.0189316 0.01
	endloop
endfacet
facet normal 3.573999999999973e-06 2.12997e-05 0.0
	outer loop
		vertex -0.00224033 -0.0198741 0.0
		vertex -0.0043703 -0.0195167 0.0
		vertex -0.0043703 -0.0195167 0.01
	endloop
endfacet
facet normal 1.257000000000029e-06 2.1560916e-05 0.0
	outer loop
		vertex -8.42384e-05 -0.0199998 0.0
		vertex -0.00224033 -0.0198741 0.0
		vertex -0.00224033 -0.0198741 0.01
	endloop
endfacet
facet normal -1.0749999999999997e-06 2.1570784e-05 0.0
	outer loop
		vertex 0.00207284 -0.0198923 0.0
		vertex -8.42384e-05 -0.0199998 0.0
		vertex -8.42384e-05 -0.0199998 0.01
	endloop
endfacet
facet normal -3.39500000000003e-06 2.1329000000000005e-05 0.0
	outer loop
		vertex 0.00420574 -0.0195528 0.0
		vertex 0.00207284 -0.0198923 0.0
		vertex 0.00207284 -0.0198923 0.01
	endloop
endfacet
facet normal -5.6749999999999855e-06 2.08386e-05 0.0
	outer loop
		vertex 0.0062896 -0.0189853 0.0
		vertex 0.00420574 -0.0195528 0.0
		vertex 0.00420574 -0.0195528 0.01
	endloop
endfacet
facet normal -7.888999999999987e-06 2.0105199999999992e-05 0.0
	outer loop
		vertex 0.00830012 -0.0181964 0.0
		vertex 0.0062896 -0.0189853 0.0
		vertex 0.0062896 -0.0189853 0.01
	endloop
endfacet
facet normal -1.0011000000000013e-05 1.913680000000001e-05 0.0
	outer loop
		vertex 0.0102138 -0.0171953 0.0
		vertex 0.00830012 -0.0181964 0.0
		vertex 0.00830012 -0.0181964 0.01
	endloop
endfacet
facet normal -1.2016000000000007e-05 1.7947e-05 0.0
	outer loop
		vertex 0.0120085 -0.0159937 0.0
		vertex 0.0102138 -0.0171953 0.0
		vertex 0.0102138 -0.0171953 0.01
	endloop
endfacet
facet normal -1.3881999999999992e-05 1.6544999999999998e-05 0.0
	outer loop
		vertex 0.013663 -0.0146055 0.0
		vertex 0.0120085 -0.0159937 0.0
		vertex 0.0120085 -0.0159937 0.01
	endloop
endfacet
facet normal -1.5584e-05 1.4952999999999997e-05 0.0
	outer loop
		vertex 0.0151583 -0.0130471 0.0
		vertex 0.013663 -0.0146055 0.0
		vertex 0.013663 -0.0146055 0.01
	endloop
endfacet
facet normal -1.7106000000000015e-05 1.3185000000000003e-05 0.0
	outer loop
		vertex 0.0164768 -0.0113365 0.0
		vertex 0.0151583 -0.0130471 0.0
		vertex 0.0151583 -0.0130471 0.01
	endloop
endfacet
facet normal -1.8428200000000004e-05 1.1263000000000002e-05 0.0
	outer loop
		vertex 0.0176031 -0.00949368 0.0
		vertex 0.0164768 -0.0113365 0.0
		vertex 0.0164768 -0.0113365 0.01
	endloop
endfacet
facet normal -1.9534999999999995e-05 9.21100000000001e-06 0.0
	outer loop
		vertex 0.0185242 -0.00754018 0.0
		vertex 0.0176031 -0.00949368 0.0
		vertex 0.0176031 -0.00949368 0.01
	endloop
endfacet
facet normal -1.9534999999999995e-05 9.21100000000001e-06 0.0
	outer loop
		vertex 0.0176031 -0.00949368 0.01
		vertex 0.0185242 -0.00754018 0.01
		vertex 0.0185242 -0.00754018 0.0
	endloop
endfacet
facet normal -1.8428200000000004e-05 1.1263000000000002e-05 0.0
	outer loop
		vertex 0.0164768 -0.0113365 0.01
		vertex 0.0176031 -0.00949368 0.01
		vertex 0.0176031 -0.00949368 0.0
	endloop
endfacet
facet normal -1.7106000000000015e-05 1.3185000000000003e-05 0.0
	outer loop
		vertex 0.0151583 -0.0130471 0.01
		vertex 0.0164768 -0.0113365 0.01
		vertex 0.0164768 -0.0113365 0.0
	endloop
endfacet
facet normal -1.5584e-05 1.4952999999999997e-05 0.0
	outer loop
		vertex 0.013663 -0.0146055 0.01
		vertex 0.0151583 -0.0130471 0.01
		vertex 0.0151583 -0.0130471 0.0
	endloop
endfacet
facet normal -1.3881999999999992e-05 1.6544999999999998e-05 0.0
	outer loop
		vertex 0.0120085 -0.0159937 0.01
		vertex 0.013663 -0.0146055 0.01
		vertex 0.013663 -0.0146055 0.0
	endloop
endfacet
facet normal -1.2016000000000007e-05 1.7947e-05 0.0
	outer loop
		vertex 0.0102138 -0.0171953 0.01
		vertex 0.0120085 -0.0159937 0.01
		vertex 0.0120085 -0.0159937 0.0
	endloop
endfacet
facet normal -1.0011000000000013e-05 1.913680000000001e-05 0.0
	outer loop
		vertex 0.00830012 -0.0181964 0.01
		vertex 0.0102138 -0.0171953 0.01
		vertex 0.0102138 -0.0171953 0.0
	endloop
endfacet
facet normal -7.888999999999987e-06 2.0105199999999992e-05 0.0
	outer loop
		vertex 0.0062896 -0.0189853 0.01
		vertex 0.00830012 -0.0181964 0.01
		vertex 0.00830012 -0.0181964 0.0
	endloop
endfacet
facet normal -5.6749999999999855e-06 2.08386e-05 0.0
	outer loop
		vertex 0.00420574 -0.0195528 0.01
		vertex 0.0062896 -0.0189853 0.01
		vertex 0.0062896 -0.0189853 0.0
	endloop
endfacet
facet normal -3.39500000000003e-06 2.1329000000000005e-05 0.0
	outer loop
		vertex 0.00207284 -0.0198923 0.01
		vertex 0.00420574 -0.0195528 0.01
		vertex 0.00420574 -0.0195528 0.0
	endloop
endfacet
facet normal -1.0749999999999997e-06 2.1570784e-05 0.0
	outer loop
		vertex -8.42384e-05 -0.0199998 0.01
		vertex 0.00207284 -0.0198923 0.01
		vertex 0.00207284 -0.0198923 0.0
	endloop
endfacet
facet normal 1.257000000000029e-06 2.1560916e-05 0.0
	outer loop
		vertex -0.00224033 -0.0198741 0.01
		vertex -8.42384e-05 -0.0199998 0.01
		vertex -8.42384e-05 -0.0199998 0.0
	endloop
endfacet
facet normal 3.573999999999973e-06 2.12997e-05 0.0
	outer loop
		vertex -0.0043703 -0.0195167 0.01
		vertex -0.00224033 -0.0198741 0.01
		vertex -0.00224033 -0.0198741 0.0
	endloop
endfacet
facet normal 5.851000000000016e-06 2.07901e-05 0.0
	outer loop
		vertex -0.00644931 -0.0189316 0.01
		vertex -0.0043703 -0.0195167 0.01
		vertex -0.0043703 -0.0195167 0.0
	endloop
endfacet
facet normal 8.05799999999999e-06 2.0038e-05 0.0
	outer loop
		vertex -0.00845311 -0.0181258 0.01
		vertex -0.00644931 -0.0189316 0.01
		vertex -0.00644931 -0.0189316 0.0
	endloop
endfacet
facet normal 1.0171999999999993e-05 1.905190000000001e-05 0.0
	outer loop
		vertex -0.0103583 -0.0171086 0.01
		vertex -0.00845311 -0.0181258 0.01
		vertex -0.00845311 -0.0181258 0.0
	endloop
endfacet
facet normal 1.216700000000001e-05 1.7844999999999996e-05 0.0
	outer loop
		vertex -0.0121428 -0.0158919 0.01
		vertex -0.0103583 -0.0171086 0.01
		vertex -0.0103583 -0.0171086 0.0
	endloop
endfacet
facet normal 1.4020000000000005e-05 1.6428e-05 0.0
	outer loop
		vertex -0.0137856 -0.0144899 0.01
		vertex -0.0121428 -0.0158919 0.01
		vertex -0.0121428 -0.0158919 0.0
	endloop
endfacet
facet normal 1.5709999999999994e-05 1.4821000000000001e-05 0.0
	outer loop
		vertex -0.0152677 -0.0129189 0.01
		vertex -0.0137856 -0.0144899 0.01
		vertex -0.0137856 -0.0144899 0.0
	endloop
endfacet
facet normal 1.7216000000000003e-05 1.3040000000000014e-05 0.0
	outer loop
		vertex -0.0165717 -0.0111973 0.01
		vertex -0.0152677 -0.0129189 0.01
		vertex -0.0152677 -0.0129189 0.0
	endloop
endfacet
facet normal 1.8522399999999997e-05 1.1107999999999986e-05 0.0
	outer loop
		vertex -0.0176825 -0.00934506 0.01
		vertex -0.0165717 -0.0111973 0.01
		vertex -0.0165717 -0.0111973 0.0
	endloop
endfacet
facet normal 1.9611900000000008e-05 9.045999999999984e-06 0.0
	outer loop
		vertex -0.0185871 -0.00738387 0.01
		vertex -0.0176825 -0.00934506 0.01
		vertex -0.0176825 -0.00934506 0.0
	endloop
endfacet
facet normal 2.0473000000000002e-05 6.878000000000023e-06 0.0
	outer loop
		vertex -0.0192749 -0.00533657 0.01
		vertex -0.0185871 -0.00738387 0.01
		vertex -0.0185871 -0.00738387 0.0
	endloop
endfacet
facet normal 2.1095299999999998e-05 4.629999999999981e-06 0.0
	outer loop
		vertex -0.0197379 -0.00322704 0.01
		vertex -0.0192749 -0.00533657 0.01
		vertex -0.0192749 -0.00533657 0.0
	endloop
endfacet
facet normal 2.14716e-05 2.3290000000000115e-06 0.0
	outer loop
		vertex -0.0199708 -0.00107988 0.01
		vertex -0.0197379 -0.00322704 0.01
		vertex -0.0197379 -0.00322704 0.0
	endloop
endfacet
facet normal 2.15976e-05 0.0 0.0
	outer loop
		vertex -0.0199708 0.00107988 0.01
		vertex -0.0199708 -0.00107988 0.01
		vertex -0.0199708 -0.00107988 0.0
	endloop
endfacet
facet normal 2.14716e-05 -2.3290000000000115e-06 0.0
	outer loop
		vertex -0.0197379 0.00322704 0.01
		vertex -0.0199708 0.00107988 0.01
		vertex -0.0199708 0.00107988 0.0
	endloop
endfacet
facet normal 2.1095299999999998e-05 -4.629999999999981e-06 0.0
	outer loop
		vertex -0.0192749 0.00533657 0.01
		vertex -0.0197379 0.00322704 0.01
		vertex -0.0197379 0.00322704 0.0
	endloop
endfacet
facet normal 2.0473000000000002e-05 -6.878000000000023e-06 0.0
	outer loop
		vertex -0.0185871 0.00738387 0.01
		vertex -0.0192749 0.00533657 0.01
		vertex -0.0192749 0.00533657 0.0
	endloop
endfacet
facet normal 1.9611900000000008e-05 -9.045999999999984e-06 0.0
	outer loop
		vertex -0.0176825 0.00934506 0.01
		vertex -0.0185871 0.00738387 0.01
		vertex -0.0185871 0.00738387 0.0
	endloop
endfacet
facet normal 1.8522399999999997e-05 -1.1107999999999986e-05 0.0
	outer loop
		vertex -0.0165717 0.0111973 0.01
		vertex -0.0176825 0.00934506 0.01
		vertex -0.0176825 0.00934506 0.0
	endloop
endfacet
facet normal 1.7216000000000003e-05 -1.3040000000000014e-05 0.0
	outer loop
		vertex -0.0152677 0.0129189 0.01
		vertex -0.0165717 0.0111973 0.01
		vertex -0.0165717 0.0111973 0.0
	endloop
endfacet
facet normal 1.5709999999999994e-05 -1.4821000000000001e-05 0.0
	outer loop
		vertex -0.0137856 0.0144899 0.01
		vertex -0.0152677 0.0129189 0.01
		vertex -0.0152677 0.0129189 0.0
	endloop
endfacet
facet normal 1.4020000000000005e-05 -1.6428e-05 0.0
	outer loop
		vertex -0.0121428 0.0158919 0.01
		vertex -0.0137856 0.0144899 0.01
		vertex -0.0137856 0.0144899 0.0
	endloop
endfacet
facet normal 1.216700000000001e-05 -1.7844999999999996e-05 0.0
	outer loop
		vertex -0.0103583 0.0171086 0.01
		vertex -0.0121428 0.0158919 0.01
		vertex -0.0121428 0.0158919 0.0
	endloop
endfacet
facet normal 1.0171999999999993e-05 -1.905190000000001e-05 0.0
	outer loop
		vertex -0.00845311 0.0181258 0.01
		vertex -0.0103583 0.0171086 0.01
		vertex -0.0103583 0.0171086 0.0
	endloop
endfacet
facet normal 8.05799999999999e-06 -2.0038e-05 0.0
	outer loop
		vertex -0.00644931 0.0189316 0.01
		vertex -0.00845311 0.0181258 0.01
		vertex -0.00845311 0.0181258 0.0
	endloop
endfacet
facet normal 5.851000000000016e-06 -2.07901e-05 0.0
	outer loop
		vertex -0.0043703 0.0195167 0.01
		vertex -0.00644931 0.0189316 0.01
		vertex -0.00644931 0.0189316 0.0
	endloop
endfacet
facet normal 3.573999999999973e-06 -2.12997e-05 0.0
	outer loop
		vertex -0.00224033 0.0198741 0.01
		vertex -0.0043703 0.0195167 0.01
		vertex -0.0043703 0.0195167 0.0
	endloop
endfacet
facet normal 1.257000000000029e-06 -2.1560916e-05 0.0
	outer loop
		vertex -8.42384e-05 0.0199998 0.01
		vertex -0.00224033 0.0198741 0.01
		vertex -0.00224033 0.0198741 0.0
	endloop
endfacet
facet normal -1.0749999999999997e-06 -2.1570784e-05 0.0
	outer loop
		vertex 0.00207284 0.0198923 0.01
		vertex -8.42384e-05 0.0199998 0.01
		vertex -8.42384e-05 0.0199998 0.0
	endloop
endfacet
facet normal -3.39500000000003e-06 -2.1329000000000005e-05 0.0
	outer loop
		vertex 0.00420574 0.0195528 0.01
		vertex 0.00207284 0.0198923 0.01
		vertex 0.00207284 0.0198923 0.0
	endloop
endfacet
facet normal -5.6749999999999855e-06 -2.08386e-05 0.0
	outer loop
		vertex 0.0062896 0.0189853 0.01
		vertex 0.00420574 0.0195528 0.01
		vertex 0.00420574 0.0195528 0.0
	endloop
endfacet
facet normal -7.888999999999987e-06 -2.0105199999999992e-05 0.0
	outer loop
		vertex 0.00830012 0.0181964 0.01
		vertex 0.0062896 0.0189853 0.01
		vertex 0.0062896 0.0189853 0.0
	endloop
endfacet
facet normal -1.0011000000000013e-05 -1.913680000000001e-05 0.0
	outer loop
		vertex 0.0102138 0.0171953 0.01
		vertex 0.00830012 0.0181964 0.01
		vertex 0.00830012 0.0181964 0.0
	endloop
endfacet
facet normal -1.2016000000000007e-05 -1.7947e-05 0.0
	outer loop
		vertex 0.0120085 0.0159937 0.01
		vertex 0.0102138 0.0171953 0.01
		vertex 0.0102138 0.0171953 0.0
	endloop
endfacet
facet normal -1.3881999999999992e-05 -1.6544999999999998e-05 0.0
	outer loop
		vertex 0.013663 0.0146055 0.01
		vertex 0.0120085 0.0159937 0.01
		vertex 0.0120085 0.0159937 0.0
	endloop
endfacet
facet normal -1.5584e-05 -1.4952999999999997e-05 0.0
	outer loop
		vertex 0.0151583 0.0130471 0.01
		vertex 0.013663 0.0146055 0.01
		vertex 0.013663 0.0146055 0.0
	endloop
endfacet
facet normal -1.7106000000000015e-05 -1.3185000000000003e-05 0.0
	outer loop
		vertex 0.0164768 0.0113365 0.01
		vertex 0.0151583 0.0130471 0.01
		vertex 0.0151583 0.0130471 0.0
	endloop
endfacet
facet normal -1.8428200000000004e-05 -1.1263000000000002e-05 0.0
	outer loop
		vertex 0.0176031 0.00949368 0.01
		vertex 0.0164768 0.0113365 0.01
		vertex 0.0164768 0.0113365 0.0
	endloop
endfacet
facet normal -1.9534999999999995e-05 -9.21100000000001e-06 0.0
	outer loop
		vertex 0.0185242 0.00754018 0.01
		vertex 0.0176031 0.00949368 0.01
		vertex 0.0176031 0.00949368 0.0
	endloop
endfacet
facet normal 1.8850500000000002e-05 -4.6309999999999995e-05 0.0
	outer loop
		vertex 0.0185242 0.00754018 0.0
		vertex 0.0231552 0.00942523 0.0
		vertex 0.0231552 0.00942523 0.01
	endloop
endfacet
facet normal 1.8850500000000002e-05 -4.6309999999999995e-05 0.0
	outer loop
		vertex 0.0231552 0.00942523 0.01
		vertex 0.0185242 0.00754018 0.01
		vertex 0.0185242 0.00754018 0.0
	endloop
endfacet
facet normal 2.4418700000000004e-05 -1.151300000000001e-05 0.0
	outer loop
		vertex 0.0231552 -0.00942523 0.0
		vertex 0.0231552 -0.00942523 0.01
		vertex 0.0220039 -0.0118671 0.01
	endloop
endfacet
facet normal 2.3035e-05 -1.4079000000000002e-05 0.0
	outer loop
		vertex 0.0220039 -0.0118671 0.0
		vertex 0.0220039 -0.0118671 0.01
		vertex 0.020596 -0.0141706 0.01
	endloop
endfacet
facet normal 2.1381999999999983e-05 -1.6480999999999997e-05 0.0
	outer loop
		vertex 0.020596 -0.0141706 0.0
		vertex 0.020596 -0.0141706 0.01
		vertex 0.0189479 -0.0163088 0.01
	endloop
endfacet
facet normal 1.9481000000000012e-05 -1.8690999999999984e-05 0.0
	outer loop
		vertex 0.0189479 -0.0163088 0.0
		vertex 0.0189479 -0.0163088 0.01
		vertex 0.0170788 -0.0182569 0.01
	endloop
endfacet
facet normal 1.7351999999999992e-05 -2.068200000000001e-05 0.0
	outer loop
		vertex 0.0170788 -0.0182569 0.0
		vertex 0.0170788 -0.0182569 0.01
		vertex 0.0150106 -0.0199921 0.01
	endloop
endfacet
facet normal 1.5019999999999998e-05 -2.2433000000000004e-05 0.0
	outer loop
		vertex 0.0150106 -0.0199921 0.0
		vertex 0.0150106 -0.0199921 0.01
		vertex 0.0127673 -0.0214941 0.01
	endloop
endfacet
facet normal 1.2513999999999997e-05 -2.3922000000000006e-05 0.0
	outer loop
		vertex 0.0127673 -0.0214941 0.0
		vertex 0.0127673 -0.0214941 0.01
		vertex 0.0103751 -0.0227455 0.01
	endloop
endfacet
facet normal 9.861000000000003e-06 -2.5131000000000007e-05 0.0
	outer loop
		vertex 0.0103751 -0.0227455 0.0
		vertex 0.0103751 -0.0227455 0.01
		vertex 0.007862 -0.0237316 0.01
	endloop
endfacet
facet normal 7.094000000000024e-06 -2.6048199999999992e-05 0.0
	outer loop
		vertex 0.007862 -0.0237316 0.0
		vertex 0.007862 -0.0237316 0.01
		vertex 0.00525718 -0.024441 0.01
	endloop
endfacet
facet normal 4.243999999999984e-06 -2.6661300000000002e-05 0.0
	outer loop
		vertex 0.00525718 -0.024441 0.0
		vertex 0.00525718 -0.024441 0.01
		vertex 0.00259105 -0.0248654 0.01
	endloop
endfacet
facet normal 1.343999999999998e-06 -2.6963480000000002e-05 0.0
	outer loop
		vertex 0.00259105 -0.0248654 0.0
		vertex 0.00259105 -0.0248654 0.01
		vertex -0.000105298 -0.0249998 0.01
	endloop
endfacet
facet normal -1.571000000000003e-06 -2.695122e-05 0.0
	outer loop
		vertex -0.000105298 -0.0249998 0.0
		vertex -0.000105298 -0.0249998 0.01
		vertex -0.00280042 -0.0248427 0.01
	endloop
endfacet
facet normal -4.469000000000001e-06 -2.66246e-05 0.0
	outer loop
		vertex -0.00280042 -0.0248427 0.0
		vertex -0.00280042 -0.0248427 0.01
		vertex -0.00546288 -0.0243958 0.01
	endloop
endfacet
facet normal -7.312999999999972e-06 -2.5987500000000005e-05 0.0
	outer loop
		vertex -0.00546288 -0.0243958 0.0
		vertex -0.00546288 -0.0243958 0.01
		vertex -0.00806163 -0.0236645 0.01
	endloop
endfacet
facet normal -1.0072000000000033e-05 -2.50477e-05 0.0
	outer loop
		vertex -0.00806163 -0.0236645 0.0
		vertex -0.00806163 -0.0236645 0.01
		vertex -0.0105664 -0.0226573 0.01
	endloop
endfacet
facet normal -1.2714999999999984e-05 -2.3815e-05 0.0
	outer loop
		vertex -0.0105664 -0.0226573 0.0
		vertex -0.0105664 -0.0226573 0.01
		vertex -0.0129479 -0.0213858 0.01
	endloop
endfacet
facet normal -1.5208999999999986e-05 -2.2304999999999997e-05 0.0
	outer loop
		vertex -0.0129479 -0.0213858 0.0
		vertex -0.0129479 -0.0213858 0.01
		vertex -0.0151784 -0.0198649 0.01
	endloop
endfacet
facet normal -1.7525000000000006e-05 -2.0536000000000008e-05 0.0
	outer loop
		vertex -0.0151784 -0.0198649 0.0
		vertex -0.0151784 -0.0198649 0.01
		vertex -0.017232 -0.0181124 0.01
	endloop
endfacet
facet normal -1.9637000000000022e-05 -1.8525999999999995e-05 0.0
	outer loop
		vertex -0.017232 -0.0181124 0.0
		vertex -0.017232 -0.0181124 0.01
		vertex -0.0190846 -0.0161487 0.01
	endloop
endfacet
facet normal -2.152099999999999e-05 -1.6299999999999996e-05 0.0
	outer loop
		vertex -0.0190846 -0.0161487 0.0
		vertex -0.0190846 -0.0161487 0.01
		vertex -0.0207146 -0.0139966 0.01
	endloop
endfacet
facet normal -2.3152999999999993e-05 -1.3885000000000009e-05 0.0
	outer loop
		vertex -0.0207146 -0.0139966 0.0
		vertex -0.0207146 -0.0139966 0.01
		vertex -0.0221031 -0.0116813 0.01
	endloop
endfacet
facet normal -2.4514600000000008e-05 -1.1306999999999983e-05 0.0
	outer loop
		vertex -0.0221031 -0.0116813 0.0
		vertex -0.0221031 -0.0116813 0.01
		vertex -0.0232338 -0.00922984 0.01
	endloop
endfacet
facet normal -2.5591299999999997e-05 -8.598000000000008e-06 0.0
	outer loop
		vertex -0.0232338 -0.00922984 0.0
		vertex -0.0232338 -0.00922984 0.01
		vertex -0.0240936 -0.00667071 0.01
	endloop
endfacet
facet normal -2.63691e-05 -5.788000000000009e-06 0.0
	outer loop
		vertex -0.0240936 -0.00667071 0.0
		vertex -0.0240936 -0.00667071 0.01
		vertex -0.0246724 -0.0040338 0.01
	endloop
endfacet
facet normal -2.6839499999999996e-05 -2.91099999999999e-06 0.0
	outer loop
		vertex -0.0246724 -0.0040338 0.0
		vertex -0.0246724 -0.0040338 0.01
		vertex -0.0249635 -0.00134985 0.01
	endloop
endfacet
facet normal -2.6997000000000003e-05 0.0 0.0
	outer loop
		vertex -0.0249635 -0.00134985 0.0
		vertex -0.0249635 -0.00134985 0.01
		vertex -0.0249635 0.00134985 0.01
	endloop
endfacet
facet normal -2.6839499999999996e-05 2.91099999999999e-06 0.0
	outer loop
		vertex -0.0249635 0.00134985 0.0
		vertex -0.0249635 0.00134985 0.01
		vertex -0.0246724 0.0040338 0.01
	endloop
endfacet
facet normal -2.63691e-05 5.788000000000009e-06 0.0
	outer loop
		vertex -0.0246724 0.0040338 0.0
		vertex -0.0246724 0.0040338 0.01
		vertex -0.0240936 0.00667071 0.01
	endloop
endfacet
facet normal -2.5591299999999997e-05 8.598000000000008e-06 0.0
	outer loop
		vertex -0.0240936 0.00667071 0.0
		vertex -0.0240936 0.00667071 0.01
		vertex -0.0232338 0.00922984 0.01
	endloop
endfacet
facet normal -2.4514600000000008e-05 1.1306999999999983e-05 0.0
	outer loop
		vertex -0.0232338 0.00922984 0.0
		vertex -0.0232338 0.00922984 0.01
		vertex -0.0221031 0.0116813 0.01
	endloop
endfacet
facet normal -2.3152999999999993e-05 1.3885000000000009e-05 0.0
	outer loop
		vertex -0.0221031 0.0116813 0.0
		vertex -0.0221031 0.0116813 0.01
		vertex -0.0207146 0.0139966 0.01
	endloop
endfacet
facet normal -2.152099999999999e-05 1.6299999999999996e-05 0.0
	outer loop
		vertex -0.0207146 0.0139966 0.0
		vertex -0.0207146 0.0139966 0.01
		vertex -0.0190846 0.0161487 0.01
	endloop
endfacet
facet normal -1.9637000000000022e-05 1.8525999999999995e-05 0.0
	outer loop
		vertex -0.0190846 0.0161487 0.0
		vertex -0.0190846 0.0161487 0.01
		vertex -0.017232 0.0181124 0.01
	endloop
endfacet
facet normal -1.7525000000000006e-05 2.0536000000000008e-05 0.0
	outer loop
		vertex -0.017232 0.0181124 0.0
		vertex -0.017232 0.0181124 0.01
		vertex -0.0151784 0.0198649 0.01
	endloop
endfacet
facet normal -1.5208999999999986e-05 2.2304999999999997e-05 0.0
	outer loop
		vertex -0.0151784 0.0198649 0.0
		vertex -0.0151784 0.0198649 0.01
		vertex -0.0129479 0.0213858 0.01
	endloop
endfacet
facet normal -1.2714999999999984e-05 2.3815e-05 0.0
	outer loop
		vertex -0.0129479 0.0213858 0.0
		vertex -0.0129479 0.0213858 0.01
		vertex -0.0105664 0.0226573 0.01
	endloop
endfacet
facet normal -1.0072000000000033e-05 2.50477e-05 0.0
	outer loop
		vertex -0.0105664 0.0226573 0.0
		vertex -0.0105664 0.0226573 0.01
		vertex -0.00806163 0.0236645 0.01
	endloop
endfacet
facet normal -7.312999999999972e-06 2.5987500000000005e-05 0.0
	outer loop
		vertex -0.00806163 0.0236645 0.0
		vertex -0.00806163 0.0236645 0.01
		vertex -0.00546288 0.0243958 0.01
	endloop
endfacet
facet normal -4.469000000000001e-06 2.66246e-05 0.0
	outer loop
		vertex -0.00546288 0.0243958 0.0
		vertex -0.00546288 0.0243958 0.01
		vertex -0.00280042 0.0248427 0.01
	endloop
endfacet
facet normal -1.571000000000003e-06 2.695122e-05 0.0
	outer loop
		vertex -0.00280042 0.0248427 0.0
		vertex -0.00280042 0.0248427 0.01
		vertex -0.000105298 0.0249998 0.01
	endloop
endfacet
facet normal 1.343999999999998e-06 2.6963480000000002e-05 -0.0
	outer loop
		vertex -0.000105298 0.0249998 0.0
		vertex -0.000105298 0.0249998 0.01
		vertex 0.00259105 0.0248654 0.01
	endloop
endfacet
facet normal 4.243999999999984e-06 2.6661300000000002e-05 -0.0
	outer loop
		vertex 0.00259105 0.0248654 0.0
		vertex 0.00259105 0.0248654 0.01
		vertex 0.00525718 0.024441 0.01
	endloop
endfacet
facet normal 7.094000000000024e-06 2.6048199999999992e-05 -0.0
	outer loop
		vertex 0.00525718 0.024441 0.0
		vertex 0.00525718 0.024441 0.01
		vertex 0.007862 0.0237316 0.01
	endloop
endfacet
facet normal 9.861000000000003e-06 2.5131000000000007e-05 -0.0
	outer loop
		vertex 0.007862 0.0237316 0.0
		vertex 0.007862 0.0237316 0.01
		vertex 0.0103751 0.0227455 0.01
	endloop
endfacet
facet normal 1.2513999999999997e-05 2.3922000000000006e-05 -0.0
	outer loop
		vertex 0.0103751 0.0227455 0.0
		vertex 0.0103751 0.0227455 0.01
		vertex 0.0127673 0.0214941 0.01
	endloop
endfacet
facet normal 1.5019999999999998e-05 2.2433000000000004e-05 -0.0
	outer loop
		vertex 0.0127673 0.0214941 0.0
		vertex 0.0127673 0.0214941 0.01
		vertex 0.0150106 0.0199921 0.01
	endloop
endfacet
facet normal 1.7351999999999992e-05 2.068200000000001e-05 -0.0
	outer loop
		vertex 0.0150106 0.0199921 0.0
		vertex 0.0150106 0.0199921 0.01
		vertex 0.0170788 0.0182569 0.01
	endloop
endfacet
facet normal 1.9481000000000012e-05 1.8690999999999984e-05 -0.0
	outer loop
		vertex 0.0170788 0.0182569 0.0
		vertex 0.0170788 0.0182569 0.01
		vertex 0.0189479 0.0163088 0.01
	endloop
endfacet
facet normal 2.1381999999999983e-05 1.6480999999999997e-05 -0.0
	outer loop
		vertex 0.0189479 0.0163088 0.0
		vertex 0.0189479 0.0163088 0.01
		vertex 0.020596 0.0141706 0.01
	endloop
endfacet
facet normal 2.3035e-05 1.4079000000000002e-05 -0.0
	outer loop
		vertex 0.020596 0.0141706 0.0
		vertex 0.020596 0.0141706 0.01
		vertex 0.0220039 0.0118671 0.01
	endloop
endfacet
facet normal 2.4418700000000004e-05 1.151300000000001e-05 -0.0
	outer loop
		vertex 0.0220039 0.0118671 0.0
		vertex 0.0220039 0.0118671 0.01
		vertex 0.0231552 0.00942523 0.01
	endloop
endfacet
facet normal 2.4418700000000004e-05 1.151300000000001e-05 0.0
	outer loop
		vertex 0.0231552 0.00942523 0.01
		vertex 0.0231552 0.00942523 0.0
		vertex 0.0220039 0.0118671 0.0
	endloop
endfacet
facet normal 2.3035e-05 1.4079000000000002e-05 0.0
	outer loop
		vertex 0.0220039 0.0118671 0.01
		vertex 0.0220039 0.0118671 0.0
		vertex 0.020596 0.0141706 0.0
	endloop
endfacet
facet normal 2.1381999999999983e-05 1.6480999999999997e-05 0.0
	outer loop
		vertex 0.020596 0.0141706 0.01
		vertex 0.020596 0.0141706 0.0
		vertex 0.0189479 0.0163088 0.0
	endloop
endfacet
facet normal 1.9481000000000012e-05 1.8690999999999984e-05 0.0
	outer loop
		vertex 0.0189479 0.0163088 0.01
		vertex 0.0189479 0.0163088 0.0
		vertex 0.0170788 0.0182569 0.0
	endloop
endfacet
facet normal 1.7351999999999992e-05 2.068200000000001e-05 0.0
	outer loop
		vertex 0.0170788 0.0182569 0.01
		vertex 0.0170788 0.0182569 0.0
		vertex 0.0150106 0.0199921 0.0
	endloop
endfacet
facet normal 1.5019999999999998e-05 2.2433000000000004e-05 0.0
	outer loop
		vertex 0.0150106 0.0199921 0.01
		vertex 0.0150106 0.0199921 0.0
		vertex 0.0127673 0.0214941 0.0
	endloop
endfacet
facet normal 1.2513999999999997e-05 2.3922000000000006e-05 0.0
	outer loop
		vertex 0.0127673 0.0214941 0.01
		vertex 0.0127673 0.0214941 0.0
		vertex 0.0103751 0.0227455 0.0
	endloop
endfacet
facet normal 9.861000000000003e-06 2.5131000000000007e-05 0.0
	outer loop
		vertex 0.0103751 0.0227455 0.01
		vertex 0.0103751 0.0227455 0.0
		vertex 0.007862 0.0237316 0.0
	endloop
endfacet
facet normal 7.094000000000024e-06 2.6048199999999992e-05 0.0
	outer loop
		vertex 0.007862 0.0237316 0.01
		vertex 0.007862 0.0237316 0.0
		vertex 0.00525718 0.024441 0.0
	endloop
endfacet
facet normal 4.243999999999984e-06 2.6661300000000002e-05 0.0
	outer loop
		vertex 0.00525718 0.024441 0.01
		vertex 0.00525718 0.024441 0.0
		vertex 0.00259105 0.0248654 0.0
	endloop
endfacet
facet normal 1.343999999999998e-06 2.6963480000000002e-05 0.0
	outer loop
		vertex 0.00259105 0.0248654 0.01
		vertex 0.00259105 0.0248654 0.0
		vertex -0.000105298 0.0249998 0.0
	endloop
endfacet
facet normal -1.571000000000003e-06 2.695122e-05 0.0
	outer loop
		vertex -0.000105298 0.0249998 0.01
		vertex -0.000105298 0.0249998 0.0
		vertex -0.00280042 0.0248427 0.0
	endloop
endfacet
facet normal -4.469000000000001e-06 2.66246e-05 0.0
	outer loop
		vertex -0.00280042 0.0248427 0.01
		vertex -0.00280042 0.0248427 0.0
		vertex -0.00546288 0.0243958 0.0
	endloop
endfacet
facet normal -7.312999999999972e-06 2.5987500000000005e-05 0.0
	outer loop
		vertex -0.00546288 0.0243958 0.01
		vertex -0.00546288 0.0243958 0.0
		vertex -0.00806163 0.0236645 0.0
	endloop
endfacet
facet normal -1.0072000000000033e-05 2.50477e-05 0.0
	outer loop
		vertex -0.00806163 0.0236645 0.01
		vertex -0.00806163 0.0236645 0.0
		vertex -0.0105664 0.0226573 0.0
	endloop
endfacet
facet normal -1.2714999999999984e-05 2.3815e-05 0.0
	outer loop
		vertex -0.0105664 0.0226573 0.01
		vertex -0.0105664 0.0226573 0.0
		vertex -0.0129479 0.0213858 0.0
	endloop
endfacet
facet normal -1.5208999999999986e-05 2.2304999999999997e-05 0.0
	outer loop
		vertex -0.0129479 0.0213858 0.01
		vertex -0.0129479 0.0213858 0.0
		vertex -0.0151784 0.0198649 0.0
	endloop
endfacet
facet normal -1.7525000000000006e-05 2.0536000000000008e-05 0.0
	outer loop
		vertex -0.0151784 0.0198649 0.01
		vertex -0.0151784 0.0198649 0.0
		vertex -0.017232 0.0181124 0.0
	endloop
endfacet
facet normal -1.9637000000000022e-05 1.8525999999999995e-05 0.0
	outer loop
		vertex -0.017232 0.0181124 0.01
		vertex -0.017232 0.0181124 0.0
		vertex -0.0190846 0.0161487 0.0
	endloop
endfacet
facet normal -2.152099999999999e-05 1.6299999999999996e-05 0.0
	outer loop
		vertex -0.0190846 0.0161487 0.01
		vertex -0.0190846 0.0161487 0.0
		vertex -0.0207146 0.0139966 0.0
	endloop
endfacet
facet normal -2.3152999999999993e-05 1.3885000000000009e-05 0.0
	outer loop
		vertex -0.0207146 0.0139966 0.01
		vertex -0.0207146 0.0139966 0.0
		vertex -0.0221031 0.0116813 0.0
	endloop
endfacet
facet normal -2.4514600000000008e-05 1.1306999999999983e-05 0.0
	outer loop
		vertex -0.0221031 0.0116813 0.01
		vertex -0.0221031 0.0116813 0.0
		vertex -0.0232338 0.00922984 0.0
	endloop
endfacet
facet normal -2.5591299999999997e-05 8.598000000000008e-06 0.0
	outer loop
		vertex -0.0232338 0.00922984 0.01
		vertex -0.0232338 0.00922984 0.0
		vertex -0.0240936 0.00667071 0.0
	endloop
endfacet
facet normal -2.63691e-05 5.788000000000009e-06 0.0
	outer loop
		vertex -0.0240936 0.00667071 0.01
		vertex -0.0240936 0.00667071 0.0
		vertex -0.0246724 0.0040338 0.0
	endloop
endfacet
facet normal -2.6839499999999996e-05 2.91099999999999e-06 0.0
	outer loop
		vertex -0.0246724 0.0040338 0.01
		vertex -0.0246724 0.0040338 0.0
		vertex -0.0249635 0.00134985 0.0
	endloop
endfacet
facet normal -2.6997000000000003e-05 0.0 -0.0
	outer loop
		vertex -0.0249635 0.00134985 0.01
		vertex -0.0249635 0.00134985 0.0
		vertex -0.0249635 -0.00134985 0.0
	endloop
endfacet
facet normal -2.6839499999999996e-05 -2.91099999999999e-06 -0.0
	outer loop
		vertex -0.0249635 -0.00134985 0.01
		vertex -0.0249635 -0.00134985 0.0
		vertex -0.0246724 -0.0040338 0.0
	endloop
endfacet
facet normal -2.63691e-05 -5.788000000000009e-06 -0.0
	outer loop
		vertex -0.0246724 -0.0040338 0.01
		vertex -0.0246724 -0.0040338 0.0
		vertex -0.0240936 -0.00667071 0.0
	endloop
endfacet
facet normal -2.5591299999999997e-05 -8.598000000000008e-06 -0.0
	outer loop
		vertex -0.0240936 -0.00667071 0.01
		vertex -0.0240936 -0.00667071 0.0
		vertex -0.0232338 -0.00922984 0.0
	endloop
endfacet
facet normal -2.4514600000000008e-05 -1.1306999999999983e-05 -0.0
	outer loop
		vertex -0.0232338 -0.00922984 0.01
		vertex -0.0232338 -0.00922984 0.0
		vertex -0.0221031 -0.0116813 0.0
	endloop
endfacet
facet normal -2.3152999999999993e-05 -1.3885000000000009e-05 -0.0
	outer loop
		vertex -0.0221031 -0.0116813 0.01
		vertex -0.0221031 -0.0116813 0.0
		vertex -0.0207146 -0.0139966 0.0
	endloop
endfacet
facet normal -2.152099999999999e-05 -1.6299999999999996e-05 -0.0
	outer loop
		vertex -0.0207146 -0.0139966 0.01
		vertex -0.0207146 -0.0139966 0.0
		vertex -0.0190846 -0.0161487 0.0
	endloop
endfacet
facet normal -1.9637000000000022e-05 -1.8525999999999995e-05 -0.0
	outer loop
		vertex -0.0190846 -0.0161487 0.01
		vertex -0.0190846 -0.0161487 0.0
		vertex -0.017232 -0.0181124 0.0
	endloop
endfacet
facet normal -1.7525000000000006e-05 -2.0536000000000008e-05 -0.0
	outer loop
		vertex -0.017232 -0.0181124 0.01
		vertex -0.017232 -0.0181124 0.0
		vertex -0.0151784 -0.0198649 0.0
	endloop
endfacet
facet normal -1.5208999999999986e-05 -2.2304999999999997e-05 -0.0
	outer loop
		vertex -0.0151784 -0.0198649 0.01
		vertex -0.0151784 -0.0198649 0.0
		vertex -0.0129479 -0.0213858 0.0
	endloop
endfacet
facet normal -1.2714999999999984e-05 -2.3815e-05 -0.0
	outer loop
		vertex -0.0129479 -0.0213858 0.01
		vertex -0.0129479 -0.0213858 0.0
		vertex -0.0105664 -0.0226573 0.0
	endloop
endfacet
facet normal -1.0072000000000033e-05 -2.50477e-05 -0.0
	outer loop
		vertex -0.0105664 -0.0226573 0.01
		vertex -0.0105664 -0.0226573 0.0
		vertex -0.00806163 -0.0236645 0.0
	endloop
endfacet
facet normal -7.312999999999972e-06 -2.5987500000000005e-05 -0.0
	outer loop
		vertex -0.00806163 -0.0236645 0.01
		vertex -0.00806163 -0.0236645 0.0
		vertex -0.00546288 -0.0243958 0.0
	endloop
endfacet
facet normal -4.469000000000001e-06 -2.66246e-05 -0.0
	outer loop
		vertex -0.00546288 -0.0243958 0.01
		vertex -0.00546288 -0.0243958 0.0
		vertex -0.00280042 -0.0248427 0.0
	endloop
endfacet
facet normal -1.571000000000003e-06 -2.695122e-05 -0.0
	outer loop
		vertex -0.00280042 -0.0248427 0.01
		vertex -0.00280042 -0.0248427 0.0
		vertex -0.000105298 -0.0249998 0.0
	endloop
endfacet
facet normal 1.343999999999998e-06 -2.6963480000000002e-05 0.0
	outer loop
		vertex -0.000105298 -0.0249998 0.01
		vertex -0.000105298 -0.0249998 0.0
		vertex 0.00259105 -0.0248654 0.0
	endloop
endfacet
facet normal 4.243999999999984e-06 -2.6661300000000002e-05 0.0
	outer loop
		vertex 0.00259105 -0.0248654 0.01
		vertex 0.00259105 -0.0248654 0.0
		vertex 0.00525718 -0.024441 0.0
	endloop
endfacet
facet normal 7.094000000000024e-06 -2.6048199999999992e-05 0.0
	outer loop
		vertex 0.00525718 -0.024441 0.01
		vertex 0.00525718 -0.024441 0.0
		vertex 0.007862 -0.0237316 0.0
	endloop
endfacet
facet normal 9.861000000000003e-06 -2.5131000000000007e-05 0.0
	outer loop
		vertex 0.007862 -0.0237316 0.01
		vertex 0.007862 -0.0237316 0.0
		vertex 0.0103751 -0.0227455 0.0
	endloop
endfacet
facet normal 1.2513999999999997e-05 -2.3922000000000006e-05 0.0
	outer loop
		vertex 0.0103751 -0.0227455 0.01
		vertex 0.0103751 -0.0227455 0.0
		vertex 0.0127673 -0.0214941 0.0
	endloop
endfacet
facet normal 1.5019999999999998e-05 -2.2433000000000004e-05 0.0
	outer loop
		vertex 0.0127673 -0.0214941 0.01
		vertex 0.0127673 -0.0214941 0.0
		vertex 0.0150106 -0.0199921 0.0
	endloop
endfacet
facet normal 1.7351999999999992e-05 -2.068200000000001e-05 0.0
	outer loop
		vertex 0.0150106 -0.0199921 0.01
		vertex 0.0150106 -0.0199921 0.0
		vertex 0.0170788 -0.0182569 0.0
	endloop
endfacet
facet normal 1.9481000000000012e-05 -1.8690999999999984e-05 0.0
	outer loop
		vertex 0.0170788 -0.0182569 0.01
		vertex 0.0170788 -0.0182569 0.0
		vertex 0.0189479 -0.0163088 0.0
	endloop
endfacet
facet normal 2.1381999999999983e-05 -1.6480999999999997e-05 0.0
	outer loop
		vertex 0.0189479 -0.0163088 0.01
		vertex 0.0189479 -0.0163088 0.0
		vertex 0.020596 -0.0141706 0.0
	endloop
endfacet
facet normal 2.3035e-05 -1.4079000000000002e-05 0.0
	outer loop
		vertex 0.020596 -0.0141706 0.01
		vertex 0.020596 -0.0141706 0.0
		vertex 0.0220039 -0.0118671 0.0
	endloop
endfacet
facet normal 2.4418700000000004e-05 -1.151300000000001e-05 0.0
	outer loop
		vertex 0.0220039 -0.0118671 0.01
		vertex 0.0220039 -0.0118671 0.0
		vertex 0.0231552 -0.00942523 0.0
	endloop
endfacet
facet normal 1.8850500000000002e-05 4.6309999999999995e-05 0.0
	outer loop
		vertex 0.0231552 -0.00942523 0.0
		vertex 0.0185242 -0.00754018 0.0
		vertex 0.0185242 -0.00754018 0.01
	endloop
endfacet
facet normal 1.8850500000000002e-05 4.6309999999999995e-05 0.0
	outer loop
		vertex 0.0185242 -0.00754018 0.01
		vertex 0.0231552 -0.00942523 0.01
		vertex 0.0231552 -0.00942523 0.0
	endloop
endfacet
facet normal 0.0 0.0 1.0783114861000006e-05
	outer loop
		vertex -0.00806163 0.0236645 0.01
		vertex -0.00644931 0.0189316 0.01
		vertex -0.0043703 0.0195167 0.01
	endloop
endfacet
facet normal 0.0 0.0 1.0783108781999992e-05
	outer loop
		vertex -0.0105664 0.0226573 0.01
		vertex -0.00845311 0.0181258 0.01
		vertex -0.00644931 0.0189316 0.01
	endloop
endfacet
facet normal 0.0 0.0 1.0783019788e-05
	outer loop
		vertex -0.0129479 0.0213858 0.01
		vertex -0.0103583 0.0171086 0.01
		vertex -0.00845311 0.0181258 0.01
	endloop
endfacet
facet normal 0.0 0.0 1.0783233020000002e-05
	outer loop
		vertex -0.0151784 0.0198649 0.01
		vertex -0.0121428 0.0158919 0.01
		vertex -0.0103583 0.0171086 0.01
	endloop
endfacet
facet normal 0.0 0.0 1.0782895800000002e-05
	outer loop
		vertex -0.017232 0.0181124 0.01
		vertex -0.0137856 0.0144899 0.01
		vertex -0.0121428 0.0158919 0.01
	endloop
endfacet
facet normal 0.0 0.0 1.0783236479999994e-05
	outer loop
		vertex -0.0190846 0.0161487 0.01
		vertex -0.0152677 0.0129189 0.01
		vertex -0.0137856 0.0144899 0.01
	endloop
endfacet
facet normal 0.0 0.0 1.0783107535999997e-05
	outer loop
		vertex -0.0221031 0.0116813 0.01
		vertex -0.0176825 0.00934506 0.01
		vertex -0.0165717 0.0111973 0.01
	endloop
endfacet
facet normal -0.0 0.0 1.0782926035e-05
	outer loop
		vertex -0.0232338 0.00922984 0.01
		vertex -0.0185871 0.00738387 0.01
		vertex -0.0176825 0.00934506 0.01
	endloop
endfacet
facet normal 0.0 0.0 1.0783128092999994e-05
	outer loop
		vertex -0.000105298 0.0249998 0.01
		vertex -8.42384e-05 0.0199998 0.01
		vertex 0.00207284 0.0198923 0.01
	endloop
endfacet
facet normal 0.0 0.0 1.0783160036760003e-05
	outer loop
		vertex -0.00280042 0.0248427 0.01
		vertex -0.00224033 0.0198741 0.01
		vertex -8.42384e-05 0.0199998 0.01
	endloop
endfacet
facet normal 0.0 0.0 1.0782824718999987e-05
	outer loop
		vertex -0.00546288 0.0243958 0.01
		vertex -0.0043703 0.0195167 0.01
		vertex -0.00224033 0.0198741 0.01
	endloop
endfacet
facet normal 0.0 0.0 1.3478754637000011e-05
	outer loop
		vertex -0.00644931 0.0189316 0.01
		vertex -0.00806163 0.0236645 0.01
		vertex -0.0105664 0.0226573 0.01
	endloop
endfacet
facet normal 0.0 0.0 1.347881723999999e-05
	outer loop
		vertex -0.0103583 0.0171086 0.01
		vertex -0.0129479 0.0213858 0.01
		vertex -0.0151784 0.0198649 0.01
	endloop
endfacet
facet normal 0.0 0.0 1.347873918000001e-05
	outer loop
		vertex -0.0137856 0.0144899 0.01
		vertex -0.017232 0.0181124 0.01
		vertex -0.0190846 0.0161487 0.01
	endloop
endfacet
facet normal 0.0 0.0 1.078270384e-05
	outer loop
		vertex -0.0207146 0.0139966 0.01
		vertex -0.0165717 0.0111973 0.01
		vertex -0.0152677 0.0129189 0.01
	endloop
endfacet
facet normal 0.0 0.0 1.3478510644e-05
	outer loop
		vertex -0.0176825 0.00934506 0.01
		vertex -0.0221031 0.0116813 0.01
		vertex -0.0232338 0.00922984 0.01
	endloop
endfacet
facet normal -0.0 0.0 1.0782946002000001e-05
	outer loop
		vertex -0.0240936 0.00667071 0.01
		vertex -0.0192749 0.00533657 0.01
		vertex -0.0185871 0.00738387 0.01
	endloop
endfacet
facet normal -0.0 0.0 1.0783005664999999e-05
	outer loop
		vertex -0.0246724 0.0040338 0.01
		vertex -0.0197379 0.00322704 0.01
		vertex -0.0192749 0.00533657 0.01
	endloop
endfacet
facet normal -0.0 0.0 1.0783001744999998e-05
	outer loop
		vertex -0.0249635 0.00134985 0.01
		vertex -0.0199708 0.00107988 0.01
		vertex -0.0197379 0.00322704 0.01
	endloop
endfacet
facet normal 0.0 0.0 1.0783033752e-05
	outer loop
		vertex -0.0249635 -0.00134985 0.01
		vertex -0.0199708 -0.00107988 0.01
		vertex -0.0199708 0.00107988 0.01
	endloop
endfacet
facet normal 0.0 0.0 1.0782868019999993e-05
	outer loop
		vertex 0.0150106 0.0199921 0.01
		vertex 0.0120085 0.0159937 0.01
		vertex 0.013663 0.0146055 0.01
	endloop
endfacet
facet normal 0.0 0.0 1.0783341959999998e-05
	outer loop
		vertex 0.0127673 0.0214941 0.01
		vertex 0.0102138 0.0171953 0.01
		vertex 0.0120085 0.0159937 0.01
	endloop
endfacet
facet normal 0.0 0.0 1.3478918463159992e-05
	outer loop
		vertex -8.42384e-05 0.0199998 0.01
		vertex -0.000105298 0.0249998 0.01
		vertex -0.00280042 0.0248427 0.01
	endloop
endfacet
facet normal 0.0 0.0 1.3478564878999993e-05
	outer loop
		vertex -0.0043703 0.0195167 0.01
		vertex -0.00546288 0.0243958 0.01
		vertex -0.00806163 0.0236645 0.01
	endloop
endfacet
facet normal 0.0 0.0 1.3478841800000007e-05
	outer loop
		vertex -0.0121428 0.0158919 0.01
		vertex -0.0151784 0.0198649 0.01
		vertex -0.017232 0.0181124 0.01
	endloop
endfacet
facet normal 0.0 0.0 1.3478884419999995e-05
	outer loop
		vertex -0.0165717 0.0111973 0.01
		vertex -0.0207146 0.0139966 0.01
		vertex -0.0221031 0.0116813 0.01
	endloop
endfacet
facet normal 0.0 0.0 1.3478678448999999e-05
	outer loop
		vertex -0.0192749 0.00533657 0.01
		vertex -0.0240936 0.00667071 0.01
		vertex -0.0246724 0.0040338 0.01
	endloop
endfacet
facet normal 0.0 0.0 1.3478792189999999e-05
	outer loop
		vertex -0.0199708 0.00107988 0.01
		vertex -0.0249635 0.00134985 0.01
		vertex -0.0249635 -0.00134985 0.01
	endloop
endfacet
facet normal 0.0 0.0 1.0783055424000004e-05
	outer loop
		vertex -0.0246724 -0.0040338 0.01
		vertex -0.0197379 -0.00322704 0.01
		vertex -0.0199708 -0.00107988 0.01
	endloop
endfacet
facet normal 0.0 0.0 1.0782899030999995e-05
	outer loop
		vertex -0.0240936 -0.00667071 0.01
		vertex -0.0192749 -0.00533657 0.01
		vertex -0.0197379 -0.00322704 0.01
	endloop
endfacet
facet normal 0.0 0.0 1.078310753599999e-05
	outer loop
		vertex -0.0207146 -0.0139966 0.01
		vertex -0.0165717 -0.0111973 0.01
		vertex -0.0176825 -0.00934506 0.01
	endloop
endfacet
facet normal -0.0 0.0 1.3478924489999991e-05
	outer loop
		vertex -0.0207146 -0.0139966 0.01
		vertex -0.0190846 -0.0161487 0.01
		vertex -0.0152677 -0.0129189 0.01
	endloop
endfacet
facet normal -0.0 0.0 1.3478739180000007e-05
	outer loop
		vertex -0.0190846 -0.0161487 0.01
		vertex -0.017232 -0.0181124 0.01
		vertex -0.0137856 -0.0144899 0.01
	endloop
endfacet
facet normal 0.0 0.0 1.0782755600000001e-05
	outer loop
		vertex -0.0151784 -0.0198649 0.01
		vertex -0.0121428 -0.0158919 0.01
		vertex -0.0137856 -0.0144899 0.01
	endloop
endfacet
facet normal -0.0 0.0 1.3478817239999991e-05
	outer loop
		vertex -0.0151784 -0.0198649 0.01
		vertex -0.0129479 -0.0213858 0.01
		vertex -0.0103583 -0.0171086 0.01
	endloop
endfacet
facet normal -0.0 0.0 1.3478815484999991e-05
	outer loop
		vertex -0.0129479 -0.0213858 0.01
		vertex -0.0105664 -0.0226573 0.01
		vertex -0.00845311 -0.0181258 0.01
	endloop
endfacet
facet normal -0.0 0.0 1.3479002977e-05
	outer loop
		vertex -0.00546288 -0.0243958 0.01
		vertex -0.00280042 -0.0248427 0.01
		vertex -0.00224033 -0.0198741 0.01
	endloop
endfacet
facet normal -0.0 0.0 1.3478918463159994e-05
	outer loop
		vertex -0.00280042 -0.0248427 0.01
		vertex -0.000105298 -0.0249998 0.01
		vertex -8.42384e-05 -0.0199998 0.01
	endloop
endfacet
facet normal 0.0 0.0 1.0783119962000001e-05
	outer loop
		vertex 0.0220039 0.0118671 0.01
		vertex 0.0176031 0.00949368 0.01
		vertex 0.0185242 0.00754018 0.01
	endloop
endfacet
facet normal 0.0 0.0 1.0782990974000004e-05
	outer loop
		vertex 0.020596 0.0141706 0.01
		vertex 0.0164768 0.0113365 0.01
		vertex 0.0176031 0.00949368 0.01
	endloop
endfacet
facet normal 0.0 0.0 1.078312114e-05
	outer loop
		vertex 0.0170788 0.0182569 0.01
		vertex 0.013663 0.0146055 0.01
		vertex 0.0151583 0.0130471 0.01
	endloop
endfacet
facet normal 0.0 0.0 1.347876492e-05
	outer loop
		vertex 0.0120085 0.0159937 0.01
		vertex 0.0150106 0.0199921 0.01
		vertex 0.0127673 0.0214941 0.01
	endloop
endfacet
facet normal 0.0 0.0 1.3479002976999998e-05
	outer loop
		vertex -0.00224033 0.0198741 0.01
		vertex -0.00280042 0.0248427 0.01
		vertex -0.00546288 0.0243958 0.01
	endloop
endfacet
facet normal 0.0 0.0 1.3478924489999988e-05
	outer loop
		vertex -0.0152677 0.0129189 0.01
		vertex -0.0190846 0.0161487 0.01
		vertex -0.0207146 0.0139966 0.01
	endloop
endfacet
facet normal 0.0 0.0 1.3478799111e-05
	outer loop
		vertex -0.0197379 0.00322704 0.01
		vertex -0.0246724 0.0040338 0.01
		vertex -0.0249635 0.00134985 0.01
	endloop
endfacet
facet normal 0.0 0.0 1.3478785083000006e-05
	outer loop
		vertex -0.0197379 -0.00322704 0.01
		vertex -0.0246724 -0.0040338 0.01
		vertex -0.0240936 -0.00667071 0.01
	endloop
endfacet
facet normal 0.0 0.0 1.0782999217999998e-05
	outer loop
		vertex -0.0221031 -0.0116813 0.01
		vertex -0.0176825 -0.00934506 0.01
		vertex -0.0185871 -0.00738387 0.01
	endloop
endfacet
facet normal 0.0 0.0 1.0782703840000001e-05
	outer loop
		vertex -0.0152677 -0.0129189 0.01
		vertex -0.0165717 -0.0111973 0.01
		vertex -0.0207146 -0.0139966 0.01
	endloop
endfacet
facet normal 0.0 0.0 1.3478982000000008e-05
	outer loop
		vertex -0.0137856 -0.0144899 0.01
		vertex -0.017232 -0.0181124 0.01
		vertex -0.0151784 -0.0198649 0.01
	endloop
endfacet
facet normal 0.0 0.0 1.0783019788e-05
	outer loop
		vertex -0.00845311 -0.0181258 0.01
		vertex -0.0103583 -0.0171086 0.01
		vertex -0.0129479 -0.0213858 0.01
	endloop
endfacet
facet normal -0.0 0.0 1.347875463700001e-05
	outer loop
		vertex -0.0105664 -0.0226573 0.01
		vertex -0.00806163 -0.0236645 0.01
		vertex -0.00644931 -0.0189316 0.01
	endloop
endfacet
facet normal -0.0 0.0 1.3478564878999993e-05
	outer loop
		vertex -0.00806163 -0.0236645 0.01
		vertex -0.00546288 -0.0243958 0.01
		vertex -0.0043703 -0.0195167 0.01
	endloop
endfacet
facet normal 0.0 0.0 1.0783160036760003e-05
	outer loop
		vertex -8.42384e-05 -0.0199998 0.01
		vertex -0.00224033 -0.0198741 0.01
		vertex -0.00280042 -0.0248427 0.01
	endloop
endfacet
facet normal 0.0 0.0 1.3478855662799996e-05
	outer loop
		vertex -0.000105298 -0.0249998 0.01
		vertex 0.00259105 -0.0248654 0.01
		vertex 0.00207284 -0.0198923 0.01
	endloop
endfacet
facet normal 0.0 0.0 1.3478807802000003e-05
	outer loop
		vertex 0.00259105 -0.0248654 0.01
		vertex 0.00525718 -0.024441 0.01
		vertex 0.00420574 -0.0195528 0.01
	endloop
endfacet
facet normal 0.0 0.0 1.3478717725999994e-05
	outer loop
		vertex 0.00525718 -0.024441 0.01
		vertex 0.007862 -0.0237316 0.01
		vertex 0.0062896 -0.0189853 0.01
	endloop
endfacet
facet normal 0.0 0.0 1.3478780818000001e-05
	outer loop
		vertex 0.0176031 0.00949368 0.01
		vertex 0.0220039 0.0118671 0.01
		vertex 0.020596 0.0141706 0.01
	endloop
endfacet
facet normal 0.0 0.0 1.0783041210000002e-05
	outer loop
		vertex 0.0189479 0.0163088 0.01
		vertex 0.0151583 0.0130471 0.01
		vertex 0.0164768 0.0113365 0.01
	endloop
endfacet
facet normal 0.0 0.0 1.3478921640000004e-05
	outer loop
		vertex 0.013663 0.0146055 0.01
		vertex 0.0170788 0.0182569 0.01
		vertex 0.0150106 0.0199921 0.01
	endloop
endfacet
facet normal 0.0 0.0 1.0782784166000002e-05
	outer loop
		vertex 0.0103751 0.0227455 0.01
		vertex 0.00830012 0.0181964 0.01
		vertex 0.0102138 0.0171953 0.01
	endloop
endfacet
facet normal 0.0 0.0 1.0782997435999991e-05
	outer loop
		vertex 0.007862 0.0237316 0.01
		vertex 0.0062896 0.0189853 0.01
		vertex 0.00830012 0.0181964 0.01
	endloop
endfacet
facet normal 0.0 0.0 1.0783016652000001e-05
	outer loop
		vertex 0.00525718 0.024441 0.01
		vertex 0.00420574 0.0195528 0.01
		vertex 0.0062896 0.0189853 0.01
	endloop
endfacet
facet normal 0.0 0.0 1.3478815484999988e-05
	outer loop
		vertex -0.00845311 0.0181258 0.01
		vertex -0.0105664 0.0226573 0.01
		vertex -0.0129479 0.0213858 0.01
	endloop
endfacet
facet normal 0.0 0.0 1.3478745431999996e-05
	outer loop
		vertex -0.0199708 -0.00107988 0.01
		vertex -0.0249635 -0.00134985 0.01
		vertex -0.0246724 -0.0040338 0.01
	endloop
endfacet
facet normal 0.0 0.0 1.3478674377e-05
	outer loop
		vertex -0.0240936 -0.00667071 0.01
		vertex -0.0232338 -0.00922984 0.01
		vertex -0.0185871 -0.00738387 0.01
	endloop
endfacet
facet normal 0.0 0.0 1.3478884419999998e-05
	outer loop
		vertex -0.0176825 -0.00934506 0.01
		vertex -0.0221031 -0.0116813 0.01
		vertex -0.0207146 -0.0139966 0.01
	endloop
endfacet
facet normal 0.0 0.0 1.0783233020000002e-05
	outer loop
		vertex -0.0103583 -0.0171086 0.01
		vertex -0.0121428 -0.0158919 0.01
		vertex -0.0151784 -0.0198649 0.01
	endloop
endfacet
facet normal 0.0 0.0 1.0783114861000006e-05
	outer loop
		vertex -0.0043703 -0.0195167 0.01
		vertex -0.00644931 -0.0189316 0.01
		vertex -0.00806163 -0.0236645 0.01
	endloop
endfacet
facet normal 0.0 0.0 1.0783128092999994e-05
	outer loop
		vertex 0.00207284 -0.0198923 0.01
		vertex -8.42384e-05 -0.0199998 0.01
		vertex -0.000105298 -0.0249998 0.01
	endloop
endfacet
facet normal 0.0 0.0 1.0783016652000001e-05
	outer loop
		vertex 0.0062896 -0.0189853 0.01
		vertex 0.00420574 -0.0195528 0.01
		vertex 0.00525718 -0.024441 0.01
	endloop
endfacet
facet normal 0.0 0.0 1.3478553649999993e-05
	outer loop
		vertex 0.0164768 0.0113365 0.01
		vertex 0.020596 0.0141706 0.01
		vertex 0.0189479 0.0163088 0.01
	endloop
endfacet
facet normal 0.0 0.0 1.3479039259999998e-05
	outer loop
		vertex 0.0102138 0.0171953 0.01
		vertex 0.0127673 0.0214941 0.01
		vertex 0.0103751 0.0227455 0.01
	endloop
endfacet
facet normal 0.0 -0.0 1.3478717725999994e-05
	outer loop
		vertex 0.0062896 0.0189853 0.01
		vertex 0.007862 0.0237316 0.01
		vertex 0.00525718 0.024441 0.01
	endloop
endfacet
facet normal 0.0 0.0 1.0783057285e-05
	outer loop
		vertex 0.00259105 0.0248654 0.01
		vertex 0.00207284 0.0198923 0.01
		vertex 0.00420574 0.0195528 0.01
	endloop
endfacet
facet normal 0.0 0.0 1.3478674377000002e-05
	outer loop
		vertex -0.0185871 0.00738387 0.01
		vertex -0.0232338 0.00922984 0.01
		vertex -0.0240936 0.00667071 0.01
	endloop
endfacet
facet normal 0.0 0.0 1.3478437461000003e-05
	outer loop
		vertex -0.0185871 -0.00738387 0.01
		vertex -0.0232338 -0.00922984 0.01
		vertex -0.0221031 -0.0116813 0.01
	endloop
endfacet
facet normal 0.0 0.0 1.0783108781999992e-05
	outer loop
		vertex -0.00644931 -0.0189316 0.01
		vertex -0.00845311 -0.0181258 0.01
		vertex -0.0105664 -0.0226573 0.01
	endloop
endfacet
facet normal 0.0 0.0 1.0783057285e-05
	outer loop
		vertex 0.00420574 -0.0195528 0.01
		vertex 0.00207284 -0.0198923 0.01
		vertex 0.00259105 -0.0248654 0.01
	endloop
endfacet
facet normal 0.0 0.0 1.3478963229999996e-05
	outer loop
		vertex 0.0151583 0.0130471 0.01
		vertex 0.0189479 0.0163088 0.01
		vertex 0.0170788 0.0182569 0.01
	endloop
endfacet
facet normal 0.0 -0.0 1.3478807802000007e-05
	outer loop
		vertex 0.00420574 0.0195528 0.01
		vertex 0.00525718 0.024441 0.01
		vertex 0.00259105 0.0248654 0.01
	endloop
endfacet
facet normal 0.0 0.0 1.0782946002000001e-05
	outer loop
		vertex -0.0185871 -0.00738387 0.01
		vertex -0.0192749 -0.00533657 0.01
		vertex -0.0240936 -0.00667071 0.01
	endloop
endfacet
facet normal 0.0 0.0 1.078282471899999e-05
	outer loop
		vertex -0.00224033 -0.0198741 0.01
		vertex -0.0043703 -0.0195167 0.01
		vertex -0.00546288 -0.0243958 0.01
	endloop
endfacet
facet normal 0.0 -0.0 1.3478963229999996e-05
	outer loop
		vertex 0.0170788 -0.0182569 0.01
		vertex 0.0189479 -0.0163088 0.01
		vertex 0.0151583 -0.0130471 0.01
	endloop
endfacet
facet normal 0.0 -0.0 1.3478553649999992e-05
	outer loop
		vertex 0.0189479 -0.0163088 0.01
		vertex 0.020596 -0.0141706 0.01
		vertex 0.0164768 -0.0113365 0.01
	endloop
endfacet
facet normal 0.0 -0.0 1.3478780818000001e-05
	outer loop
		vertex 0.020596 -0.0141706 0.01
		vertex 0.0220039 -0.0118671 0.01
		vertex 0.0176031 -0.00949368 0.01
	endloop
endfacet
facet normal 0.0 -0.0 1.3478558035000003e-05
	outer loop
		vertex 0.0220039 -0.0118671 0.01
		vertex 0.0231552 -0.00942523 0.01
		vertex 0.0185242 -0.00754018 0.01
	endloop
endfacet
facet normal 0.0 -0.0 1.3478480987999996e-05
	outer loop
		vertex 0.00830012 0.0181964 0.01
		vertex 0.0103751 0.0227455 0.01
		vertex 0.007862 0.0237316 0.01
	endloop
endfacet
facet normal 0.0 0.0 1.0783236479999995e-05
	outer loop
		vertex -0.0137856 -0.0144899 0.01
		vertex -0.0152677 -0.0129189 0.01
		vertex -0.0190846 -0.0161487 0.01
	endloop
endfacet
facet normal 0.0 0.0 1.3478480987999996e-05
	outer loop
		vertex 0.007862 -0.0237316 0.01
		vertex 0.0103751 -0.0227455 0.01
		vertex 0.00830012 -0.0181964 0.01
	endloop
endfacet
facet normal 0.0 -0.0 1.3479039259999998e-05
	outer loop
		vertex 0.0103751 -0.0227455 0.01
		vertex 0.0127673 -0.0214941 0.01
		vertex 0.0102138 -0.0171953 0.01
	endloop
endfacet
facet normal 0.0 -0.0 1.347876492e-05
	outer loop
		vertex 0.0127673 -0.0214941 0.01
		vertex 0.0150106 -0.0199921 0.01
		vertex 0.0120085 -0.0159937 0.01
	endloop
endfacet
facet normal 0.0 -0.0 1.3478921640000002e-05
	outer loop
		vertex 0.0150106 -0.0199921 0.01
		vertex 0.0170788 -0.0182569 0.01
		vertex 0.013663 -0.0146055 0.01
	endloop
endfacet
facet normal 0.0 0.0 1.0783041210000004e-05
	outer loop
		vertex 0.0164768 -0.0113365 0.01
		vertex 0.0151583 -0.0130471 0.01
		vertex 0.0189479 -0.0163088 0.01
	endloop
endfacet
facet normal 0.0 0.0 1.0783119962000001e-05
	outer loop
		vertex 0.0185242 -0.00754018 0.01
		vertex 0.0176031 -0.00949368 0.01
		vertex 0.0220039 -0.0118671 0.01
	endloop
endfacet
facet normal 0.0 -0.0 1.3478855662799996e-05
	outer loop
		vertex 0.00207284 0.0198923 0.01
		vertex 0.00259105 0.0248654 0.01
		vertex -0.000105298 0.0249998 0.01
	endloop
endfacet
facet normal 0.0 0.0 1.0782784166000002e-05
	outer loop
		vertex 0.0102138 -0.0171953 0.01
		vertex 0.00830012 -0.0181964 0.01
		vertex 0.0103751 -0.0227455 0.01
	endloop
endfacet
facet normal 0.0 0.0 1.0782868019999997e-05
	outer loop
		vertex 0.013663 -0.0146055 0.01
		vertex 0.0120085 -0.0159937 0.01
		vertex 0.0150106 -0.0199921 0.01
	endloop
endfacet
facet normal 0.0 0.0 1.0782990974000002e-05
	outer loop
		vertex 0.0176031 -0.00949368 0.01
		vertex 0.0164768 -0.0113365 0.01
		vertex 0.020596 -0.0141706 0.01
	endloop
endfacet
facet normal 0.0 0.0 1.0782997435999991e-05
	outer loop
		vertex 0.00830012 -0.0181964 0.01
		vertex 0.0062896 -0.0189853 0.01
		vertex 0.007862 -0.0237316 0.01
	endloop
endfacet
facet normal 0.0 0.0 1.0783121139999998e-05
	outer loop
		vertex 0.0151583 -0.0130471 0.01
		vertex 0.013663 -0.0146055 0.01
		vertex 0.0170788 -0.0182569 0.01
	endloop
endfacet
facet normal 0.0 0.0 1.0783341959999998e-05
	outer loop
		vertex 0.0120085 -0.0159937 0.01
		vertex 0.0102138 -0.0171953 0.01
		vertex 0.0127673 -0.0214941 0.01
	endloop
endfacet
facet normal 0.0 0.0 1.3478558035000003e-05
	outer loop
		vertex 0.0185242 0.00754018 0.01
		vertex 0.0231552 0.00942523 0.01
		vertex 0.0220039 0.0118671 0.01
	endloop
endfacet
facet normal 0.0 0.0 -1.078270384e-05
	outer loop
		vertex -0.0207146 -0.0139966 0.0
		vertex -0.0165717 -0.0111973 0.0
		vertex -0.0152677 -0.0129189 0.0
	endloop
endfacet
facet normal 0.0 0.0 -1.347888442e-05
	outer loop
		vertex -0.0207146 -0.0139966 0.0
		vertex -0.0221031 -0.0116813 0.0
		vertex -0.0176825 -0.00934506 0.0
	endloop
endfacet
facet normal 0.0 0.0 -1.3478785083000004e-05
	outer loop
		vertex -0.0240936 -0.00667071 0.0
		vertex -0.0246724 -0.0040338 0.0
		vertex -0.0197379 -0.00322704 0.0
	endloop
endfacet
facet normal 0.0 0.0 -1.3478745431999996e-05
	outer loop
		vertex -0.0246724 -0.0040338 0.0
		vertex -0.0249635 -0.00134985 0.0
		vertex -0.0199708 -0.00107988 0.0
	endloop
endfacet
facet normal 0.0 0.0 -1.3478792189999999e-05
	outer loop
		vertex -0.0249635 -0.00134985 0.0
		vertex -0.0249635 0.00134985 0.0
		vertex -0.0199708 0.00107988 0.0
	endloop
endfacet
facet normal 0.0 0.0 -1.3478799111000001e-05
	outer loop
		vertex -0.0249635 0.00134985 0.0
		vertex -0.0246724 0.0040338 0.0
		vertex -0.0197379 0.00322704 0.0
	endloop
endfacet
facet normal 0.0 0.0 -1.3478510644e-05
	outer loop
		vertex -0.0232338 0.00922984 0.0
		vertex -0.0221031 0.0116813 0.0
		vertex -0.0176825 0.00934506 0.0
	endloop
endfacet
facet normal 0.0 0.0 -1.3478884419999995e-05
	outer loop
		vertex -0.0221031 0.0116813 0.0
		vertex -0.0207146 0.0139966 0.0
		vertex -0.0165717 0.0111973 0.0
	endloop
endfacet
facet normal 0.0 0.0 -1.0783160036760003e-05
	outer loop
		vertex -0.00280042 -0.0248427 0.0
		vertex -0.00224033 -0.0198741 0.0
		vertex -8.42384e-05 -0.0199998 0.0
	endloop
endfacet
facet normal 0.0 0.0 -1.0782824718999987e-05
	outer loop
		vertex -0.00546288 -0.0243958 0.0
		vertex -0.0043703 -0.0195167 0.0
		vertex -0.00224033 -0.0198741 0.0
	endloop
endfacet
facet normal 0.0 -0.0 -1.078310753599999e-05
	outer loop
		vertex -0.0176825 -0.00934506 0.0
		vertex -0.0165717 -0.0111973 0.0
		vertex -0.0207146 -0.0139966 0.0
	endloop
endfacet
facet normal 0.0 0.0 -1.3478437461e-05
	outer loop
		vertex -0.0221031 -0.0116813 0.0
		vertex -0.0232338 -0.00922984 0.0
		vertex -0.0185871 -0.00738387 0.0
	endloop
endfacet
facet normal 0.0 -0.0 -1.0783055424000003e-05
	outer loop
		vertex -0.0199708 -0.00107988 0.0
		vertex -0.0197379 -0.00322704 0.0
		vertex -0.0246724 -0.0040338 0.0
	endloop
endfacet
facet normal 0.0 0.0 -1.0783001744999998e-05
	outer loop
		vertex -0.0197379 0.00322704 0.0
		vertex -0.0199708 0.00107988 0.0
		vertex -0.0249635 0.00134985 0.0
	endloop
endfacet
facet normal 0.0 0.0 -1.3478678448999999e-05
	outer loop
		vertex -0.0246724 0.0040338 0.0
		vertex -0.0240936 0.00667071 0.0
		vertex -0.0192749 0.00533657 0.0
	endloop
endfacet
facet normal 0.0 0.0 -1.3478674377e-05
	outer loop
		vertex -0.0240936 0.00667071 0.0
		vertex -0.0232338 0.00922984 0.0
		vertex -0.0185871 0.00738387 0.0
	endloop
endfacet
facet normal -0.0 0.0 -1.0783107535999997e-05
	outer loop
		vertex -0.0165717 0.0111973 0.0
		vertex -0.0176825 0.00934506 0.0
		vertex -0.0221031 0.0116813 0.0
	endloop
endfacet
facet normal 0.0 0.0 -1.3478924489999991e-05
	outer loop
		vertex -0.0207146 0.0139966 0.0
		vertex -0.0190846 0.0161487 0.0
		vertex -0.0152677 0.0129189 0.0
	endloop
endfacet
facet normal 0.0 0.0 -1.3478739180000007e-05
	outer loop
		vertex -0.0190846 0.0161487 0.0
		vertex -0.017232 0.0181124 0.0
		vertex -0.0137856 0.0144899 0.0
	endloop
endfacet
facet normal 0.0 0.0 -1.3478841800000006e-05
	outer loop
		vertex -0.017232 0.0181124 0.0
		vertex -0.0151784 0.0198649 0.0
		vertex -0.0121428 0.0158919 0.0
	endloop
endfacet
facet normal 0.0 0.0 -1.0783016652000001e-05
	outer loop
		vertex 0.00525718 -0.024441 0.0
		vertex 0.00420574 -0.0195528 0.0
		vertex 0.0062896 -0.0189853 0.0
	endloop
endfacet
facet normal 0.0 0.0 -1.0783057285e-05
	outer loop
		vertex 0.00259105 -0.0248654 0.0
		vertex 0.00207284 -0.0198923 0.0
		vertex 0.00420574 -0.0195528 0.0
	endloop
endfacet
facet normal 0.0 0.0 -1.0783128092999994e-05
	outer loop
		vertex -0.000105298 -0.0249998 0.0
		vertex -8.42384e-05 -0.0199998 0.0
		vertex 0.00207284 -0.0198923 0.0
	endloop
endfacet
facet normal 0.0 0.0 -1.3479002976999998e-05
	outer loop
		vertex -0.00224033 -0.0198741 0.0
		vertex -0.00280042 -0.0248427 0.0
		vertex -0.00546288 -0.0243958 0.0
	endloop
endfacet
facet normal 0.0 -0.0 -1.0782999218e-05
	outer loop
		vertex -0.0185871 -0.00738387 0.0
		vertex -0.0176825 -0.00934506 0.0
		vertex -0.0221031 -0.0116813 0.0
	endloop
endfacet
facet normal 0.0 0.0 -1.0782946002000001e-05
	outer loop
		vertex -0.0240936 -0.00667071 0.0
		vertex -0.0192749 -0.00533657 0.0
		vertex -0.0185871 -0.00738387 0.0
	endloop
endfacet
facet normal 0.0 -0.0 -1.0783033752e-05
	outer loop
		vertex -0.0199708 0.00107988 0.0
		vertex -0.0199708 -0.00107988 0.0
		vertex -0.0249635 -0.00134985 0.0
	endloop
endfacet
facet normal 0.0 0.0 -1.0782946002000001e-05
	outer loop
		vertex -0.0185871 0.00738387 0.0
		vertex -0.0192749 0.00533657 0.0
		vertex -0.0240936 0.00667071 0.0
	endloop
endfacet
facet normal -0.0 0.0 -1.0782703840000001e-05
	outer loop
		vertex -0.0152677 0.0129189 0.0
		vertex -0.0165717 0.0111973 0.0
		vertex -0.0207146 0.0139966 0.0
	endloop
endfacet
facet normal -0.0 0.0 -1.0782895800000004e-05
	outer loop
		vertex -0.0121428 0.0158919 0.0
		vertex -0.0137856 0.0144899 0.0
		vertex -0.017232 0.0181124 0.0
	endloop
endfacet
facet normal 0.0 0.0 -1.3478817239999991e-05
	outer loop
		vertex -0.0151784 0.0198649 0.0
		vertex -0.0129479 0.0213858 0.0
		vertex -0.0103583 0.0171086 0.0
	endloop
endfacet
facet normal 0.0 0.0 -1.3478815484999991e-05
	outer loop
		vertex -0.0129479 0.0213858 0.0
		vertex -0.0105664 0.0226573 0.0
		vertex -0.00845311 0.0181258 0.0
	endloop
endfacet
facet normal 0.0 0.0 -1.347875463700001e-05
	outer loop
		vertex -0.0105664 0.0226573 0.0
		vertex -0.00806163 0.0236645 0.0
		vertex -0.00644931 0.0189316 0.0
	endloop
endfacet
facet normal 0.0 0.0 -1.3478564878999993e-05
	outer loop
		vertex -0.00806163 0.0236645 0.0
		vertex -0.00546288 0.0243958 0.0
		vertex -0.0043703 0.0195167 0.0
	endloop
endfacet
facet normal 0.0 -0.0 -1.3478807802000007e-05
	outer loop
		vertex 0.00420574 -0.0195528 0.0
		vertex 0.00525718 -0.024441 0.0
		vertex 0.00259105 -0.0248654 0.0
	endloop
endfacet
facet normal 0.0 0.0 -1.3478918463159992e-05
	outer loop
		vertex -8.42384e-05 -0.0199998 0.0
		vertex -0.000105298 -0.0249998 0.0
		vertex -0.00280042 -0.0248427 0.0
	endloop
endfacet
facet normal 0.0 0.0 -1.0783114861000006e-05
	outer loop
		vertex -0.00806163 -0.0236645 0.0
		vertex -0.00644931 -0.0189316 0.0
		vertex -0.0043703 -0.0195167 0.0
	endloop
endfacet
facet normal 0.0 0.0 -1.0783108781999992e-05
	outer loop
		vertex -0.0105664 -0.0226573 0.0
		vertex -0.00845311 -0.0181258 0.0
		vertex -0.00644931 -0.0189316 0.0
	endloop
endfacet
facet normal 0.0 0.0 -1.0783019788e-05
	outer loop
		vertex -0.0129479 -0.0213858 0.0
		vertex -0.0103583 -0.0171086 0.0
		vertex -0.00845311 -0.0181258 0.0
	endloop
endfacet
facet normal 0.0 0.0 -1.0783233020000002e-05
	outer loop
		vertex -0.0151784 -0.0198649 0.0
		vertex -0.0121428 -0.0158919 0.0
		vertex -0.0103583 -0.0171086 0.0
	endloop
endfacet
facet normal 0.0 0.0 -1.3478982000000007e-05
	outer loop
		vertex -0.0151784 -0.0198649 0.0
		vertex -0.017232 -0.0181124 0.0
		vertex -0.0137856 -0.0144899 0.0
	endloop
endfacet
facet normal 0.0 0.0 -1.0783236479999994e-05
	outer loop
		vertex -0.0190846 -0.0161487 0.0
		vertex -0.0152677 -0.0129189 0.0
		vertex -0.0137856 -0.0144899 0.0
	endloop
endfacet
facet normal -0.0 0.0 -1.3478674377000002e-05
	outer loop
		vertex -0.0185871 -0.00738387 0.0
		vertex -0.0232338 -0.00922984 0.0
		vertex -0.0240936 -0.00667071 0.0
	endloop
endfacet
facet normal 0.0 0.0 -1.0783005664999999e-05
	outer loop
		vertex -0.0192749 0.00533657 0.0
		vertex -0.0197379 0.00322704 0.0
		vertex -0.0246724 0.0040338 0.0
	endloop
endfacet
facet normal -0.0 0.0 -1.0783236479999995e-05
	outer loop
		vertex -0.0137856 0.0144899 0.0
		vertex -0.0152677 0.0129189 0.0
		vertex -0.0190846 0.0161487 0.0
	endloop
endfacet
facet normal -0.0 0.0 -1.0783019788e-05
	outer loop
		vertex -0.00845311 0.0181258 0.0
		vertex -0.0103583 0.0171086 0.0
		vertex -0.0129479 0.0213858 0.0
	endloop
endfacet
facet normal -0.0 0.0 -1.0783114861000006e-05
	outer loop
		vertex -0.0043703 0.0195167 0.0
		vertex -0.00644931 0.0189316 0.0
		vertex -0.00806163 0.0236645 0.0
	endloop
endfacet
facet normal 0.0 0.0 -1.3479002977e-05
	outer loop
		vertex -0.00546288 0.0243958 0.0
		vertex -0.00280042 0.0248427 0.0
		vertex -0.00224033 0.0198741 0.0
	endloop
endfacet
facet normal 0.0 0.0 -1.3478918463159994e-05
	outer loop
		vertex -0.00280042 0.0248427 0.0
		vertex -0.000105298 0.0249998 0.0
		vertex -8.42384e-05 0.0199998 0.0
	endloop
endfacet
facet normal 0.0 0.0 -1.3478855662799996e-05
	outer loop
		vertex -0.000105298 0.0249998 0.0
		vertex 0.00259105 0.0248654 0.0
		vertex 0.00207284 0.0198923 0.0
	endloop
endfacet
facet normal 0.0 -0.0 -1.3478855662799996e-05
	outer loop
		vertex 0.00207284 -0.0198923 0.0
		vertex 0.00259105 -0.0248654 0.0
		vertex -0.000105298 -0.0249998 0.0
	endloop
endfacet
facet normal 0.0 0.0 -1.3478754637000011e-05
	outer loop
		vertex -0.00644931 -0.0189316 0.0
		vertex -0.00806163 -0.0236645 0.0
		vertex -0.0105664 -0.0226573 0.0
	endloop
endfacet
facet normal 0.0 0.0 -1.347881723999999e-05
	outer loop
		vertex -0.0103583 -0.0171086 0.0
		vertex -0.0129479 -0.0213858 0.0
		vertex -0.0151784 -0.0198649 0.0
	endloop
endfacet
facet normal 0.0 0.0 -1.347873918000001e-05
	outer loop
		vertex -0.0137856 -0.0144899 0.0
		vertex -0.017232 -0.0181124 0.0
		vertex -0.0190846 -0.0161487 0.0
	endloop
endfacet
facet normal 0.0 -0.0 -1.0782899030999992e-05
	outer loop
		vertex -0.0197379 -0.00322704 0.0
		vertex -0.0192749 -0.00533657 0.0
		vertex -0.0240936 -0.00667071 0.0
	endloop
endfacet
facet normal -0.0 0.0 -1.0783233020000002e-05
	outer loop
		vertex -0.0103583 0.0171086 0.0
		vertex -0.0121428 0.0158919 0.0
		vertex -0.0151784 0.0198649 0.0
	endloop
endfacet
facet normal -0.0 0.0 -1.078282471899999e-05
	outer loop
		vertex -0.00224033 0.0198741 0.0
		vertex -0.0043703 0.0195167 0.0
		vertex -0.00546288 0.0243958 0.0
	endloop
endfacet
facet normal 0.0 0.0 -1.0783128092999994e-05
	outer loop
		vertex 0.00207284 0.0198923 0.0
		vertex -8.42384e-05 0.0199998 0.0
		vertex -0.000105298 0.0249998 0.0
	endloop
endfacet
facet normal 0.0 -0.0 -1.347876492e-05
	outer loop
		vertex 0.0127673 0.0214941 0.0
		vertex 0.0150106 0.0199921 0.0
		vertex 0.0120085 0.0159937 0.0
	endloop
endfacet
facet normal 0.0 -0.0 -1.3478921640000002e-05
	outer loop
		vertex 0.0150106 0.0199921 0.0
		vertex 0.0170788 0.0182569 0.0
		vertex 0.013663 0.0146055 0.0
	endloop
endfacet
facet normal 0.0 0.0 -1.0783119962000001e-05
	outer loop
		vertex 0.0220039 -0.0118671 0.0
		vertex 0.0176031 -0.00949368 0.0
		vertex 0.0185242 -0.00754018 0.0
	endloop
endfacet
facet normal 0.0 0.0 -1.0782990974000004e-05
	outer loop
		vertex 0.020596 -0.0141706 0.0
		vertex 0.0164768 -0.0113365 0.0
		vertex 0.0176031 -0.00949368 0.0
	endloop
endfacet
facet normal 0.0 0.0 -1.0783041210000002e-05
	outer loop
		vertex 0.0189479 -0.0163088 0.0
		vertex 0.0151583 -0.0130471 0.0
		vertex 0.0164768 -0.0113365 0.0
	endloop
endfacet
facet normal 0.0 0.0 -1.078312114e-05
	outer loop
		vertex 0.0170788 -0.0182569 0.0
		vertex 0.013663 -0.0146055 0.0
		vertex 0.0151583 -0.0130471 0.0
	endloop
endfacet
facet normal 0.0 0.0 -1.3478564878999993e-05
	outer loop
		vertex -0.0043703 -0.0195167 0.0
		vertex -0.00546288 -0.0243958 0.0
		vertex -0.00806163 -0.0236645 0.0
	endloop
endfacet
facet normal 0.0 -0.0 -1.0782755600000001e-05
	outer loop
		vertex -0.0137856 -0.0144899 0.0
		vertex -0.0121428 -0.0158919 0.0
		vertex -0.0151784 -0.0198649 0.0
	endloop
endfacet
facet normal 0.0 0.0 -1.0782926035e-05
	outer loop
		vertex -0.0176825 0.00934506 0.0
		vertex -0.0185871 0.00738387 0.0
		vertex -0.0232338 0.00922984 0.0
	endloop
endfacet
facet normal -0.0 0.0 -1.0783160036760003e-05
	outer loop
		vertex -8.42384e-05 0.0199998 0.0
		vertex -0.00224033 0.0198741 0.0
		vertex -0.00280042 0.0248427 0.0
	endloop
endfacet
facet normal 0.0 0.0 -1.3478717725999994e-05
	outer loop
		vertex 0.00525718 0.024441 0.0
		vertex 0.007862 0.0237316 0.0
		vertex 0.0062896 0.0189853 0.0
	endloop
endfacet
facet normal 0.0 0.0 -1.3478480987999996e-05
	outer loop
		vertex 0.007862 0.0237316 0.0
		vertex 0.0103751 0.0227455 0.0
		vertex 0.00830012 0.0181964 0.0
	endloop
endfacet
facet normal 0.0 -0.0 -1.3479039259999998e-05
	outer loop
		vertex 0.0103751 0.0227455 0.0
		vertex 0.0127673 0.0214941 0.0
		vertex 0.0102138 0.0171953 0.0
	endloop
endfacet
facet normal 0.0 0.0 -1.0782868019999997e-05
	outer loop
		vertex 0.013663 0.0146055 0.0
		vertex 0.0120085 0.0159937 0.0
		vertex 0.0150106 0.0199921 0.0
	endloop
endfacet
facet normal 0.0 -0.0 -1.3478780818000001e-05
	outer loop
		vertex 0.020596 0.0141706 0.0
		vertex 0.0220039 0.0118671 0.0
		vertex 0.0176031 0.00949368 0.0
	endloop
endfacet
facet normal 0.0 -0.0 -1.3478558035000003e-05
	outer loop
		vertex 0.0220039 0.0118671 0.0
		vertex 0.0231552 0.00942523 0.0
		vertex 0.0185242 0.00754018 0.0
	endloop
endfacet
facet normal 0.0 0.0 -1.3478780818000001e-05
	outer loop
		vertex 0.0176031 -0.00949368 0.0
		vertex 0.0220039 -0.0118671 0.0
		vertex 0.020596 -0.0141706 0.0
	endloop
endfacet
facet normal 0.0 0.0 -1.3478963229999996e-05
	outer loop
		vertex 0.0151583 -0.0130471 0.0
		vertex 0.0189479 -0.0163088 0.0
		vertex 0.0170788 -0.0182569 0.0
	endloop
endfacet
facet normal 0.0 0.0 -1.0782868019999993e-05
	outer loop
		vertex 0.0150106 -0.0199921 0.0
		vertex 0.0120085 -0.0159937 0.0
		vertex 0.013663 -0.0146055 0.0
	endloop
endfacet
facet normal 0.0 0.0 -1.0783341959999998e-05
	outer loop
		vertex 0.0127673 -0.0214941 0.0
		vertex 0.0102138 -0.0171953 0.0
		vertex 0.0120085 -0.0159937 0.0
	endloop
endfacet
facet normal 0.0 0.0 -1.3478815484999988e-05
	outer loop
		vertex -0.00845311 -0.0181258 0.0
		vertex -0.0105664 -0.0226573 0.0
		vertex -0.0129479 -0.0213858 0.0
	endloop
endfacet
facet normal -0.0 0.0 -1.0783108781999992e-05
	outer loop
		vertex -0.00644931 0.0189316 0.0
		vertex -0.00845311 0.0181258 0.0
		vertex -0.0105664 0.0226573 0.0
	endloop
endfacet
facet normal 0.0 0.0 -1.3478807802000003e-05
	outer loop
		vertex 0.00259105 0.0248654 0.0
		vertex 0.00525718 0.024441 0.0
		vertex 0.00420574 0.0195528 0.0
	endloop
endfacet
facet normal 0.0 0.0 -1.0782997435999991e-05
	outer loop
		vertex 0.00830012 0.0181964 0.0
		vertex 0.0062896 0.0189853 0.0
		vertex 0.007862 0.0237316 0.0
	endloop
endfacet
facet normal 0.0 0.0 -1.0783341959999998e-05
	outer loop
		vertex 0.0120085 0.0159937 0.0
		vertex 0.0102138 0.0171953 0.0
		vertex 0.0127673 0.0214941 0.0
	endloop
endfacet
facet normal 0.0 -0.0 -1.3478963229999996e-05
	outer loop
		vertex 0.0170788 0.0182569 0.0
		vertex 0.0189479 0.0163088 0.0
		vertex 0.0151583 0.0130471 0.0
	endloop
endfacet
facet normal 0.0 -0.0 -1.3478553649999992e-05
	outer loop
		vertex 0.0189479 0.0163088 0.0
		vertex 0.020596 0.0141706 0.0
		vertex 0.0164768 0.0113365 0.0
	endloop
endfacet
facet normal 0.0 0.0 -1.0783119962000001e-05
	outer loop
		vertex 0.0185242 0.00754018 0.0
		vertex 0.0176031 0.00949368 0.0
		vertex 0.0220039 0.0118671 0.0
	endloop
endfacet
facet normal 0.0 0.0 -1.3478553649999993e-05
	outer loop
		vertex 0.0164768 -0.0113365 0.0
		vertex 0.020596 -0.0141706 0.0
		vertex 0.0189479 -0.0163088 0.0
	endloop
endfacet
facet normal 0.0 0.0 -1.347876492e-05
	outer loop
		vertex 0.0120085 -0.0159937 0.0
		vertex 0.0150106 -0.0199921 0.0
		vertex 0.0127673 -0.0214941 0.0
	endloop
endfacet
facet normal 0.0 0.0 -1.0782784166000002e-05
	outer loop
		vertex 0.0103751 -0.0227455 0.0
		vertex 0.00830012 -0.0181964 0.0
		vertex 0.0102138 -0.0171953 0.0
	endloop
endfacet
facet normal 0.0 0.0 -1.0782997435999991e-05
	outer loop
		vertex 0.007862 -0.0237316 0.0
		vertex 0.0062896 -0.0189853 0.0
		vertex 0.00830012 -0.0181964 0.0
	endloop
endfacet
facet normal 0.0 0.0 -1.3478924489999988e-05
	outer loop
		vertex -0.0152677 -0.0129189 0.0
		vertex -0.0190846 -0.0161487 0.0
		vertex -0.0207146 -0.0139966 0.0
	endloop
endfacet
facet normal 0.0 0.0 -1.0783016652000001e-05
	outer loop
		vertex 0.0062896 0.0189853 0.0
		vertex 0.00420574 0.0195528 0.0
		vertex 0.00525718 0.024441 0.0
	endloop
endfacet
facet normal 0.0 0.0 -1.0783121139999998e-05
	outer loop
		vertex 0.0151583 0.0130471 0.0
		vertex 0.013663 0.0146055 0.0
		vertex 0.0170788 0.0182569 0.0
	endloop
endfacet
facet normal 0.0 0.0 -1.0782990974000002e-05
	outer loop
		vertex 0.0176031 0.00949368 0.0
		vertex 0.0164768 0.0113365 0.0
		vertex 0.020596 0.0141706 0.0
	endloop
endfacet
facet normal 0.0 0.0 -1.3478921640000004e-05
	outer loop
		vertex 0.013663 -0.0146055 0.0
		vertex 0.0170788 -0.0182569 0.0
		vertex 0.0150106 -0.0199921 0.0
	endloop
endfacet
facet normal 0.0 -0.0 -1.3478480987999996e-05
	outer loop
		vertex 0.00830012 -0.0181964 0.0
		vertex 0.0103751 -0.0227455 0.0
		vertex 0.007862 -0.0237316 0.0
	endloop
endfacet
facet normal 0.0 0.0 -1.0783057285e-05
	outer loop
		vertex 0.00420574 0.0195528 0.0
		vertex 0.00207284 0.0198923 0.0
		vertex 0.00259105 0.0248654 0.0
	endloop
endfacet
facet normal 0.0 0.0 -1.0783041210000004e-05
	outer loop
		vertex 0.0164768 0.0113365 0.0
		vertex 0.0151583 0.0130471 0.0
		vertex 0.0189479 0.0163088 0.0
	endloop
endfacet
facet normal 0.0 0.0 -1.3479039259999998e-05
	outer loop
		vertex 0.0102138 -0.0171953 0.0
		vertex 0.0127673 -0.0214941 0.0
		vertex 0.0103751 -0.0227455 0.0
	endloop
endfacet
facet normal 0.0 0.0 -1.0782784166000002e-05
	outer loop
		vertex 0.0102138 0.0171953 0.0
		vertex 0.00830012 0.0181964 0.0
		vertex 0.0103751 0.0227455 0.0
	endloop
endfacet
facet normal 0.0 -0.0 -1.3478717725999994e-05
	outer loop
		vertex 0.0062896 -0.0189853 0.0
		vertex 0.007862 -0.0237316 0.0
		vertex 0.00525718 -0.024441 0.0
	endloop
endfacet
facet normal 0.0 0.0 -1.3478558035000003e-05
	outer loop
		vertex 0.0185242 -0.00754018 0.0
		vertex 0.0231552 -0.00942523 0.0
		vertex 0.0220039 -0.0118671 0.0
	endloop
endfacet
endsolid Disconnected_torus