solid HollowCube
facet normal 0.0 1.0 0.0
	outer loop
		vertex -0.1300000101327896 0.1300000101327896 0.2600000500679016
		vertex -0.0950000062584877 0.1300000101327896 0.2250000536441803
		vertex -0.0950000062584877 0.1300000101327896 0.0350000336766243
	endloop
endfacet
facet normal -1.0 -0.0 0.0
	outer loop
		vertex 0.0950000062584877 0.1300000101327896 0.2250000536441803
		vertex 0.0950000062584877 0.0950000062584877 0.0350000336766243
		vertex 0.0950000062584877 0.0950000062584877 0.2250000536441803
	endloop
endfacet
facet normal 0.0 0.0 -1.0
	outer loop
		vertex -0.0950000062584877 0.1300000101327896 0.2250000536441803
		vertex 0.0950000062584877 0.0950000062584877 0.2250000536441803
		vertex -0.0950000062584877 0.0950000062584877 0.2250000536441803
	endloop
endfacet
facet normal 0.0 0.0 -1.0
	outer loop
		vertex 0.0950000062584877 -0.1300000101327896 0.2250000536441803
		vertex -0.0950000062584877 -0.0950000062584877 0.2250000536441803
		vertex 0.0950000062584877 -0.0950000062584877 0.2250000536441803
	endloop
endfacet
facet normal 0.0 0.0 1.0
	outer loop
		vertex 0.0950000062584877 0.1300000101327896 0.0350000336766243
		vertex -0.0950000062584877 0.0950000062584877 0.0350000336766243
		vertex 0.0950000062584877 0.0950000062584877 0.0350000336766243
	endloop
endfacet
facet normal 1.0 0.0 0.0
	outer loop
		vertex -0.0950000062584877 0.1300000101327896 0.0350000336766243
		vertex -0.0950000062584877 0.0950000062584877 0.2250000536441803
		vertex -0.0950000062584877 0.0950000062584877 0.0350000336766243
	endloop
endfacet
facet normal 1.0 -0.0 0.0
	outer loop
		vertex -0.0950000062584877 -0.1300000101327896 0.2250000536441803
		vertex -0.0950000062584877 -0.0950000062584877 0.0350000336766243
		vertex -0.0950000062584877 -0.0950000062584877 0.2250000536441803
	endloop
endfacet
facet normal -1.0 0.0 0.0
	outer loop
		vertex 0.0950000062584877 -0.1300000101327896 0.0350000336766243
		vertex 0.0950000062584877 -0.0950000062584877 0.2250000536441803
		vertex 0.0950000062584877 -0.0950000062584877 0.0350000336766243
	endloop
endfacet
facet normal 0.0 0.0 1.0
	outer loop
		vertex -0.0950000062584877 -0.1300000101327896 0.0350000336766243
		vertex 0.0950000062584877 -0.0950000062584877 0.0350000336766243
		vertex -0.0950000062584877 -0.0950000062584877 0.0350000336766243
	endloop
endfacet
facet normal 0.0 1.0 0.0
	outer loop
		vertex -0.0950000062584877 -0.0950000062584877 0.0350000336766243
		vertex 0.0950000062584877 -0.0950000062584877 2.9802322387695312e-08
		vertex -0.0950000062584877 -0.0950000062584877 2.9802322387695312e-08
	endloop
endfacet
facet normal 0.0 1.0 0.0
	outer loop
		vertex 0.0950000062584877 -0.0950000062584877 0.0350000336766243
		vertex 0.1300000101327896 -0.0950000062584877 0.2250000536441803
		vertex 0.1300000101327896 -0.0950000062584877 0.0350000336766243
	endloop
endfacet
facet normal 0.0 1.0 -0.0
	outer loop
		vertex 0.0950000062584877 -0.0950000062584877 0.2250000536441803
		vertex -0.0950000062584877 -0.0950000062584877 0.2600000500679016
		vertex 0.0950000062584877 -0.0950000062584877 0.2600000500679016
	endloop
endfacet
facet normal 0.0 1.0 0.0
	outer loop
		vertex -0.0950000062584877 -0.0950000062584877 0.2250000536441803
		vertex -0.1300000101327896 -0.0950000062584877 0.0350000336766243
		vertex -0.1300000101327896 -0.0950000062584877 0.2250000536441803
	endloop
endfacet
facet normal 0.0 -1.0 0.0
	outer loop
		vertex -0.0950000062584877 0.0950000062584877 0.0350000336766243
		vertex -0.1300000101327896 0.0950000062584877 0.2250000536441803
		vertex -0.1300000101327896 0.0950000062584877 0.0350000336766243
	endloop
endfacet
facet normal 0.0 -1.0 0.0
	outer loop
		vertex -0.0950000062584877 0.0950000062584877 0.2250000536441803
		vertex 0.0950000062584877 0.0950000062584877 0.2600000500679016
		vertex -0.0950000062584877 0.0950000062584877 0.2600000500679016
	endloop
endfacet
facet normal 0.0 -1.0 0.0
	outer loop
		vertex 0.0950000062584877 0.0950000062584877 0.2250000536441803
		vertex 0.1300000101327896 0.0950000062584877 0.0350000336766243
		vertex 0.1300000101327896 0.0950000062584877 0.2250000536441803
	endloop
endfacet
facet normal 0.0 -1.0 -0.0
	outer loop
		vertex 0.0950000062584877 0.0950000062584877 0.0350000336766243
		vertex -0.0950000062584877 0.0950000062584877 2.9802322387695312e-08
		vertex 0.0950000062584877 0.0950000062584877 2.9802322387695312e-08
	endloop
endfacet
facet normal 0.0 0.0 1.0
	outer loop
		vertex 0.1300000101327896 -0.0950000062584877 0.0350000336766243
		vertex 0.0950000062584877 0.0950000062584877 0.0350000336766243
		vertex 0.0950000062584877 -0.0950000062584877 0.0350000336766243
	endloop
endfacet
facet normal -0.0 0.0 -1.0
	outer loop
		vertex 0.1300000101327896 0.0950000062584877 0.2250000536441803
		vertex 0.0950000062584877 -0.0950000062584877 0.2250000536441803
		vertex 0.0950000062584877 0.0950000062584877 0.2250000536441803
	endloop
endfacet
facet normal 0.0 0.0 -1.0
	outer loop
		vertex -0.1300000101327896 -0.0950000062584877 0.2250000536441803
		vertex -0.0950000062584877 0.0950000062584877 0.2250000536441803
		vertex -0.0950000062584877 -0.0950000062584877 0.2250000536441803
	endloop
endfacet
facet normal -0.0 0.0 1.0
	outer loop
		vertex -0.1300000101327896 0.0950000062584877 0.0350000336766243
		vertex -0.0950000062584877 -0.0950000062584877 0.0350000336766243
		vertex -0.0950000062584877 0.0950000062584877 0.0350000336766243
	endloop
endfacet
facet normal -1.0 0.0 0.0
	outer loop
		vertex 0.0950000062584877 0.0950000062584877 0.2250000536441803
		vertex 0.0950000062584877 -0.0950000062584877 0.2600000500679016
		vertex 0.0950000062584877 0.0950000062584877 0.2600000500679016
	endloop
endfacet
facet normal -1.0 0.0 0.0
	outer loop
		vertex 0.0950000062584877 -0.0950000062584877 0.0350000336766243
		vertex 0.0950000062584877 0.0950000062584877 2.9802322387695312e-08
		vertex 0.0950000062584877 -0.0950000062584877 2.9802322387695312e-08
	endloop
endfacet
facet normal 1.0 0.0 0.0
	outer loop
		vertex -0.0950000062584877 -0.0950000062584877 0.2250000536441803
		vertex -0.0950000062584877 0.0950000062584877 0.2600000500679016
		vertex -0.0950000062584877 -0.0950000062584877 0.2600000500679016
	endloop
endfacet
facet normal 1.0 0.0 0.0
	outer loop
		vertex -0.0950000062584877 0.0950000062584877 0.0350000336766243
		vertex -0.0950000062584877 -0.0950000062584877 2.9802322387695312e-08
		vertex -0.0950000062584877 0.0950000062584877 2.9802322387695312e-08
	endloop
endfacet
facet normal 0.0 0.0 1.0
	outer loop
		vertex 0.1300000101327896 -0.1300000101327896 0.2600000500679016
		vertex 0.0950000062584877 -0.0950000062584877 0.2600000500679016
		vertex -0.0950000062584877 -0.0950000062584877 0.2600000500679016
	endloop
endfacet
facet normal -0.0 0.0 -1.0
	outer loop
		vertex 0.1300000101327896 0.1300000101327896 2.9802322387695312e-08
		vertex -0.0950000062584877 0.0950000062584877 2.9802322387695312e-08
		vertex -0.1300000101327896 0.1300000101327896 2.9802322387695312e-08
	endloop
endfacet
facet normal 0.0 -1.0 -0.0
	outer loop
		vertex 0.1300000101327896 -0.1300000101327896 0.2600000500679016
		vertex 0.0950000062584877 -0.1300000101327896 0.0350000336766243
		vertex 0.1300000101327896 -0.1300000101327896 2.9802322387695312e-08
	endloop
endfacet
facet normal -1.0 0.0 0.0
	outer loop
		vertex -0.1300000101327896 0.1300000101327896 2.9802322387695312e-08
		vertex -0.1300000101327896 0.0950000062584877 0.0350000336766243
		vertex -0.1300000101327896 0.1300000101327896 0.2600000500679016
	endloop
endfacet
facet normal -1.0 0.0 -0.0
	outer loop
		vertex 0.0950000062584877 0.1300000101327896 0.2250000536441803
		vertex 0.0950000062584877 0.1300000101327896 0.0350000336766243
		vertex 0.0950000062584877 0.0950000062584877 0.0350000336766243
	endloop
endfacet
facet normal 0.0 0.0 -1.0
	outer loop
		vertex -0.0950000062584877 0.1300000101327896 0.2250000536441803
		vertex 0.0950000062584877 0.1300000101327896 0.2250000536441803
		vertex 0.0950000062584877 0.0950000062584877 0.2250000536441803
	endloop
endfacet
facet normal 0.0 0.0 -1.0
	outer loop
		vertex 0.0950000062584877 -0.1300000101327896 0.2250000536441803
		vertex -0.0950000062584877 -0.1300000101327896 0.2250000536441803
		vertex -0.0950000062584877 -0.0950000062584877 0.2250000536441803
	endloop
endfacet
facet normal 0.0 0.0 1.0
	outer loop
		vertex 0.0950000062584877 0.1300000101327896 0.0350000336766243
		vertex -0.0950000062584877 0.1300000101327896 0.0350000336766243
		vertex -0.0950000062584877 0.0950000062584877 0.0350000336766243
	endloop
endfacet
facet normal 1.0 0.0 -0.0
	outer loop
		vertex -0.0950000062584877 0.1300000101327896 0.0350000336766243
		vertex -0.0950000062584877 0.1300000101327896 0.2250000536441803
		vertex -0.0950000062584877 0.0950000062584877 0.2250000536441803
	endloop
endfacet
facet normal 1.0 0.0 0.0
	outer loop
		vertex -0.0950000062584877 -0.1300000101327896 0.2250000536441803
		vertex -0.0950000062584877 -0.1300000101327896 0.0350000336766243
		vertex -0.0950000062584877 -0.0950000062584877 0.0350000336766243
	endloop
endfacet
facet normal -1.0 0.0 0.0
	outer loop
		vertex 0.0950000062584877 -0.1300000101327896 0.0350000336766243
		vertex 0.0950000062584877 -0.1300000101327896 0.2250000536441803
		vertex 0.0950000062584877 -0.0950000062584877 0.2250000536441803
	endloop
endfacet
facet normal 0.0 0.0 1.0
	outer loop
		vertex -0.0950000062584877 -0.1300000101327896 0.0350000336766243
		vertex 0.0950000062584877 -0.1300000101327896 0.0350000336766243
		vertex 0.0950000062584877 -0.0950000062584877 0.0350000336766243
	endloop
endfacet
facet normal -0.0 1.0 0.0
	outer loop
		vertex -0.0950000062584877 -0.0950000062584877 0.0350000336766243
		vertex 0.0950000062584877 -0.0950000062584877 0.0350000336766243
		vertex 0.0950000062584877 -0.0950000062584877 2.9802322387695312e-08
	endloop
endfacet
facet normal 0.0 1.0 0.0
	outer loop
		vertex 0.0950000062584877 -0.0950000062584877 0.0350000336766243
		vertex 0.0950000062584877 -0.0950000062584877 0.2250000536441803
		vertex 0.1300000101327896 -0.0950000062584877 0.2250000536441803
	endloop
endfacet
facet normal 0.0 1.0 0.0
	outer loop
		vertex 0.0950000062584877 -0.0950000062584877 0.2250000536441803
		vertex -0.0950000062584877 -0.0950000062584877 0.2250000536441803
		vertex -0.0950000062584877 -0.0950000062584877 0.2600000500679016
	endloop
endfacet
facet normal 0.0 1.0 0.0
	outer loop
		vertex -0.0950000062584877 -0.0950000062584877 0.2250000536441803
		vertex -0.0950000062584877 -0.0950000062584877 0.0350000336766243
		vertex -0.1300000101327896 -0.0950000062584877 0.0350000336766243
	endloop
endfacet
facet normal 0.0 -1.0 0.0
	outer loop
		vertex -0.0950000062584877 0.0950000062584877 0.0350000336766243
		vertex -0.0950000062584877 0.0950000062584877 0.2250000536441803
		vertex -0.1300000101327896 0.0950000062584877 0.2250000536441803
	endloop
endfacet
facet normal 0.0 -1.0 0.0
	outer loop
		vertex -0.0950000062584877 0.0950000062584877 0.2250000536441803
		vertex 0.0950000062584877 0.0950000062584877 0.2250000536441803
		vertex 0.0950000062584877 0.0950000062584877 0.2600000500679016
	endloop
endfacet
facet normal 0.0 -1.0 0.0
	outer loop
		vertex 0.0950000062584877 0.0950000062584877 0.2250000536441803
		vertex 0.0950000062584877 0.0950000062584877 0.0350000336766243
		vertex 0.1300000101327896 0.0950000062584877 0.0350000336766243
	endloop
endfacet
facet normal -0.0 -1.0 0.0
	outer loop
		vertex 0.0950000062584877 0.0950000062584877 0.0350000336766243
		vertex -0.0950000062584877 0.0950000062584877 0.0350000336766243
		vertex -0.0950000062584877 0.0950000062584877 2.9802322387695312e-08
	endloop
endfacet
facet normal 0.0 -0.0 1.0
	outer loop
		vertex 0.1300000101327896 -0.0950000062584877 0.0350000336766243
		vertex 0.1300000101327896 0.0950000062584877 0.0350000336766243
		vertex 0.0950000062584877 0.0950000062584877 0.0350000336766243
	endloop
endfacet
facet normal 0.0 -0.0 -1.0
	outer loop
		vertex 0.1300000101327896 0.0950000062584877 0.2250000536441803
		vertex 0.1300000101327896 -0.0950000062584877 0.2250000536441803
		vertex 0.0950000062584877 -0.0950000062584877 0.2250000536441803
	endloop
endfacet
facet normal 0.0 0.0 -1.0
	outer loop
		vertex -0.1300000101327896 -0.0950000062584877 0.2250000536441803
		vertex -0.1300000101327896 0.0950000062584877 0.2250000536441803
		vertex -0.0950000062584877 0.0950000062584877 0.2250000536441803
	endloop
endfacet
facet normal 0.0 0.0 1.0
	outer loop
		vertex -0.1300000101327896 0.0950000062584877 0.0350000336766243
		vertex -0.1300000101327896 -0.0950000062584877 0.0350000336766243
		vertex -0.0950000062584877 -0.0950000062584877 0.0350000336766243
	endloop
endfacet
facet normal -1.0 0.0 0.0
	outer loop
		vertex 0.0950000062584877 0.0950000062584877 0.2250000536441803
		vertex 0.0950000062584877 -0.0950000062584877 0.2250000536441803
		vertex 0.0950000062584877 -0.0950000062584877 0.2600000500679016
	endloop
endfacet
facet normal -1.0 0.0 0.0
	outer loop
		vertex 0.0950000062584877 -0.0950000062584877 0.0350000336766243
		vertex 0.0950000062584877 0.0950000062584877 0.0350000336766243
		vertex 0.0950000062584877 0.0950000062584877 2.9802322387695312e-08
	endloop
endfacet
facet normal 1.0 0.0 0.0
	outer loop
		vertex -0.0950000062584877 -0.0950000062584877 0.2250000536441803
		vertex -0.0950000062584877 0.0950000062584877 0.2250000536441803
		vertex -0.0950000062584877 0.0950000062584877 0.2600000500679016
	endloop
endfacet
facet normal 1.0 0.0 0.0
	outer loop
		vertex -0.0950000062584877 0.0950000062584877 0.0350000336766243
		vertex -0.0950000062584877 -0.0950000062584877 0.0350000336766243
		vertex -0.0950000062584877 -0.0950000062584877 2.9802322387695312e-08
	endloop
endfacet
facet normal -0.0 0.0 1.0
	outer loop
		vertex 0.0950000062584877 -0.0950000062584877 0.2600000500679016
		vertex 0.1300000101327896 -0.1300000101327896 0.2600000500679016
		vertex 0.0950000062584877 0.0950000062584877 0.2600000500679016
	endloop
endfacet
facet normal 0.0 0.0 1.0
	outer loop
		vertex 0.1300000101327896 0.1300000101327896 0.2600000500679016
		vertex 0.0950000062584877 0.0950000062584877 0.2600000500679016
		vertex 0.1300000101327896 -0.1300000101327896 0.2600000500679016
	endloop
endfacet
facet normal 0.0 -0.0 1.0
	outer loop
		vertex 0.0950000062584877 0.0950000062584877 0.2600000500679016
		vertex 0.1300000101327896 0.1300000101327896 0.2600000500679016
		vertex -0.0950000062584877 0.0950000062584877 0.2600000500679016
	endloop
endfacet
facet normal -0.0 0.0 1.0
	outer loop
		vertex -0.1300000101327896 0.1300000101327896 0.2600000500679016
		vertex -0.0950000062584877 0.0950000062584877 0.2600000500679016
		vertex 0.1300000101327896 0.1300000101327896 0.2600000500679016
	endloop
endfacet
facet normal 0.0 0.0 1.0
	outer loop
		vertex -0.0950000062584877 0.0950000062584877 0.2600000500679016
		vertex -0.1300000101327896 0.1300000101327896 0.2600000500679016
		vertex -0.0950000062584877 -0.0950000062584877 0.2600000500679016
	endloop
endfacet
facet normal 0.0 0.0 1.0
	outer loop
		vertex -0.1300000101327896 -0.1300000101327896 0.2600000500679016
		vertex -0.0950000062584877 -0.0950000062584877 0.2600000500679016
		vertex -0.1300000101327896 0.1300000101327896 0.2600000500679016
	endloop
endfacet
facet normal 0.0 0.0 1.0
	outer loop
		vertex -0.0950000062584877 -0.0950000062584877 0.2600000500679016
		vertex -0.1300000101327896 -0.1300000101327896 0.2600000500679016
		vertex 0.1300000101327896 -0.1300000101327896 0.2600000500679016
	endloop
endfacet
facet normal 0.0 0.0 -1.0
	outer loop
		vertex -0.1300000101327896 -0.1300000101327896 2.9802322387695312e-08
		vertex -0.1300000101327896 0.1300000101327896 2.9802322387695312e-08
		vertex -0.0950000062584877 0.0950000062584877 2.9802322387695312e-08
	endloop
endfacet
facet normal 0.0 0.0 -1.0
	outer loop
		vertex -0.1300000101327896 -0.1300000101327896 2.9802322387695312e-08
		vertex -0.0950000062584877 0.0950000062584877 2.9802322387695312e-08
		vertex -0.0950000062584877 -0.0950000062584877 2.9802322387695312e-08
	endloop
endfacet
facet normal 0.0 0.0 -1.0
	outer loop
		vertex -0.1300000101327896 -0.1300000101327896 2.9802322387695312e-08
		vertex -0.0950000062584877 -0.0950000062584877 2.9802322387695312e-08
		vertex 0.0950000062584877 -0.0950000062584877 2.9802322387695312e-08
	endloop
endfacet
facet normal 0.0 0.0 -1.0
	outer loop
		vertex -0.1300000101327896 -0.1300000101327896 2.9802322387695312e-08
		vertex 0.0950000062584877 -0.0950000062584877 2.9802322387695312e-08
		vertex 0.1300000101327896 -0.1300000101327896 2.9802322387695312e-08
	endloop
endfacet
facet normal 0.0 -0.0 -1.0
	outer loop
		vertex 0.1300000101327896 0.1300000101327896 2.9802322387695312e-08
		vertex 0.1300000101327896 -0.1300000101327896 2.9802322387695312e-08
		vertex 0.0950000062584877 -0.0950000062584877 2.9802322387695312e-08
	endloop
endfacet
facet normal 0.0 0.0 -1.0
	outer loop
		vertex 0.1300000101327896 0.1300000101327896 2.9802322387695312e-08
		vertex 0.0950000062584877 -0.0950000062584877 2.9802322387695312e-08
		vertex 0.0950000062584877 0.0950000062584877 2.9802322387695312e-08
	endloop
endfacet
facet normal 0.0 0.0 -1.0
	outer loop
		vertex 0.1300000101327896 0.1300000101327896 2.9802322387695312e-08
		vertex 0.0950000062584877 0.0950000062584877 2.9802322387695312e-08
		vertex -0.0950000062584877 0.0950000062584877 2.9802322387695312e-08
	endloop
endfacet
facet normal 0.0 -1.0 0.0
	outer loop
		vertex -0.1300000101327896 -0.1300000101327896 2.9802322387695312e-08
		vertex 0.1300000101327896 -0.1300000101327896 2.9802322387695312e-08
		vertex 0.0950000062584877 -0.1300000101327896 0.0350000336766243
	endloop
endfacet
facet normal 0.0 -1.0 0.0
	outer loop
		vertex -0.1300000101327896 -0.1300000101327896 2.9802322387695312e-08
		vertex 0.0950000062584877 -0.1300000101327896 0.0350000336766243
		vertex -0.0950000062584877 -0.1300000101327896 0.0350000336766243
	endloop
endfacet
facet normal 0.0 -1.0 0.0
	outer loop
		vertex -0.1300000101327896 -0.1300000101327896 2.9802322387695312e-08
		vertex -0.0950000062584877 -0.1300000101327896 0.0350000336766243
		vertex -0.0950000062584877 -0.1300000101327896 0.2250000536441803
	endloop
endfacet
facet normal 0.0 -1.0 0.0
	outer loop
		vertex -0.1300000101327896 -0.1300000101327896 2.9802322387695312e-08
		vertex -0.0950000062584877 -0.1300000101327896 0.2250000536441803
		vertex -0.1300000101327896 -0.1300000101327896 0.2600000500679016
	endloop
endfacet
facet normal -0.0 -1.0 0.0
	outer loop
		vertex 0.1300000101327896 -0.1300000101327896 0.2600000500679016
		vertex -0.1300000101327896 -0.1300000101327896 0.2600000500679016
		vertex -0.0950000062584877 -0.1300000101327896 0.2250000536441803
	endloop
endfacet
facet normal 0.0 -1.0 0.0
	outer loop
		vertex 0.1300000101327896 -0.1300000101327896 0.2600000500679016
		vertex -0.0950000062584877 -0.1300000101327896 0.2250000536441803
		vertex 0.0950000062584877 -0.1300000101327896 0.2250000536441803
	endloop
endfacet
facet normal 0.0 -1.0 0.0
	outer loop
		vertex 0.1300000101327896 -0.1300000101327896 0.2600000500679016
		vertex 0.0950000062584877 -0.1300000101327896 0.2250000536441803
		vertex 0.0950000062584877 -0.1300000101327896 0.0350000336766243
	endloop
endfacet
facet normal -1.0 0.0 0.0
	outer loop
		vertex -0.1300000101327896 0.0950000062584877 0.0350000336766243
		vertex -0.1300000101327896 0.0950000062584877 0.2250000536441803
		vertex -0.1300000101327896 0.1300000101327896 0.2600000500679016
	endloop
endfacet
facet normal -1.0 0.0 0.0
	outer loop
		vertex -0.1300000101327896 -0.0950000062584877 0.2250000536441803
		vertex -0.1300000101327896 0.1300000101327896 0.2600000500679016
		vertex -0.1300000101327896 0.0950000062584877 0.2250000536441803
	endloop
endfacet
facet normal -1.0 -0.0 0.0
	outer loop
		vertex -0.1300000101327896 0.1300000101327896 0.2600000500679016
		vertex -0.1300000101327896 -0.0950000062584877 0.2250000536441803
		vertex -0.1300000101327896 -0.1300000101327896 0.2600000500679016
	endloop
endfacet
facet normal -1.0 0.0 0.0
	outer loop
		vertex -0.1300000101327896 -0.0950000062584877 0.0350000336766243
		vertex -0.1300000101327896 -0.1300000101327896 0.2600000500679016
		vertex -0.1300000101327896 -0.0950000062584877 0.2250000536441803
	endloop
endfacet
facet normal -1.0 0.0 0.0
	outer loop
		vertex -0.1300000101327896 -0.1300000101327896 0.2600000500679016
		vertex -0.1300000101327896 -0.0950000062584877 0.0350000336766243
		vertex -0.1300000101327896 -0.1300000101327896 2.9802322387695312e-08
	endloop
endfacet
facet normal -1.0 0.0 0.0
	outer loop
		vertex -0.1300000101327896 0.1300000101327896 2.9802322387695312e-08
		vertex -0.1300000101327896 -0.1300000101327896 2.9802322387695312e-08
		vertex -0.1300000101327896 -0.0950000062584877 0.0350000336766243
	endloop
endfacet
facet normal -1.0 0.0 0.0
	outer loop
		vertex -0.1300000101327896 0.1300000101327896 2.9802322387695312e-08
		vertex -0.1300000101327896 -0.0950000062584877 0.0350000336766243
		vertex -0.1300000101327896 0.0950000062584877 0.0350000336766243
	endloop
endfacet
facet normal 0.0 1.0 -0.0
	outer loop
		vertex -0.0950000062584877 0.1300000101327896 0.2250000536441803
		vertex -0.1300000101327896 0.1300000101327896 0.2600000500679016
		vertex 0.0950000062584877 0.1300000101327896 0.2250000536441803
	endloop
endfacet
facet normal 0.0 1.0 0.0
	outer loop
		vertex 0.1300000101327896 0.1300000101327896 0.2600000500679016
		vertex 0.0950000062584877 0.1300000101327896 0.2250000536441803
		vertex -0.1300000101327896 0.1300000101327896 0.2600000500679016
	endloop
endfacet
facet normal -0.0 1.0 0.0
	outer loop
		vertex 0.0950000062584877 0.1300000101327896 0.2250000536441803
		vertex 0.1300000101327896 0.1300000101327896 0.2600000500679016
		vertex 0.0950000062584877 0.1300000101327896 0.0350000336766243
	endloop
endfacet
facet normal 0.0 1.0 -0.0
	outer loop
		vertex 0.1300000101327896 0.1300000101327896 2.9802322387695312e-08
		vertex 0.0950000062584877 0.1300000101327896 0.0350000336766243
		vertex 0.1300000101327896 0.1300000101327896 0.2600000500679016
	endloop
endfacet
facet normal 0.0 1.0 0.0
	outer loop
		vertex 0.0950000062584877 0.1300000101327896 0.0350000336766243
		vertex 0.1300000101327896 0.1300000101327896 2.9802322387695312e-08
		vertex -0.0950000062584877 0.1300000101327896 0.0350000336766243
	endloop
endfacet
facet normal 0.0 1.0 0.0
	outer loop
		vertex -0.1300000101327896 0.1300000101327896 2.9802322387695312e-08
		vertex -0.0950000062584877 0.1300000101327896 0.0350000336766243
		vertex 0.1300000101327896 0.1300000101327896 2.9802322387695312e-08
	endloop
endfacet
facet normal 0.0 1.0 0.0
	outer loop
		vertex -0.0950000062584877 0.1300000101327896 0.0350000336766243
		vertex -0.1300000101327896 0.1300000101327896 2.9802322387695312e-08
		vertex -0.1300000101327896 0.1300000101327896 0.2600000500679016
	endloop
endfacet
facet normal 1.0 0.0 0.0
	outer loop
		vertex 0.1300000101327896 0.0950000062584877 0.2250000536441803
		vertex 0.1300000101327896 0.0950000062584877 0.0350000336766243
		vertex 0.1300000101327896 0.1300000101327896 2.9802322387695312e-08
	endloop
endfacet
facet normal 1.0 -0.0 0.0
	outer loop
		vertex 0.1300000101327896 -0.0950000062584877 0.0350000336766243
		vertex 0.1300000101327896 0.1300000101327896 2.9802322387695312e-08
		vertex 0.1300000101327896 0.0950000062584877 0.0350000336766243
	endloop
endfacet
facet normal 1.0 0.0 0.0
	outer loop
		vertex 0.1300000101327896 0.1300000101327896 2.9802322387695312e-08
		vertex 0.1300000101327896 -0.0950000062584877 0.0350000336766243
		vertex 0.1300000101327896 -0.1300000101327896 2.9802322387695312e-08
	endloop
endfacet
facet normal 1.0 0.0 0.0
	outer loop
		vertex 0.1300000101327896 -0.0950000062584877 0.2250000536441803
		vertex 0.1300000101327896 -0.1300000101327896 2.9802322387695312e-08
		vertex 0.1300000101327896 -0.0950000062584877 0.0350000336766243
	endloop
endfacet
facet normal 1.0 0.0 0.0
	outer loop
		vertex 0.1300000101327896 -0.1300000101327896 2.9802322387695312e-08
		vertex 0.1300000101327896 -0.0950000062584877 0.2250000536441803
		vertex 0.1300000101327896 -0.1300000101327896 0.2600000500679016
	endloop
endfacet
facet normal 1.0 0.0 0.0
	outer loop
		vertex 0.1300000101327896 0.1300000101327896 0.2600000500679016
		vertex 0.1300000101327896 -0.1300000101327896 0.2600000500679016
		vertex 0.1300000101327896 -0.0950000062584877 0.2250000536441803
	endloop
endfacet
facet normal 1.0 0.0 0.0
	outer loop
		vertex 0.1300000101327896 0.1300000101327896 0.2600000500679016
		vertex 0.1300000101327896 -0.0950000062584877 0.2250000536441803
		vertex 0.1300000101327896 0.0950000062584877 0.2250000536441803
	endloop
endfacet
facet normal 1.0 0.0 0.0
	outer loop
		vertex 0.1300000101327896 0.1300000101327896 0.2600000500679016
		vertex 0.1300000101327896 0.0950000062584877 0.2250000536441803
		vertex 0.1300000101327896 0.1300000101327896 2.9802322387695312e-08
	endloop
endfacet
endsolid HollowCube