solid Hollow_Pyramid
facet normal 8.604708443416074e-05 0.0 -4.9679305496148726e-05
	outer loop
		vertex -0.013550740666687489 0.017216909676790237 0.0031761853024363518
		vertex -2.2204462064146295e-18 0.003666175063699484 0.026646757498383522
		vertex -0.013550740666687489 0.013550740666687489 0.0031761853024363518
	endloop
endfacet
facet normal 8.60472265155399e-05 0.0 -4.967938752686816e-05
	outer loop
		vertex -0.013550740666687489 0.013550740666687489 0.0031761853024363518
		vertex -2.2204462064146295e-18 0.003666175063699484 0.026646757498383522
		vertex -2.2204462064146295e-18 1.3193780992356089e-18 0.026646757498383522
	endloop
endfacet
facet normal -8.604708443416074e-05 -0.0 -4.967930549614874e-05
	outer loop
		vertex 0.013550740666687489 0.017216909676790237 0.0031761853024363518
		vertex 0.013550740666687489 0.013550740666687489 0.0031761853024363518
		vertex -2.2204462064146295e-18 0.003666175063699484 0.026646757498383522
	endloop
endfacet
facet normal -8.604722651553992e-05 -0.0 -4.9679387526868176e-05
	outer loop
		vertex -2.2204462064146295e-18 0.003666175063699484 0.026646757498383522
		vertex 0.013550740666687489 0.013550740666687489 0.0031761853024363518
		vertex -2.2204462064146295e-18 1.3193780992356089e-18 0.026646757498383522
	endloop
endfacet
facet normal 8.604708443416074e-05 0.0 -4.9679305496148726e-05
	outer loop
		vertex -0.013550740666687489 -0.017216909676790237 0.0031761853024363518
		vertex -0.013550740666687489 -0.013550740666687489 0.0031761853024363518
		vertex -2.2204462064146295e-18 -0.003666175063699484 0.026646757498383522
	endloop
endfacet
facet normal 8.604722651553998e-05 0.0 -4.9679387526868203e-05
	outer loop
		vertex -2.2204462064146295e-18 -0.003666175063699484 0.026646757498383522
		vertex -0.013550740666687489 -0.013550740666687489 0.0031761853024363518
		vertex -2.2204462064146295e-18 1.3193780992356089e-18 0.026646757498383522
	endloop
endfacet
facet normal -8.604708443416074e-05 0.0 -4.967930549614874e-05
	outer loop
		vertex 0.013550740666687489 -0.017216909676790237 0.0031761853024363518
		vertex -2.2204462064146295e-18 -0.003666175063699484 0.026646757498383522
		vertex 0.013550740666687489 -0.013550740666687489 0.0031761853024363518
	endloop
endfacet
facet normal -8.604722651554e-05 0.0 -4.967938752686822e-05
	outer loop
		vertex 0.013550740666687489 -0.013550740666687489 0.0031761853024363518
		vertex -2.2204462064146295e-18 -0.003666175063699484 0.026646757498383522
		vertex -2.2204462064146295e-18 1.3193780992356089e-18 0.026646757498383522
	endloop
endfacet
facet normal 1.203547770539752e-19 8.604722651554e-05 -4.9679387526868156e-05
	outer loop
		vertex -2.2204462064146295e-18 1.3193780992356089e-18 0.026646757498383522
		vertex 0.003666175063699484 -3.808523174290126e-18 0.026646757498383522
		vertex 0.013550740666687489 -0.013550740666687489 0.0031761853024363518
	endloop
endfacet
facet normal 0.0 8.604708443416074e-05 -4.967930549614872e-05
	outer loop
		vertex 0.013550740666687489 -0.013550740666687489 0.0031761853024363518
		vertex 0.003666175063699484 -3.808523174290126e-18 0.026646757498383522
		vertex 0.017216909676790237 -0.013550740666687489 0.0031761853024363518
	endloop
endfacet
facet normal -1.203547770539752e-19 -8.604722651554e-05 -4.967938752686828e-05
	outer loop
		vertex -2.2204462064146295e-18 1.3193780992356089e-18 0.026646757498383522
		vertex 0.013550740666687489 0.013550740666687489 0.0031761853024363518
		vertex 0.003666175063699484 -3.808523174290126e-18 0.026646757498383522
	endloop
endfacet
facet normal 0.0 -8.604708443416074e-05 -4.967930549614876e-05
	outer loop
		vertex 0.003666175063699484 -3.808523174290126e-18 0.026646757498383522
		vertex 0.013550740666687489 0.013550740666687489 0.0031761853024363518
		vertex 0.017216909676790237 0.013550740666687489 0.0031761853024363518
	endloop
endfacet
facet normal 1.203547770539752e-19 -8.60472265155399e-05 -4.9679387526868224e-05
	outer loop
		vertex -2.2204462064146295e-18 1.3193780992356089e-18 0.026646757498383522
		vertex -0.003666175063699484 -3.808523174290126e-18 0.026646757498383522
		vertex -0.013550740666687489 0.013550740666687489 0.0031761853024363518
	endloop
endfacet
facet normal -0.0 -8.604708443416074e-05 -4.967930549614875e-05
	outer loop
		vertex -0.013550740666687489 0.013550740666687489 0.0031761853024363518
		vertex -0.003666175063699484 -3.808523174290126e-18 0.026646757498383522
		vertex -0.017216909676790237 0.013550740666687489 0.0031761853024363518
	endloop
endfacet
facet normal -0.0 0.0 9.935861099229747e-05
	outer loop
		vertex -0.017216909676790237 0.013550740666687489 0.0031761853024363518
		vertex -0.017216909676790237 -0.013550740666687489 0.0031761853024363518
		vertex -0.013550740666687489 0.013550740666687489 0.0031761853024363518
	endloop
endfacet
facet normal 0.0 0.0 9.935861099229747e-05
	outer loop
		vertex -0.013550740666687489 0.013550740666687489 0.0031761853024363518
		vertex -0.017216909676790237 -0.013550740666687489 0.0031761853024363518
		vertex -0.013550740666687489 -0.013550740666687489 0.0031761853024363518
	endloop
endfacet
facet normal 0.0 0.0 3.962192655154986e-06
	outer loop
		vertex -0.0007803629268892109 -0.003923140931874514 0.0031761853024363518
		vertex -0.001530735520645976 -0.003695517545565963 0.0031761853024363518
		vertex 0.013550740666687489 -0.013550740666687489 0.0031761853024363518
	endloop
endfacet
facet normal 0.0 0.0 6.411531369519163e-06
	outer loop
		vertex 0.013550740666687489 -0.013550740666687489 0.0031761853024363518
		vertex -1.3033655266170285e-09 -0.004000000189989805 0.0031761853024363518
		vertex -0.0007803629268892109 -0.003923140931874514 0.0031761853024363518
	endloop
endfacet
facet normal 0.0 0.0 8.494525444379444e-06
	outer loop
		vertex 0.013550740666687489 -0.013550740666687489 0.0031761853024363518
		vertex 0.0007803603657521307 -0.003923141397535801 0.0031761853024363518
		vertex -1.3033655266170285e-09 -0.004000000189989805 0.0031761853024363518
	endloop
endfacet
facet normal 0.0 0.0 1.0131117165383544e-05
	outer loop
		vertex 0.013550740666687489 -0.013550740666687489 0.0031761853024363518
		vertex 0.0015307331923395395 -0.003695518709719181 0.0031761853024363518
		vertex 0.0007803603657521307 -0.003923141397535801 0.0031761853024363518
	endloop
endfacet
facet normal 0.0 0.0 1.1258430211396394e-05
	outer loop
		vertex 0.013550740666687489 -0.013550740666687489 0.0031761853024363518
		vertex 0.0022222809493541718 -0.0033258788753300905 0.0031761853024363518
		vertex 0.0015307331923395395 -0.003695518709719181 0.0031761853024363518
	endloop
endfacet
facet normal 0.0 0.0 1.1833122986525308e-05
	outer loop
		vertex 0.013550740666687489 -0.013550740666687489 0.0031761853024363518
		vertex 0.0028284271247684956 -0.0028284271247684956 0.0031761853024363518
		vertex 0.0022222809493541718 -0.0033258788753300905 0.0031761853024363518
	endloop
endfacet
facet normal 0.0 0.0 1.1833122986525308e-05
	outer loop
		vertex 0.013550740666687489 -0.013550740666687489 0.0031761853024363518
		vertex 0.0033258788753300905 -0.0022222809493541718 0.0031761853024363518
		vertex 0.0028284271247684956 -0.0028284271247684956 0.0031761853024363518
	endloop
endfacet
facet normal 0.0 0.0 1.1258427573783826e-05
	outer loop
		vertex 0.013550740666687489 -0.013550740666687489 0.0031761853024363518
		vertex 0.0036955184768885374 -0.0015307331923395395 0.0031761853024363518
		vertex 0.0033258788753300905 -0.0022222809493541718 0.0031761853024363518
	endloop
endfacet
facet normal 0.0 0.0 1.0131115549523971e-05
	outer loop
		vertex 0.013550740666687489 -0.013550740666687489 0.0031761853024363518
		vertex 0.003923141397535801 -0.0007803608314134181 0.0031761853024363518
		vertex 0.0036955184768885374 -0.0015307331923395395 0.0031761853024363518
	endloop
endfacet
facet normal 0.0 0.0 8.494520250962919e-06
	outer loop
		vertex 0.013550740666687489 -0.013550740666687489 0.0031761853024363518
		vertex 0.004000000189989805 3.0199162615041075e-10 0.0031761853024363518
		vertex 0.003923141397535801 -0.0007803608314134181 0.0031761853024363518
	endloop
endfacet
facet normal 0.0 0.0 6.411533422245153e-06
	outer loop
		vertex 0.013550740666687489 -0.013550740666687489 0.0031761853024363518
		vertex 0.003923141397535801 0.0007803614716976881 0.0031761853024363518
		vertex 0.004000000189989805 3.0199162615041075e-10 0.0031761853024363518
	endloop
endfacet
facet normal 0.0 0.0 3.962193171690707e-06
	outer loop
		vertex 0.013550740666687489 -0.013550740666687489 0.0031761853024363518
		vertex 0.0036955182440578938 0.0015307337744161487 0.0031761853024363518
		vertex 0.003923141397535801 0.0007803614716976881 0.0031761853024363518
	endloop
endfacet
facet normal 0.0 0.0 1.0
	outer loop
		vertex -0.0022222830448299646 -0.003325877245515585 0.0031761853024363518
		vertex -0.013550740666687489 -0.013550740666687489 0.0031761853024363518
		vertex 0.013550740666687489 -0.013550740666687489 0.0031761853024363518
	endloop
endfacet
facet normal 0.0 0.0 1.2406337666038213e-06
	outer loop
		vertex 0.013550740666687489 -0.013550740666687489 0.0031761853024363518
		vertex -0.001530735520645976 -0.003695517545565963 0.0031761853024363518
		vertex -0.0022222830448299646 -0.003325877245515585 0.0031761853024363518
	endloop
endfacet
facet normal 0.0 -0.0 1.0
	outer loop
		vertex 0.013550740666687489 -0.013550740666687489 0.0031761853024363518
		vertex 0.013550740666687489 0.013550740666687489 0.0031761853024363518
		vertex 0.0033258788753300905 0.0022222809493541718 0.0031761853024363518
	endloop
endfacet
facet normal 0.0 0.0 1.2406445328613086e-06
	outer loop
		vertex 0.0033258788753300905 0.0022222809493541718 0.0031761853024363518
		vertex 0.0036955182440578938 0.0015307337744161487 0.0031761853024363518
		vertex 0.013550740666687489 -0.013550740666687489 0.0031761853024363518
	endloop
endfacet
facet normal 0.0 0.0 1.1833083042794693e-05
	outer loop
		vertex -0.0022222830448299646 -0.003325877245515585 0.0031761853024363518
		vertex -0.0028284271247684956 -0.0028284271247684956 0.0031761853024363518
		vertex -0.013550740666687489 -0.013550740666687489 0.0031761853024363518
	endloop
endfacet
facet normal 0.0 0.0 1.1833122986525308e-05
	outer loop
		vertex 0.013550740666687489 0.013550740666687489 0.0031761853024363518
		vertex 0.0028284271247684956 0.0028284271247684956 0.0031761853024363518
		vertex 0.0033258788753300905 0.0022222809493541718 0.0031761853024363518
	endloop
endfacet
facet normal 0.0 0.0 9.935861099229747e-05
	outer loop
		vertex 0.017216909676790237 0.013550740666687489 0.0031761853024363518
		vertex 0.013550740666687489 -0.013550740666687489 0.0031761853024363518
		vertex 0.017216909676790237 -0.013550740666687489 0.0031761853024363518
	endloop
endfacet
facet normal 0.0 0.0 9.935861099229747e-05
	outer loop
		vertex 0.017216909676790237 0.013550740666687489 0.0031761853024363518
		vertex 0.013550740666687489 0.013550740666687489 0.0031761853024363518
		vertex 0.013550740666687489 -0.013550740666687489 0.0031761853024363518
	endloop
endfacet
facet normal -0.0 0.0 9.935861099229747e-05
	outer loop
		vertex -0.013550740666687489 -0.013550740666687489 0.0031761853024363518
		vertex -0.013550740666687489 -0.017216909676790237 0.0031761853024363518
		vertex 0.013550740666687489 -0.013550740666687489 0.0031761853024363518
	endloop
endfacet
facet normal 0.0 0.0 9.935861099229747e-05
	outer loop
		vertex 0.013550740666687489 -0.013550740666687489 0.0031761853024363518
		vertex -0.013550740666687489 -0.017216909676790237 0.0031761853024363518
		vertex 0.013550740666687489 -0.017216909676790237 0.0031761853024363518
	endloop
endfacet
facet normal -0.0 -0.0 6.411535217846988e-06
	outer loop
		vertex 0.0 0.004000000189989805 0.0031761853024363518
		vertex 0.0007803613552823663 0.003923141397535801 0.0031761853024363518
		vertex -0.013550740666687489 0.013550740666687489 0.0031761853024363518
	endloop
endfacet
facet normal 0.0 0.0 8.494451910402874e-06
	outer loop
		vertex -0.013550740666687489 0.013550740666687489 0.0031761853024363518
		vertex -0.0007803553016856313 0.0039231423288583755 0.0031761853024363518
		vertex 0.0 0.004000000189989805 0.0031761853024363518
	endloop
endfacet
facet normal 0.0 0.0 1.013110852789254e-05
	outer loop
		vertex -0.013550740666687489 0.013550740666687489 0.0031761853024363518
		vertex -0.0015307284193113446 0.0036955205723643303 0.0031761853024363518
		vertex -0.0007803553016856313 0.0039231423288583755 0.0031761853024363518
	endloop
endfacet
facet normal 0.0 0.0 1.1258422934976774e-05
	outer loop
		vertex -0.013550740666687489 0.013550740666687489 0.0031761853024363518
		vertex -0.0022222765255719423 0.0033258816692978144 0.0031761853024363518
		vertex -0.0015307284193113446 0.0036955205723643303 0.0031761853024363518
	endloop
endfacet
facet normal 0.0 0.0 1.1833122465778289e-05
	outer loop
		vertex -0.013550740666687489 0.013550740666687489 0.0031761853024363518
		vertex -0.0028284236323088408 0.002828430850058794 0.0031761853024363518
		vertex -0.0022222765255719423 0.0033258816692978144 0.0031761853024363518
	endloop
endfacet
facet normal 0.0 0.0 1.183312325031083e-05
	outer loop
		vertex -0.013550740666687489 0.013550740666687489 0.0031761853024363518
		vertex -0.003325875848531723 0.0022222851403057575 0.0031761853024363518
		vertex -0.0028284236323088408 0.002828430850058794 0.0031761853024363518
	endloop
endfacet
facet normal 0.0 0.0 1.125843535422109e-05
	outer loop
		vertex -0.013550740666687489 0.013550740666687489 0.0031761853024363518
		vertex -0.003695516614243388 0.0015307379653677344 0.0031761853024363518
		vertex -0.003325875848531723 0.0022222851403057575 0.0031761853024363518
	endloop
endfacet
facet normal 0.0 0.0 1.013112877619926e-05
	outer loop
		vertex -0.013550740666687489 0.013550740666687489 0.0031761853024363518
		vertex -0.003923140466213226 0.0007803654298186302 0.0031761853024363518
		vertex -0.003695516614243388 0.0015307379653677344 0.0031761853024363518
	endloop
endfacet
facet normal 0.0 0.0 8.494536696183511e-06
	outer loop
		vertex -0.013550740666687489 0.013550740666687489 0.0031761853024363518
		vertex -0.004000000189989805 3.862396624754183e-09 0.0031761853024363518
		vertex -0.003923140466213226 0.0007803654298186302 0.0031761853024363518
	endloop
endfacet
facet normal 0.0 0.0 6.411545357931669e-06
	outer loop
		vertex -0.013550740666687489 0.013550740666687489 0.0031761853024363518
		vertex -0.003923141863197088 -0.0007803578628227115 0.0031761853024363518
		vertex -0.004000000189989805 3.862396624754183e-09 0.0031761853024363518
	endloop
endfacet
facet normal 0.0 0.0 3.962212594610522e-06
	outer loop
		vertex -0.013550740666687489 0.013550740666687489 0.0031761853024363518
		vertex -0.0036955196410417557 -0.0015307307476177812 0.0031761853024363518
		vertex -0.003923141863197088 -0.0007803578628227115 0.0031761853024363518
	endloop
endfacet
facet normal 0.0 0.0 1.0
	outer loop
		vertex -0.013550740666687489 0.013550740666687489 0.0031761853024363518
		vertex -0.013550740666687489 -0.013550740666687489 0.0031761853024363518
		vertex -0.0033258802723139524 -0.002222278621047735 0.0031761853024363518
	endloop
endfacet
facet normal 0.0 0.0 1.2406515693972676e-06
	outer loop
		vertex -0.0033258802723139524 -0.002222278621047735 0.0031761853024363518
		vertex -0.0036955196410417557 -0.0015307307476177812 0.0031761853024363518
		vertex -0.013550740666687489 0.013550740666687489 0.0031761853024363518
	endloop
endfacet
facet normal -0.0 -0.0 3.962195439789664e-06
	outer loop
		vertex 0.0007803613552823663 0.003923141397535801 0.0031761853024363518
		vertex 0.0015307338908314705 0.0036955182440578938 0.0031761853024363518
		vertex -0.013550740666687489 0.013550740666687489 0.0031761853024363518
	endloop
endfacet
facet normal 0.0 0.0 1.1833122527112148e-05
	outer loop
		vertex -0.013550740666687489 -0.013550740666687489 0.0031761853024363518
		vertex -0.0028284292202442884 -0.00282842549495399 0.0031761853024363518
		vertex -0.0033258802723139524 -0.002222278621047735 0.0031761853024363518
	endloop
endfacet
facet normal 0.0 -0.0 1.0
	outer loop
		vertex 0.0022222811821848154 0.003325878642499447 0.0031761853024363518
		vertex 0.013550740666687489 0.013550740666687489 0.0031761853024363518
		vertex -0.013550740666687489 0.013550740666687489 0.0031761853024363518
	endloop
endfacet
facet normal 0.0 0.0 1.240642125699084e-06
	outer loop
		vertex -0.013550740666687489 0.013550740666687489 0.0031761853024363518
		vertex 0.0015307338908314705 0.0036955182440578938 0.0031761853024363518
		vertex 0.0022222811821848154 0.003325878642499447 0.0031761853024363518
	endloop
endfacet
facet normal 0.0 0.0 3.994373061477763e-11
	outer loop
		vertex -0.013550740666687489 -0.013550740666687489 0.0031761853024363518
		vertex -0.0028284271247684956 -0.0028284271247684956 0.0031761853024363518
		vertex -0.0028284292202442884 -0.00282842549495399 0.0031761853024363518
	endloop
endfacet
facet normal -0.0 0.0 1.1833117993558981e-05
	outer loop
		vertex 0.0022222811821848154 0.003325878642499447 0.0031761853024363518
		vertex 0.0028284271247684956 0.0028284271247684956 0.0031761853024363518
		vertex 0.013550740666687489 0.013550740666687489 0.0031761853024363518
	endloop
endfacet
facet normal 0.0 0.0 9.935861099229747e-05
	outer loop
		vertex -0.013550740666687489 0.013550740666687489 0.0031761853024363518
		vertex 0.013550740666687489 0.013550740666687489 0.0031761853024363518
		vertex 0.013550740666687489 0.017216909676790237 0.0031761853024363518
	endloop
endfacet
facet normal -0.0 0.0 9.935861099229747e-05
	outer loop
		vertex -0.013550740666687489 0.017216909676790237 0.0031761853024363518
		vertex -0.013550740666687489 0.013550740666687489 0.0031761853024363518
		vertex 0.013550740666687489 0.017216909676790237 0.0031761853024363518
	endloop
endfacet
facet normal -1.203547770539752e-19 8.60472265155399e-05 -4.96793875268681e-05
	outer loop
		vertex -2.2204462064146295e-18 1.3193780992356089e-18 0.026646757498383522
		vertex -0.013550740666687489 -0.013550740666687489 0.0031761853024363518
		vertex -0.003666175063699484 -3.808523174290126e-18 0.026646757498383522
	endloop
endfacet
facet normal 0.0 8.604708443416074e-05 -4.9679305496148706e-05
	outer loop
		vertex -0.003666175063699484 -3.808523174290126e-18 0.026646757498383522
		vertex -0.013550740666687489 -0.013550740666687489 0.0031761853024363518
		vertex -0.017216909676790237 -0.013550740666687489 0.0031761853024363518
	endloop
endfacet
facet normal -4.3832152778243774e-11 -8.604722112373451e-05 4.967938752686824e-05
	outer loop
		vertex -2.2204462064146295e-18 -0.003666175063699484 0.026646757498383522
		vertex -5.1278989987790505e-18 1.0211949980467278e-18 0.032996758818626404
		vertex -0.013550740666687489 -0.017216909676790237 0.0031761853024363518
	endloop
endfacet
facet normal 4.3832152778243774e-11 -8.60472211237344e-05 4.967938752686817e-05
	outer loop
		vertex -2.2204462064146295e-18 -0.003666175063699484 0.026646757498383522
		vertex 0.013550740666687489 -0.017216909676790237 0.0031761853024363518
		vertex -5.1278989987790505e-18 1.0211949980467278e-18 0.032996758818626404
	endloop
endfacet
facet normal -8.030928591113011e-07 -0.8660256431683526 0.4999995853740241
	outer loop
		vertex -5.1278989987790505e-18 1.0211949980467278e-18 0.032996758818626404
		vertex 0.013550740666687489 -0.017216909676790237 0.0031761853024363518
		vertex 0.019050000235438347 -0.019050000235438347 1.1846423149108887e-06
	endloop
endfacet
facet normal 0.0 -8.604722112373446e-05 4.9679469557587647e-05
	outer loop
		vertex 0.019050000235438347 -0.019050000235438347 1.1846423149108887e-06
		vertex 0.013550740666687489 -0.017216909676790237 0.0031761853024363518
		vertex -0.013550740666687489 -0.017216909676790237 0.0031761853024363518
	endloop
endfacet
facet normal 8.030928591113006e-07 -0.8660256431683526 0.4999995853740242
	outer loop
		vertex -0.019050000235438347 -0.019050000235438347 1.1846423149108887e-06
		vertex -0.013550740666687489 -0.017216909676790237 0.0031761853024363518
		vertex -5.1278989987790505e-18 1.0211949980467278e-18 0.032996758818626404
	endloop
endfacet
facet normal 0.0 -0.8660250408494274 0.5000006286213522
	outer loop
		vertex -0.019050000235438347 -0.019050000235438347 1.1846423149108887e-06
		vertex 0.019050000235438347 -0.019050000235438347 1.1846423149108887e-06
		vertex -0.013550740666687489 -0.017216909676790237 0.0031761853024363518
	endloop
endfacet
facet normal 9.295676598256031e-11 8.604715817075309e-05 4.967927220584896e-05
	outer loop
		vertex -0.013550740666687489 0.017216909676790237 0.0031761853024363518
		vertex -0.019050000235438347 0.019050000235438347 1.1846423149108887e-06
		vertex -2.2204462064146295e-18 0.003666175063699484 0.026646757498383522
	endloop
endfacet
facet normal -0.0 8.604722112373446e-05 4.9679469557587647e-05
	outer loop
		vertex -0.013550740666687489 0.017216909676790237 0.0031761853024363518
		vertex 0.013550740666687489 0.017216909676790237 0.0031761853024363518
		vertex -0.019050000235438347 0.019050000235438347 1.1846423149108887e-06
	endloop
endfacet
facet normal -0.0 0.8660250408494274 0.5000006286213522
	outer loop
		vertex -0.019050000235438347 0.019050000235438347 1.1846423149108887e-06
		vertex 0.013550740666687489 0.017216909676790237 0.0031761853024363518
		vertex 0.019050000235438347 0.019050000235438347 1.1846423149108887e-06
	endloop
endfacet
facet normal -9.295676598256031e-11 8.604715817075308e-05 4.9679272205848956e-05
	outer loop
		vertex 0.019050000235438347 0.019050000235438347 1.1846423149108887e-06
		vertex 0.013550740666687489 0.017216909676790237 0.0031761853024363518
		vertex -2.2204462064146295e-18 0.003666175063699484 0.026646757498383522
	endloop
endfacet
facet normal -1.762009986501581e-07 0.8660253983452859 0.5000000094208576
	outer loop
		vertex -5.1278989987790505e-18 1.0211949980467278e-18 0.032996758818626404
		vertex -2.2204462064146295e-18 0.003666175063699484 0.026646757498383522
		vertex -0.019050000235438347 0.019050000235438347 1.1846423149108887e-06
	endloop
endfacet
facet normal 1.7620099865015832e-07 0.866025398345286 0.5000000094208576
	outer loop
		vertex -5.1278989987790505e-18 1.0211949980467278e-18 0.032996758818626404
		vertex 0.019050000235438347 0.019050000235438347 1.1846423149108887e-06
		vertex -2.2204462064146295e-18 0.003666175063699484 0.026646757498383522
	endloop
endfacet
facet normal -8.604715817075309e-05 -9.295676598256031e-11 4.967927220584896e-05
	outer loop
		vertex -0.003666175063699484 -3.808523174290126e-18 0.026646757498383522
		vertex -0.019050000235438347 0.019050000235438347 1.1846423149108887e-06
		vertex -0.017216909676790237 0.013550740666687489 0.0031761853024363518
	endloop
endfacet
facet normal -0.8660253983452862 1.762009978739608e-07 0.5000000094208571
	outer loop
		vertex -0.003666175063699484 -3.808523174290126e-18 0.026646757498383522
		vertex -5.1278989987790505e-18 1.0211949980467278e-18 0.032996758818626404
		vertex -0.019050000235438347 0.019050000235438347 1.1846423149108887e-06
	endloop
endfacet
facet normal -0.8660253983452862 -1.7620099787396123e-07 0.5000000094208572
	outer loop
		vertex -0.003666175063699484 -3.808523174290126e-18 0.026646757498383522
		vertex -0.019050000235438347 -0.019050000235438347 1.1846423149108887e-06
		vertex -5.1278989987790505e-18 1.0211949980467278e-18 0.032996758818626404
	endloop
endfacet
facet normal -8.604715817075309e-05 9.295676598256031e-11 4.967927220584896e-05
	outer loop
		vertex -0.003666175063699484 -3.808523174290126e-18 0.026646757498383522
		vertex -0.017216909676790237 -0.013550740666687489 0.0031761853024363518
		vertex -0.019050000235438347 -0.019050000235438347 1.1846423149108887e-06
	endloop
endfacet
facet normal -8.604722112373446e-05 0.0 4.9679469557587647e-05
	outer loop
		vertex -0.019050000235438347 -0.019050000235438347 1.1846423149108887e-06
		vertex -0.017216909676790237 -0.013550740666687489 0.0031761853024363518
		vertex -0.017216909676790237 0.013550740666687489 0.0031761853024363518
	endloop
endfacet
facet normal -0.8660250408494274 0.0 0.5000006286213522
	outer loop
		vertex -0.019050000235438347 0.019050000235438347 1.1846423149108887e-06
		vertex -0.019050000235438347 -0.019050000235438347 1.1846423149108887e-06
		vertex -0.017216909676790237 0.013550740666687489 0.0031761853024363518
	endloop
endfacet
facet normal 8.60472211237343e-05 -4.383215285955894e-11 4.967938752686816e-05
	outer loop
		vertex 0.017216909676790237 -0.013550740666687489 0.0031761853024363518
		vertex 0.003666175063699484 -3.808523174290126e-18 0.026646757498383522
		vertex -5.1278989987790505e-18 1.0211949980467278e-18 0.032996758818626404
	endloop
endfacet
facet normal 0.8660256431683525 8.030928590142758e-07 0.4999995853740243
	outer loop
		vertex 0.019050000235438347 -0.019050000235438347 1.1846423149108887e-06
		vertex 0.017216909676790237 -0.013550740666687489 0.0031761853024363518
		vertex -5.1278989987790505e-18 1.0211949980467278e-18 0.032996758818626404
	endloop
endfacet
facet normal 0.8660250408494274 -0.0 0.5000006286213522
	outer loop
		vertex 0.019050000235438347 -0.019050000235438347 1.1846423149108887e-06
		vertex 0.019050000235438347 0.019050000235438347 1.1846423149108887e-06
		vertex 0.017216909676790237 -0.013550740666687489 0.0031761853024363518
	endloop
endfacet
facet normal 8.604722112373446e-05 -0.0 4.9679469557587647e-05
	outer loop
		vertex 0.017216909676790237 -0.013550740666687489 0.0031761853024363518
		vertex 0.019050000235438347 0.019050000235438347 1.1846423149108887e-06
		vertex 0.017216909676790237 0.013550740666687489 0.0031761853024363518
	endloop
endfacet
facet normal 0.8660256431683525 -8.030928590142758e-07 0.4999995853740243
	outer loop
		vertex 0.017216909676790237 0.013550740666687489 0.0031761853024363518
		vertex 0.019050000235438347 0.019050000235438347 1.1846423149108887e-06
		vertex -5.1278989987790505e-18 1.0211949980467278e-18 0.032996758818626404
	endloop
endfacet
facet normal 8.60472211237346e-05 4.3832152873111464e-11 4.967938752686834e-05
	outer loop
		vertex 0.003666175063699484 -3.808523174290126e-18 0.026646757498383522
		vertex 0.017216909676790237 0.013550740666687489 0.0031761853024363518
		vertex -5.1278989987790505e-18 1.0211949980467278e-18 0.032996758818626404
	endloop
endfacet
facet normal 0.0 0.0 -6.8369438431698805e-06
	outer loop
		vertex -0.019050000235438347 -0.019050000235438347 1.1846423149108887e-06
		vertex 0.0007803603657521307 -0.003923141397535801 1.1846423149108887e-06
		vertex 0.0015307331923395395 -0.003695518709719181 1.1846423149108887e-06
	endloop
endfacet
facet normal 0.0 0.0 -1.0280283241517849e-05
	outer loop
		vertex -0.019050000235438347 -0.019050000235438347 1.1846423149108887e-06
		vertex -1.3033655266170285e-09 -0.004000000189989805 1.1846423149108887e-06
		vertex 0.0007803603657521307 -0.003923141397535801 1.1846423149108887e-06
	endloop
endfacet
facet normal 0.0 0.0 -1.3208611254513923e-05
	outer loop
		vertex -0.019050000235438347 -0.019050000235438347 1.1846423149108887e-06
		vertex -0.0007803629268892109 -0.003923140931874514 1.1846423149108887e-06
		vertex -1.3033655266170285e-09 -0.004000000189989805 1.1846423149108887e-06
	endloop
endfacet
facet normal 0.0 0.0 -1.5509377361809854e-05
	outer loop
		vertex -0.019050000235438347 -0.019050000235438347 1.1846423149108887e-06
		vertex -0.001530735520645976 -0.003695517545565963 1.1846423149108887e-06
		vertex -0.0007803629268892109 -0.003923140931874514 1.1846423149108887e-06
	endloop
endfacet
facet normal 0.0 0.0 -1.7094180755145006e-05
	outer loop
		vertex -0.019050000235438347 -0.019050000235438347 1.1846423149108887e-06
		vertex -0.0022222830448299646 -0.003325877245515585 1.1846423149108887e-06
		vertex -0.001530735520645976 -0.003695517545565963 1.1846423149108887e-06
	endloop
endfacet
facet normal 0.0 0.0 -1.790209438650971e-05
	outer loop
		vertex -0.019050000235438347 -0.019050000235438347 1.1846423149108887e-06
		vertex -0.0028284292202442884 -0.00282842549495399 1.1846423149108887e-06
		vertex -0.0022222830448299646 -0.003325877245515585 1.1846423149108887e-06
	endloop
endfacet
facet normal 0.0 0.0 -1.790209398158882e-05
	outer loop
		vertex -0.019050000235438347 -0.019050000235438347 1.1846423149108887e-06
		vertex -0.0033258802723139524 -0.002222278621047735 1.1846423149108887e-06
		vertex -0.0028284292202442884 -0.00282842549495399 1.1846423149108887e-06
	endloop
endfacet
facet normal 0.0 0.0 -1.7094170116726745e-05
	outer loop
		vertex -0.019050000235438347 -0.019050000235438347 1.1846423149108887e-06
		vertex -0.0036955196410417557 -0.0015307307476177812 1.1846423149108887e-06
		vertex -0.0033258802723139524 -0.002222278621047735 1.1846423149108887e-06
	endloop
endfacet
facet normal 0.0 0.0 -1.550936094950312e-05
	outer loop
		vertex -0.019050000235438347 -0.019050000235438347 1.1846423149108887e-06
		vertex -0.003923141863197088 -0.0007803578628227115 1.1846423149108887e-06
		vertex -0.0036955196410417557 -0.0015307307476177812 1.1846423149108887e-06
	endloop
endfacet
facet normal 0.0 0.0 -1.3208595440371285e-05
	outer loop
		vertex -0.019050000235438347 -0.019050000235438347 1.1846423149108887e-06
		vertex -0.004000000189989805 3.862396624754183e-09 1.1846423149108887e-06
		vertex -0.003923141863197088 -0.0007803578628227115 1.1846423149108887e-06
	endloop
endfacet
facet normal 0.0 0.0 -1.0280263572265186e-05
	outer loop
		vertex -0.019050000235438347 -0.019050000235438347 1.1846423149108887e-06
		vertex -0.003923140466213226 0.0007803654298186302 1.1846423149108887e-06
		vertex -0.004000000189989805 3.862396624754183e-09 1.1846423149108887e-06
	endloop
endfacet
facet normal 0.0 0.0 -6.836915901232976e-06
	outer loop
		vertex -0.019050000235438347 -0.019050000235438347 1.1846423149108887e-06
		vertex -0.003695516614243388 0.0015307379653677344 1.1846423149108887e-06
		vertex -0.003923140466213226 0.0007803654298186302 1.1846423149108887e-06
	endloop
endfacet
facet normal 0.0 0.0 -1.0
	outer loop
		vertex -0.019050000235438347 -0.019050000235438347 1.1846423149108887e-06
		vertex -0.019050000235438347 0.019050000235438347 1.1846423149108887e-06
		vertex -0.003325875848531723 0.0022222851403057575 1.1846423149108887e-06
	endloop
endfacet
facet normal 0.0 0.0 -3.0108699434122426e-06
	outer loop
		vertex -0.003325875848531723 0.0022222851403057575 1.1846423149108887e-06
		vertex -0.003695516614243388 0.0015307379653677344 1.1846423149108887e-06
		vertex -0.019050000235438347 -0.019050000235438347 1.1846423149108887e-06
	endloop
endfacet
facet normal 0.0 -0.0 -1.0
	outer loop
		vertex 0.0022222809493541718 -0.0033258788753300905 1.1846423149108887e-06
		vertex 0.019050000235438347 -0.019050000235438347 1.1846423149108887e-06
		vertex -0.019050000235438347 -0.019050000235438347 1.1846423149108887e-06
	endloop
endfacet
facet normal 0.0 0.0 -3.0108983633838596e-06
	outer loop
		vertex -0.019050000235438347 -0.019050000235438347 1.1846423149108887e-06
		vertex 0.0015307331923395395 -0.003695518709719181 1.1846423149108887e-06
		vertex 0.0022222809493541718 -0.0033258788753300905 1.1846423149108887e-06
	endloop
endfacet
facet normal 0.0 0.0 -1.7901977614693154e-05
	outer loop
		vertex -0.019050000235438347 0.019050000235438347 1.1846423149108887e-06
		vertex -0.002828426891937852 0.002828426891937852 1.1846423149108887e-06
		vertex -0.003325875848531723 0.0022222851403057575 1.1846423149108887e-06
	endloop
endfacet
facet normal 0.0 0.0 -1.790209444100198e-05
	outer loop
		vertex 0.0022222809493541718 -0.0033258788753300905 1.1846423149108887e-06
		vertex 0.0028284271247684956 -0.0028284271247684956 1.1846423149108887e-06
		vertex 0.019050000235438347 -0.019050000235438347 1.1846423149108887e-06
	endloop
endfacet
facet normal -0.0 0.0 -6.836967167980009e-06
	outer loop
		vertex -0.0007803553016856313 0.0039231423288583755 1.1846423149108887e-06
		vertex -0.0015307284193113446 0.0036955205723643303 1.1846423149108887e-06
		vertex 0.019050000235438347 0.019050000235438347 1.1846423149108887e-06
	endloop
endfacet
facet normal 0.0 0.0 -1.0280205053185738e-05
	outer loop
		vertex 0.019050000235438347 0.019050000235438347 1.1846423149108887e-06
		vertex 0.0 0.004000000189989805 1.1846423149108887e-06
		vertex -0.0007803553016856313 0.0039231423288583755 1.1846423149108887e-06
	endloop
endfacet
facet normal 0.0 0.0 -1.3208598446810187e-05
	outer loop
		vertex 0.019050000235438347 0.019050000235438347 1.1846423149108887e-06
		vertex 0.0007803613552823663 0.003923141397535801 1.1846423149108887e-06
		vertex 0.0 0.004000000189989805 1.1846423149108887e-06
	endloop
endfacet
facet normal 0.0 0.0 -1.5509372235893994e-05
	outer loop
		vertex 0.019050000235438347 0.019050000235438347 1.1846423149108887e-06
		vertex 0.0015307338908314705 0.0036955182440578938 1.1846423149108887e-06
		vertex 0.0007803613552823663 0.003923141397535801 1.1846423149108887e-06
	endloop
endfacet
facet normal 0.0 0.0 -1.709416506248966e-05
	outer loop
		vertex 0.019050000235438347 0.019050000235438347 1.1846423149108887e-06
		vertex 0.0022222811821848154 0.003325878642499447 1.1846423149108887e-06
		vertex 0.0015307338908314705 0.0036955182440578938 1.1846423149108887e-06
	endloop
endfacet
facet normal 0.0 0.0 -1.7902086887243364e-05
	outer loop
		vertex 0.019050000235438347 0.019050000235438347 1.1846423149108887e-06
		vertex 0.0028284271247684956 0.0028284271247684956 1.1846423149108887e-06
		vertex 0.0022222811821848154 0.003325878642499447 1.1846423149108887e-06
	endloop
endfacet
facet normal 0.0 0.0 -1.790209444100198e-05
	outer loop
		vertex 0.019050000235438347 0.019050000235438347 1.1846423149108887e-06
		vertex 0.0033258788753300905 0.0022222809493541718 1.1846423149108887e-06
		vertex 0.0028284271247684956 0.0028284271247684956 1.1846423149108887e-06
	endloop
endfacet
facet normal 0.0 0.0 -1.709415923900235e-05
	outer loop
		vertex 0.019050000235438347 0.019050000235438347 1.1846423149108887e-06
		vertex 0.0036955182440578938 0.0015307337744161487 1.1846423149108887e-06
		vertex 0.0033258788753300905 0.0022222809493541718 1.1846423149108887e-06
	endloop
endfacet
facet normal 0.0 0.0 -1.5509368687398892e-05
	outer loop
		vertex 0.019050000235438347 0.019050000235438347 1.1846423149108887e-06
		vertex 0.003923141397535801 0.0007803614716976881 1.1846423149108887e-06
		vertex 0.0036955182440578938 0.0015307337744161487 1.1846423149108887e-06
	endloop
endfacet
facet normal 0.0 0.0 -1.3208595630676088e-05
	outer loop
		vertex 0.019050000235438347 0.019050000235438347 1.1846423149108887e-06
		vertex 0.004000000189989805 3.0199162615041075e-10 1.1846423149108887e-06
		vertex 0.003923141397535801 0.0007803614716976881 1.1846423149108887e-06
	endloop
endfacet
facet normal 0.0 0.0 -1.0280275102078585e-05
	outer loop
		vertex 0.019050000235438347 0.019050000235438347 1.1846423149108887e-06
		vertex 0.003923141397535801 -0.0007803608314134181 1.1846423149108887e-06
		vertex 0.004000000189989805 3.0199162615041075e-10 1.1846423149108887e-06
	endloop
endfacet
facet normal 0.0 0.0 -6.83693207606653e-06
	outer loop
		vertex 0.019050000235438347 0.019050000235438347 1.1846423149108887e-06
		vertex 0.0036955184768885374 -0.0015307331923395395 1.1846423149108887e-06
		vertex 0.003923141397535801 -0.0007803608314134181 1.1846423149108887e-06
	endloop
endfacet
facet normal 0.0 0.0 -1.0
	outer loop
		vertex -0.0022222765255719423 0.0033258816692978144 1.1846423149108887e-06
		vertex -0.019050000235438347 0.019050000235438347 1.1846423149108887e-06
		vertex 0.019050000235438347 0.019050000235438347 1.1846423149108887e-06
	endloop
endfacet
facet normal 0.0 0.0 -3.0109233693643815e-06
	outer loop
		vertex 0.019050000235438347 0.019050000235438347 1.1846423149108887e-06
		vertex -0.0015307284193113446 0.0036955205723643303 1.1846423149108887e-06
		vertex -0.0022222765255719423 0.0033258816692978144 1.1846423149108887e-06
	endloop
endfacet
facet normal -0.0 0.0 -1.790209392025496e-05
	outer loop
		vertex -0.0022222765255719423 0.0033258816692978144 1.1846423149108887e-06
		vertex -0.0028284236323088408 0.002828430850058794 1.1846423149108887e-06
		vertex -0.019050000235438347 0.019050000235438347 1.1846423149108887e-06
	endloop
endfacet
facet normal 0.0 -0.0 -1.0
	outer loop
		vertex 0.019050000235438347 0.019050000235438347 1.1846423149108887e-06
		vertex 0.019050000235438347 -0.019050000235438347 1.1846423149108887e-06
		vertex 0.0033258788753300905 -0.0022222809493541718 1.1846423149108887e-06
	endloop
endfacet
facet normal 0.0 0.0 -3.01090331622278e-06
	outer loop
		vertex 0.0033258788753300905 -0.0022222809493541718 1.1846423149108887e-06
		vertex 0.0036955184768885374 -0.0015307331923395395 1.1846423149108887e-06
		vertex 0.019050000235438347 0.019050000235438347 1.1846423149108887e-06
	endloop
endfacet
facet normal -0.0 0.0 -1.170832602420159e-10
	outer loop
		vertex -0.0028284236323088408 0.002828430850058794 1.1846423149108887e-06
		vertex -0.002828426891937852 0.002828426891937852 1.1846423149108887e-06
		vertex -0.019050000235438347 0.019050000235438347 1.1846423149108887e-06
	endloop
endfacet
facet normal 0.0 0.0 -1.790209444100198e-05
	outer loop
		vertex 0.019050000235438347 -0.019050000235438347 1.1846423149108887e-06
		vertex 0.0028284271247684956 -0.0028284271247684956 1.1846423149108887e-06
		vertex 0.0033258788753300905 -0.0022222809493541718 1.1846423149108887e-06
	endloop
endfacet
facet normal -2.4402671677760043e-07 -2.477647818154775e-06 0.0
	outer loop
		vertex 0.0 0.004000000189989805 1.1846423149108887e-06
		vertex 0.0007803613552823663 0.003923141397535801 1.1846423149108887e-06
		vertex 0.0007803613552823663 0.003923141397535801 0.0031761853024363518
	endloop
endfacet
facet normal -2.4402671677760043e-07 -2.477647818154775e-06 0.0
	outer loop
		vertex 0.0007803613552823663 0.003923141397535801 0.0031761853024363518
		vertex 0.0 0.004000000189989805 0.0031761853024363518
		vertex 0.0 0.004000000189989805 1.1846423149108887e-06
	endloop
endfacet
facet normal -7.227036625512794e-07 -2.3824332957054052e-06 0.0
	outer loop
		vertex 0.0015307338908314705 0.0036955182440578938 1.1846423149108887e-06
		vertex 0.0015307338908314705 0.0036955182440578938 0.0031761853024363518
		vertex 0.0007803613552823663 0.003923141397535801 0.0031761853024363518
	endloop
endfacet
facet normal -7.227036625512794e-07 -2.3824332957054052e-06 -0.0
	outer loop
		vertex 0.0007803613552823663 0.003923141397535801 0.0031761853024363518
		vertex 0.0007803613552823663 0.003923141397535801 1.1846423149108887e-06
		vertex 0.0015307338908314705 0.0036955182440578938 1.1846423149108887e-06
	endloop
endfacet
facet normal -1.1736059789550952e-06 -2.1956631065520645e-06 0.0
	outer loop
		vertex 0.0022222811821848154 0.003325878642499447 1.1846423149108887e-06
		vertex 0.0022222811821848154 0.003325878642499447 0.0031761853024363518
		vertex 0.0015307338908314705 0.0036955182440578938 0.0031761853024363518
	endloop
endfacet
facet normal -1.1736059789550952e-06 -2.1956631065520645e-06 -0.0
	outer loop
		vertex 0.0015307338908314705 0.0036955182440578938 0.0031761853024363518
		vertex 0.0015307338908314705 0.0036955182440578938 1.1846423149108887e-06
		vertex 0.0022222811821848154 0.003325878642499447 1.1846423149108887e-06
	endloop
endfacet
facet normal -1.579408897174183e-06 -1.9245137678331175e-06 0.0
	outer loop
		vertex 0.0028284271247684956 0.0028284271247684956 1.1846423149108887e-06
		vertex 0.0028284271247684956 0.0028284271247684956 0.0031761853024363518
		vertex 0.0022222811821848154 0.003325878642499447 0.0031761853024363518
	endloop
endfacet
facet normal -1.579408897174183e-06 -1.9245137678331175e-06 -0.0
	outer loop
		vertex 0.0022222811821848154 0.003325878642499447 0.0031761853024363518
		vertex 0.0022222811821848154 0.003325878642499447 1.1846423149108887e-06
		vertex 0.0028284271247684956 0.0028284271247684956 1.1846423149108887e-06
	endloop
endfacet
facet normal -1.924514507070565e-06 -1.5794096364116304e-06 0.0
	outer loop
		vertex 0.0033258788753300905 0.0022222809493541718 1.1846423149108887e-06
		vertex 0.0033258788753300905 0.0022222809493541718 0.0031761853024363518
		vertex 0.0028284271247684956 0.0028284271247684956 0.0031761853024363518
	endloop
endfacet
facet normal -1.924514507070565e-06 -1.5794096364116304e-06 -0.0
	outer loop
		vertex 0.0028284271247684956 0.0028284271247684956 0.0031761853024363518
		vertex 0.0028284271247684956 0.0028284271247684956 1.1846423149108887e-06
		vertex 0.0033258788753300905 0.0022222809493541718 1.1846423149108887e-06
	endloop
endfacet
facet normal -2.195662736933341e-06 -1.173605239717648e-06 0.0
	outer loop
		vertex 0.0036955182440578938 0.0015307337744161487 1.1846423149108887e-06
		vertex 0.0036955182440578938 0.0015307337744161487 0.0031761853024363518
		vertex 0.0033258788753300905 0.0022222809493541718 0.0031761853024363518
	endloop
endfacet
facet normal -2.195662736933341e-06 -1.173605239717648e-06 -0.0
	outer loop
		vertex 0.0033258788753300905 0.0022222809493541718 0.0031761853024363518
		vertex 0.0033258788753300905 0.0022222809493541718 1.1846423149108887e-06
		vertex 0.0036955182440578938 0.0015307337744161487 1.1846423149108887e-06
	endloop
endfacet
facet normal -2.382432556467958e-06 -7.227036625512794e-07 0.0
	outer loop
		vertex 0.003923141397535801 0.0007803614716976881 1.1846423149108887e-06
		vertex 0.003923141397535801 0.0007803614716976881 0.0031761853024363518
		vertex 0.0036955182440578938 0.0015307337744161487 0.0031761853024363518
	endloop
endfacet
facet normal -2.382432556467958e-06 -7.227036625512794e-07 -0.0
	outer loop
		vertex 0.0036955182440578938 0.0015307337744161487 0.0031761853024363518
		vertex 0.0036955182440578938 0.0015307337744161487 1.1846423149108887e-06
		vertex 0.003923141397535801 0.0007803614716976881 1.1846423149108887e-06
	endloop
endfacet
facet normal -2.4776472289498865e-06 -2.4402671677760043e-07 0.0
	outer loop
		vertex 0.004000000189989805 3.0199162615041075e-10 1.1846423149108887e-06
		vertex 0.004000000189989805 3.0199162615041075e-10 0.0031761853024363518
		vertex 0.003923141397535801 0.0007803614716976881 0.0031761853024363518
	endloop
endfacet
facet normal -2.4776472289498865e-06 -2.4402671677760043e-07 -0.0
	outer loop
		vertex 0.003923141397535801 0.0007803614716976881 0.0031761853024363518
		vertex 0.003923141397535801 0.0007803614716976881 1.1846423149108887e-06
		vertex 0.004000000189989805 3.0199162615041075e-10 1.1846423149108887e-06
	endloop
endfacet
facet normal -2.477647113694131e-06 2.4402671677760043e-07 0.0
	outer loop
		vertex 0.003923141397535801 -0.0007803608314134181 1.1846423149108887e-06
		vertex 0.003923141397535801 -0.0007803608314134181 0.0031761853024363518
		vertex 0.004000000189989805 3.0199162615041075e-10 0.0031761853024363518
	endloop
endfacet
facet normal -2.477647113694131e-06 2.4402671677760043e-07 0.0
	outer loop
		vertex 0.004000000189989805 3.0199162615041075e-10 0.0031761853024363518
		vertex 0.004000000189989805 3.0199162615041075e-10 1.1846423149108887e-06
		vertex 0.003923141397535801 -0.0007803608314134181 1.1846423149108887e-06
	endloop
endfacet
facet normal -2.3824327412773198e-06 7.227029233138321e-07 0.0
	outer loop
		vertex 0.0036955184768885374 -0.0015307331923395395 1.1846423149108887e-06
		vertex 0.0036955184768885374 -0.0015307331923395395 0.0031761853024363518
		vertex 0.003923141397535801 -0.0007803608314134181 0.0031761853024363518
	endloop
endfacet
facet normal -2.3824327412773198e-06 7.227029233138321e-07 0.0
	outer loop
		vertex 0.003923141397535801 -0.0007803608314134181 0.0031761853024363518
		vertex 0.003923141397535801 -0.0007803608314134181 1.1846423149108887e-06
		vertex 0.0036955184768885374 -0.0015307331923395395 1.1846423149108887e-06
	endloop
endfacet
facet normal -2.195664585026959e-06 1.1736059789550952e-06 0.0
	outer loop
		vertex 0.0036955184768885374 -0.0015307331923395395 1.1846423149108887e-06
		vertex 0.0033258788753300905 -0.0022222809493541718 1.1846423149108887e-06
		vertex 0.0033258788753300905 -0.0022222809493541718 0.0031761853024363518
	endloop
endfacet
facet normal -2.195664585026959e-06 1.1736059789550952e-06 0.0
	outer loop
		vertex 0.0033258788753300905 -0.0022222809493541718 0.0031761853024363518
		vertex 0.0036955184768885374 -0.0015307331923395395 0.0031761853024363518
		vertex 0.0036955184768885374 -0.0015307331923395395 1.1846423149108887e-06
	endloop
endfacet
facet normal -1.924514507070565e-06 1.5794096364116304e-06 0.0
	outer loop
		vertex 0.0028284271247684956 -0.0028284271247684956 1.1846423149108887e-06
		vertex 0.0028284271247684956 -0.0028284271247684956 0.0031761853024363518
		vertex 0.0033258788753300905 -0.0022222809493541718 0.0031761853024363518
	endloop
endfacet
facet normal -1.924514507070565e-06 1.5794096364116304e-06 0.0
	outer loop
		vertex 0.0033258788753300905 -0.0022222809493541718 0.0031761853024363518
		vertex 0.0033258788753300905 -0.0022222809493541718 1.1846423149108887e-06
		vertex 0.0028284271247684956 -0.0028284271247684956 1.1846423149108887e-06
	endloop
endfacet
facet normal -1.5794096364116304e-06 1.924514507070565e-06 0.0
	outer loop
		vertex 0.0022222809493541718 -0.0033258788753300905 1.1846423149108887e-06
		vertex 0.0022222809493541718 -0.0033258788753300905 0.0031761853024363518
		vertex 0.0028284271247684956 -0.0028284271247684956 0.0031761853024363518
	endloop
endfacet
facet normal -1.5794096364116304e-06 1.924514507070565e-06 0.0
	outer loop
		vertex 0.0028284271247684956 -0.0028284271247684956 0.0031761853024363518
		vertex 0.0028284271247684956 -0.0028284271247684956 1.1846423149108887e-06
		vertex 0.0022222809493541718 -0.0033258788753300905 1.1846423149108887e-06
	endloop
endfacet
facet normal -1.1736067181925425e-06 2.195664585026959e-06 0.0
	outer loop
		vertex 0.0015307331923395395 -0.003695518709719181 1.1846423149108887e-06
		vertex 0.0015307331923395395 -0.003695518709719181 0.0031761853024363518
		vertex 0.0022222809493541718 -0.0033258788753300905 0.0031761853024363518
	endloop
endfacet
facet normal -1.1736067181925425e-06 2.195664585026959e-06 0.0
	outer loop
		vertex 0.0022222809493541718 -0.0033258788753300905 0.0031761853024363518
		vertex 0.0022222809493541718 -0.0033258788753300905 1.1846423149108887e-06
		vertex 0.0015307331923395395 -0.003695518709719181 1.1846423149108887e-06
	endloop
endfacet
facet normal -7.227021840763848e-07 2.3824342197522144e-06 0.0
	outer loop
		vertex 0.0015307331923395395 -0.003695518709719181 1.1846423149108887e-06
		vertex 0.0007803603657521307 -0.003923141397535801 1.1846423149108887e-06
		vertex 0.0007803603657521307 -0.003923141397535801 0.0031761853024363518
	endloop
endfacet
facet normal -7.227021840763848e-07 2.3824342197522144e-06 0.0
	outer loop
		vertex 0.0007803603657521307 -0.003923141397535801 0.0031761853024363518
		vertex 0.0015307331923395395 -0.003695518709719181 0.0031761853024363518
		vertex 0.0015307331923395395 -0.003695518709719181 1.1846423149108887e-06
	endloop
endfacet
facet normal -2.4402671677760043e-07 2.4776488145820315e-06 0.0
	outer loop
		vertex -1.3033655266170285e-09 -0.004000000189989805 1.1846423149108887e-06
		vertex -1.3033655266170285e-09 -0.004000000189989805 0.0031761853024363518
		vertex 0.0007803603657521307 -0.003923141397535801 0.0031761853024363518
	endloop
endfacet
facet normal -2.4402671677760043e-07 2.4776488145820315e-06 0.0
	outer loop
		vertex 0.0007803603657521307 -0.003923141397535801 0.0031761853024363518
		vertex 0.0007803603657521307 -0.003923141397535801 1.1846423149108887e-06
		vertex -1.3033655266170285e-09 -0.004000000189989805 1.1846423149108887e-06
	endloop
endfacet
facet normal 2.4402819525249503e-07 2.477648669821137e-06 -0.0
	outer loop
		vertex -0.0007803629268892109 -0.003923140931874514 1.1846423149108887e-06
		vertex -0.0007803629268892109 -0.003923140931874514 0.0031761853024363518
		vertex -1.3033655266170285e-09 -0.004000000189989805 0.0031761853024363518
	endloop
endfacet
facet normal 2.4402819525249503e-07 2.477648669821137e-06 0.0
	outer loop
		vertex -1.3033655266170285e-09 -0.004000000189989805 0.0031761853024363518
		vertex -1.3033655266170285e-09 -0.004000000189989805 1.1846423149108887e-06
		vertex -0.0007803629268892109 -0.003923140931874514 1.1846423149108887e-06
	endloop
endfacet
facet normal 7.227044017887266e-07 2.382433480514767e-06 0.0
	outer loop
		vertex -0.0007803629268892109 -0.003923140931874514 1.1846423149108887e-06
		vertex -0.001530735520645976 -0.003695517545565963 1.1846423149108887e-06
		vertex -0.001530735520645976 -0.003695517545565963 0.0031761853024363518
	endloop
endfacet
facet normal 7.227044017887266e-07 2.382433480514767e-06 0.0
	outer loop
		vertex -0.001530735520645976 -0.003695517545565963 0.0031761853024363518
		vertex -0.0007803629268892109 -0.003923140931874514 0.0031761853024363518
		vertex -0.0007803629268892109 -0.003923140931874514 1.1846423149108887e-06
	endloop
endfacet
facet normal 1.1736081966674371e-06 2.195663845789512e-06 -0.0
	outer loop
		vertex -0.0022222830448299646 -0.003325877245515585 1.1846423149108887e-06
		vertex -0.0022222830448299646 -0.003325877245515585 0.0031761853024363518
		vertex -0.001530735520645976 -0.003695517545565963 0.0031761853024363518
	endloop
endfacet
facet normal 1.1736081966674371e-06 2.195663845789512e-06 0.0
	outer loop
		vertex -0.001530735520645976 -0.003695517545565963 0.0031761853024363518
		vertex -0.001530735520645976 -0.003695517545565963 1.1846423149108887e-06
		vertex -0.0022222830448299646 -0.003325877245515585 1.1846423149108887e-06
	endloop
endfacet
facet normal 5.174662131082752e-12 6.653137025677824e-12 -0.0
	outer loop
		vertex -0.0028284292202442884 -0.00282842549495399 1.1846423149108887e-06
		vertex -0.0028284292202442884 -0.00282842549495399 0.0031761853024363518
		vertex -0.0028284271247684956 -0.0028284271247684956 0.0031761853024363518
	endloop
endfacet
facet normal 1.5794044617494993e-06 1.924507853933539e-06 -5.4492272239664574e-14
	outer loop
		vertex -0.0028284271247684956 -0.0028284271247684956 0.0031761853024363518
		vertex -0.0022222830448299646 -0.003325877245515585 0.0031761853024363518
		vertex -0.0028284292202442884 -0.00282842549495399 1.1846423149108887e-06
	endloop
endfacet
facet normal 1.5794096364116304e-06 1.924514507070565e-06 0.0
	outer loop
		vertex -0.0022222830448299646 -0.003325877245515585 0.0031761853024363518
		vertex -0.0022222830448299646 -0.003325877245515585 1.1846423149108887e-06
		vertex -0.0028284292202442884 -0.00282842549495399 1.1846423149108887e-06
	endloop
endfacet
facet normal 1.9245167247829067e-06 1.5794074186992885e-06 0.0
	outer loop
		vertex -0.0028284292202442884 -0.00282842549495399 1.1846423149108887e-06
		vertex -0.0033258802723139524 -0.002222278621047735 1.1846423149108887e-06
		vertex -0.0033258802723139524 -0.002222278621047735 0.0031761853024363518
	endloop
endfacet
facet normal 1.9245167247829067e-06 1.5794074186992885e-06 0.0
	outer loop
		vertex -0.0033258802723139524 -0.002222278621047735 0.0031761853024363518
		vertex -0.0028284292202442884 -0.00282842549495399 0.0031761853024363518
		vertex -0.0028284292202442884 -0.00282842549495399 1.1846423149108887e-06
	endloop
endfacet
facet normal 2.1956649546456828e-06 1.173605239717648e-06 -0.0
	outer loop
		vertex -0.0036955196410417557 -0.0015307307476177812 1.1846423149108887e-06
		vertex -0.0036955196410417557 -0.0015307307476177812 0.0031761853024363518
		vertex -0.0033258802723139524 -0.002222278621047735 0.0031761853024363518
	endloop
endfacet
facet normal 2.1956649546456828e-06 1.173605239717648e-06 0.0
	outer loop
		vertex -0.0033258802723139524 -0.002222278621047735 0.0031761853024363518
		vertex -0.0033258802723139524 -0.002222278621047735 1.1846423149108887e-06
		vertex -0.0036955196410417557 -0.0015307307476177812 1.1846423149108887e-06
	endloop
endfacet
facet normal 2.382434404561576e-06 7.227007056014902e-07 -0.0
	outer loop
		vertex -0.003923141863197088 -0.0007803578628227115 1.1846423149108887e-06
		vertex -0.003923141863197088 -0.0007803578628227115 0.0031761853024363518
		vertex -0.0036955196410417557 -0.0015307307476177812 0.0031761853024363518
	endloop
endfacet
facet normal 2.382434404561576e-06 7.227007056014902e-07 0.0
	outer loop
		vertex -0.0036955196410417557 -0.0015307307476177812 0.0031761853024363518
		vertex -0.0036955196410417557 -0.0015307307476177812 1.1846423149108887e-06
		vertex -0.003923141863197088 -0.0007803578628227115 1.1846423149108887e-06
	endloop
endfacet
facet normal 2.4776489927048988e-06 2.4402523830270584e-07 0.0
	outer loop
		vertex -0.003923141863197088 -0.0007803578628227115 1.1846423149108887e-06
		vertex -0.004000000189989805 3.862396624754183e-09 1.1846423149108887e-06
		vertex -0.004000000189989805 3.862396624754183e-09 0.0031761853024363518
	endloop
endfacet
facet normal 2.4776489927048988e-06 2.4402523830270584e-07 0.0
	outer loop
		vertex -0.004000000189989805 3.862396624754183e-09 0.0031761853024363518
		vertex -0.003923141863197088 -0.0007803578628227115 0.0031761853024363518
		vertex -0.003923141863197088 -0.0007803578628227115 1.1846423149108887e-06
	endloop
endfacet
facet normal 2.47764849169827e-06 -2.440296737273896e-07 0.0
	outer loop
		vertex -0.003923140466213226 0.0007803654298186302 1.1846423149108887e-06
		vertex -0.003923140466213226 0.0007803654298186302 0.0031761853024363518
		vertex -0.004000000189989805 3.862396624754183e-09 0.0031761853024363518
	endloop
endfacet
facet normal 2.47764849169827e-06 -2.440296737273896e-07 0.0
	outer loop
		vertex -0.004000000189989805 3.862396624754183e-09 0.0031761853024363518
		vertex -0.004000000189989805 3.862396624754183e-09 1.1846423149108887e-06
		vertex -0.003923140466213226 0.0007803654298186302 1.1846423149108887e-06
	endloop
endfacet
facet normal 2.3824332957054052e-06 -7.227058802636212e-07 0.0
	outer loop
		vertex -0.003695516614243388 0.0015307379653677344 1.1846423149108887e-06
		vertex -0.003695516614243388 0.0015307379653677344 0.0031761853024363518
		vertex -0.003923140466213226 0.0007803654298186302 0.0031761853024363518
	endloop
endfacet
facet normal 2.3824332957054052e-06 -7.227058802636212e-07 0.0
	outer loop
		vertex -0.003923140466213226 0.0007803654298186302 0.0031761853024363518
		vertex -0.003923140466213226 0.0007803654298186302 1.1846423149108887e-06
		vertex -0.003695516614243388 0.0015307379653677344 1.1846423149108887e-06
	endloop
endfacet
facet normal 2.195662736933341e-06 -1.1736096751423317e-06 0.0
	outer loop
		vertex -0.003695516614243388 0.0015307379653677344 1.1846423149108887e-06
		vertex -0.003325875848531723 0.0022222851403057575 1.1846423149108887e-06
		vertex -0.003325875848531723 0.0022222851403057575 0.0031761853024363518
	endloop
endfacet
facet normal 2.195662736933341e-06 -1.1736096751423317e-06 0.0
	outer loop
		vertex -0.003325875848531723 0.0022222851403057575 0.0031761853024363518
		vertex -0.003695516614243388 0.0015307379653677344 0.0031761853024363518
		vertex -0.003695516614243388 0.0015307379653677344 1.1846423149108887e-06
	endloop
endfacet
facet normal 1.92451302859567e-06 -1.579411114886525e-06 0.0
	outer loop
		vertex -0.0028284236323088408 0.002828430850058794 1.1846423149108887e-06
		vertex -0.0028284236323088408 0.002828430850058794 0.0031761853024363518
		vertex -0.003325875848531723 0.0022222851403057575 0.0031761853024363518
	endloop
endfacet
facet normal 1.2567036604058113e-11 -1.0349324262165505e-11 -6.834105763936504e-15
	outer loop
		vertex -0.003325875848531723 0.0022222851403057575 0.0031761853024363518
		vertex -0.002828426891937852 0.002828426891937852 1.1846423149108887e-06
		vertex -0.0028284236323088408 0.002828430850058794 1.1846423149108887e-06
	endloop
endfacet
facet normal 1.924500461559066e-06 -1.5794007655622628e-06 0.0
	outer loop
		vertex -0.003325875848531723 0.0022222851403057575 0.0031761853024363518
		vertex -0.003325875848531723 0.0022222851403057575 1.1846423149108887e-06
		vertex -0.002828426891937852 0.002828426891937852 1.1846423149108887e-06
	endloop
endfacet
facet normal 1.5794066794618412e-06 -1.924517464020354e-06 0.0
	outer loop
		vertex -0.0022222765255719423 0.0033258816692978144 1.1846423149108887e-06
		vertex -0.0022222765255719423 0.0033258816692978144 0.0031761853024363518
		vertex -0.0028284236323088408 0.002828430850058794 0.0031761853024363518
	endloop
endfacet
facet normal 1.5794066794618412e-06 -1.924517464020354e-06 0.0
	outer loop
		vertex -0.0028284236323088408 0.002828430850058794 0.0031761853024363518
		vertex -0.0028284236323088408 0.002828430850058794 1.1846423149108887e-06
		vertex -0.0022222765255719423 0.0033258816692978144 1.1846423149108887e-06
	endloop
endfacet
facet normal 1.1736037612427534e-06 -2.19566569388313e-06 0.0
	outer loop
		vertex -0.0015307284193113446 0.0036955205723643303 1.1846423149108887e-06
		vertex -0.0015307284193113446 0.0036955205723643303 0.0031761853024363518
		vertex -0.0022222765255719423 0.0033258816692978144 0.0031761853024363518
	endloop
endfacet
facet normal 1.1736037612427534e-06 -2.19566569388313e-06 0.0
	outer loop
		vertex -0.0022222765255719423 0.0033258816692978144 0.0031761853024363518
		vertex -0.0022222765255719423 0.0033258816692978144 1.1846423149108887e-06
		vertex -0.0015307284193113446 0.0036955205723643303 1.1846423149108887e-06
	endloop
endfacet
facet normal 2.4402375982781124e-07 -2.4776285979811455e-06 0.0
	outer loop
		vertex -0.0007803553016856313 0.0039231423288583755 0.0031761853024363518
		vertex -0.0007803553016856313 0.0039231423288583755 1.1846423149108887e-06
		vertex 0.0 0.004000000189989805 1.1846423149108887e-06
	endloop
endfacet
facet normal 2.4402375982781124e-07 -2.4776285979811455e-06 0.0
	outer loop
		vertex 0.0 0.004000000189989805 1.1846423149108887e-06
		vertex 0.0 0.004000000189989805 0.0031761853024363518
		vertex -0.0007803553016856313 0.0039231423288583755 0.0031761853024363518
	endloop
endfacet
facet normal 7.226992271265956e-07 -2.3824351437990235e-06 0.0
	outer loop
		vertex -0.0007803553016856313 0.0039231423288583755 1.1846423149108887e-06
		vertex -0.0007803553016856313 0.0039231423288583755 0.0031761853024363518
		vertex -0.0015307284193113446 0.0036955205723643303 0.0031761853024363518
	endloop
endfacet
facet normal 7.226992271265956e-07 -2.3824351437990235e-06 0.0
	outer loop
		vertex -0.0015307284193113446 0.0036955205723643303 0.0031761853024363518
		vertex -0.0015307284193113446 0.0036955205723643303 1.1846423149108887e-06
		vertex -0.0007803553016856313 0.0039231423288583755 1.1846423149108887e-06
	endloop
endfacet
endsolid Hollow_Pyramid