# File units = meters
mtllib LetterE.mtl
g Part 1
v 0.0048478 -0.0355711 0.01 
v 0.0048478 -0.0355711 0 
v 0.0245092 -0.0355711 0 
v 0.0245092 -0.0355711 0.01 
v 0.0245092 -0.0319044 0 
v 0.0245092 -0.0319044 0.01 
v 0.00894681 -0.0319044 0 
v 0.00894681 -0.0319044 0.01 
v 0.00894681 -0.018928 0 
v 0.00894681 -0.018928 0.01 
v 0.0235674 -0.018928 0 
v 0.0235674 -0.018928 0.01 
v 0.0235674 -0.0153076 0 
v 0.0235674 -0.0153076 0.01 
v 0.00894681 -0.0153076 0 
v 0.00894681 -0.0153076 0.01 
v 0.00894681 -0.00394462 0 
v 0.00894681 -0.00394462 0.01 
v 0.0245092 -0.00394462 0 
v 0.0245092 -0.00394462 0.01 
v 0.0245092 -0.000301057 0.01 
v 0.0048478 -0.000301057 0.01 
v 0.0048478 -0.000301057 0 
v 0.0245092 -0.000301057 0 
vn 0 -1 0 
vn 1 0 0 
vn 0 1 0 
vn 0 -1 0 
vn 1 0 0 
vn 0 1 0 
vn 0 -1 0 
vn 0 0 1 
vn 0 0 -1 
vn 1 0 0 
vn 0 1 0 
vn -1 0 0 
vn 0 -1 0 
vn 1 0 0 
vn 0 1 0 
vn 0 -1 0 
vn 1 0 0 
vn 0 1 0 
vn 0 -1 0 
vn 0 0 1 
vn 0 0 -1 
vn 1 0 0 
vn 0 1 0 
vn -1 0 0 
usemtl 0.615686_0.811765_0.929412_0.000000_0.000000
o mesh0
f 1//1 2//1 3//1 
f 3//1 4//1 1//1 
o mesh1
f 4//2 3//2 5//2 
f 5//2 6//2 4//2 
o mesh2
f 6//3 5//3 7//3 
f 7//3 8//3 6//3 
o mesh3
f 8//2 7//2 9//2 
f 9//2 10//2 8//2 
o mesh4
f 10//4 9//4 11//4 
f 11//4 12//4 10//4 
o mesh5
f 12//5 11//5 13//5 
f 13//5 14//5 12//5 
o mesh6
f 14//6 13//6 15//6 
f 15//6 16//6 14//6 
o mesh7
f 16//5 15//5 17//5 
f 17//5 18//5 16//5 
o mesh8
f 18//7 17//7 19//7 
f 19//7 20//7 18//7 
o mesh9
f 21//8 22//8 18//8 
f 22//8 10//8 16//8 
f 16//8 18//8 22//8 
f 14//8 16//8 10//8 
f 10//8 12//8 14//8 
f 1//8 8//8 10//8 
f 10//8 22//8 1//8 
f 4//8 6//8 8//8 
f 8//8 1//8 4//8 
f 18//8 20//8 21//8 
o mesh10
f 3//9 2//9 7//9 
f 2//9 15//9 9//9 
f 9//9 7//9 2//9 
f 11//9 9//9 15//9 
f 15//9 13//9 11//9 
f 23//9 17//9 15//9 
f 15//9 2//9 23//9 
f 24//9 19//9 17//9 
f 17//9 23//9 24//9 
f 7//9 5//9 3//9 
o mesh11
f 20//10 19//10 24//10 
f 24//10 21//10 20//10 
o mesh12
f 21//11 24//11 23//11 
f 23//11 22//11 21//11 
o mesh13
f 22//12 23//12 2//12 
f 2//12 1//12 22//12 
