solid data__000001 created by POPLib
 facet normal -0.00000000000000 1.00000000000000 -0.00000000000001
  outer loop
   vertex 2.51672707929615 22.51839664418284 -29.91549338227687
   vertex 13.89822155914496 22.51839664418284 -31.69283291734785
   vertex 0.01041578344468 22.51839664418284 -30.19232940544828
  endloop
 endfacet
 facet normal 0.00000000000000 1.00000000000000 -0.00000000000019
  outer loop
   vertex -12.60177844085504 22.51839664418284 -17.69283291734801
   vertex -12.60127492895543 22.51839664418282 -17.80502714164770
   vertex -14.10177844085505 22.51839664418284 -17.69283291734801
  endloop
 endfacet
 facet normal 0.00000000000001 1.00000000000000 0.00000000000000
  outer loop
   vertex -14.10177844085505 22.51839664418284 -17.69283291734801
   vertex -12.60127492895543 22.51839664418282 -17.80502714164770
   vertex -14.10177844085505 22.51839664418284 -31.69283291734785
  endloop
 endfacet
 facet normal -0.00000000000001 1.00000000000000 0.00000000000000
  outer loop
   vertex -12.60127492895543 22.51839664418282 -17.80502714164770
   vertex -12.32443890578402 22.51839664418283 -20.31133843749915
   vertex -14.10177844085505 22.51839664418284 -31.69283291734785
  endloop
 endfacet
 facet normal -0.00000000000000 1.00000000000000 0.00000000000000
  outer loop
   vertex -12.32443890578402 22.51839664418283 -20.31133843749915
   vertex -11.59045921702692 22.51839664418283 -22.61829878599618
   vertex -14.10177844085505 22.51839664418284 -31.69283291734785
  endloop
 endfacet
 facet normal -0.00000000000001 1.00000000000000 0.00000000000000
  outer loop
   vertex -11.59045921702692 22.51839664418283 -22.61829878599618
   vertex -10.50240712007807 22.51839664418285 -24.62658537016332
   vertex -14.10177844085505 22.51839664418284 -31.69283291734785
  endloop
 endfacet
 facet normal -0.00000000000000 1.00000000000000 -0.00000000000000
  outer loop
   vertex -10.50240712007807 22.51839664418285 -24.62658537016332
   vertex -9.06708569505795 22.51839664418285 -26.40335906894960
   vertex -14.10177844085505 22.51839664418284 -31.69283291734785
  endloop
 endfacet
 facet normal 0.00000000000000 1.00000000000000 0.00000000000000
  outer loop
   vertex 13.89822155914496 22.51839664418284 -17.69283291734801
   vertex 13.89822155914496 22.51839664418284 -31.69283291734785
   vertex 12.39822155914497 22.51839664418284 -17.69283291734801
  endloop
 endfacet
 facet normal -0.00000000000001 1.00000000000000 -0.00000000000000
  outer loop
   vertex 12.39822155914497 22.51839664418284 -17.69283291734801
   vertex 13.89822155914496 22.51839664418284 -31.69283291734785
   vertex 12.15548000528148 22.51839664418284 -20.14428460657528
  endloop
 endfacet
 facet normal -0.00000000000000 1.00000000000000 0.00000000000000
  outer loop
   vertex 12.15548000528148 22.51839664418284 -20.14428460657528
   vertex 13.89822155914496 22.51839664418284 -31.69283291734785
   vertex 11.39306669266083 22.51839664418284 -22.60389546597089
  endloop
 endfacet
 facet normal -0.00000000000000 1.00000000000000 -0.00000000000000
  outer loop
   vertex 11.39306669266083 22.51839664418284 -22.60389546597089
   vertex 13.89822155914496 22.51839664418284 -31.69283291734785
   vertex 10.17355986517512 22.51839664418284 -24.81093819169092
  endloop
 endfacet
 facet normal 0.00000000000000 1.00000000000000 0.00000000000000
  outer loop
   vertex 10.17355986517512 22.51839664418284 -24.81093819169092
   vertex 13.89822155914496 22.51839664418284 -31.69283291734785
   vertex 8.60874771074663 22.51839664418284 -26.65814017155084
  endloop
 endfacet
 facet normal 0.00000000000000 1.00000000000000 -0.00000000000000
  outer loop
   vertex -9.06708569505795 22.51839664418285 -26.40335906894960
   vertex -7.21988371519801 22.51839664418284 -27.96817122337808
   vertex -14.10177844085505 22.51839664418284 -31.69283291734785
  endloop
 endfacet
 facet normal -0.00000000000000 1.00000000000000 0.00000000000000
  outer loop
   vertex 8.60874771074663 22.51839664418284 -26.65814017155084
   vertex 13.89822155914496 22.51839664418284 -31.69283291734785
   vertex 6.83197401196034 22.51839664418284 -28.09346159657094
  endloop
 endfacet
 facet normal -0.00000000000000 1.00000000000000 0.00000000000000
  outer loop
   vertex -7.21988371519801 22.51839664418284 -27.96817122337808
   vertex -5.01284098947795 22.51839664418285 -29.18767805086378
   vertex -14.10177844085505 22.51839664418284 -31.69283291734785
  endloop
 endfacet
 facet normal -0.00000000000000 1.00000000000000 0.00000000000000
  outer loop
   vertex 6.83197401196034 22.51839664418284 -28.09346159657094
   vertex 13.89822155914496 22.51839664418284 -31.69283291734785
   vertex 4.82368742779320 22.51839664418284 -29.18151369351978
  endloop
 endfacet
 facet normal 0.00000000000000 1.00000000000000 0.00000000000000
  outer loop
   vertex 4.82368742779320 22.51839664418284 -29.18151369351978
   vertex 13.89822155914496 22.51839664418284 -31.69283291734785
   vertex 2.51672707929615 22.51839664418284 -29.91549338227687
  endloop
 endfacet
 facet normal 0.00000000000000 1.00000000000000 -0.00000000000000
  outer loop
   vertex -5.01284098947795 22.51839664418285 -29.18767805086378
   vertex -2.55323013008231 22.51839664418284 -29.95009136348442
   vertex -14.10177844085505 22.51839664418284 -31.69283291734785
  endloop
 endfacet
 facet normal 0.00000000000000 1.00000000000000 0.00000000000000
  outer loop
   vertex -14.10177844085505 22.51839664418284 -31.69283291734785
   vertex -2.55323013008231 22.51839664418284 -29.95009136348442
   vertex 13.89822155914496 22.51839664418284 -31.69283291734785
  endloop
 endfacet
 facet normal 0.00000000000001 1.00000000000000 0.00000000000012
  outer loop
   vertex -2.55323013008231 22.51839664418284 -29.95009136348442
   vertex 0.01041578344468 22.51839664418284 -30.19232940544828
   vertex 13.89822155914496 22.51839664418284 -31.69283291734785
  endloop
 endfacet
 facet normal 1.00000000000000 0.00000000000000 0.00000000000000
  outer loop
   vertex 13.89822155914496 22.51839664418284 -17.69283291734801
   vertex 13.89822155914496 -46.48160335581747 -17.69283291734801
   vertex 13.89822155914496 22.51839664418284 -31.69283291734785
  endloop
 endfacet
 facet normal 1.00000000000000 0.00000000000000 0.00000000000000
  outer loop
   vertex 13.89822155914497 -47.98160335581751 -17.69283291734801
   vertex 13.89822155914497 -47.98160335581751 -31.69283291734785
   vertex 13.89822155914496 -46.48160335581747 -17.69283291734801
  endloop
 endfacet
 facet normal 1.00000000000000 0.00000000000000 0.00000000000000
  outer loop
   vertex 13.89822155914497 -47.98160335581751 -31.69283291734785
   vertex 13.89822155914496 22.51839664418284 -31.69283291734785
   vertex 13.89822155914496 -46.48160335581747 -17.69283291734801
  endloop
 endfacet
 facet normal 0.00000000000000 0.00000000000000 1.00000000000000
  outer loop
   vertex -12.60177844085504 22.51839664418284 -17.69283291734801
   vertex -14.10177844085505 22.51839664418284 -17.69283291734801
   vertex -12.60177844085504 -46.48160335581747 -17.69283291734801
  endloop
 endfacet
 facet normal 0.00000000000000 0.00000000000000 1.00000000000000
  outer loop
   vertex -14.10177844085505 -46.48160335581747 -17.69283291734801
   vertex -12.60177844085504 -46.48160335581747 -17.69283291734801
   vertex -14.10177844085505 22.51839664418284 -17.69283291734801
  endloop
 endfacet
 facet normal -1.00000000000000 -0.00000000000000 -0.00000000000000
  outer loop
   vertex -14.10177844085505 22.51839664418284 -17.69283291734801
   vertex -14.10177844085505 22.51839664418284 -31.69283291734785
   vertex -14.10177844085505 -46.48160335581747 -17.69283291734801
  endloop
 endfacet
 facet normal -1.00000000000000 0.00000000000000 0.00000000000000
  outer loop
   vertex -14.10177844085505 -47.98160335581751 -31.69283291734785
   vertex -14.10177844085505 -47.98160335581751 -17.69283291734801
   vertex -14.10177844085505 22.51839664418284 -31.69283291734785
  endloop
 endfacet
 facet normal -1.00000000000000 0.00000000000000 0.00000000000000
  outer loop
   vertex -14.10177844085505 -47.98160335581751 -17.69283291734801
   vertex -14.10177844085505 -46.48160335581747 -17.69283291734801
   vertex -14.10177844085505 22.51839664418284 -31.69283291734785
  endloop
 endfacet
 facet normal 0.00000000000000 0.00000000000000 -1.00000000000000
  outer loop
   vertex 13.89822155914497 -47.98160335581751 -31.69283291734785
   vertex -14.10177844085505 -47.98160335581751 -31.69283291734785
   vertex 13.89822155914496 22.51839664418284 -31.69283291734785
  endloop
 endfacet
 facet normal 0.00000000000000 0.00000000000000 -1.00000000000000
  outer loop
   vertex -14.10177844085505 22.51839664418284 -31.69283291734785
   vertex 13.89822155914496 22.51839664418284 -31.69283291734785
   vertex -14.10177844085505 -47.98160335581751 -31.69283291734785
  endloop
 endfacet
 facet normal 0.00000000000000 0.00000000000000 1.00000000000000
  outer loop
   vertex 12.39822155914497 -46.48160335581747 -17.69283291734801
   vertex 13.89822155914496 -46.48160335581747 -17.69283291734801
   vertex 12.39822155914497 22.51839664418284 -17.69283291734801
  endloop
 endfacet
 facet normal 0.00000000000000 0.00000000000000 1.00000000000000
  outer loop
   vertex 13.89822155914496 22.51839664418284 -17.69283291734801
   vertex 12.39822155914497 22.51839664418284 -17.69283291734801
   vertex 13.89822155914496 -46.48160335581747 -17.69283291734801
  endloop
 endfacet
 facet normal 0.99395504181783 -0.00000000000000 0.10978786292169
  outer loop
   vertex -12.60127492895543 -46.48160335581747 -17.80502714164770
   vertex -12.32443890578402 -46.48160335581747 -20.31133843749915
   vertex -12.60127492895543 22.51839664418282 -17.80502714164770
  endloop
 endfacet
 facet normal 0.99998992971130 -0.00000000000000 0.00448781416551
  outer loop
   vertex -12.60177844085504 -46.48160335581747 -17.69283291734801
   vertex -12.60127492895543 -46.48160335581747 -17.80502714164770
   vertex -12.60177844085504 22.51839664418284 -17.69283291734801
  endloop
 endfacet
 facet normal 0.99998992971130 0.00000000000000 0.00448781416551
  outer loop
   vertex -12.60177844085504 22.51839664418284 -17.69283291734801
   vertex -12.60127492895543 -46.48160335581747 -17.80502714164770
   vertex -12.60127492895543 22.51839664418282 -17.80502714164770
  endloop
 endfacet
 facet normal -0.99513332666807 0.00000000000000 0.09853761796664
  outer loop
   vertex 12.39822155914497 22.51839664418284 -17.69283291734801
   vertex 12.15548000528148 22.51839664418284 -20.14428460657528
   vertex 12.39822155914497 -46.48160335581747 -17.69283291734801
  endloop
 endfacet
 facet normal -0.99513332666807 -0.00000000000000 0.09853761796664
  outer loop
   vertex 12.39822155914497 -46.48160335581747 -17.69283291734801
   vertex 12.15548000528148 22.51839664418284 -20.14428460657528
   vertex 12.15548000528148 -46.48160335581746 -20.14428460657528
  endloop
 endfacet
 facet normal -0.95516458061483 0.00000000000000 0.29607536867983
  outer loop
   vertex 12.15548000528148 22.51839664418284 -20.14428460657528
   vertex 11.39306669266083 22.51839664418284 -22.60389546597089
   vertex 12.15548000528148 -46.48160335581746 -20.14428460657528
  endloop
 endfacet
 facet normal -0.95516458061483 0.00000000000000 0.29607536867983
  outer loop
   vertex 12.15548000528148 -46.48160335581746 -20.14428460657528
   vertex 11.39306669266083 22.51839664418284 -22.60389546597089
   vertex 11.39306669266083 -46.48160335581745 -22.60389546597089
  endloop
 endfacet
 facet normal -0.87527086055427 0.00000000000000 0.48363304339611
  outer loop
   vertex 11.39306669266083 22.51839664418284 -22.60389546597089
   vertex 10.17355986517512 22.51839664418284 -24.81093819169092
   vertex 11.39306669266083 -46.48160335581745 -22.60389546597089
  endloop
 endfacet
 facet normal -0.87527086055427 0.00000000000000 0.48363304339611
  outer loop
   vertex 11.39306669266083 -46.48160335581745 -22.60389546597089
   vertex 10.17355986517512 22.51839664418284 -24.81093819169092
   vertex 10.17355986517512 -46.48160335581745 -24.81093819169092
  endloop
 endfacet
 facet normal -0.76302052853953 0.00000000000000 0.64637425151940
  outer loop
   vertex 10.17355986517512 22.51839664418284 -24.81093819169092
   vertex 8.60874771074663 22.51839664418284 -26.65814017155084
   vertex 10.17355986517512 -46.48160335581745 -24.81093819169092
  endloop
 endfacet
 facet normal -0.76302052853953 0.00000000000000 0.64637425151940
  outer loop
   vertex 10.17355986517512 -46.48160335581745 -24.81093819169092
   vertex 8.60874771074663 22.51839664418284 -26.65814017155084
   vertex 8.60874771074663 -46.48160335581746 -26.65814017155084
  endloop
 endfacet
 facet normal -0.62839936428451 0.00000000000000 0.77789089142811
  outer loop
   vertex 8.60874771074663 22.51839664418284 -26.65814017155084
   vertex 6.83197401196034 22.51839664418284 -28.09346159657094
   vertex 8.60874771074663 -46.48160335581746 -26.65814017155084
  endloop
 endfacet
 facet normal -0.62839936428451 0.00000000000000 0.77789089142811
  outer loop
   vertex 8.60874771074663 -46.48160335581746 -26.65814017155084
   vertex 6.83197401196034 22.51839664418284 -28.09346159657094
   vertex 6.83197401196034 -46.48160335581747 -28.09346159657094
  endloop
 endfacet
 facet normal -0.47636106736267 0.00000000000000 0.87924975604267
  outer loop
   vertex 6.83197401196034 22.51839664418284 -28.09346159657094
   vertex 4.82368742779320 22.51839664418284 -29.18151369351978
   vertex 6.83197401196034 -46.48160335581747 -28.09346159657094
  endloop
 endfacet
 facet normal -0.47636106736267 0.00000000000000 0.87924975604267
  outer loop
   vertex 6.83197401196034 -46.48160335581747 -28.09346159657094
   vertex 4.82368742779320 22.51839664418284 -29.18151369351978
   vertex 4.82368742779320 -46.48160335581747 -29.18151369351978
  endloop
 endfacet
 facet normal -0.30318372119501 0.00000000000000 0.95293212308241
  outer loop
   vertex 4.82368742779320 22.51839664418284 -29.18151369351978
   vertex 2.51672707929615 22.51839664418284 -29.91549338227687
   vertex 4.82368742779320 -46.48160335581747 -29.18151369351978
  endloop
 endfacet
 facet normal -0.30318372119501 0.00000000000000 0.95293212308241
  outer loop
   vertex 4.82368742779320 -46.48160335581747 -29.18151369351978
   vertex 2.51672707929615 22.51839664418284 -29.91549338227687
   vertex 2.51672707929615 -46.48160335581747 -29.91549338227687
  endloop
 endfacet
 facet normal -0.10978786292169 0.00000000000000 0.99395504181783
  outer loop
   vertex 2.51672707929615 22.51839664418284 -29.91549338227687
   vertex 0.01041578344468 22.51839664418284 -30.19232940544828
   vertex 2.51672707929615 -46.48160335581747 -29.91549338227687
  endloop
 endfacet
 facet normal -0.10978786292169 0.00000000000000 0.99395504181783
  outer loop
   vertex 2.51672707929615 -46.48160335581747 -29.91549338227687
   vertex 0.01041578344468 22.51839664418284 -30.19232940544828
   vertex 0.01041578344468 -46.48160335581747 -30.19232940544828
  endloop
 endfacet
 facet normal 0.09407065222432 0.00000000000000 0.99556552390593
  outer loop
   vertex 0.01041578344468 22.51839664418284 -30.19232940544828
   vertex -2.55323013008231 22.51839664418284 -29.95009136348442
   vertex 0.01041578344468 -46.48160335581747 -30.19232940544828
  endloop
 endfacet
 facet normal 0.09407065222432 0.00000000000000 0.99556552390593
  outer loop
   vertex 0.01041578344468 -46.48160335581747 -30.19232940544828
   vertex -2.55323013008231 22.51839664418284 -29.95009136348442
   vertex -2.55323013008231 -46.48160335581747 -29.95009136348442
  endloop
 endfacet
 facet normal 0.29607536867982 0.00000000000000 0.95516458061483
  outer loop
   vertex -2.55323013008231 22.51839664418284 -29.95009136348442
   vertex -5.01284098947795 22.51839664418285 -29.18767805086378
   vertex -2.55323013008231 -46.48160335581747 -29.95009136348442
  endloop
 endfacet
 facet normal 0.29607536867982 0.00000000000000 0.95516458061483
  outer loop
   vertex -2.55323013008231 -46.48160335581747 -29.95009136348442
   vertex -5.01284098947795 22.51839664418285 -29.18767805086378
   vertex -5.01284098947795 -46.48160335581747 -29.18767805086378
  endloop
 endfacet
 facet normal 0.48363304339610 0.00000000000000 0.87527086055428
  outer loop
   vertex -5.01284098947795 22.51839664418285 -29.18767805086378
   vertex -7.21988371519801 22.51839664418284 -27.96817122337808
   vertex -5.01284098947795 -46.48160335581747 -29.18767805086378
  endloop
 endfacet
 facet normal 0.48363304339610 0.00000000000000 0.87527086055428
  outer loop
   vertex -5.01284098947795 -46.48160335581747 -29.18767805086378
   vertex -7.21988371519801 22.51839664418284 -27.96817122337808
   vertex -7.21988371519801 -46.48160335581748 -27.96817122337808
  endloop
 endfacet
 facet normal 0.64637425151939 0.00000000000000 0.76302052853953
  outer loop
   vertex -7.21988371519801 22.51839664418284 -27.96817122337808
   vertex -9.06708569505795 22.51839664418285 -26.40335906894960
   vertex -7.21988371519801 -46.48160335581748 -27.96817122337808
  endloop
 endfacet
 facet normal 0.64637425151939 0.00000000000000 0.76302052853953
  outer loop
   vertex -7.21988371519801 -46.48160335581748 -27.96817122337808
   vertex -9.06708569505795 22.51839664418285 -26.40335906894960
   vertex -9.06708569505795 -46.48160335581747 -26.40335906894960
  endloop
 endfacet
 facet normal 0.77789089142810 0.00000000000000 0.62839936428452
  outer loop
   vertex -9.06708569505795 22.51839664418285 -26.40335906894960
   vertex -10.50240712007807 22.51839664418285 -24.62658537016332
   vertex -9.06708569505795 -46.48160335581747 -26.40335906894960
  endloop
 endfacet
 facet normal 0.77789089142810 0.00000000000000 0.62839936428452
  outer loop
   vertex -9.06708569505795 -46.48160335581747 -26.40335906894960
   vertex -10.50240712007807 22.51839664418285 -24.62658537016332
   vertex -10.50240712007807 -46.48160335581747 -24.62658537016332
  endloop
 endfacet
 facet normal 0.87924975604267 0.00000000000000 0.47636106736267
  outer loop
   vertex -10.50240712007807 22.51839664418285 -24.62658537016332
   vertex -11.59045921702692 22.51839664418283 -22.61829878599618
   vertex -10.50240712007807 -46.48160335581747 -24.62658537016332
  endloop
 endfacet
 facet normal 0.87924975604267 0.00000000000000 0.47636106736267
  outer loop
   vertex -10.50240712007807 -46.48160335581747 -24.62658537016332
   vertex -11.59045921702692 22.51839664418283 -22.61829878599618
   vertex -11.59045921702692 -46.48160335581746 -22.61829878599618
  endloop
 endfacet
 facet normal 0.95293212308241 0.00000000000000 0.30318372119501
  outer loop
   vertex -11.59045921702692 22.51839664418283 -22.61829878599618
   vertex -12.32443890578402 22.51839664418283 -20.31133843749915
   vertex -11.59045921702692 -46.48160335581746 -22.61829878599618
  endloop
 endfacet
 facet normal 0.95293212308241 -0.00000000000000 0.30318372119501
  outer loop
   vertex -11.59045921702692 -46.48160335581746 -22.61829878599618
   vertex -12.32443890578402 22.51839664418283 -20.31133843749915
   vertex -12.32443890578402 -46.48160335581747 -20.31133843749915
  endloop
 endfacet
 facet normal 0.99395504181783 0.00000000000000 0.10978786292169
  outer loop
   vertex -12.32443890578402 22.51839664418283 -20.31133843749915
   vertex -12.60127492895543 22.51839664418282 -17.80502714164770
   vertex -12.32443890578402 -46.48160335581747 -20.31133843749915
  endloop
 endfacet
 facet normal 0.09136364589766 -0.00000000000000 0.99581759585191
  outer loop
   vertex -0.10177844085503 -47.98160335581751 -3.69283291734808
   vertex 2.44570429291501 -47.98160335581751 -3.92655775951604
   vertex -0.10177844085503 -46.48160335581747 -3.69283291734808
  endloop
 endfacet
 facet normal 0.99581759585191 0.00000000000000 0.09136364589766
  outer loop
   vertex 13.89822155914497 -47.98160335581751 -17.69283291734801
   vertex 13.89822155914496 -46.48160335581747 -17.69283291734801
   vertex 13.66449671697701 -47.98160335581751 -15.14535018357800
  endloop
 endfacet
 facet normal 0.99581759585191 -0.00000000000000 0.09136364589765
  outer loop
   vertex 13.89822155914496 -46.48160335581747 -17.69283291734801
   vertex 13.66449671697701 -46.48160335581747 -15.14535018357800
   vertex 13.66449671697701 -47.98160335581751 -15.14535018357800
  endloop
 endfacet
 facet normal 0.96106352313387 0.00000000000000 0.27632753120439
  outer loop
   vertex 13.66449671697701 -46.48160335581747 -15.14535018357800
   vertex 12.91525777401900 -46.48160335581747 -12.53950698348182
   vertex 13.66449671697701 -47.98160335581751 -15.14535018357800
  endloop
 endfacet
 facet normal 0.96106352313387 0.00000000000000 0.27632753120439
  outer loop
   vertex 13.66449671697701 -47.98160335581751 -15.14535018357800
   vertex 12.91525777401900 -46.48160335581747 -12.53950698348182
   vertex 12.91525777401900 -47.98160335581751 -12.53950698348182
  endloop
 endfacet
 facet normal 0.88791993420892 0.00000000000000 0.45999803307670
  outer loop
   vertex 12.91525777401900 -46.48160335581747 -12.53950698348182
   vertex 11.61615871620610 -46.48160335581746 -10.03189636995605
   vertex 12.91525777401900 -47.98160335581751 -12.53950698348182
  endloop
 endfacet
 facet normal 0.88791993420892 0.00000000000000 0.45999803307670
  outer loop
   vertex 12.91525777401900 -47.98160335581751 -12.53950698348182
   vertex 11.61615871620610 -46.48160335581746 -10.03189636995605
   vertex 11.61615871620610 -47.98160335581751 -10.03189636995605
  endloop
 endfacet
 facet normal 0.77617957795067 0.00000000000000 0.63051190533750
  outer loop
   vertex 11.61615871620610 -46.48160335581746 -10.03189636995605
   vertex 9.79771649575665 -46.48160335581747 -7.79333798073639
   vertex 11.61615871620610 -47.98160335581751 -10.03189636995605
  endloop
 endfacet
 facet normal 0.77617957795067 0.00000000000000 0.63051190533750
  outer loop
   vertex 11.61615871620610 -47.98160335581751 -10.03189636995605
   vertex 9.79771649575665 -46.48160335581747 -7.79333798073639
   vertex 9.79771649575665 -47.98160335581751 -7.79333798073639
  endloop
 endfacet
 facet normal 0.63051190533750 0.00000000000000 0.77617957795067
  outer loop
   vertex 9.79771649575665 -46.48160335581747 -7.79333798073639
   vertex 7.55915810653698 -46.48160335581748 -5.97489576028695
   vertex 9.79771649575665 -47.98160335581751 -7.79333798073639
  endloop
 endfacet
 facet normal 0.63051190533750 0.00000000000000 0.77617957795067
  outer loop
   vertex 9.79771649575665 -47.98160335581751 -7.79333798073639
   vertex 7.55915810653698 -46.48160335581748 -5.97489576028695
   vertex 7.55915810653698 -47.98160335581751 -5.97489576028695
  endloop
 endfacet
 facet normal 0.45999803307669 0.00000000000000 0.88791993420892
  outer loop
   vertex 7.55915810653698 -46.48160335581748 -5.97489576028695
   vertex 5.05154749301120 -46.48160335581748 -4.67579670247405
   vertex 7.55915810653698 -47.98160335581751 -5.97489576028695
  endloop
 endfacet
 facet normal 0.45999803307669 -0.00000000000000 0.88791993420892
  outer loop
   vertex 7.55915810653698 -47.98160335581751 -5.97489576028695
   vertex 5.05154749301120 -46.48160335581748 -4.67579670247405
   vertex 5.05154749301120 -47.98160335581751 -4.67579670247405
  endloop
 endfacet
 facet normal 0.27632753120439 0.00000000000000 0.96106352313387
  outer loop
   vertex 5.05154749301120 -46.48160335581748 -4.67579670247405
   vertex 2.44570429291501 -46.48160335581748 -3.92655775951604
   vertex 5.05154749301120 -47.98160335581751 -4.67579670247405
  endloop
 endfacet
 facet normal 0.27632753120439 0.00000000000000 0.96106352313387
  outer loop
   vertex 5.05154749301120 -47.98160335581751 -4.67579670247405
   vertex 2.44570429291501 -46.48160335581748 -3.92655775951604
   vertex 2.44570429291501 -47.98160335581751 -3.92655775951604
  endloop
 endfacet
 facet normal 0.09136364589766 0.00000000000000 0.99581759585191
  outer loop
   vertex 2.44570429291501 -46.48160335581748 -3.92655775951604
   vertex -0.10177844085503 -46.48160335581747 -3.69283291734808
   vertex 2.44570429291501 -47.98160335581751 -3.92655775951604
  endloop
 endfacet
 facet normal -0.09136364589766 0.00000000000000 0.99581759585191
  outer loop
   vertex -0.10177844085503 -46.48160335581747 -3.69283291734808
   vertex -2.64926117462505 -46.48160335581746 -3.92655775951604
   vertex -0.10177844085503 -47.98160335581751 -3.69283291734808
  endloop
 endfacet
 facet normal -0.99581759585191 0.00000000000000 0.09136364589766
  outer loop
   vertex -14.10177844085505 -47.98160335581751 -17.69283291734801
   vertex -13.86805359868709 -47.98160335581750 -15.14535018357799
   vertex -14.10177844085505 -46.48160335581747 -17.69283291734801
  endloop
 endfacet
 facet normal -0.99581759585191 0.00000000000000 0.09136364589766
  outer loop
   vertex -14.10177844085505 -46.48160335581747 -17.69283291734801
   vertex -13.86805359868709 -47.98160335581750 -15.14535018357799
   vertex -13.86805359868709 -46.48160335581747 -15.14535018357799
  endloop
 endfacet
 facet normal -0.96106352313387 0.00000000000000 0.27632753120439
  outer loop
   vertex -13.86805359868709 -47.98160335581750 -15.14535018357799
   vertex -13.11881465572907 -47.98160335581751 -12.53950698348182
   vertex -13.86805359868709 -46.48160335581747 -15.14535018357799
  endloop
 endfacet
 facet normal -0.96106352313387 0.00000000000000 0.27632753120439
  outer loop
   vertex -13.86805359868709 -46.48160335581747 -15.14535018357799
   vertex -13.11881465572907 -47.98160335581751 -12.53950698348182
   vertex -13.11881465572907 -46.48160335581746 -12.53950698348182
  endloop
 endfacet
 facet normal -0.88791993420892 0.00000000000000 0.45999803307670
  outer loop
   vertex -13.11881465572907 -47.98160335581751 -12.53950698348182
   vertex -11.81971559791615 -47.98160335581751 -10.03189636995605
   vertex -13.11881465572907 -46.48160335581746 -12.53950698348182
  endloop
 endfacet
 facet normal -0.88791993420892 0.00000000000000 0.45999803307670
  outer loop
   vertex -13.11881465572907 -46.48160335581746 -12.53950698348182
   vertex -11.81971559791615 -47.98160335581751 -10.03189636995605
   vertex -11.81971559791615 -46.48160335581747 -10.03189636995605
  endloop
 endfacet
 facet normal -0.77617957795067 0.00000000000000 0.63051190533750
  outer loop
   vertex -11.81971559791615 -47.98160335581751 -10.03189636995605
   vertex -10.00127337746670 -47.98160335581751 -7.79333798073640
   vertex -11.81971559791615 -46.48160335581747 -10.03189636995605
  endloop
 endfacet
 facet normal -0.77617957795067 0.00000000000000 0.63051190533750
  outer loop
   vertex -11.81971559791615 -46.48160335581747 -10.03189636995605
   vertex -10.00127337746670 -47.98160335581751 -7.79333798073640
   vertex -10.00127337746670 -46.48160335581746 -7.79333798073640
  endloop
 endfacet
 facet normal -0.63051190533750 0.00000000000000 0.77617957795067
  outer loop
   vertex -10.00127337746670 -47.98160335581751 -7.79333798073640
   vertex -7.76271498824703 -47.98160335581750 -5.97489576028695
   vertex -10.00127337746670 -46.48160335581746 -7.79333798073640
  endloop
 endfacet
 facet normal -0.63051190533750 -0.00000000000000 0.77617957795067
  outer loop
   vertex -10.00127337746670 -46.48160335581746 -7.79333798073640
   vertex -7.76271498824703 -47.98160335581750 -5.97489576028695
   vertex -7.76271498824703 -46.48160335581746 -5.97489576028695
  endloop
 endfacet
 facet normal -0.45999803307669 0.00000000000000 0.88791993420892
  outer loop
   vertex -7.76271498824703 -47.98160335581750 -5.97489576028695
   vertex -5.25510437472125 -47.98160335581750 -4.67579670247405
   vertex -7.76271498824703 -46.48160335581746 -5.97489576028695
  endloop
 endfacet
 facet normal -0.45999803307669 0.00000000000000 0.88791993420892
  outer loop
   vertex -7.76271498824703 -46.48160335581746 -5.97489576028695
   vertex -5.25510437472125 -47.98160335581750 -4.67579670247405
   vertex -5.25510437472125 -46.48160335581746 -4.67579670247405
  endloop
 endfacet
 facet normal -0.27632753120439 0.00000000000000 0.96106352313387
  outer loop
   vertex -5.25510437472125 -47.98160335581750 -4.67579670247405
   vertex -2.64926117462505 -47.98160335581750 -3.92655775951604
   vertex -5.25510437472125 -46.48160335581746 -4.67579670247405
  endloop
 endfacet
 facet normal -0.27632753120439 -0.00000000000000 0.96106352313387
  outer loop
   vertex -5.25510437472125 -46.48160335581746 -4.67579670247405
   vertex -2.64926117462505 -47.98160335581750 -3.92655775951604
   vertex -2.64926117462505 -46.48160335581746 -3.92655775951604
  endloop
 endfacet
 facet normal -0.09136364589766 0.00000000000000 0.99581759585191
  outer loop
   vertex -2.64926117462505 -47.98160335581750 -3.92655775951604
   vertex -0.10177844085503 -47.98160335581751 -3.69283291734808
   vertex -2.64926117462505 -46.48160335581746 -3.92655775951604
  endloop
 endfacet
 facet normal -0.00000000000000 1.00000000000000 -0.00000000000000
  outer loop
   vertex -12.60127492895543 -46.48160335581747 -17.80502714164770
   vertex -12.60177844085504 -46.48160335581747 -17.69283291734801
   vertex -12.32443890578402 -46.48160335581747 -20.31133843749915
  endloop
 endfacet
 facet normal 0.00000000000000 1.00000000000000 0.00000000000000
  outer loop
   vertex -14.10177844085505 -46.48160335581747 -17.69283291734801
   vertex -13.86805359868709 -46.48160335581747 -15.14535018357799
   vertex -12.60177844085504 -46.48160335581747 -17.69283291734801
  endloop
 endfacet
 facet normal 0.00000000000000 1.00000000000000 0.00000000000000
  outer loop
   vertex 13.89822155914496 -46.48160335581747 -17.69283291734801
   vertex 12.39822155914497 -46.48160335581747 -17.69283291734801
   vertex 13.66449671697701 -46.48160335581747 -15.14535018357800
  endloop
 endfacet
 facet normal 0.00000000000000 1.00000000000000 0.00000000000000
  outer loop
   vertex 13.66449671697701 -46.48160335581747 -15.14535018357800
   vertex 12.39822155914497 -46.48160335581747 -17.69283291734801
   vertex 12.91525777401900 -46.48160335581747 -12.53950698348182
  endloop
 endfacet
 facet normal -0.00000000000000 1.00000000000000 -0.00000000000000
  outer loop
   vertex -13.86805359868709 -46.48160335581747 -15.14535018357799
   vertex -13.11881465572907 -46.48160335581746 -12.53950698348182
   vertex -12.60177844085504 -46.48160335581747 -17.69283291734801
  endloop
 endfacet
 facet normal 0.00000000000001 1.00000000000000 -0.00000000000000
  outer loop
   vertex -13.11881465572907 -46.48160335581746 -12.53950698348182
   vertex -11.81971559791615 -46.48160335581747 -10.03189636995605
   vertex -12.60177844085504 -46.48160335581747 -17.69283291734801
  endloop
 endfacet
 facet normal 0.00000000000000 1.00000000000000 -0.00000000000000
  outer loop
   vertex 12.91525777401900 -46.48160335581747 -12.53950698348182
   vertex 12.39822155914497 -46.48160335581747 -17.69283291734801
   vertex 11.61615871620610 -46.48160335581746 -10.03189636995605
  endloop
 endfacet
 facet normal -0.00000000000000 1.00000000000000 0.00000000000000
  outer loop
   vertex -11.81971559791615 -46.48160335581747 -10.03189636995605
   vertex -10.00127337746670 -46.48160335581746 -7.79333798073640
   vertex -12.60177844085504 -46.48160335581747 -17.69283291734801
  endloop
 endfacet
 facet normal -0.00000000000000 1.00000000000000 0.00000000000000
  outer loop
   vertex -10.00127337746670 -46.48160335581746 -7.79333798073640
   vertex -7.76271498824703 -46.48160335581746 -5.97489576028695
   vertex -12.60177844085504 -46.48160335581747 -17.69283291734801
  endloop
 endfacet
 facet normal 0.00000000000000 1.00000000000000 -0.00000000000000
  outer loop
   vertex -7.76271498824703 -46.48160335581746 -5.97489576028695
   vertex -5.25510437472125 -46.48160335581746 -4.67579670247405
   vertex -12.60177844085504 -46.48160335581747 -17.69283291734801
  endloop
 endfacet
 facet normal -0.00000000000000 1.00000000000000 0.00000000000000
  outer loop
   vertex -5.25510437472125 -46.48160335581746 -4.67579670247405
   vertex -2.64926117462505 -46.48160335581746 -3.92655775951604
   vertex -12.60177844085504 -46.48160335581747 -17.69283291734801
  endloop
 endfacet
 facet normal 0.00000000000001 1.00000000000000 -0.00000000000001
  outer loop
   vertex -2.64926117462505 -46.48160335581746 -3.92655775951604
   vertex -0.10177844085503 -46.48160335581747 -3.69283291734808
   vertex -12.60177844085504 -46.48160335581747 -17.69283291734801
  endloop
 endfacet
 facet normal 0.00000000000000 1.00000000000000 -0.00000000000000
  outer loop
   vertex -0.10177844085503 -46.48160335581747 -3.69283291734808
   vertex 2.44570429291501 -46.48160335581748 -3.92655775951604
   vertex -12.60177844085504 -46.48160335581747 -17.69283291734801
  endloop
 endfacet
 facet normal 0.00000000000000 1.00000000000000 0.00000000000000
  outer loop
   vertex 2.44570429291501 -46.48160335581748 -3.92655775951604
   vertex 5.05154749301120 -46.48160335581748 -4.67579670247405
   vertex -12.60177844085504 -46.48160335581747 -17.69283291734801
  endloop
 endfacet
 facet normal 0.00000000000000 1.00000000000000 0.00000000000000
  outer loop
   vertex 5.05154749301120 -46.48160335581748 -4.67579670247405
   vertex 7.55915810653698 -46.48160335581748 -5.97489576028695
   vertex -12.60177844085504 -46.48160335581747 -17.69283291734801
  endloop
 endfacet
 facet normal -0.00000000000000 1.00000000000000 0.00000000000000
  outer loop
   vertex 7.55915810653698 -46.48160335581748 -5.97489576028695
   vertex 9.79771649575665 -46.48160335581747 -7.79333798073639
   vertex -12.60177844085504 -46.48160335581747 -17.69283291734801
  endloop
 endfacet
 facet normal -0.00000000000000 1.00000000000000 0.00000000000000
  outer loop
   vertex 9.79771649575665 -46.48160335581747 -7.79333798073639
   vertex 11.61615871620610 -46.48160335581746 -10.03189636995605
   vertex -12.60177844085504 -46.48160335581747 -17.69283291734801
  endloop
 endfacet
 facet normal -0.00000000000000 1.00000000000000 -0.00000000000000
  outer loop
   vertex 11.61615871620610 -46.48160335581746 -10.03189636995605
   vertex 12.39822155914497 -46.48160335581747 -17.69283291734801
   vertex -12.60177844085504 -46.48160335581747 -17.69283291734801
  endloop
 endfacet
 facet normal 0.00000000000000 1.00000000000000 0.00000000000000
  outer loop
   vertex 12.39822155914497 -46.48160335581747 -17.69283291734801
   vertex 12.15548000528148 -46.48160335581746 -20.14428460657528
   vertex -12.60177844085504 -46.48160335581747 -17.69283291734801
  endloop
 endfacet
 facet normal 0.00000000000000 1.00000000000000 0.00000000000001
  outer loop
   vertex 12.15548000528148 -46.48160335581746 -20.14428460657528
   vertex 11.39306669266083 -46.48160335581745 -22.60389546597089
   vertex -12.60177844085504 -46.48160335581747 -17.69283291734801
  endloop
 endfacet
 facet normal -0.00000000000000 1.00000000000000 0.00000000000000
  outer loop
   vertex 11.39306669266083 -46.48160335581745 -22.60389546597089
   vertex 10.17355986517512 -46.48160335581745 -24.81093819169092
   vertex -12.60177844085504 -46.48160335581747 -17.69283291734801
  endloop
 endfacet
 facet normal -0.00000000000000 1.00000000000000 -0.00000000000001
  outer loop
   vertex 10.17355986517512 -46.48160335581745 -24.81093819169092
   vertex 8.60874771074663 -46.48160335581746 -26.65814017155084
   vertex -12.60177844085504 -46.48160335581747 -17.69283291734801
  endloop
 endfacet
 facet normal -0.00000000000000 1.00000000000000 -0.00000000000000
  outer loop
   vertex 8.60874771074663 -46.48160335581746 -26.65814017155084
   vertex 6.83197401196034 -46.48160335581747 -28.09346159657094
   vertex -12.60177844085504 -46.48160335581747 -17.69283291734801
  endloop
 endfacet
 facet normal 0.00000000000000 1.00000000000000 0.00000000000000
  outer loop
   vertex 6.83197401196034 -46.48160335581747 -28.09346159657094
   vertex 4.82368742779320 -46.48160335581747 -29.18151369351978
   vertex -12.60177844085504 -46.48160335581747 -17.69283291734801
  endloop
 endfacet
 facet normal 0.00000000000000 1.00000000000000 0.00000000000000
  outer loop
   vertex 4.82368742779320 -46.48160335581747 -29.18151369351978
   vertex 2.51672707929615 -46.48160335581747 -29.91549338227687
   vertex -12.60177844085504 -46.48160335581747 -17.69283291734801
  endloop
 endfacet
 facet normal 0.00000000000000 1.00000000000000 0.00000000000000
  outer loop
   vertex 2.51672707929615 -46.48160335581747 -29.91549338227687
   vertex 0.01041578344468 -46.48160335581747 -30.19232940544828
   vertex -12.60177844085504 -46.48160335581747 -17.69283291734801
  endloop
 endfacet
 facet normal 0.00000000000000 1.00000000000000 0.00000000000000
  outer loop
   vertex 0.01041578344468 -46.48160335581747 -30.19232940544828
   vertex -2.55323013008231 -46.48160335581747 -29.95009136348442
   vertex -12.60177844085504 -46.48160335581747 -17.69283291734801
  endloop
 endfacet
 facet normal 0.00000000000000 1.00000000000000 0.00000000000000
  outer loop
   vertex -2.55323013008231 -46.48160335581747 -29.95009136348442
   vertex -5.01284098947795 -46.48160335581747 -29.18767805086378
   vertex -12.60177844085504 -46.48160335581747 -17.69283291734801
  endloop
 endfacet
 facet normal -0.00000000000001 1.00000000000000 -0.00000000000000
  outer loop
   vertex -5.01284098947795 -46.48160335581747 -29.18767805086378
   vertex -7.21988371519801 -46.48160335581748 -27.96817122337808
   vertex -12.60177844085504 -46.48160335581747 -17.69283291734801
  endloop
 endfacet
 facet normal 0.00000000000001 1.00000000000000 0.00000000000000
  outer loop
   vertex -7.21988371519801 -46.48160335581748 -27.96817122337808
   vertex -9.06708569505795 -46.48160335581747 -26.40335906894960
   vertex -12.60177844085504 -46.48160335581747 -17.69283291734801
  endloop
 endfacet
 facet normal 0.00000000000000 1.00000000000000 0.00000000000000
  outer loop
   vertex -9.06708569505795 -46.48160335581747 -26.40335906894960
   vertex -10.50240712007807 -46.48160335581747 -24.62658537016332
   vertex -12.60177844085504 -46.48160335581747 -17.69283291734801
  endloop
 endfacet
 facet normal 0.00000000000001 1.00000000000000 0.00000000000000
  outer loop
   vertex -10.50240712007807 -46.48160335581747 -24.62658537016332
   vertex -11.59045921702692 -46.48160335581746 -22.61829878599618
   vertex -12.60177844085504 -46.48160335581747 -17.69283291734801
  endloop
 endfacet
 facet normal -0.00000000000001 1.00000000000000 -0.00000000000000
  outer loop
   vertex -11.59045921702692 -46.48160335581746 -22.61829878599618
   vertex -12.32443890578402 -46.48160335581747 -20.31133843749915
   vertex -12.60177844085504 -46.48160335581747 -17.69283291734801
  endloop
 endfacet
 facet normal -0.00000000000000 -1.00000000000000 -0.00000000000000
  outer loop
   vertex 13.66449671697701 -47.98160335581751 -15.14535018357800
   vertex 12.91525777401900 -47.98160335581751 -12.53950698348182
   vertex 13.89822155914497 -47.98160335581751 -17.69283291734801
  endloop
 endfacet
 facet normal 0.00000000000000 -1.00000000000000 0.00000000000000
  outer loop
   vertex 13.89822155914497 -47.98160335581751 -31.69283291734785
   vertex 13.89822155914497 -47.98160335581751 -17.69283291734801
   vertex -14.10177844085505 -47.98160335581751 -31.69283291734785
  endloop
 endfacet
 facet normal 0.00000000000000 -1.00000000000000 0.00000000000000
  outer loop
   vertex -14.10177844085505 -47.98160335581751 -31.69283291734785
   vertex 13.89822155914497 -47.98160335581751 -17.69283291734801
   vertex -14.10177844085505 -47.98160335581751 -17.69283291734801
  endloop
 endfacet
 facet normal 0.00000000000000 -1.00000000000000 0.00000000000000
  outer loop
   vertex -14.10177844085505 -47.98160335581751 -17.69283291734801
   vertex 13.89822155914497 -47.98160335581751 -17.69283291734801
   vertex -13.86805359868709 -47.98160335581750 -15.14535018357799
  endloop
 endfacet
 facet normal -0.00000000000000 -1.00000000000000 -0.00000000000000
  outer loop
   vertex -13.86805359868709 -47.98160335581750 -15.14535018357799
   vertex 13.89822155914497 -47.98160335581751 -17.69283291734801
   vertex -13.11881465572907 -47.98160335581751 -12.53950698348182
  endloop
 endfacet
 facet normal 0.00000000000000 -1.00000000000000 0.00000000000000
  outer loop
   vertex -13.11881465572907 -47.98160335581751 -12.53950698348182
   vertex 13.89822155914497 -47.98160335581751 -17.69283291734801
   vertex -11.81971559791615 -47.98160335581751 -10.03189636995605
  endloop
 endfacet
 facet normal 0.00000000000000 -1.00000000000000 0.00000000000000
  outer loop
   vertex -11.81971559791615 -47.98160335581751 -10.03189636995605
   vertex 13.89822155914497 -47.98160335581751 -17.69283291734801
   vertex -10.00127337746670 -47.98160335581751 -7.79333798073640
  endloop
 endfacet
 facet normal 0.00000000000000 -1.00000000000000 0.00000000000000
  outer loop
   vertex -10.00127337746670 -47.98160335581751 -7.79333798073640
   vertex 13.89822155914497 -47.98160335581751 -17.69283291734801
   vertex -7.76271498824703 -47.98160335581750 -5.97489576028695
  endloop
 endfacet
 facet normal -0.00000000000000 -1.00000000000000 0.00000000000000
  outer loop
   vertex -7.76271498824703 -47.98160335581750 -5.97489576028695
   vertex 13.89822155914497 -47.98160335581751 -17.69283291734801
   vertex -5.25510437472125 -47.98160335581750 -4.67579670247405
  endloop
 endfacet
 facet normal -0.00000000000000 -1.00000000000000 0.00000000000000
  outer loop
   vertex -5.25510437472125 -47.98160335581750 -4.67579670247405
   vertex 13.89822155914497 -47.98160335581751 -17.69283291734801
   vertex -2.64926117462505 -47.98160335581750 -3.92655775951604
  endloop
 endfacet
 facet normal -0.00000000000000 -1.00000000000000 -0.00000000000000
  outer loop
   vertex -2.64926117462505 -47.98160335581750 -3.92655775951604
   vertex 13.89822155914497 -47.98160335581751 -17.69283291734801
   vertex -0.10177844085503 -47.98160335581751 -3.69283291734808
  endloop
 endfacet
 facet normal 0.00000000000000 -1.00000000000000 0.00000000000000
  outer loop
   vertex -0.10177844085503 -47.98160335581751 -3.69283291734808
   vertex 13.89822155914497 -47.98160335581751 -17.69283291734801
   vertex 2.44570429291501 -47.98160335581751 -3.92655775951604
  endloop
 endfacet
 facet normal -0.00000000000000 -1.00000000000000 -0.00000000000000
  outer loop
   vertex 2.44570429291501 -47.98160335581751 -3.92655775951604
   vertex 13.89822155914497 -47.98160335581751 -17.69283291734801
   vertex 5.05154749301120 -47.98160335581751 -4.67579670247405
  endloop
 endfacet
 facet normal -0.00000000000000 -1.00000000000000 -0.00000000000000
  outer loop
   vertex 5.05154749301120 -47.98160335581751 -4.67579670247405
   vertex 13.89822155914497 -47.98160335581751 -17.69283291734801
   vertex 7.55915810653698 -47.98160335581751 -5.97489576028695
  endloop
 endfacet
 facet normal -0.00000000000000 -1.00000000000000 -0.00000000000000
  outer loop
   vertex 7.55915810653698 -47.98160335581751 -5.97489576028695
   vertex 13.89822155914497 -47.98160335581751 -17.69283291734801
   vertex 9.79771649575665 -47.98160335581751 -7.79333798073639
  endloop
 endfacet
 facet normal 0.00000000000001 -1.00000000000000 0.00000000000000
  outer loop
   vertex 9.79771649575665 -47.98160335581751 -7.79333798073639
   vertex 13.89822155914497 -47.98160335581751 -17.69283291734801
   vertex 11.61615871620610 -47.98160335581751 -10.03189636995605
  endloop
 endfacet
 facet normal 0.00000000000000 -1.00000000000000 0.00000000000000
  outer loop
   vertex 11.61615871620610 -47.98160335581751 -10.03189636995605
   vertex 13.89822155914497 -47.98160335581751 -17.69283291734801
   vertex 12.91525777401900 -47.98160335581751 -12.53950698348182
  endloop
 endfacet
endsolid STL file created by POPLib
