solid quarter_counting_tube
facet normal 0.0 7.605380779625081e-06 0.0
	outer loop
		vertex 0.0026185051538050175 0.03525000065565109 0.00177752785384655
		vertex 0.014000000432133675 0.03525000065565109 1.8812716007232666e-07
		vertex 0.0001121938184951432 0.03525000065565109 0.0015006912872195244
	endloop
endfacet
facet normal 0.0 1.6829048247925943e-07 0.0
	outer loop
		vertex -0.012500000186264515 0.03525000065565109 0.014000188559293747
		vertex -0.012499497272074223 0.03525000065565109 0.013887994922697544
		vertex -0.014000000432133675 0.03525000065565109 0.014000188559293747
	endloop
endfacet
facet normal 0.0 2.1007044889250273e-05 0.0
	outer loop
		vertex -0.014000000432133675 0.03525000065565109 0.014000188559293747
		vertex -0.012499497272074223 0.03525000065565109 0.013887994922697544
		vertex -0.014000000432133675 0.03525000065565109 1.8812716007232666e-07
	endloop
endfacet
facet normal 0.0 7.605368867619547e-06 0.0
	outer loop
		vertex -0.012499497272074223 0.03525000065565109 0.013887994922697544
		vertex -0.012222661636769772 0.03525000065565109 0.011381682939827442
		vertex -0.014000000432133675 0.03525000065565109 1.8812716007232666e-07
	endloop
endfacet
facet normal 0.0 1.2454041400827495e-05 0.0
	outer loop
		vertex -0.012222661636769772 0.03525000065565109 0.011381682939827442
		vertex -0.01148868165910244 0.03525000065565109 0.009074721485376358
		vertex -0.014000000432133675 0.03525000065565109 1.8812716007232666e-07
	endloop
endfacet
facet normal 0.0 1.4917009444217685e-05 0.0
	outer loop
		vertex -0.01148868165910244 0.03525000065565109 0.009074721485376358
		vertex -0.010400629602372646 0.03525000065565109 0.0070664361119270325
		vertex -0.014000000432133675 0.03525000065565109 1.8812716007232666e-07
	endloop
endfacet
facet normal 0.0 1.653760610798201e-05 0.0
	outer loop
		vertex -0.010400629602372646 0.03525000065565109 0.0070664361119270325
		vertex -0.008965307846665382 0.03525000065565109 0.005289662629365921
		vertex -0.014000000432133675 0.03525000065565109 1.8812716007232666e-07
	endloop
endfacet
facet normal 0.0 2.1000004090368854e-05 0.0
	outer loop
		vertex 0.014000000432133675 0.03525000065565109 0.014000188559293747
		vertex 0.014000000432133675 0.03525000065565109 1.8812716007232666e-07
		vertex 0.012500000186264515 0.03525000065565109 0.014000188559293747
	endloop
endfacet
facet normal 0.0 7.075551207936549e-06 0.0
	outer loop
		vertex 0.012500000186264515 0.03525000065565109 0.014000188559293747
		vertex 0.014000000432133675 0.03525000065565109 1.8812716007232666e-07
		vertex 0.012257259339094162 0.03525000065565109 0.01154873613268137
	endloop
endfacet
facet normal 0.0 1.3091240053428321e-05 0.0
	outer loop
		vertex 0.012257259339094162 0.03525000065565109 0.01154873613268137
		vertex 0.014000000432133675 0.03525000065565109 1.8812716007232666e-07
		vertex 0.011494845151901245 0.03525000065565109 0.009089126251637936
	endloop
endfacet
facet normal 0.0 1.661300370261673e-05 0.0
	outer loop
		vertex 0.011494845151901245 0.03525000065565109 0.009089126251637936
		vertex 0.014000000432133675 0.03525000065565109 1.8812716007232666e-07
		vertex 0.010275338776409626 0.03525000065565109 0.006882083136588335
	endloop
endfacet
facet normal 0.0 1.7649081757776554e-05 0.0
	outer loop
		vertex 0.010275338776409626 0.03525000065565109 0.006882083136588335
		vertex 0.014000000432133675 0.03525000065565109 1.8812716007232666e-07
		vertex 0.008710525929927826 0.03525000065565109 0.0050348807126283646
	endloop
endfacet
facet normal 0.0 1.7649081520492403e-05 0.0
	outer loop
		vertex -0.008965307846665382 0.03525000065565109 0.005289662629365921
		vertex -0.0071181063540279865 0.03525000065565109 0.0037248488515615463
		vertex -0.014000000432133675 0.03525000065565109 1.8812716007232666e-07
	endloop
endfacet
facet normal 0.0 1.653760610798201e-05 0.0
	outer loop
		vertex 0.008710525929927826 0.03525000065565109 0.0050348807126283646
		vertex 0.014000000432133675 0.03525000065565109 1.8812716007232666e-07
		vertex 0.0069337524473667145 0.03525000065565109 0.0035995589569211006
	endloop
endfacet
facet normal 0.0 1.6612994102130525e-05 0.0
	outer loop
		vertex -0.0071181063540279865 0.03525000065565109 0.0037248488515615463
		vertex -0.004911063238978386 0.03525000065565109 0.002505343407392502
		vertex -0.014000000432133675 0.03525000065565109 1.8812716007232666e-07
	endloop
endfacet
facet normal 0.0 1.4917007891524382e-05 0.0
	outer loop
		vertex 0.0069337524473667145 0.03525000065565109 0.0035995589569211006
		vertex 0.014000000432133675 0.03525000065565109 1.8812716007232666e-07
		vertex 0.004925465676933527 0.03525000065565109 0.0025115078315138817
	endloop
endfacet
facet normal 0.0 1.2454042235862228e-05 0.0
	outer loop
		vertex 0.004925465676933527 0.03525000065565109 0.0025115078315138817
		vertex 0.014000000432133675 0.03525000065565109 1.8812716007232666e-07
		vertex 0.0026185051538050175 0.03525000065565109 0.00177752785384655
	endloop
endfacet
facet normal 0.0 1.3091250724491747e-05 0.0
	outer loop
		vertex -0.004911063238978386 0.03525000065565109 0.002505343407392502
		vertex -0.0024514521937817335 0.03525000065565109 0.0017429282888770103
		vertex -0.014000000432133675 0.03525000065565109 1.8812716007232666e-07
	endloop
endfacet
facet normal 0.0 4.8796726034267685e-05 0.0
	outer loop
		vertex -0.014000000432133675 0.03525000065565109 1.8812716007232666e-07
		vertex -0.0024514521937817335 0.03525000065565109 0.0017429282888770103
		vertex 0.014000000432133675 0.03525000065565109 1.8812716007232666e-07
	endloop
endfacet
facet normal 0.0 4.826183090084649e-07 0.0
	outer loop
		vertex -0.0024514521937817335 0.03525000065565109 0.0017429282888770103
		vertex 0.0001121938184951432 0.03525000065565109 0.0015006912872195244
		vertex 0.014000000432133675 0.03525000065565109 1.8812716007232666e-07
	endloop
endfacet
facet normal 1.0 0.0 0.0
	outer loop
		vertex 0.014000000432133675 0.03525000065565109 0.014000188559293747
		vertex 0.014000000432133675 -0.03375000134110451 0.014000188559293747
		vertex 0.014000000432133675 0.03525000065565109 1.8812716007232666e-07
	endloop
endfacet
facet normal 2.0999991051852407e-05 -0.0 0.0
	outer loop
		vertex 0.014000000432133675 -0.03525000065565109 0.014000188559293747
		vertex 0.014000000432133675 -0.03525000065565109 1.8812716007232666e-07
		vertex 0.014000000432133675 -0.03375000134110451 0.014000188559293747
	endloop
endfacet
facet normal 1.0 0.0 0.0
	outer loop
		vertex 0.014000000432133675 -0.03525000065565109 1.8812716007232666e-07
		vertex 0.014000000432133675 0.03525000065565109 1.8812716007232666e-07
		vertex 0.014000000432133675 -0.03375000134110451 0.014000188559293747
	endloop
endfacet
facet normal 0.0 0.0 1.0
	outer loop
		vertex -0.012500000186264515 0.03525000065565109 0.014000188559293747
		vertex -0.014000000432133675 0.03525000065565109 0.014000188559293747
		vertex -0.012500000186264515 -0.03375000134110451 0.014000188559293747
	endloop
endfacet
facet normal 0.0 0.0 1.0
	outer loop
		vertex -0.014000000432133675 -0.03375000134110451 0.014000188559293747
		vertex -0.012500000186264515 -0.03375000134110451 0.014000188559293747
		vertex -0.014000000432133675 0.03525000065565109 0.014000188559293747
	endloop
endfacet
facet normal -1.0 -0.0 -0.0
	outer loop
		vertex -0.014000000432133675 0.03525000065565109 0.014000188559293747
		vertex -0.014000000432133675 0.03525000065565109 1.8812716007232666e-07
		vertex -0.014000000432133675 -0.03375000134110451 0.014000188559293747
	endloop
endfacet
facet normal -1.0 0.0 0.0
	outer loop
		vertex -0.014000000432133675 -0.03525000065565109 1.8812716007232666e-07
		vertex -0.014000000432133675 -0.03525000065565109 0.014000188559293747
		vertex -0.014000000432133675 0.03525000065565109 1.8812716007232666e-07
	endloop
endfacet
facet normal -2.0999991051852407e-05 0.0 0.0
	outer loop
		vertex -0.014000000432133675 -0.03525000065565109 0.014000188559293747
		vertex -0.014000000432133675 -0.03375000134110451 0.014000188559293747
		vertex -0.014000000432133675 0.03525000065565109 1.8812716007232666e-07
	endloop
endfacet
facet normal 0.0 0.0 -1.0
	outer loop
		vertex 0.014000000432133675 -0.03525000065565109 1.8812716007232666e-07
		vertex -0.014000000432133675 -0.03525000065565109 1.8812716007232666e-07
		vertex 0.014000000432133675 0.03525000065565109 1.8812716007232666e-07
	endloop
endfacet
facet normal 0.0 0.0 -1.0
	outer loop
		vertex -0.014000000432133675 0.03525000065565109 1.8812716007232666e-07
		vertex 0.014000000432133675 0.03525000065565109 1.8812716007232666e-07
		vertex -0.014000000432133675 -0.03525000065565109 1.8812716007232666e-07
	endloop
endfacet
facet normal 0.0 0.0 1.0
	outer loop
		vertex 0.012500000186264515 -0.03375000134110451 0.014000188559293747
		vertex 0.014000000432133675 -0.03375000134110451 0.014000188559293747
		vertex 0.012500000186264515 0.03525000065565109 0.014000188559293747
	endloop
endfacet
facet normal 0.0 0.0 1.0
	outer loop
		vertex 0.014000000432133675 0.03525000065565109 0.014000188559293747
		vertex 0.012500000186264515 0.03525000065565109 0.014000188559293747
		vertex 0.014000000432133675 -0.03375000134110451 0.014000188559293747
	endloop
endfacet
facet normal 0.9939550618874043 -0.0 0.10978768122337773
	outer loop
		vertex -0.012499497272074223 -0.03375000134110451 0.013887994922697544
		vertex -0.012222661636769772 -0.03375000134110451 0.011381682939827442
		vertex -0.012499497272074223 0.03525000065565109 0.013887994922697544
	endloop
endfacet
facet normal 7.741361149161269e-06 -0.0 3.4701080134369455e-08
	outer loop
		vertex -0.012500000186264515 -0.03375000134110451 0.014000188559293747
		vertex -0.012499497272074223 -0.03375000134110451 0.013887994922697544
		vertex -0.012500000186264515 0.03525000065565109 0.014000188559293747
	endloop
endfacet
facet normal 7.741361149161269e-06 0.0 3.4701080134369455e-08
	outer loop
		vertex -0.012500000186264515 0.03525000065565109 0.014000188559293747
		vertex -0.012499497272074223 -0.03375000134110451 0.013887994922697544
		vertex -0.012499497272074223 0.03525000065565109 0.013887994922697544
	endloop
endfacet
facet normal -0.9951333577045752 0.0 0.09853730452786869
	outer loop
		vertex 0.012500000186264515 0.03525000065565109 0.014000188559293747
		vertex 0.012257259339094162 0.03525000065565109 0.01154873613268137
		vertex 0.012500000186264515 -0.03375000134110451 0.014000188559293747
	endloop
endfacet
facet normal -0.9951333577045752 0.0 0.09853730452786869
	outer loop
		vertex 0.012500000186264515 -0.03375000134110451 0.014000188559293747
		vertex 0.012257259339094162 0.03525000065565109 0.01154873613268137
		vertex 0.012257259339094162 -0.03375000134110451 0.01154873613268137
	endloop
endfacet
facet normal -0.9551644512616129 0.0 0.296075785984099
	outer loop
		vertex 0.012257259339094162 0.03525000065565109 0.01154873613268137
		vertex 0.011494845151901245 0.03525000065565109 0.009089126251637936
		vertex 0.012257259339094162 -0.03375000134110451 0.01154873613268137
	endloop
endfacet
facet normal -0.9551644512616129 0.0 0.296075785984099
	outer loop
		vertex 0.012257259339094162 -0.03375000134110451 0.01154873613268137
		vertex 0.011494845151901245 0.03525000065565109 0.009089126251637936
		vertex 0.011494845151901245 -0.03375000134110451 0.009089126251637936
	endloop
endfacet
facet normal -0.875270972547928 0.0 0.4836328407118406
	outer loop
		vertex 0.011494845151901245 0.03525000065565109 0.009089126251637936
		vertex 0.010275338776409626 0.03525000065565109 0.006882083136588335
		vertex 0.011494845151901245 -0.03375000134110451 0.009089126251637936
	endloop
endfacet
facet normal -0.875270972547928 0.0 0.4836328407118406
	outer loop
		vertex 0.011494845151901245 -0.03375000134110451 0.009089126251637936
		vertex 0.010275338776409626 0.03525000065565109 0.006882083136588335
		vertex 0.010275338776409626 -0.03375000134110451 0.006882083136588335
	endloop
endfacet
facet normal -0.7630204641943972 0.0 0.6463743274763986
	outer loop
		vertex 0.010275338776409626 0.03525000065565109 0.006882083136588335
		vertex 0.008710525929927826 0.03525000065565109 0.0050348807126283646
		vertex 0.010275338776409626 -0.03375000134110451 0.006882083136588335
	endloop
endfacet
facet normal -0.7630204641943972 0.0 0.6463743274763986
	outer loop
		vertex 0.010275338776409626 -0.03375000134110451 0.006882083136588335
		vertex 0.008710525929927826 0.03525000065565109 0.0050348807126283646
		vertex 0.008710525929927826 -0.03375000134110451 0.0050348807126283646
	endloop
endfacet
facet normal -0.6283994981670894 0.0 0.7778907832744583
	outer loop
		vertex 0.008710525929927826 0.03525000065565109 0.0050348807126283646
		vertex 0.0069337524473667145 0.03525000065565109 0.0035995589569211006
		vertex 0.008710525929927826 -0.03375000134110451 0.0050348807126283646
	endloop
endfacet
facet normal -0.6283994981670894 0.0 0.7778907832744583
	outer loop
		vertex 0.008710525929927826 -0.03375000134110451 0.0050348807126283646
		vertex 0.0069337524473667145 0.03525000065565109 0.0035995589569211006
		vertex 0.0069337524473667145 -0.03375000134110451 0.0035995589569211006
	endloop
endfacet
facet normal -0.4763607043756372 0.0 0.8792499527021578
	outer loop
		vertex 0.0069337524473667145 0.03525000065565109 0.0035995589569211006
		vertex 0.004925465676933527 0.03525000065565109 0.0025115078315138817
		vertex 0.0069337524473667145 -0.03375000134110451 0.0035995589569211006
	endloop
endfacet
facet normal -0.4763607043756372 0.0 0.8792499527021578
	outer loop
		vertex 0.0069337524473667145 -0.03375000134110451 0.0035995589569211006
		vertex 0.004925465676933527 0.03525000065565109 0.0025115078315138817
		vertex 0.004925465676933527 -0.03375000134110451 0.0025115078315138817
	endloop
endfacet
facet normal -0.30318380872420975 0.0 0.9529320952342206
	outer loop
		vertex 0.004925465676933527 0.03525000065565109 0.0025115078315138817
		vertex 0.0026185051538050175 0.03525000065565109 0.00177752785384655
		vertex 0.004925465676933527 -0.03375000134110451 0.0025115078315138817
	endloop
endfacet
facet normal -0.30318380872420975 0.0 0.9529320952342206
	outer loop
		vertex 0.004925465676933527 -0.03375000134110451 0.0025115078315138817
		vertex 0.0026185051538050175 0.03525000065565109 0.00177752785384655
		vertex 0.0026185051538050175 -0.03375000134110451 0.00177752785384655
	endloop
endfacet
facet normal -0.10978807414034623 0.0 0.9939550184875339
	outer loop
		vertex 0.0026185051538050175 0.03525000065565109 0.00177752785384655
		vertex 0.0001121938184951432 0.03525000065565109 0.0015006912872195244
		vertex 0.0026185051538050175 -0.03375000134110451 0.00177752785384655
	endloop
endfacet
facet normal -0.10978807414034623 0.0 0.9939550184875339
	outer loop
		vertex 0.0026185051538050175 -0.03375000134110451 0.00177752785384655
		vertex 0.0001121938184951432 0.03525000065565109 0.0015006912872195244
		vertex 0.0001121938184951432 -0.03375000134110451 0.0015006912872195244
	endloop
endfacet
facet normal 0.09407024821560399 0.0 0.9955655620804964
	outer loop
		vertex 0.0001121938184951432 0.03525000065565109 0.0015006912872195244
		vertex -0.0024514521937817335 0.03525000065565109 0.0017429282888770103
		vertex 0.0001121938184951432 -0.03375000134110451 0.0015006912872195244
	endloop
endfacet
facet normal 0.09407024821560399 0.0 0.9955655620804964
	outer loop
		vertex 0.0001121938184951432 -0.03375000134110451 0.0015006912872195244
		vertex -0.0024514521937817335 0.03525000065565109 0.0017429282888770103
		vertex -0.0024514521937817335 -0.03375000134110451 0.0017429282888770103
	endloop
endfacet
facet normal 0.29607598809864727 0.0 0.9551643886114104
	outer loop
		vertex -0.0024514521937817335 0.03525000065565109 0.0017429282888770103
		vertex -0.004911063238978386 0.03525000065565109 0.002505343407392502
		vertex -0.0024514521937817335 -0.03375000134110451 0.0017429282888770103
	endloop
endfacet
facet normal 0.29607598809864727 0.0 0.9551643886114104
	outer loop
		vertex -0.0024514521937817335 -0.03375000134110451 0.0017429282888770103
		vertex -0.004911063238978386 0.03525000065565109 0.002505343407392502
		vertex -0.004911063238978386 -0.03375000134110451 0.002505343407392502
	endloop
endfacet
facet normal 0.4836325577570791 0.0 0.8752711288951244
	outer loop
		vertex -0.004911063238978386 0.03525000065565109 0.002505343407392502
		vertex -0.0071181063540279865 0.03525000065565109 0.0037248488515615463
		vertex -0.004911063238978386 -0.03375000134110451 0.002505343407392502
	endloop
endfacet
facet normal 0.4836325577570791 0.0 0.8752711288951244
	outer loop
		vertex -0.004911063238978386 -0.03375000134110451 0.002505343407392502
		vertex -0.0071181063540279865 0.03525000065565109 0.0037248488515615463
		vertex -0.0071181063540279865 -0.03375000134110451 0.0037248488515615463
	endloop
endfacet
facet normal 0.6463747411812312 0.0 0.7630201137341639
	outer loop
		vertex -0.0071181063540279865 0.03525000065565109 0.0037248488515615463
		vertex -0.008965307846665382 0.03525000065565109 0.005289662629365921
		vertex -0.0071181063540279865 -0.03375000134110451 0.0037248488515615463
	endloop
endfacet
facet normal 0.6463747411812312 0.0 0.7630201137341639
	outer loop
		vertex -0.0071181063540279865 -0.03375000134110451 0.0037248488515615463
		vertex -0.008965307846665382 0.03525000065565109 0.005289662629365921
		vertex -0.008965307846665382 -0.03375000134110451 0.005289662629365921
	endloop
endfacet
facet normal 0.7778907832744583 0.0 0.6283994981670894
	outer loop
		vertex -0.008965307846665382 0.03525000065565109 0.005289662629365921
		vertex -0.010400629602372646 0.03525000065565109 0.0070664361119270325
		vertex -0.008965307846665382 -0.03375000134110451 0.005289662629365921
	endloop
endfacet
facet normal 0.7778907832744583 0.0 0.6283994981670894
	outer loop
		vertex -0.008965307846665382 -0.03375000134110451 0.005289662629365921
		vertex -0.010400629602372646 0.03525000065565109 0.0070664361119270325
		vertex -0.010400629602372646 -0.03375000134110451 0.0070664361119270325
	endloop
endfacet
facet normal 0.879249643135294 0.0 0.47636127576290044
	outer loop
		vertex -0.010400629602372646 0.03525000065565109 0.0070664361119270325
		vertex -0.01148868165910244 0.03525000065565109 0.009074721485376358
		vertex -0.010400629602372646 -0.03375000134110451 0.0070664361119270325
	endloop
endfacet
facet normal 0.879249643135294 0.0 0.47636127576290044
	outer loop
		vertex -0.010400629602372646 -0.03375000134110451 0.0070664361119270325
		vertex -0.01148868165910244 0.03525000065565109 0.009074721485376358
		vertex -0.01148868165910244 -0.03375000134110451 0.009074721485376358
	endloop
endfacet
facet normal 0.9529321305959659 0.0 0.3031836975792611
	outer loop
		vertex -0.01148868165910244 0.03525000065565109 0.009074721485376358
		vertex -0.012222661636769772 0.03525000065565109 0.011381682939827442
		vertex -0.01148868165910244 -0.03375000134110451 0.009074721485376358
	endloop
endfacet
facet normal 0.9529321305959659 0.0 0.3031836975792611
	outer loop
		vertex -0.01148868165910244 -0.03375000134110451 0.009074721485376358
		vertex -0.012222661636769772 0.03525000065565109 0.011381682939827442
		vertex -0.012222661636769772 -0.03375000134110451 0.011381682939827442
	endloop
endfacet
facet normal 0.9939550618874043 0.0 0.10978768122337773
	outer loop
		vertex -0.012222661636769772 0.03525000065565109 0.011381682939827442
		vertex -0.012499497272074223 0.03525000065565109 0.013887994922697544
		vertex -0.012222661636769772 -0.03375000134110451 0.011381682939827442
	endloop
endfacet
facet normal 3.5058690978084783e-07 -0.0 3.821222260643537e-06
	outer loop
		vertex -4.097819583659401e-10 -0.03525000065565109 0.02800018899142742
		vertex 0.0025474822614341974 -0.03525000065565109 0.02776646427810192
		vertex -4.097819583659401e-10 -0.03375000134110451 0.02800018899142742
	endloop
endfacet
facet normal 3.821221296725075e-06 -0.0 3.505883067640714e-07
	outer loop
		vertex 0.014000000432133675 -0.03525000065565109 0.014000188559293747
		vertex 0.014000000432133675 -0.03375000134110451 0.014000188559293747
		vertex 0.0137662747874856 -0.03525000065565109 0.0165476705878973
	endloop
endfacet
facet normal 3.821221296725075e-06 0.0 3.505883067640714e-07
	outer loop
		vertex 0.014000000432133675 -0.03375000134110451 0.014000188559293747
		vertex 0.0137662747874856 -0.03375000134110451 0.0165476705878973
		vertex 0.0137662747874856 -0.03525000065565109 0.0165476705878973
	endloop
endfacet
facet normal 3.908764647411744e-06 0.0 1.1238576365264763e-06
	outer loop
		vertex 0.0137662747874856 -0.03375000134110451 0.0165476705878973
		vertex 0.013017036020755768 -0.03375000134110451 0.019153514876961708
		vertex 0.0137662747874856 -0.03525000065565109 0.0165476705878973
	endloop
endfacet
facet normal 3.908764647411744e-06 0.0 1.1238576365264763e-06
	outer loop
		vertex 0.0137662747874856 -0.03525000065565109 0.0165476705878973
		vertex 0.013017036020755768 -0.03375000134110451 0.019153514876961708
		vertex 0.013017036020755768 -0.03525000065565109 0.019153514876961708
	endloop
endfacet
facet normal 3.761413650958667e-06 0.0 1.94864770757322e-06
	outer loop
		vertex 0.013017036020755768 -0.03375000134110451 0.019153514876961708
		vertex 0.01171793695539236 -0.03375000134110451 0.021661125123500824
		vertex 0.013017036020755768 -0.03525000065565109 0.019153514876961708
	endloop
endfacet
facet normal 3.761413650958667e-06 0.0 1.94864770757322e-06
	outer loop
		vertex 0.013017036020755768 -0.03525000065565109 0.019153514876961708
		vertex 0.01171793695539236 -0.03375000134110451 0.021661125123500824
		vertex 0.01171793695539236 -0.03525000065565109 0.021661125123500824
	endloop
endfacet
facet normal 3.357836373542311e-06 0.0 2.7276628293340655e-06
	outer loop
		vertex 0.01171793695539236 -0.03375000134110451 0.021661125123500824
		vertex 0.009899494238197803 -0.03375000134110451 0.023899683728814125
		vertex 0.01171793695539236 -0.03525000065565109 0.021661125123500824
	endloop
endfacet
facet normal 3.357836373542311e-06 0.0 2.7276628293340655e-06
	outer loop
		vertex 0.01171793695539236 -0.03525000065565109 0.021661125123500824
		vertex 0.009899494238197803 -0.03375000134110451 0.023899683728814125
		vertex 0.009899494238197803 -0.03525000065565109 0.023899683728814125
	endloop
endfacet
facet normal 2.7276628293340655e-06 0.0 3.3578349765590876e-06
	outer loop
		vertex 0.009899494238197803 -0.03375000134110451 0.023899683728814125
		vertex 0.007660936564207077 -0.03375000134110451 0.025718126446008682
		vertex 0.009899494238197803 -0.03525000065565109 0.023899683728814125
	endloop
endfacet
facet normal 2.7276628293340655e-06 0.0 3.3578349765590876e-06
	outer loop
		vertex 0.009899494238197803 -0.03525000065565109 0.023899683728814125
		vertex 0.007660936564207077 -0.03375000134110451 0.025718126446008682
		vertex 0.007660936564207077 -0.03525000065565109 0.025718126446008682
	endloop
endfacet
facet normal 1.9486463105899965e-06 0.0 3.761414349450279e-06
	outer loop
		vertex 0.007660936564207077 -0.03375000134110451 0.025718126446008682
		vertex 0.005153325852006674 -0.03375000134110451 0.027017224580049515
		vertex 0.007660936564207077 -0.03525000065565109 0.025718126446008682
	endloop
endfacet
facet normal 1.9486463105899965e-06 0.0 3.761414349450279e-06
	outer loop
		vertex 0.007660936564207077 -0.03525000065565109 0.025718126446008682
		vertex 0.005153325852006674 -0.03375000134110451 0.027017224580049515
		vertex 0.005153325852006674 -0.03525000065565109 0.027017224580049515
	endloop
endfacet
facet normal 1.1238590335096998e-06 0.0 3.908763599674327e-06
	outer loop
		vertex 0.005153325852006674 -0.03375000134110451 0.027017224580049515
		vertex 0.0025474822614341974 -0.03375000134110451 0.02776646427810192
		vertex 0.005153325852006674 -0.03525000065565109 0.027017224580049515
	endloop
endfacet
facet normal 1.1238590335096998e-06 0.0 3.908763599674327e-06
	outer loop
		vertex 0.005153325852006674 -0.03525000065565109 0.027017224580049515
		vertex 0.0025474822614341974 -0.03375000134110451 0.02776646427810192
		vertex 0.0025474822614341974 -0.03525000065565109 0.02776646427810192
	endloop
endfacet
facet normal 3.5058690978084783e-07 0.0 3.821222260643537e-06
	outer loop
		vertex 0.0025474822614341974 -0.03375000134110451 0.02776646427810192
		vertex -4.097819583659401e-10 -0.03375000134110451 0.02800018899142742
		vertex 0.0025474822614341974 -0.03525000065565109 0.02776646427810192
	endloop
endfacet
facet normal -3.5058690978084783e-07 0.0 3.821222777527253e-06
	outer loop
		vertex -4.097819583659401e-10 -0.03375000134110451 0.02800018899142742
		vertex -0.0025474834255874157 -0.03375000134110451 0.02776646427810192
		vertex -4.097819583659401e-10 -0.03525000065565109 0.02800018899142742
	endloop
endfacet
facet normal -3.821221296725075e-06 0.0 3.5058690978084783e-07
	outer loop
		vertex -0.014000000432133675 -0.03525000065565109 0.014000188559293747
		vertex -0.013766275718808174 -0.03525000065565109 0.0165476705878973
		vertex -0.014000000432133675 -0.03375000134110451 0.014000188559293747
	endloop
endfacet
facet normal -3.821221296725075e-06 0.0 3.5058690978084783e-07
	outer loop
		vertex -0.014000000432133675 -0.03375000134110451 0.014000188559293747
		vertex -0.013766275718808174 -0.03525000065565109 0.0165476705878973
		vertex -0.013766275718808174 -0.03375000134110451 0.0165476705878973
	endloop
endfacet
facet normal -3.908764647411744e-06 0.0 1.1238576365264763e-06
	outer loop
		vertex -0.013766275718808174 -0.03525000065565109 0.0165476705878973
		vertex -0.013017036952078342 -0.03525000065565109 0.019153514876961708
		vertex -0.013766275718808174 -0.03375000134110451 0.0165476705878973
	endloop
endfacet
facet normal -3.908764647411744e-06 0.0 1.1238576365264763e-06
	outer loop
		vertex -0.013766275718808174 -0.03375000134110451 0.0165476705878973
		vertex -0.013017036952078342 -0.03525000065565109 0.019153514876961708
		vertex -0.013017036952078342 -0.03375000134110451 0.019153514876961708
	endloop
endfacet
facet normal -3.761413650958667e-06 0.0 1.94864770757322e-06
	outer loop
		vertex -0.013017036952078342 -0.03525000065565109 0.019153514876961708
		vertex -0.011717937886714935 -0.03525000065565109 0.021661125123500824
		vertex -0.013017036952078342 -0.03375000134110451 0.019153514876961708
	endloop
endfacet
facet normal -3.761413650958667e-06 0.0 1.94864770757322e-06
	outer loop
		vertex -0.013017036952078342 -0.03375000134110451 0.019153514876961708
		vertex -0.011717937886714935 -0.03525000065565109 0.021661125123500824
		vertex -0.011717937886714935 -0.03375000134110451 0.021661125123500824
	endloop
endfacet
facet normal -3.357836373542311e-06 0.0 2.7276628293340655e-06
	outer loop
		vertex -0.011717937886714935 -0.03525000065565109 0.021661125123500824
		vertex -0.009899495169520378 -0.03525000065565109 0.023899683728814125
		vertex -0.011717937886714935 -0.03375000134110451 0.021661125123500824
	endloop
endfacet
facet normal -3.357836373542311e-06 0.0 2.7276628293340655e-06
	outer loop
		vertex -0.011717937886714935 -0.03375000134110451 0.021661125123500824
		vertex -0.009899495169520378 -0.03525000065565109 0.023899683728814125
		vertex -0.009899495169520378 -0.03375000134110451 0.023899683728814125
	endloop
endfacet
facet normal -2.7276628293340655e-06 0.0 3.3578356750506994e-06
	outer loop
		vertex -0.009899495169520378 -0.03525000065565109 0.023899683728814125
		vertex -0.007660937029868364 -0.03525000065565109 0.025718126446008682
		vertex -0.009899495169520378 -0.03375000134110451 0.023899683728814125
	endloop
endfacet
facet normal -2.7276628293340655e-06 0.0 3.3578356750506994e-06
	outer loop
		vertex -0.009899495169520378 -0.03375000134110451 0.023899683728814125
		vertex -0.007660937029868364 -0.03525000065565109 0.025718126446008682
		vertex -0.007660937029868364 -0.03375000134110451 0.025718126446008682
	endloop
endfacet
facet normal -1.9486463105899965e-06 0.0 3.761413650958667e-06
	outer loop
		vertex -0.007660937029868364 -0.03525000065565109 0.025718126446008682
		vertex -0.005153326783329248 -0.03525000065565109 0.027017224580049515
		vertex -0.007660937029868364 -0.03375000134110451 0.025718126446008682
	endloop
endfacet
facet normal -1.9486463105899965e-06 0.0 3.761413650958667e-06
	outer loop
		vertex -0.007660937029868364 -0.03375000134110451 0.025718126446008682
		vertex -0.005153326783329248 -0.03525000065565109 0.027017224580049515
		vertex -0.005153326783329248 -0.03375000134110451 0.027017224580049515
	endloop
endfacet
facet normal -1.1238590335096998e-06 0.0 3.908763250428521e-06
	outer loop
		vertex -0.005153326783329248 -0.03525000065565109 0.027017224580049515
		vertex -0.0025474834255874157 -0.03525000065565109 0.02776646427810192
		vertex -0.005153326783329248 -0.03375000134110451 0.027017224580049515
	endloop
endfacet
facet normal -1.1238590335096998e-06 0.0 3.908763250428521e-06
	outer loop
		vertex -0.005153326783329248 -0.03375000134110451 0.027017224580049515
		vertex -0.0025474834255874157 -0.03525000065565109 0.02776646427810192
		vertex -0.0025474834255874157 -0.03375000134110451 0.02776646427810192
	endloop
endfacet
facet normal -3.5058690978084783e-07 0.0 3.821222777527253e-06
	outer loop
		vertex -0.0025474834255874157 -0.03525000065565109 0.02776646427810192
		vertex -4.097819583659401e-10 -0.03525000065565109 0.02800018899142742
		vertex -0.0025474834255874157 -0.03375000134110451 0.02776646427810192
	endloop
endfacet
facet normal -0.0 2.9798736802741366e-08 -0.0
	outer loop
		vertex -0.012499497272074223 -0.03375000134110451 0.013887994922697544
		vertex -0.012500000186264515 -0.03375000134110451 0.014000188559293747
		vertex -0.012222661636769772 -0.03375000134110451 0.011381682939827442
	endloop
endfacet
facet normal 0.0 3.821223669252596e-06 0.0
	outer loop
		vertex -0.014000000432133675 -0.03375000134110451 0.014000188559293747
		vertex -0.013766275718808174 -0.03375000134110451 0.0165476705878973
		vertex -0.012500000186264515 -0.03375000134110451 0.014000188559293747
	endloop
endfacet
facet normal 0.0 3.821223669252596e-06 0.0
	outer loop
		vertex 0.014000000432133675 -0.03375000134110451 0.014000188559293747
		vertex 0.012500000186264515 -0.03375000134110451 0.014000188559293747
		vertex 0.0137662747874856 -0.03375000134110451 0.0165476705878973
	endloop
endfacet
facet normal 0.0 5.2083867313566096e-06 0.0
	outer loop
		vertex 0.0137662747874856 -0.03375000134110451 0.0165476705878973
		vertex 0.012500000186264515 -0.03375000134110451 0.014000188559293747
		vertex 0.013017036020755768 -0.03375000134110451 0.019153514876961708
	endloop
endfacet
facet normal -0.0 5.208389158238222e-06 0.0
	outer loop
		vertex -0.013766275718808174 -0.03375000134110451 0.0165476705878973
		vertex -0.013017036952078342 -0.03375000134110451 0.019153514876961708
		vertex -0.012500000186264515 -0.03375000134110451 0.014000188559293747
	endloop
endfacet
facet normal -0.0 7.991208094587296e-06 0.0
	outer loop
		vertex -0.013017036952078342 -0.03375000134110451 0.019153514876961708
		vertex -0.011717937886714935 -0.03375000134110451 0.021661125123500824
		vertex -0.012500000186264515 -0.03375000134110451 0.014000188559293747
	endloop
endfacet
facet normal 0.0 7.991205759193265e-06 0.0
	outer loop
		vertex 0.013017036020755768 -0.03375000134110451 0.019153514876961708
		vertex 0.012500000186264515 -0.03375000134110451 0.014000188559293747
		vertex 0.01171793695539236 -0.03375000134110451 0.021661125123500824
	endloop
endfacet
facet normal -0.0 1.2180282011524032e-05 0.0
	outer loop
		vertex -0.011717937886714935 -0.03375000134110451 0.021661125123500824
		vertex -0.009899495169520378 -0.03375000134110451 0.023899683728814125
		vertex -0.012500000186264515 -0.03375000134110451 0.014000188559293747
	endloop
endfacet
facet normal -0.0 1.743172608144935e-05 0.0
	outer loop
		vertex -0.009899495169520378 -0.03375000134110451 0.023899683728814125
		vertex -0.007660937029868364 -0.03375000134110451 0.025718126446008682
		vertex -0.012500000186264515 -0.03375000134110451 0.014000188559293747
	endloop
endfacet
facet normal -0.0 2.3097603196055305e-05 0.0
	outer loop
		vertex -0.007660937029868364 -0.03375000134110451 0.025718126446008682
		vertex -0.005153326783329248 -0.03375000134110451 0.027017224580049515
		vertex -0.012500000186264515 -0.03375000134110451 0.014000188559293747
	endloop
endfacet
facet normal -0.0 2.841593749006773e-05 0.0
	outer loop
		vertex -0.005153326783329248 -0.03375000134110451 0.027017224580049515
		vertex -0.0025474834255874157 -0.03375000134110451 0.02776646427810192
		vertex -0.012500000186264515 -0.03375000134110451 0.014000188559293747
	endloop
endfacet
facet normal -0.0 3.2743204457802395e-05 0.0
	outer loop
		vertex -0.0025474834255874157 -0.03375000134110451 0.02776646427810192
		vertex -4.097819583659401e-10 -0.03375000134110451 0.02800018899142742
		vertex -0.012500000186264515 -0.03375000134110451 0.014000188559293747
	endloop
endfacet
facet normal 0.0 3.858631736220643e-05 0.0
	outer loop
		vertex -4.097819583659401e-10 -0.03375000134110451 0.02800018899142742
		vertex 0.0025474822614341974 -0.03375000134110451 0.02776646427810192
		vertex -0.012500000186264515 -0.03375000134110451 0.014000188559293747
	endloop
endfacet
facet normal 0.0 4.714693255347246e-05 0.0
	outer loop
		vertex 0.0025474822614341974 -0.03375000134110451 0.02776646427810192
		vertex 0.005153325852006674 -0.03375000134110451 0.027017224580049515
		vertex -0.012500000186264515 -0.03375000134110451 0.014000188559293747
	endloop
endfacet
facet normal 0.0 5.557506188267822e-05 0.0
	outer loop
		vertex 0.005153325852006674 -0.03375000134110451 0.027017224580049515
		vertex 0.007660936564207077 -0.03375000134110451 0.025718126446008682
		vertex -0.012500000186264515 -0.03375000134110451 0.014000188559293747
	endloop
endfacet
facet normal 0.0 6.289278838536756e-05 0.0
	outer loop
		vertex 0.007660936564207077 -0.03375000134110451 0.025718126446008682
		vertex 0.009899494238197803 -0.03375000134110451 0.023899683728814125
		vertex -0.012500000186264515 -0.03375000134110451 0.014000188559293747
	endloop
endfacet
facet normal 0.0 6.814424589346446e-05 0.0
	outer loop
		vertex 0.009899494238197803 -0.03375000134110451 0.023899683728814125
		vertex 0.01171793695539236 -0.03375000134110451 0.021661125123500824
		vertex -0.012500000186264515 -0.03375000134110451 0.014000188559293747
	endloop
endfacet
facet normal 0.0 1.0 0.0
	outer loop
		vertex 0.01171793695539236 -0.03375000134110451 0.021661125123500824
		vertex 0.012500000186264515 -0.03375000134110451 0.014000188559293747
		vertex -0.012500000186264515 -0.03375000134110451 0.014000188559293747
	endloop
endfacet
facet normal 0.0 6.128631157854662e-05 0.0
	outer loop
		vertex 0.012500000186264515 -0.03375000134110451 0.014000188559293747
		vertex 0.012257259339094162 -0.03375000134110451 0.01154873613268137
		vertex -0.012500000186264515 -0.03375000134110451 0.014000188559293747
	endloop
endfacet
facet normal 0.0 6.276222226540666e-05 0.0
	outer loop
		vertex 0.012257259339094162 -0.03375000134110451 0.01154873613268137
		vertex 0.011494845151901245 -0.03375000134110451 0.009089126251637936
		vertex -0.012500000186264515 -0.03375000134110451 0.014000188559293747
	endloop
endfacet
facet normal 0.0 5.894672999490159e-05 0.0
	outer loop
		vertex 0.011494845151901245 -0.03375000134110451 0.009089126251637936
		vertex 0.010275338776409626 -0.03375000134110451 0.006882083136588335
		vertex -0.012500000186264515 -0.03375000134110451 0.014000188559293747
	endloop
endfacet
facet normal 0.0 5.3209164146422825e-05 0.0
	outer loop
		vertex 0.010275338776409626 -0.03375000134110451 0.006882083136588335
		vertex 0.008710525929927826 -0.03375000134110451 0.0050348807126283646
		vertex -0.012500000186264515 -0.03375000134110451 0.014000188559293747
	endloop
endfacet
facet normal 0.0 4.6373250829520075e-05 0.0
	outer loop
		vertex 0.008710525929927826 -0.03375000134110451 0.0050348807126283646
		vertex 0.0069337524473667145 -0.03375000134110451 0.0035995589569211006
		vertex -0.012500000186264515 -0.03375000134110451 0.014000188559293747
	endloop
endfacet
facet normal 0.0 4.203236325852873e-05 0.0
	outer loop
		vertex 0.0069337524473667145 -0.03375000134110451 0.0035995589569211006
		vertex 0.004925465676933527 -0.03375000134110451 0.0025115078315138817
		vertex -0.012500000186264515 -0.03375000134110451 0.014000188559293747
	endloop
endfacet
facet normal 0.0 3.929387594692841e-05 0.0
	outer loop
		vertex 0.004925465676933527 -0.03375000134110451 0.0025115078315138817
		vertex 0.0026185051538050175 -0.03375000134110451 0.00177752785384655
		vertex -0.012500000186264515 -0.03375000134110451 0.014000188559293747
	endloop
endfacet
facet normal 0.0 3.4819148184586096e-05 0.0
	outer loop
		vertex 0.0026185051538050175 -0.03375000134110451 0.00177752785384655
		vertex 0.0001121938184951432 -0.03375000134110451 0.0015006912872195244
		vertex -0.012500000186264515 -0.03375000134110451 0.014000188559293747
	endloop
endfacet
facet normal 0.0 2.898914627698328e-05 0.0
	outer loop
		vertex 0.0001121938184951432 -0.03375000134110451 0.0015006912872195244
		vertex -0.0024514521937817335 -0.03375000134110451 0.0017429282888770103
		vertex -0.012500000186264515 -0.03375000134110451 0.014000188559293747
	endloop
endfacet
facet normal 0.0 2.2486927836369748e-05 0.0
	outer loop
		vertex -0.0024514521937817335 -0.03375000134110451 0.0017429282888770103
		vertex -0.004911063238978386 -0.03375000134110451 0.002505343407392502
		vertex -0.012500000186264515 -0.03375000134110451 0.014000188559293747
	endloop
endfacet
facet normal 0.0 1.611486892839388e-05 0.0
	outer loop
		vertex -0.004911063238978386 -0.03375000134110451 0.002505343407392502
		vertex -0.0071181063540279865 -0.03375000134110451 0.0037248488515615463
		vertex -0.012500000186264515 -0.03375000134110451 0.014000188559293747
	endloop
endfacet
facet normal 0.0 1.0558961226115118e-05 0.0
	outer loop
		vertex -0.0071181063540279865 -0.03375000134110451 0.0037248488515615463
		vertex -0.008965307846665382 -0.03375000134110451 0.005289662629365921
		vertex -0.012500000186264515 -0.03375000134110451 0.014000188559293747
	endloop
endfacet
facet normal 0.0 6.2220597528660215e-06 0.0
	outer loop
		vertex -0.008965307846665382 -0.03375000134110451 0.005289662629365921
		vertex -0.010400629602372646 -0.03375000134110451 0.0070664361119270325
		vertex -0.012500000186264515 -0.03375000134110451 0.014000188559293747
	endloop
endfacet
facet normal 0.0 3.3281483741327833e-06 0.0
	outer loop
		vertex -0.010400629602372646 -0.03375000134110451 0.0070664361119270325
		vertex -0.01148868165910244 -0.03375000134110451 0.009074721485376358
		vertex -0.012500000186264515 -0.03375000134110451 0.014000188559293747
	endloop
endfacet
facet normal 0.0 1.2821213525799138e-06 0.0
	outer loop
		vertex -0.01148868165910244 -0.03375000134110451 0.009074721485376358
		vertex -0.012222661636769772 -0.03375000134110451 0.011381682939827442
		vertex -0.012500000186264515 -0.03375000134110451 0.014000188559293747
	endloop
endfacet
facet normal -0.0 -1.2996196570632529e-06 -0.0
	outer loop
		vertex 0.0137662747874856 -0.03525000065565109 0.0165476705878973
		vertex 0.013017036020755768 -0.03525000065565109 0.019153514876961708
		vertex 0.014000000432133675 -0.03525000065565109 0.014000188559293747
	endloop
endfacet
facet normal 0.0 -1.0 0.0
	outer loop
		vertex 0.014000000432133675 -0.03525000065565109 1.8812716007232666e-07
		vertex 0.014000000432133675 -0.03525000065565109 0.014000188559293747
		vertex -0.014000000432133675 -0.03525000065565109 1.8812716007232666e-07
	endloop
endfacet
facet normal 0.0 -1.0 0.0
	outer loop
		vertex -0.014000000432133675 -0.03525000065565109 1.8812716007232666e-07
		vertex 0.014000000432133675 -0.03525000065565109 0.014000188559293747
		vertex -0.014000000432133675 -0.03525000065565109 0.014000188559293747
	endloop
endfacet
facet normal 0.0 -7.132949900260505e-05 0.0
	outer loop
		vertex -0.014000000432133675 -0.03525000065565109 0.014000188559293747
		vertex 0.014000000432133675 -0.03525000065565109 0.014000188559293747
		vertex -0.013766275718808174 -0.03525000065565109 0.0165476705878973
	endloop
endfacet
facet normal 0.0 -7.426326442989441e-05 0.0
	outer loop
		vertex -0.013766275718808174 -0.03525000065565109 0.0165476705878973
		vertex 0.014000000432133675 -0.03525000065565109 0.014000188559293747
		vertex -0.013017036952078342 -0.03525000065565109 0.019153514876961708
	endloop
endfacet
facet normal 0.0 -7.44428811785755e-05 0.0
	outer loop
		vertex -0.013017036952078342 -0.03525000065565109 0.019153514876961708
		vertex 0.014000000432133675 -0.03525000065565109 0.014000188559293747
		vertex -0.011717937886714935 -0.03525000065565109 0.021661125123500824
	endloop
endfacet
facet normal 0.0 -7.15020864366471e-05 0.0
	outer loop
		vertex -0.011717937886714935 -0.03525000065565109 0.021661125123500824
		vertex 0.014000000432133675 -0.03525000065565109 0.014000188559293747
		vertex -0.009899495169520378 -0.03525000065565109 0.023899683728814125
	endloop
endfacet
facet normal 0.0 -6.56204592116268e-05 0.0
	outer loop
		vertex -0.009899495169520378 -0.03525000065565109 0.023899683728814125
		vertex 0.014000000432133675 -0.03525000065565109 0.014000188559293747
		vertex -0.007660937029868364 -0.03525000065565109 0.025718126446008682
	endloop
endfacet
facet normal 0.0 -5.75237045514973e-05 0.0
	outer loop
		vertex -0.007660937029868364 -0.03525000065565109 0.025718126446008682
		vertex 0.014000000432133675 -0.03525000065565109 0.014000188559293747
		vertex -0.005153326783329248 -0.03525000065565109 0.027017224580049515
	endloop
endfacet
facet normal 0.0 -4.827078995178497e-05 0.0
	outer loop
		vertex -0.005153326783329248 -0.03525000065565109 0.027017224580049515
		vertex 0.014000000432133675 -0.03525000065565109 0.014000188559293747
		vertex -0.0025474834255874157 -0.03525000065565109 0.02776646427810192
	endloop
endfacet
facet normal 0.0 -3.89369095054631e-05 0.0
	outer loop
		vertex -0.0025474834255874157 -0.03525000065565109 0.02776646427810192
		vertex 0.014000000432133675 -0.03525000065565109 0.014000188559293747
		vertex -4.097819583659401e-10 -0.03525000065565109 0.02800018899142742
	endloop
endfacet
facet normal 0.0 -3.239261231454573e-05 0.0
	outer loop
		vertex -4.097819583659401e-10 -0.03525000065565109 0.02800018899142742
		vertex 0.014000000432133675 -0.03525000065565109 0.014000188559293747
		vertex 0.0025474822614341974 -0.03525000065565109 0.02776646427810192
	endloop
endfacet
facet normal 0.0 -2.7292080091755218e-05 0.0
	outer loop
		vertex 0.0025474822614341974 -0.03525000065565109 0.02776646427810192
		vertex 0.014000000432133675 -0.03525000065565109 0.014000188559293747
		vertex 0.005153325852006674 -0.03525000065565109 0.027017224580049515
	endloop
endfacet
facet normal 0.0 -2.114896052723622e-05 0.0
	outer loop
		vertex 0.005153325852006674 -0.03525000065565109 0.027017224580049515
		vertex 0.014000000432133675 -0.03525000065565109 0.014000188559293747
		vertex 0.007660936564207077 -0.03525000065565109 0.025718126446008682
	endloop
endfacet
facet normal 0.0 -1.4704055255190113e-05 0.0
	outer loop
		vertex 0.007660936564207077 -0.03525000065565109 0.025718126446008682
		vertex 0.014000000432133675 -0.03525000065565109 0.014000188559293747
		vertex 0.009899494238197803 -0.03525000065565109 0.023899683728814125
	endloop
endfacet
facet normal 0.0 -8.822441468341394e-06 0.0
	outer loop
		vertex 0.009899494238197803 -0.03525000065565109 0.023899683728814125
		vertex 0.014000000432133675 -0.03525000065565109 0.014000188559293747
		vertex 0.01171793695539236 -0.03525000065565109 0.021661125123500824
	endloop
endfacet
facet normal 0.0 -4.229789772840567e-06 0.0
	outer loop
		vertex 0.01171793695539236 -0.03525000065565109 0.021661125123500824
		vertex 0.014000000432133675 -0.03525000065565109 0.014000188559293747
		vertex 0.013017036020755768 -0.03525000065565109 0.019153514876961708
	endloop
endfacet
endsolid quarter_counting_tube