# File units = meters
mtllib Rounded_U.mtl
g Part 1
v -0.005 -0.0149121 0.0233782 
v -0.005 -0.015 0.025 
v 0.005 -0.015 0.025 
v -0.005 -0.0146493 0.0217754 
v 0.005 -0.0149121 0.0233782 
v -0.005 -0.0142148 0.0202105 
v 0.005 -0.0146493 0.0217754 
v -0.005 -0.0136136 0.0187017 
v 0.005 -0.0142148 0.0202105 
v -0.005 -0.0128529 0.0172667 
v 0.005 -0.0136136 0.0187017 
v -0.005 -0.0119414 0.0159224 
v 0.005 -0.0128529 0.0172667 
v -0.005 -0.0108899 0.0146845 
v 0.005 -0.0119414 0.0159224 
v -0.005 -0.00971079 0.0135676 
v 0.005 -0.0108899 0.0146845 
v -0.005 -0.00841781 0.0125847 
v 0.005 -0.00971079 0.0135676 
v -0.005 -0.00702613 0.0117473 
v 0.005 -0.00841781 0.0125847 
v -0.005 -0.00555207 0.0110653 
v 0.005 -0.00702613 0.0117473 
v -0.005 -0.00401293 0.0105468 
v 0.005 -0.00555207 0.0110653 
v -0.005 -0.00242673 0.0101976 
v 0.005 -0.00401293 0.0105468 
v -0.005 -0.000812084 0.010022 
v 0.005 -0.00242673 0.0101976 
v -0.005 0.000812084 0.010022 
v 0.005 -0.000812084 0.010022 
v -0.005 0.00242673 0.0101976 
v 0.005 0.000812084 0.010022 
v -0.005 0.00401293 0.0105468 
v 0.005 0.00242673 0.0101976 
v -0.005 0.00555207 0.0110653 
v 0.005 0.00401293 0.0105468 
v -0.005 0.00702613 0.0117473 
v 0.005 0.00555207 0.0110653 
v -0.005 0.00841781 0.0125847 
v 0.005 0.00702613 0.0117473 
v -0.005 0.00971079 0.0135676 
v 0.005 0.00841781 0.0125847 
v -0.005 0.0108899 0.0146845 
v 0.005 0.00971079 0.0135676 
v -0.005 0.0119414 0.0159224 
v 0.005 0.0108899 0.0146845 
v -0.005 0.0128529 0.0172667 
v 0.005 0.0119414 0.0159224 
v -0.005 0.0136136 0.0187017 
v 0.005 0.0128529 0.0172667 
v -0.005 0.0142148 0.0202105 
v 0.005 0.0136136 0.0187017 
v -0.005 0.0146493 0.0217754 
v 0.005 0.0142148 0.0202105 
v -0.005 0.0149121 0.0233782 
v 0.005 0.0146493 0.0217754 
v -0.005 0.015 0.025 
v 0.005 0.0149121 0.0233782 
v 0.005 0.015 0.025 
v -0.005 -0.015 0.065 
v 0.005 -0.015 0.065 
v -0.005 -0.025 0.065 
v 0.005 -0.025 0.065 
v -0.005 -0.025 0.025 
v 0.005 -0.025 0.025 
v -0.005 0.025 0.025 
v 0.005 0.025 0.025 
v 0.005 0.0248534 0.022297 
v -0.005 0.0248534 0.022297 
v 0.005 0.0244155 0.0196257 
v -0.005 0.0244155 0.0196257 
v 0.005 0.0236913 0.0170175 
v -0.005 0.0236913 0.0170175 
v 0.005 0.0226894 0.0145028 
v -0.005 0.0226894 0.0145028 
v 0.005 0.0214214 0.0121112 
v -0.005 0.0214214 0.0121112 
v 0.005 0.0199023 0.00987064 
v -0.005 0.0199023 0.00987064 
v 0.005 0.0181499 0.00780751 
v -0.005 0.0181499 0.00780751 
v 0.005 0.0161847 0.00594595 
v -0.005 0.0161847 0.00594595 
v 0.005 0.0140297 0.00430778 
v -0.005 0.0140297 0.00430778 
v 0.005 0.0117102 0.0029122 
v -0.005 0.0117102 0.0029122 
v 0.005 0.00925345 0.00177558 
v -0.005 0.00925345 0.00177558 
v 0.005 0.00668821 0.00091125 
v -0.005 0.00668821 0.00091125 
v 0.005 0.00404455 0.000329337 
v -0.005 0.00404455 0.000329337 
v 0.005 0.00135347 3.66647e-05 
v -0.005 0.00135347 3.66647e-05 
v 0.005 -0.00135347 3.66647e-05 
v -0.005 -0.00135347 3.66647e-05 
v 0.005 -0.00404455 0.000329337 
v -0.005 -0.00404455 0.000329337 
v 0.005 -0.00668821 0.00091125 
v -0.005 -0.00668821 0.00091125 
v 0.005 -0.00925345 0.00177558 
v -0.005 -0.00925345 0.00177558 
v 0.005 -0.0117102 0.0029122 
v -0.005 -0.0117102 0.0029122 
v 0.005 -0.0140297 0.00430778 
v -0.005 -0.0140297 0.00430778 
v 0.005 -0.0161847 0.00594595 
v -0.005 -0.0161847 0.00594595 
v 0.005 -0.0181499 0.00780751 
v -0.005 -0.0181499 0.00780751 
v 0.005 -0.0199023 0.00987064 
v -0.005 -0.0199023 0.00987064 
v 0.005 -0.0214214 0.0121112 
v -0.005 -0.0214214 0.0121112 
v 0.005 -0.0226894 0.0145028 
v -0.005 -0.0226894 0.0145028 
v 0.005 -0.0236913 0.0170175 
v -0.005 -0.0236913 0.0170175 
v 0.005 -0.0244155 0.0196257 
v -0.005 -0.0244155 0.0196257 
v 0.005 -0.0248534 0.022297 
v -0.005 -0.0248534 0.022297 
v 0.005 0.015 0.065 
v 0.005 0.025 0.065 
v -0.005 0.025 0.065 
v -0.005 0.015 0.065 
vn 0 0.994138 0.108119 
vn 0 1 1.83697e-16 
vn 0 0.976621 0.21497 
vn 0 0.994138 0.108119 
vn 0 0.947653 0.319302 
vn 0 0.976621 0.21497 
vn 0 0.907575 0.419889 
vn 0 0.947653 0.319302 
vn 0 0.856857 0.515554 
vn 0 0.907575 0.419889 
vn 0 0.796093 0.605174 
vn 0 0.856857 0.515554 
vn 0 0.725995 0.687699 
vn 0 0.796093 0.605174 
vn 0 0.647386 0.762162 
vn 0 0.725995 0.687699 
vn 0 0.561187 0.827689 
vn 0 0.647386 0.762162 
vn 0 0.468408 0.883512 
vn 0 0.561187 0.827689 
vn 0 0.370138 0.928977 
vn 0 0.468408 0.883512 
vn 0 0.267528 0.96355 
vn 0 0.370138 0.928977 
vn 0 0.161782 0.986827 
vn 0 0.267528 0.96355 
vn 0 0.0541389 0.998533 
vn 0 0.161782 0.986827 
vn 0 -0.0541389 0.998533 
vn 0 0.0541389 0.998533 
vn 0 -0.161782 0.986827 
vn 0 -0.0541389 0.998533 
vn 0 -0.267528 0.96355 
vn 0 -0.161782 0.986827 
vn 0 -0.370138 0.928977 
vn 0 -0.267528 0.96355 
vn 0 -0.468408 0.883512 
vn 0 -0.370138 0.928977 
vn 0 -0.561187 0.827689 
vn 0 -0.468408 0.883512 
vn 0 -0.647386 0.762162 
vn 0 -0.561187 0.827689 
vn 0 -0.725995 0.687699 
vn 0 -0.647386 0.762162 
vn 0 -0.796093 0.605174 
vn 0 -0.725995 0.687699 
vn 0 -0.856857 0.515554 
vn 0 -0.796093 0.605174 
vn 0 -0.907575 0.419889 
vn 0 -0.856857 0.515554 
vn 0 -0.947653 0.319302 
vn 0 -0.907575 0.419889 
vn 0 -0.976621 0.21497 
vn 0 -0.947653 0.319302 
vn 0 -0.994138 0.108119 
vn 0 -0.976621 0.21497 
vn 0 -1 -6.12323e-17 
vn 0 -0.994138 0.108119 
vn 0 1 0 
vn 0 0 1 
vn 0 -1 -1.73472e-16 
vn 0 1 6.12323e-17 
vn 0 0.994138 -0.108119 
vn 0 0.976621 -0.21497 
vn 0 0.947653 -0.319302 
vn 0 0.907575 -0.419889 
vn 0 0.856857 -0.515554 
vn 0 0.796093 -0.605174 
vn 0 0.725995 -0.687699 
vn 0 0.647386 -0.762162 
vn 0 0.561187 -0.827689 
vn 0 0.468408 -0.883512 
vn 0 0.370138 -0.928977 
vn 0 0.267528 -0.96355 
vn 0 0.161782 -0.986827 
vn 0 0.0541389 -0.998533 
vn 0 -0.0541389 -0.998533 
vn 0 -0.161782 -0.986827 
vn 0 -0.267528 -0.96355 
vn 0 -0.370138 -0.928977 
vn 0 -0.468408 -0.883512 
vn 0 -0.561187 -0.827689 
vn 0 -0.647386 -0.762162 
vn 0 -0.725995 -0.687699 
vn 0 -0.796093 -0.605174 
vn 0 -0.856857 -0.515554 
vn 0 -0.907575 -0.419889 
vn 0 -0.947653 -0.319302 
vn 0 -0.976621 -0.21497 
vn 0 -0.994138 -0.108119 
vn 0 -1 -1.83697e-16 
vn 1 0 0 
vn -1 0 0 
vn 0 1 1.73472e-16 
vn 0 0 1 
vn 0 -1 0 
usemtl 0.615686_0.811765_0.929412_0.000000_0.000000
o mesh0
f 1//1 2//2 3//2 
f 4//3 1//1 5//4 
f 6//5 4//3 7//6 
f 8//7 6//5 9//8 
f 10//9 8//7 11//10 
f 12//11 10//9 13//12 
f 14//13 12//11 15//14 
f 16//15 14//13 17//16 
f 18//17 16//15 19//18 
f 20//19 18//17 21//20 
f 22//21 20//19 23//22 
f 24//23 22//21 25//24 
f 26//25 24//23 27//26 
f 28//27 26//25 29//28 
f 30//29 28//27 31//30 
f 32//31 30//29 33//32 
f 34//33 32//31 35//34 
f 36//35 34//33 37//36 
f 38//37 36//35 39//38 
f 40//39 38//37 41//40 
f 42//41 40//39 43//42 
f 44//43 42//41 45//44 
f 46//45 44//43 47//46 
f 48//47 46//45 49//48 
f 50//49 48//47 51//50 
f 52//51 50//49 53//52 
f 54//53 52//51 55//54 
f 56//55 54//53 57//56 
f 58//57 56//55 59//58 
f 59//58 60//57 58//57 
f 57//56 59//58 56//55 
f 55//54 57//56 54//53 
f 53//52 55//54 52//51 
f 51//50 53//52 50//49 
f 49//48 51//50 48//47 
f 47//46 49//48 46//45 
f 45//44 47//46 44//43 
f 43//42 45//44 42//41 
f 41//40 43//42 40//39 
f 39//38 41//40 38//37 
f 37//36 39//38 36//35 
f 35//34 37//36 34//33 
f 33//32 35//34 32//31 
f 31//30 33//32 30//29 
f 29//28 31//30 28//27 
f 27//26 29//28 26//25 
f 25//24 27//26 24//23 
f 23//22 25//24 22//21 
f 21//20 23//22 20//19 
f 19//18 21//20 18//17 
f 17//16 19//18 16//15 
f 15//14 17//16 14//13 
f 13//12 15//14 12//11 
f 11//10 13//12 10//9 
f 9//8 11//10 8//7 
f 7//6 9//8 6//5 
f 5//4 7//6 4//3 
f 3//2 5//4 1//1 
o mesh1
f 3//59 2//59 61//59 
f 61//59 62//59 3//59 
o mesh2
f 62//60 61//60 63//60 
f 63//60 64//60 62//60 
o mesh3
f 63//61 65//61 66//61 
f 66//61 64//61 63//61 
o mesh4
f 67//62 68//62 69//63 
f 70//63 69//63 71//64 
f 72//64 71//64 73//65 
f 74//65 73//65 75//66 
f 76//66 75//66 77//67 
f 78//67 77//67 79//68 
f 80//68 79//68 81//69 
f 82//69 81//69 83//70 
f 84//70 83//70 85//71 
f 86//71 85//71 87//72 
f 88//72 87//72 89//73 
f 90//73 89//73 91//74 
f 92//74 91//74 93//75 
f 94//75 93//75 95//76 
f 96//76 95//76 97//77 
f 98//77 97//77 99//78 
f 100//78 99//78 101//79 
f 102//79 101//79 103//80 
f 104//80 103//80 105//81 
f 106//81 105//81 107//82 
f 108//82 107//82 109//83 
f 110//83 109//83 111//84 
f 112//84 111//84 113//85 
f 114//85 113//85 115//86 
f 116//86 115//86 117//87 
f 118//87 117//87 119//88 
f 120//88 119//88 121//89 
f 122//89 121//89 123//90 
f 124//90 123//90 66//91 
f 66//91 65//91 124//90 
f 123//90 124//90 122//89 
f 121//89 122//89 120//88 
f 119//88 120//88 118//87 
f 117//87 118//87 116//86 
f 115//86 116//86 114//85 
f 113//85 114//85 112//84 
f 111//84 112//84 110//83 
f 109//83 110//83 108//82 
f 107//82 108//82 106//81 
f 105//81 106//81 104//80 
f 103//80 104//80 102//79 
f 101//79 102//79 100//78 
f 99//78 100//78 98//77 
f 97//77 98//77 96//76 
f 95//76 96//76 94//75 
f 93//75 94//75 92//74 
f 91//74 92//74 90//73 
f 89//73 90//73 88//72 
f 87//72 88//72 86//71 
f 85//71 86//71 84//70 
f 83//70 84//70 82//69 
f 81//69 82//69 80//68 
f 79//68 80//68 78//67 
f 77//67 78//67 76//66 
f 75//66 76//66 74//65 
f 73//65 74//65 72//64 
f 71//64 72//64 70//63 
f 69//63 70//63 67//62 
o mesh5
f 103//92 25//92 23//92 
f 101//92 27//92 25//92 
f 97//92 31//92 29//92 
f 97//92 95//92 33//92 
f 25//92 103//92 101//92 
f 101//92 99//92 29//92 
f 33//92 31//92 97//92 
f 95//92 93//92 35//92 
f 69//92 68//92 60//92 
f 125//92 60//92 68//92 
f 109//92 19//92 17//92 
f 109//92 107//92 21//92 
f 29//92 27//92 101//92 
f 35//92 33//92 95//92 
f 81//92 47//92 45//92 
f 79//92 49//92 47//92 
f 69//92 59//92 57//92 
f 68//92 126//92 125//92 
f 119//92 9//92 7//92 
f 117//92 11//92 9//92 
f 21//92 19//92 109//92 
f 107//92 105//92 23//92 
f 29//92 99//92 97//92 
f 91//92 37//92 35//92 
f 89//92 39//92 37//92 
f 89//92 87//92 41//92 
f 47//92 81//92 79//92 
f 79//92 77//92 51//92 
f 75//92 53//92 51//92 
f 75//92 73//92 55//92 
f 71//92 57//92 55//92 
f 60//92 59//92 69//92 
f 64//92 66//92 3//92 
f 123//92 5//92 3//92 
f 9//92 119//92 117//92 
f 117//92 115//92 13//92 
f 113//92 15//92 13//92 
f 113//92 111//92 17//92 
f 23//92 21//92 107//92 
f 35//92 93//92 91//92 
f 41//92 39//92 89//92 
f 87//92 85//92 43//92 
f 83//92 45//92 43//92 
f 51//92 49//92 79//92 
f 55//92 53//92 75//92 
f 57//92 71//92 69//92 
f 3//92 66//92 123//92 
f 123//92 121//92 7//92 
f 13//92 11//92 117//92 
f 17//92 15//92 113//92 
f 23//92 105//92 103//92 
f 43//92 41//92 87//92 
f 45//92 83//92 81//92 
f 55//92 73//92 71//92 
f 7//92 5//92 123//92 
f 13//92 115//92 113//92 
f 37//92 91//92 89//92 
f 51//92 77//92 75//92 
f 7//92 121//92 119//92 
f 43//92 85//92 83//92 
f 17//92 111//92 109//92 
f 3//92 62//92 64//92 
o mesh6
f 96//93 30//93 32//93 
f 98//93 28//93 30//93 
f 127//93 67//93 58//93 
f 70//93 56//93 58//93 
f 30//93 96//93 98//93 
f 98//93 100//93 26//93 
f 102//93 24//93 26//93 
f 102//93 104//93 22//93 
f 58//93 67//93 70//93 
f 70//93 72//93 54//93 
f 80//93 82//93 44//93 
f 82//93 84//93 42//93 
f 90//93 36//93 38//93 
f 90//93 92//93 34//93 
f 92//93 94//93 32//93 
f 26//93 28//93 98//93 
f 22//93 24//93 102//93 
f 104//93 106//93 20//93 
f 54//93 56//93 70//93 
f 72//93 74//93 52//93 
f 76//93 50//93 52//93 
f 76//93 78//93 48//93 
f 78//93 80//93 46//93 
f 42//93 44//93 82//93 
f 88//93 38//93 40//93 
f 34//93 36//93 90//93 
f 32//93 94//93 96//93 
f 20//93 22//93 104//93 
f 110//93 16//93 18//93 
f 110//93 112//93 14//93 
f 116//93 118//93 8//93 
f 118//93 120//93 6//93 
f 52//93 54//93 72//93 
f 48//93 50//93 76//93 
f 44//93 46//93 80//93 
f 84//93 86//93 40//93 
f 38//93 88//93 90//93 
f 26//93 100//93 102//93 
f 108//93 18//93 20//93 
f 14//93 16//93 110//93 
f 114//93 12//93 14//93 
f 114//93 116//93 10//93 
f 6//93 8//93 118//93 
f 120//93 122//93 4//93 
f 124//93 65//93 2//93 
f 61//93 2//93 65//93 
f 52//93 74//93 76//93 
f 40//93 42//93 84//93 
f 32//93 34//93 92//93 
f 18//93 108//93 110//93 
f 10//93 12//93 114//93 
f 4//93 6//93 120//93 
f 124//93 1//93 4//93 
f 65//93 63//93 61//93 
f 46//93 48//93 78//93 
f 20//93 106//93 108//93 
f 8//93 10//93 116//93 
f 2//93 1//93 124//93 
f 40//93 86//93 88//93 
f 4//93 122//93 124//93 
f 14//93 112//93 114//93 
f 58//93 128//93 127//93 
o mesh7
f 68//94 67//94 127//94 
f 127//94 126//94 68//94 
o mesh8
f 126//95 127//95 128//95 
f 128//95 125//95 126//95 
o mesh9
f 125//96 128//96 58//96 
f 58//96 60//96 125//96 
