# File units = meters
mtllib Square_U.mtl
g Part 1
v -0.0275 -0.005 0.01 
v 0.0275 -0.005 0.01 
v 0.0275 0.005 0.01 
v -0.0275 0.005 0.01 
v -0.0275 -0.005 0.075 
v -0.0275 0.005 0.075 
v -0.0375 -0.005 0.075 
v -0.0375 0.005 0.075 
v -0.0375 0.005 0 
v -0.0375 -0.005 0 
v 0.0375 0.005 0 
v 0.0375 -0.005 0 
v 0.0375 0.005 0.075 
v 0.0275 0.005 0.075 
v 0.0375 -0.005 0.075 
v 0.0275 -0.005 0.075 
vn 0 0 1 
vn 1 0 0 
vn -1 0 0 
vn 0 0 -1 
vn 0 1 0 
vn 0 -1 0 
vn 1 0 0 
vn -1 0 0 
vn 0 0 1 
usemtl 0.615686_0.811765_0.929412_0.000000_0.000000
o mesh0
f 1//1 2//1 3//1 
f 3//1 4//1 1//1 
o mesh1
f 5//2 1//2 4//2 
f 4//2 6//2 5//2 
o mesh2
f 7//1 5//1 6//1 
f 6//1 8//1 7//1 
o mesh3
f 8//3 9//3 10//3 
f 10//3 7//3 8//3 
o mesh4
f 9//4 11//4 12//4 
f 12//4 10//4 9//4 
o mesh5
f 13//5 11//5 3//5 
f 11//5 9//5 4//5 
f 4//5 3//5 11//5 
f 8//5 6//5 4//5 
f 4//5 9//5 8//5 
f 3//5 14//5 13//5 
o mesh6
f 7//6 10//6 1//6 
f 10//6 12//6 2//6 
f 2//6 1//6 10//6 
f 15//6 16//6 2//6 
f 2//6 12//6 15//6 
f 1//6 5//6 7//6 
o mesh7
f 15//7 12//7 11//7 
f 11//7 13//7 15//7 
o mesh8
f 14//8 3//8 2//8 
f 2//8 16//8 14//8 
o mesh9
f 15//9 13//9 14//9 
f 14//9 16//9 15//9 
