solid Square_U
facet normal 0.0 0.0 1.0
	outer loop
		vertex -0.0275 -0.005 0.01
		vertex 0.0275 -0.005 0.01
		vertex 0.0275 0.005 0.01
	endloop
endfacet
facet normal 0.0 0.0 1.0
	outer loop
		vertex 0.0275 0.005 0.01
		vertex -0.0275 0.005 0.01
		vertex -0.0275 -0.005 0.01
	endloop
endfacet
facet normal 1.0 0.0 0.0
	outer loop
		vertex -0.0275 -0.005 0.075
		vertex -0.0275 -0.005 0.01
		vertex -0.0275 0.005 0.01
	endloop
endfacet
facet normal 1.0 0.0 -0.0
	outer loop
		vertex -0.0275 0.005 0.01
		vertex -0.0275 0.005 0.075
		vertex -0.0275 -0.005 0.075
	endloop
endfacet
facet normal 0.0 0.0 9.999999999999999e-05
	outer loop
		vertex -0.0375 -0.005 0.075
		vertex -0.0275 -0.005 0.075
		vertex -0.0275 0.005 0.075
	endloop
endfacet
facet normal 0.0 0.0 9.999999999999999e-05
	outer loop
		vertex -0.0275 0.005 0.075
		vertex -0.0375 0.005 0.075
		vertex -0.0375 -0.005 0.075
	endloop
endfacet
facet normal -1.0 0.0 -0.0
	outer loop
		vertex -0.0375 0.005 0.075
		vertex -0.0375 0.005 0.0
		vertex -0.0375 -0.005 0.0
	endloop
endfacet
facet normal -1.0 0.0 0.0
	outer loop
		vertex -0.0375 -0.005 0.0
		vertex -0.0375 -0.005 0.075
		vertex -0.0375 0.005 0.075
	endloop
endfacet
facet normal 0.0 0.0 -1.0
	outer loop
		vertex -0.0375 0.005 0.0
		vertex 0.0375 0.005 0.0
		vertex 0.0375 -0.005 0.0
	endloop
endfacet
facet normal 0.0 0.0 -1.0
	outer loop
		vertex 0.0375 -0.005 0.0
		vertex -0.0375 -0.005 0.0
		vertex -0.0375 0.005 0.0
	endloop
endfacet
facet normal 0.0 1.0 0.0
	outer loop
		vertex 0.0375 0.005 0.075
		vertex 0.0375 0.005 0.0
		vertex 0.0275 0.005 0.01
	endloop
endfacet
facet normal 0.0 1.0 0.0
	outer loop
		vertex 0.0375 0.005 0.0
		vertex -0.0375 0.005 0.0
		vertex -0.0275 0.005 0.01
	endloop
endfacet
facet normal -0.0 1.0 0.0
	outer loop
		vertex -0.0275 0.005 0.01
		vertex 0.0275 0.005 0.01
		vertex 0.0375 0.005 0.0
	endloop
endfacet
facet normal -0.0 1.0 0.0
	outer loop
		vertex -0.0375 0.005 0.075
		vertex -0.0275 0.005 0.075
		vertex -0.0275 0.005 0.01
	endloop
endfacet
facet normal 0.0 1.0 0.0
	outer loop
		vertex -0.0275 0.005 0.01
		vertex -0.0375 0.005 0.0
		vertex -0.0375 0.005 0.075
	endloop
endfacet
facet normal 0.0 1.0 0.0
	outer loop
		vertex 0.0275 0.005 0.01
		vertex 0.0275 0.005 0.075
		vertex 0.0375 0.005 0.075
	endloop
endfacet
facet normal 0.0 -1.0 0.0
	outer loop
		vertex -0.0375 -0.005 0.075
		vertex -0.0375 -0.005 0.0
		vertex -0.0275 -0.005 0.01
	endloop
endfacet
facet normal 0.0 -1.0 0.0
	outer loop
		vertex -0.0375 -0.005 0.0
		vertex 0.0375 -0.005 0.0
		vertex 0.0275 -0.005 0.01
	endloop
endfacet
facet normal -0.0 -1.0 0.0
	outer loop
		vertex 0.0275 -0.005 0.01
		vertex -0.0275 -0.005 0.01
		vertex -0.0375 -0.005 0.0
	endloop
endfacet
facet normal -0.0 -1.0 0.0
	outer loop
		vertex 0.0375 -0.005 0.075
		vertex 0.0275 -0.005 0.075
		vertex 0.0275 -0.005 0.01
	endloop
endfacet
facet normal 0.0 -1.0 0.0
	outer loop
		vertex 0.0275 -0.005 0.01
		vertex 0.0375 -0.005 0.0
		vertex 0.0375 -0.005 0.075
	endloop
endfacet
facet normal 0.0 -1.0 0.0
	outer loop
		vertex -0.0275 -0.005 0.01
		vertex -0.0275 -0.005 0.075
		vertex -0.0375 -0.005 0.075
	endloop
endfacet
facet normal 1.0 0.0 0.0
	outer loop
		vertex 0.0375 -0.005 0.075
		vertex 0.0375 -0.005 0.0
		vertex 0.0375 0.005 0.0
	endloop
endfacet
facet normal 1.0 0.0 -0.0
	outer loop
		vertex 0.0375 0.005 0.0
		vertex 0.0375 0.005 0.075
		vertex 0.0375 -0.005 0.075
	endloop
endfacet
facet normal -1.0 0.0 -0.0
	outer loop
		vertex 0.0275 0.005 0.075
		vertex 0.0275 0.005 0.01
		vertex 0.0275 -0.005 0.01
	endloop
endfacet
facet normal -1.0 0.0 0.0
	outer loop
		vertex 0.0275 -0.005 0.01
		vertex 0.0275 -0.005 0.075
		vertex 0.0275 0.005 0.075
	endloop
endfacet
facet normal 0.0 -0.0 9.999999999999999e-05
	outer loop
		vertex 0.0375 -0.005 0.075
		vertex 0.0375 0.005 0.075
		vertex 0.0275 0.005 0.075
	endloop
endfacet
facet normal 0.0 0.0 9.999999999999999e-05
	outer loop
		vertex 0.0275 0.005 0.075
		vertex 0.0275 -0.005 0.075
		vertex 0.0375 -0.005 0.075
	endloop
endfacet
endsolid Square_U