solid Twisted_Vase_Basic
facet normal -0.2588174793228638 0.9243488019811822 -0.2803440826429408
	outer loop
		vertex -0.035749420523643494 0.03495682403445244 0.028571434319019318
		vertex 0.012398780323565006 0.048438310623168945 0.028571434319019318
		vertex 0.02500000037252903 0.04330127313733101 7.450580596923828e-09
	endloop
endfacet
facet normal 0.0 0.9598995502390766 0.2803441696394248
	outer loop
		vertex -0.035749420523643494 0.03495682403445244 0.028571434319019318
		vertex 0.02500000037252903 0.04330127313733101 7.450580596923828e-09
		vertex -0.02500000037252903 0.04330127313733101 7.450580596923828e-09
	endloop
endfacet
facet normal -0.4984640827549009 0.8203296670982486 -0.2803440662503697
	outer loop
		vertex -0.04385081306099892 0.024023041129112244 0.057142868638038635
		vertex -0.0011208340292796493 0.04998743161559105 0.057142868638038635
		vertex 0.012398780323565006 0.048438310623168945 0.028571434319019318
	endloop
endfacet
facet normal -0.2588174422706422 0.9243486696517248 0.2803445531655097
	outer loop
		vertex -0.04385081306099892 0.024023041129112244 0.057142868638038635
		vertex 0.012398780323565006 0.048438310623168945 0.028571434319019318
		vertex -0.035749420523643494 0.03495682403445244 0.028571434319019318
	endloop
endfacet
facet normal -0.701188394915215 0.6555469030428948 -0.2803445964292766
	outer loop
		vertex -0.048704080283641815 0.011309840716421604 0.08571429550647736
		vertex -0.014557430520653725 0.04783390089869499 0.08571429550647736
		vertex -0.0011208340292796493 0.04998743161559105 0.057142868638038635
	endloop
endfacet
facet normal -0.49846405301339347 0.8203296181522128 0.2803442623556003
	outer loop
		vertex -0.048704080283641815 0.011309840716421604 0.08571429550647736
		vertex -0.0011208340292796493 0.04998743161559105 0.057142868638038635
		vertex -0.04385081306099892 0.024023041129112244 0.057142868638038635
	endloop
endfacet
facet normal -0.8519742660186117 0.44220682983632675 -0.28034437695119513
	outer loop
		vertex -0.04994975030422211 -0.002241108100861311 0.11428570747375488
		vertex -0.02691573090851307 0.04213720187544823 0.11428570747375488
		vertex -0.014557430520653725 0.04783390089869499 0.08571429550647736
	endloop
endfacet
facet normal -0.7011884485060229 0.6555469531453899 0.28034434523191715
	outer loop
		vertex -0.04994975030422211 -0.002241108100861311 0.11428570747375488
		vertex -0.014557430520653725 0.04783390089869499 0.08571429550647736
		vertex -0.048704080283641815 0.011309840716421604 0.08571429550647736
	endloop
endfacet
facet normal -0.9396526881002285 0.19611148226903383 -0.28034463124564574
	outer loop
		vertex -0.04749554395675659 -0.015626059845089912 0.14285710453987122
		vertex -0.037280332297086716 0.033319320529699326 0.14285710453987122
		vertex -0.02691573090851307 0.04213720187544823 0.11428570747375488
	endloop
endfacet
facet normal -0.8519742056558872 0.44220679850579236 0.28034460981491605
	outer loop
		vertex -0.04749554395675659 -0.015626059845089912 0.14285710453987122
		vertex -0.02691573090851307 0.04213720187544823 0.11428570747375488
		vertex -0.04994975030422211 -0.002241108100861311 0.11428570747375488
	endloop
endfacet
facet normal -0.9577296110658442 -0.06451025707646338 -0.28034339446399575
	outer loop
		vertex -0.04152324050664902 -0.02785354107618332 0.1714286208152771
		vertex -0.044883500784635544 0.02203342132270336 0.1714286208152771
		vertex -0.037280332297086716 0.033319320529699326 0.14285710453987122
	endloop
endfacet
facet normal -0.93965297147044 0.1961115414101962 0.2803436400785463
	outer loop
		vertex -0.04152324050664902 -0.02785354107618332 0.1714286208152771
		vertex -0.037280332297086716 0.033319320529699326 0.14285710453987122
		vertex -0.04749554395675659 -0.015626059845089912 0.14285710453987122
	endloop
endfacet
facet normal -0.917797969686104 -0.30296243869280676 -0.2566332939845734
	outer loop
		vertex -0.03328242152929306 -0.037313271313905716 0.20000001788139343
		vertex -0.04895545169711113 0.010166790336370468 0.20000001788139343
		vertex -0.044883500784635544 0.02203342132270336 0.1714286208152771
	endloop
endfacet
facet normal -0.96432378912061 -0.0649544243201257 0.2566331087317271
	outer loop
		vertex -0.03328242152929306 -0.037313271313905716 0.20000001788139343
		vertex -0.044883500784635544 0.02203342132270336 0.1714286208152771
		vertex -0.04152324050664902 -0.02785354107618332 0.1714286208152771
	endloop
endfacet
facet normal 0.2588176726389049 -0.9243487261303149 -0.28034415426586795
	outer loop
		vertex 0.035749420523643494 -0.03495681285858154 0.028571434319019318
		vertex -0.012398780323565006 -0.048438310623168945 0.028571434319019318
		vertex -0.02500000037252903 -0.04330127313733101 7.450580596923828e-09
	endloop
endfacet
facet normal 0.0 -0.9598994491992079 0.2803445156001051
	outer loop
		vertex 0.035749420523643494 -0.03495681285858154 0.028571434319019318
		vertex -0.02500000037252903 -0.04330127313733101 7.450580596923828e-09
		vertex 0.02500000037252903 -0.04330127313733101 7.450580596923828e-09
	endloop
endfacet
facet normal 0.4984641721127981 -0.8203295996015685 -0.2803441048736944
	outer loop
		vertex 0.04385080188512802 -0.024023041129112244 0.057142868638038635
		vertex 0.0011208340292796493 -0.04998743161559105 0.057142868638038635
		vertex -0.012398780323565006 -0.048438310623168945 0.028571434319019318
	endloop
endfacet
facet normal 0.25881766575559184 -0.9243487015470568 0.2803442416763664
	outer loop
		vertex 0.04385080188512802 -0.024023041129112244 0.057142868638038635
		vertex -0.012398780323565006 -0.048438310623168945 0.028571434319019318
		vertex 0.035749420523643494 -0.03495681285858154 0.028571434319019318
	endloop
endfacet
facet normal 0.7011883424415923 -0.6555470852547776 -0.280344301597121
	outer loop
		vertex 0.04870409145951271 -0.011309830471873283 0.08571429550647736
		vertex 0.014557430520653725 -0.0478338897228241 0.08571429550647736
		vertex 0.0011208340292796493 -0.04998743161559105 0.057142868638038635
	endloop
endfacet
facet normal 0.49846416747623745 -0.8203295919711145 0.2803441354455739
	outer loop
		vertex 0.04870409145951271 -0.011309830471873283 0.08571429550647736
		vertex 0.0011208340292796493 -0.04998743161559105 0.057142868638038635
		vertex 0.04385080188512802 -0.024023041129112244 0.057142868638038635
	endloop
endfacet
facet normal 0.8519742470538475 -0.44220663423759826 -0.28034474311690727
	outer loop
		vertex 0.04994975030422211 0.002241116249933839 0.11428570747375488
		vertex 0.026915740221738815 -0.04213719442486763 0.11428570747375488
		vertex 0.014557430520653725 -0.0478338897228241 0.08571429550647736
	endloop
endfacet
facet normal 0.7011882761742058 -0.655547023300821 0.280344612213751
	outer loop
		vertex 0.04994975030422211 0.002241116249933839 0.11428570747375488
		vertex 0.014557430520653725 -0.0478338897228241 0.08571429550647736
		vertex 0.04870409145951271 -0.011309830471873283 0.08571429550647736
	endloop
endfacet
facet normal 0.9396527553140632 -0.1961114962969879 -0.2803443961466781
	outer loop
		vertex 0.04749554395675659 0.015626059845089912 0.14285710453987122
		vertex 0.037280332297086716 -0.033319320529699326 0.14285710453987122
		vertex 0.026915740221738815 -0.04213719442486763 0.11428570747375488
	endloop
endfacet
facet normal 0.851974326548279 -0.442206675498194 0.2803444364481691
	outer loop
		vertex 0.04749554395675659 0.015626059845089912 0.14285710453987122
		vertex 0.026915740221738815 -0.04213719442486763 0.11428570747375488
		vertex 0.04994975030422211 0.002241116249933839 0.11428570747375488
	endloop
endfacet
facet normal 0.9577296038865658 0.064510259001525 -0.2803434185473908
	outer loop
		vertex 0.04152324050664902 0.027853550389409065 0.1714286208152771
		vertex 0.044883500784635544 -0.022033410146832466 0.1714286208152771
		vertex 0.037280332297086716 -0.033319320529699326 0.14285710453987122
	endloop
endfacet
facet normal 0.9396529546309772 -0.19611153789569338 0.28034369897941486
	outer loop
		vertex 0.04152324050664902 0.027853550389409065 0.1714286208152771
		vertex 0.037280332297086716 -0.033319320529699326 0.14285710453987122
		vertex 0.04749554395675659 0.015626059845089912 0.14285710453987122
	endloop
endfacet
facet normal 0.9177980625083948 0.3029623847382687 -0.2566330257187054
	outer loop
		vertex 0.03328242152929306 0.037313271313905716 0.20000001788139343
		vertex 0.04895544424653053 -0.010166781023144722 0.20000001788139343
		vertex 0.044883500784635544 -0.022033410146832466 0.1714286208152771
	endloop
endfacet
facet normal 0.9643237839276385 0.06495442639556398 0.2566331277195215
	outer loop
		vertex 0.03328242152929306 0.037313271313905716 0.20000001788139343
		vertex 0.044883500784635544 -0.022033410146832466 0.1714286208152771
		vertex 0.04152324050664902 0.027853550389409065 0.1714286208152771
	endloop
endfacet
facet normal -0.6711006221775736 -0.6863170053441678 -0.28034429383935583
	outer loop
		vertex -0.012398780323565006 -0.048438310623168945 0.028571434319019318
		vertex -0.048148203641176224 -0.013481490314006805 0.028571434319019318
		vertex -0.05000000074505806 3.814697002724188e-09 7.450580596923828e-09
	endloop
endfacet
facet normal -0.8312973506236263 -0.4799496813522888 0.28034446350155734
	outer loop
		vertex -0.012398780323565006 -0.048438310623168945 0.028571434319019318
		vertex -0.05000000074505806 3.814697002724188e-09 7.450580596923828e-09
		vertex -0.02500000037252903 -0.04330127313733101 7.450580596923828e-09
	endloop
endfacet
facet normal -0.461194150660117 -0.8418473848750088 -0.2803443168248681
	outer loop
		vertex 0.0011208340292796493 -0.04998743161559105 0.057142868638038635
		vertex -0.04272997006773949 -0.025964390486478806 0.057142868638038635
		vertex -0.048148203641176224 -0.013481490314006805 0.028571434319019318
	endloop
endfacet
facet normal -0.6711006554626634 -0.6863170393839562 0.2803441308264266
	outer loop
		vertex 0.0011208340292796493 -0.04998743161559105 0.057142868638038635
		vertex -0.048148203641176224 -0.013481490314006805 0.028571434319019318
		vertex -0.012398780323565006 -0.048438310623168945 0.028571434319019318
	endloop
endfacet
facet normal -0.21712611734558696 -0.9350204723907068 -0.2803443692616098
	outer loop
		vertex 0.014557430520653725 -0.0478338897228241 0.08571429550647736
		vertex -0.03414665162563324 -0.036524053663015366 0.08571429550647736
		vertex -0.04272997006773949 -0.025964390486478806 0.057142868638038635
	endloop
endfacet
facet normal -0.4611941679868739 -0.841847416502654 0.2803441933457909
	outer loop
		vertex 0.014557430520653725 -0.0478338897228241 0.08571429550647736
		vertex -0.04272997006773949 -0.025964390486478806 0.057142868638038635
		vertex 0.0011208340292796493 -0.04998743161559105 0.057142868638038635
	endloop
endfacet
facet normal 0.043024986640100016 -0.9589346695775239 -0.2803446985531635
	outer loop
		vertex 0.026915740221738815 -0.04213719442486763 0.11428570747375488
		vertex -0.02303401194512844 -0.044378314167261124 0.11428570747375488
		vertex -0.03414665162563324 -0.036524053663015366 0.08571429550647736
	endloop
endfacet
facet normal -0.2171261086873512 -0.9350204351053364 0.28034450032364844
	outer loop
		vertex 0.026915740221738815 -0.04213719442486763 0.11428570747375488
		vertex -0.03414665162563324 -0.036524053663015366 0.08571429550647736
		vertex 0.014557430520653725 -0.0478338897228241 0.08571429550647736
	endloop
endfacet
facet normal 0.2999887705440879 -0.9118189864719449 -0.2803442053203907
	outer loop
		vertex 0.037280332297086716 -0.033319320529699326 0.14285710453987122
		vertex -0.010215210728347301 -0.04894537106156349 0.14285710453987122
		vertex -0.02303401194512844 -0.044378314167261124 0.11428570747375488
	endloop
endfacet
facet normal 0.04302499134439184 -0.9589347744260988 0.2803443391905432
	outer loop
		vertex 0.037280332297086716 -0.033319320529699326 0.14285710453987122
		vertex -0.02303401194512844 -0.044378314167261124 0.11428570747375488
		vertex 0.026915740221738815 -0.04213719442486763 0.11428570747375488
	endloop
endfacet
facet normal 0.5347323178432152 -0.797162958763218 -0.2803436559472942
	outer loop
		vertex 0.044883500784635544 -0.022033410146832466 0.1714286208152771
		vertex 0.0033602602779865265 -0.04988696053624153 0.1714286208152771
		vertex -0.010215210728347301 -0.04894537106156349 0.14285710453987122
	endloop
endfacet
facet normal 0.29998882006872646 -0.9118191370025986 0.2803436627241809
	outer loop
		vertex 0.044883500784635544 -0.022033410146832466 0.1714286208152771
		vertex -0.010215210728347301 -0.04894537106156349 0.14285710453987122
		vertex 0.037280332297086716 -0.033319320529699326 0.14285710453987122
	endloop
endfacet
facet normal 0.7212723303381063 -0.6433549652660553 -0.2566332288620285
	outer loop
		vertex 0.04895544424653053 -0.010166781023144722 0.20000001788139343
		vertex 0.01567303016781807 -0.047480061650276184 0.20000001788139343
		vertex 0.0033602602779865265 -0.04988696053624153 0.1714286208152771
	endloop
endfacet
facet normal 0.5384140548706944 -0.802651582293681 0.2566334798095272
	outer loop
		vertex 0.04895544424653053 -0.010166781023144722 0.20000001788139343
		vertex 0.0033602602779865265 -0.04988696053624153 0.1714286208152771
		vertex 0.044883500784635544 -0.022033410146832466 0.1714286208152771
	endloop
endfacet
facet normal -0.9299182304323033 0.23803181115916058 -0.280344326830317
	outer loop
		vertex -0.04194881394505501 0.010737670585513115 0.028571434319019318
		vertex -0.035749420523643494 0.03495682403445244 0.028571434319019318
		vertex -0.02500000037252903 0.04330127313733101 7.450580596923828e-09
	endloop
endfacet
facet normal -0.8646643383676768 0.49921432800519727 0.05604138354383556
	outer loop
		vertex -0.04194881394505501 0.010737670585513115 0.028571434319019318
		vertex -0.02500000037252903 0.04330127313733101 7.450580596923828e-09
		vertex -0.03750000149011612 0.021650642156600952 7.450580596923828e-09
	endloop
endfacet
facet normal -0.9596582777051351 -0.021517939054414344 -0.28034437453044103
	outer loop
		vertex -0.0432903915643692 -0.0009706688579171896 0.057142868638038635
		vertex -0.04385081306099892 0.024023041129112244 0.057142868638038635
		vertex -0.035749420523643494 0.03495682403445244 0.028571434319019318
	endloop
endfacet
facet normal -0.9672437571104626 0.24758605198046538 0.05604160236433859
	outer loop
		vertex -0.0432903915643692 -0.0009706688579171896 0.057142868638038635
		vertex -0.035749420523643494 0.03495682403445244 0.028571434319019318
		vertex -0.04194881394505501 0.010737670585513115 0.028571434319019318
	endloop
endfacet
facet normal -0.9183147623637885 -0.2794732193069806 -0.2803439261245569
	outer loop
		vertex -0.041425369679927826 -0.012607110664248466 0.08571429550647736
		vertex -0.048704080283641815 0.011309840716421604 0.08571429550647736
		vertex -0.04385081306099892 0.024023041129112244 0.057142868638038635
	endloop
endfacet
facet normal -0.9981775559460987 -0.022381637623858412 0.05604131603332672
	outer loop
		vertex -0.041425369679927826 -0.012607110664248466 0.08571429550647736
		vertex -0.04385081306099892 0.024023041129112244 0.057142868638038635
		vertex -0.0432903915643692 -0.0009706688579171896 0.057142868638038635
	endloop
endfacet
facet normal -0.8089493229105601 -0.5167280927283852 -0.28034455790657264
	outer loop
		vertex -0.03649188205599785 -0.023309700191020966 0.11428570747375488
		vertex -0.04994975030422211 -0.002241108100861311 0.11428570747375488
		vertex -0.048704080283641815 0.011309840716421604 0.08571429550647736
	endloop
endfacet
facet normal -0.9551744099334 -0.29069081570310523 0.05604191533347632
	outer loop
		vertex -0.03649188205599785 -0.023309700191020966 0.11428570747375488
		vertex -0.048704080283641815 0.011309840716421604 0.08571429550647736
		vertex -0.041425369679927826 -0.012607110664248466 0.08571429550647736
	endloop
endfacet
facet normal -0.6396639929225341 -0.7157072269228578 -0.28034468336102497
	outer loop
		vertex -0.028855379670858383 -0.032285723835229874 0.14285710453987122
		vertex -0.04749554395675659 -0.015626059845089912 0.14285710453987122
		vertex -0.04994975030422211 -0.002241108100861311 0.11428570747375488
	endloop
endfacet
facet normal -0.8414194282918054 -0.5374688426729841 0.056040956887390976
	outer loop
		vertex -0.028855379670858383 -0.032285723835229874 0.14285710453987122
		vertex -0.04994975030422211 -0.002241108100861311 0.11428570747375488
		vertex -0.03649188205599785 -0.023309700191020966 0.11428570747375488
	endloop
endfacet
facet normal -0.42299758082546174 -0.8616732902177155 -0.28034298197241087
	outer loop
		vertex -0.019081490114331245 -0.038870252668857574 0.1714286208152771
		vertex -0.04152324050664902 -0.02785354107618332 0.1714286208152771
		vertex -0.04749554395675659 -0.015626059845089912 0.14285710453987122
	endloop
endfacet
facet normal -0.665339212272467 -0.7444347154870015 0.05604183250430295
	outer loop
		vertex -0.019081490114331245 -0.038870252668857574 0.1714286208152771
		vertex -0.04749554395675659 -0.015626059845089912 0.14285710453987122
		vertex -0.028855379670858383 -0.032285723835229874 0.14285710453987122
	endloop
endfacet
facet normal -0.19652564474315543 -0.9463175659256096 -0.25663346504093487
	outer loop
		vertex -0.008804695680737495 -0.0423966608941555 0.20000001788139343
		vertex -0.03328242152929306 -0.037313271313905716 0.20000001788139343
		vertex -0.04152324050664902 -0.02785354107618332 0.1714286208152771
	endloop
endfacet
facet normal -0.440167774678269 -0.8966500799240595 0.04765463573419197
	outer loop
		vertex -0.008804695680737495 -0.0423966608941555 0.20000001788139343
		vertex -0.04152324050664902 -0.02785354107618332 0.1714286208152771
		vertex -0.019081490114331245 -0.038870252668857574 0.1714286208152771
	endloop
endfacet
facet normal -0.9672438101475094 0.24758584061367528 -0.056041620773746095
	outer loop
		vertex -0.048148203641176224 -0.013481490314006805 0.028571434319019318
		vertex -0.04194881394505501 0.010737670585513115 0.028571434319019318
		vertex -0.03750000149011612 0.021650642156600952 7.450580596923828e-09
	endloop
endfacet
facet normal -0.8312974366367686 0.4799496982258932 0.2803441795615019
	outer loop
		vertex -0.048148203641176224 -0.013481490314006805 0.028571434319019318
		vertex -0.03750000149011612 0.021650642156600952 7.450580596923828e-09
		vertex -0.05000000074505806 3.814697002724188e-09 7.450580596923828e-09
	endloop
endfacet
facet normal -0.9981775491747013 -0.022381627047146576 -0.056041440865748034
	outer loop
		vertex -0.04272997006773949 -0.025964390486478806 0.057142868638038635
		vertex -0.0432903915643692 -0.0009706688579171896 0.057142868638038635
		vertex -0.04194881394505501 0.010737670585513115 0.028571434319019318
	endloop
endfacet
facet normal -0.9299182847535619 0.2380316088015345 0.28034431845918767
	outer loop
		vertex -0.04272997006773949 -0.025964390486478806 0.057142868638038635
		vertex -0.04194881394505501 0.010737670585513115 0.028571434319019318
		vertex -0.048148203641176224 -0.013481490314006805 0.028571434319019318
	endloop
endfacet
facet normal -0.9551743126199266 -0.29069118551746065 -0.0560416556991669
	outer loop
		vertex -0.03414665162563324 -0.036524053663015366 0.08571429550647736
		vertex -0.041425369679927826 -0.012607110664248466 0.08571429550647736
		vertex -0.0432903915643692 -0.0009706688579171896 0.057142868638038635
	endloop
endfacet
facet normal -0.9596583559213063 -0.021517930785627512 0.28034410742000687
	outer loop
		vertex -0.03414665162563324 -0.036524053663015366 0.08571429550647736
		vertex -0.0432903915643692 -0.0009706688579171896 0.057142868638038635
		vertex -0.04272997006773949 -0.025964390486478806 0.057142868638038635
	endloop
endfacet
facet normal -0.8414196444627932 -0.5374684968211176 -0.05604102815754786
	outer loop
		vertex -0.02303401194512844 -0.044378314167261124 0.11428570747375488
		vertex -0.03649188205599785 -0.023309700191020966 0.11428570747375488
		vertex -0.041425369679927826 -0.012607110664248466 0.08571429550647736
	endloop
endfacet
facet normal -0.9183144765954893 -0.27947351635450607 0.2803445660818135
	outer loop
		vertex -0.02303401194512844 -0.044378314167261124 0.11428570747375488
		vertex -0.041425369679927826 -0.012607110664248466 0.08571429550647736
		vertex -0.03414665162563324 -0.036524053663015366 0.08571429550647736
	endloop
endfacet
facet normal -0.6653387307726011 -0.7444351118067801 -0.056042284421059886
	outer loop
		vertex -0.010215210728347301 -0.04894537106156349 0.14285710453987122
		vertex -0.028855379670858383 -0.032285723835229874 0.14285710453987122
		vertex -0.03649188205599785 -0.023309700191020966 0.11428570747375488
	endloop
endfacet
facet normal -0.8089495141213908 -0.5167277496077324 0.280344638593454
	outer loop
		vertex -0.010215210728347301 -0.04894537106156349 0.14285710453987122
		vertex -0.03649188205599785 -0.023309700191020966 0.11428570747375488
		vertex -0.02303401194512844 -0.044378314167261124 0.11428570747375488
	endloop
endfacet
facet normal -0.43997579106167733 -0.8962593000129513 -0.056040792463578064
	outer loop
		vertex 0.0033602602779865265 -0.04988696053624153 0.1714286208152771
		vertex -0.019081490114331245 -0.038870252668857574 0.1714286208152771
		vertex -0.028855379670858383 -0.032285723835229874 0.14285710453987122
	endloop
endfacet
facet normal -0.6396638068825593 -0.7157079177435107 0.28034334421162926
	outer loop
		vertex 0.0033602602779865265 -0.04988696053624153 0.1714286208152771
		vertex -0.028855379670858383 -0.032285723835229874 0.14285710453987122
		vertex -0.010215210728347301 -0.04894537106156349 0.14285710453987122
	endloop
endfacet
facet normal -0.2031050146398862 -0.9779966414876876 -0.047654194641551836
	outer loop
		vertex 0.01567303016781807 -0.047480061650276184 0.20000001788139343
		vertex -0.008804695680737495 -0.0423966608941555 0.20000001788139343
		vertex -0.019081490114331245 -0.038870252668857574 0.1714286208152771
	endloop
endfacet
facet normal -0.42590982903167757 -0.8676060205845633 0.2566332218938649
	outer loop
		vertex 0.01567303016781807 -0.047480061650276184 0.20000001788139343
		vertex -0.019081490114331245 -0.038870252668857574 0.1714286208152771
		vertex 0.0033602602779865265 -0.04988696053624153 0.1714286208152771
	endloop
endfacet
facet normal 0.9299182520468344 -0.23803183499838462 -0.28034423489250154
	outer loop
		vertex 0.04194881394505501 -0.010737661272287369 0.028571434319019318
		vertex 0.035749420523643494 -0.03495681285858154 0.028571434319019318
		vertex 0.02500000037252903 -0.04330127313733101 7.450580596923828e-09
	endloop
endfacet
facet normal 0.8646644350360534 -0.4992141690749823 0.05604130778771719
	outer loop
		vertex 0.04194881394505501 -0.010737661272287369 0.028571434319019318
		vertex 0.02500000037252903 -0.04330127313733101 7.450580596923828e-09
		vertex 0.03750000149011612 -0.021650632843375206 7.450580596923828e-09
	endloop
endfacet
facet normal 0.9596584348096792 0.02151750690370988 -0.2803438699085206
	outer loop
		vertex 0.0432903915643692 0.0009706764831207693 0.057142868638038635
		vertex 0.04385080188512802 -0.024023041129112244 0.057142868638038635
		vertex 0.035749420523643494 -0.03495681285858154 0.028571434319019318
	endloop
endfacet
facet normal 0.9672437529204517 -0.24758606994927948 0.05604159529697991
	outer loop
		vertex 0.0432903915643692 0.0009706764831207693 0.057142868638038635
		vertex 0.035749420523643494 -0.03495681285858154 0.028571434319019318
		vertex 0.04194881394505501 -0.010737661272287369 0.028571434319019318
	endloop
endfacet
facet normal 0.9183143478961201 0.27947364198851093 -0.28034486241378026
	outer loop
		vertex 0.041425369679927826 0.012607110664248466 0.08571429550647736
		vertex 0.04870409145951271 -0.011309830471873283 0.08571429550647736
		vertex 0.04385080188512802 -0.024023041129112244 0.057142868638038635
	endloop
endfacet
facet normal 0.9981775554116348 0.02238118445127584 0.056041506537662086
	outer loop
		vertex 0.041425369679927826 0.012607110664248466 0.08571429550647736
		vertex 0.04385080188512802 -0.024023041129112244 0.057142868638038635
		vertex 0.0432903915643692 0.0009706764831207693 0.057142868638038635
	endloop
endfacet
facet normal 0.8089494422810496 0.5167280947427848 -0.2803442097434337
	outer loop
		vertex 0.03649188205599785 0.02330971136689186 0.11428570747375488
		vertex 0.04994975030422211 0.002241116249933839 0.11428570747375488
		vertex 0.04870409145951271 -0.011309830471873283 0.08571429550647736
	endloop
endfacet
facet normal 0.9551742689648656 0.29069134364817906 0.05604157952316089
	outer loop
		vertex 0.03649188205599785 0.02330971136689186 0.11428570747375488
		vertex 0.04870409145951271 -0.011309830471873283 0.08571429550647736
		vertex 0.041425369679927826 0.012607110664248466 0.08571429550647736
	endloop
endfacet
facet normal 0.6396640295288664 0.7157072678809496 -0.280344495271943
	outer loop
		vertex 0.028855379670858383 0.032285723835229874 0.14285710453987122
		vertex 0.04749554395675659 0.015626059845089912 0.14285710453987122
		vertex 0.04994975030422211 0.002241116249933839 0.11428570747375488
	endloop
endfacet
facet normal 0.8414194521539772 0.537468780700373 0.05604119296870132
	outer loop
		vertex 0.028855379670858383 0.032285723835229874 0.14285710453987122
		vertex 0.04994975030422211 0.002241116249933839 0.11428570747375488
		vertex 0.03649188205599785 0.02330971136689186 0.11428570747375488
	endloop
endfacet
facet normal 0.42299763550816927 0.8616731897062879 -0.2803432083997925
	outer loop
		vertex 0.01908149942755699 0.03887026011943817 0.1714286208152771
		vertex 0.04152324050664902 0.027853550389409065 0.1714286208152771
		vertex 0.04749554395675659 0.015626059845089912 0.14285710453987122
	endloop
endfacet
facet normal 0.6653392275973395 0.7444347326336944 0.056041422793996785
	outer loop
		vertex 0.01908149942755699 0.03887026011943817 0.1714286208152771
		vertex 0.04749554395675659 0.015626059845089912 0.14285710453987122
		vertex 0.028855379670858383 0.032285723835229874 0.14285710453987122
	endloop
endfacet
facet normal 0.19652608196161053 0.9463175907496483 -0.25663303868870735
	outer loop
		vertex 0.008804695680737495 0.0423966720700264 0.20000001788139343
		vertex 0.03328242152929306 0.037313271313905716 0.20000001788139343
		vertex 0.04152324050664902 0.027853550389409065 0.1714286208152771
	endloop
endfacet
facet normal 0.4401678605782854 0.8966500344027545 0.04765469881841875
	outer loop
		vertex 0.008804695680737495 0.0423966720700264 0.20000001788139343
		vertex 0.04152324050664902 0.027853550389409065 0.1714286208152771
		vertex 0.01908149942755699 0.03887026011943817 0.1714286208152771
	endloop
endfacet
facet normal 0.9672439098751179 -0.24758541028808814 -0.05604180066676822
	outer loop
		vertex 0.04814819246530533 0.013481500558555126 0.028571434319019318
		vertex 0.04194881394505501 -0.010737661272287369 0.028571434319019318
		vertex 0.03750000149011612 -0.021650632843375206 7.450580596923828e-09
	endloop
endfacet
facet normal 0.8312973316215435 -0.4799496749223891 0.28034453085586397
	outer loop
		vertex 0.04814819246530533 0.013481500558555126 0.028571434319019318
		vertex 0.03750000149011612 -0.021650632843375206 7.450580596923828e-09
		vertex 0.05000000074505806 3.814697002724188e-09 7.450580596923828e-09
	endloop
endfacet
facet normal 0.9981775489395932 0.022381633870170278 -0.056041442328403614
	outer loop
		vertex 0.04272997006773949 0.025964390486478806 0.057142868638038635
		vertex 0.0432903915643692 0.0009706764831207693 0.057142868638038635
		vertex 0.04194881394505501 -0.010737661272287369 0.028571434319019318
	endloop
endfacet
facet normal 0.9299185487569401 -0.23803123811678104 0.28034375748066653
	outer loop
		vertex 0.04272997006773949 0.025964390486478806 0.057142868638038635
		vertex 0.04194881394505501 -0.010737661272287369 0.028571434319019318
		vertex 0.04814819246530533 0.013481500558555126 0.028571434319019318
	endloop
endfacet
facet normal 0.9551743167727615 0.2906911867813059 -0.05604157836253423
	outer loop
		vertex 0.03414665162563324 0.036524053663015366 0.08571429550647736
		vertex 0.041425369679927826 0.012607110664248466 0.08571429550647736
		vertex 0.0432903915643692 0.0009706764831207693 0.057142868638038635
	endloop
endfacet
facet normal 0.9596583564384948 0.021517937362018937 0.28034410514482183
	outer loop
		vertex 0.03414665162563324 0.036524053663015366 0.08571429550647736
		vertex 0.0432903915643692 0.0009706764831207693 0.057142868638038635
		vertex 0.04272997006773949 0.025964390486478806 0.057142868638038635
	endloop
endfacet
facet normal 0.8414195005804377 0.537468690015157 -0.05604133560469198
	outer loop
		vertex 0.02303401194512844 0.044378314167261124 0.11428570747375488
		vertex 0.03649188205599785 0.02330971136689186 0.11428570747375488
		vertex 0.041425369679927826 0.012607110664248466 0.08571429550647736
	endloop
endfacet
facet normal 0.9183144765954893 0.27947351635450607 0.2803445660818135
	outer loop
		vertex 0.02303401194512844 0.044378314167261124 0.11428570747375488
		vertex 0.041425369679927826 0.012607110664248466 0.08571429550647736
		vertex 0.03414665162563324 0.036524053663015366 0.08571429550647736
	endloop
endfacet
facet normal 0.6653389948301323 0.744434907863 -0.05604185858299008
	outer loop
		vertex 0.010215210728347301 0.04894538223743439 0.14285710453987122
		vertex 0.028855379670858383 0.032285723835229874 0.14285710453987122
		vertex 0.03649188205599785 0.02330971136689186 0.11428570747375488
	endloop
endfacet
facet normal 0.8089494553204643 0.5167279861467868 0.2803443722806113
	outer loop
		vertex 0.010215210728347301 0.04894538223743439 0.14285710453987122
		vertex 0.03649188205599785 0.02330971136689186 0.11428570747375488
		vertex 0.02303401194512844 0.044378314167261124 0.11428570747375488
	endloop
endfacet
facet normal 0.4399757542121316 0.8962592938222782 -0.05604118077500835
	outer loop
		vertex -0.0033602602779865265 0.04988697171211243 0.1714286208152771
		vertex 0.01908149942755699 0.03887026011943817 0.1714286208152771
		vertex 0.028855379670858383 0.032285723835229874 0.14285710453987122
	endloop
endfacet
facet normal 0.6396640238507664 0.7157076803835868 0.2803434551242312
	outer loop
		vertex -0.0033602602779865265 0.04988697171211243 0.1714286208152771
		vertex 0.028855379670858383 0.032285723835229874 0.14285710453987122
		vertex 0.010215210728347301 0.04894538223743439 0.14285710453987122
	endloop
endfacet
facet normal 0.2031045843849095 0.9779967198410836 -0.04765442038168077
	outer loop
		vertex -0.01567303016781807 0.047480061650276184 0.20000001788139343
		vertex 0.008804695680737495 0.0423966720700264 0.20000001788139343
		vertex 0.01908149942755699 0.03887026011943817 0.1714286208152771
	endloop
endfacet
facet normal 0.4259097666869153 0.8676059602565721 0.2566335293136279
	outer loop
		vertex -0.01567303016781807 0.047480061650276184 0.20000001788139343
		vertex 0.01908149942755699 0.03887026011943817 0.1714286208152771
		vertex -0.0033602602779865265 0.04988697171211243 0.1714286208152771
	endloop
endfacet
facet normal 0.6711006671188272 0.6863170378842425 -0.2803441065948498
	outer loop
		vertex 0.012398780323565006 0.048438310623168945 0.028571434319019318
		vertex 0.04814819246530533 0.013481500558555126 0.028571434319019318
		vertex 0.05000000074505806 3.814697002724188e-09 7.450580596923828e-09
	endloop
endfacet
facet normal 0.8312973204275869 0.47994974848252014 0.2803444381140451
	outer loop
		vertex 0.012398780323565006 0.048438310623168945 0.028571434319019318
		vertex 0.05000000074505806 3.814697002724188e-09 7.450580596923828e-09
		vertex 0.02500000037252903 0.04330127313733101 7.450580596923828e-09
	endloop
endfacet
facet normal 0.46119416636321764 0.8418474135388896 -0.2803442049167745
	outer loop
		vertex -0.0011208340292796493 0.04998743161559105 0.057142868638038635
		vertex 0.04272997006773949 0.025964390486478806 0.057142868638038635
		vertex 0.04814819246530533 0.013481500558555126 0.028571434319019318
	endloop
endfacet
facet normal 0.6711006615069327 0.6863170321451053 0.28034413407897757
	outer loop
		vertex -0.0011208340292796493 0.04998743161559105 0.057142868638038635
		vertex 0.04814819246530533 0.013481500558555126 0.028571434319019318
		vertex 0.012398780323565006 0.048438310623168945 0.028571434319019318
	endloop
endfacet
facet normal 0.21712632570835455 0.9350204457280359 -0.28034429681185713
	outer loop
		vertex -0.014557430520653725 0.04783390089869499 0.08571429550647736
		vertex 0.03414665162563324 0.036524053663015366 0.08571429550647736
		vertex 0.04272997006773949 0.025964390486478806 0.057142868638038635
	endloop
endfacet
facet normal 0.4611942105622024 0.841847494218143 0.28034388993259846
	outer loop
		vertex -0.014557430520653725 0.04783390089869499 0.08571429550647736
		vertex 0.04272997006773949 0.025964390486478806 0.057142868638038635
		vertex -0.0011208340292796493 0.04998743161559105 0.057142868638038635
	endloop
endfacet
facet normal -0.04302485250934648 0.9589346892650612 -0.28034465179608725
	outer loop
		vertex -0.02691573090851307 0.04213720187544823 0.11428570747375488
		vertex 0.02303401194512844 0.044378314167261124 0.11428570747375488
		vertex 0.03414665162563324 0.036524053663015366 0.08571429550647736
	endloop
endfacet
facet normal 0.21712630436496547 0.9350203538160805 0.280344619892132
	outer loop
		vertex -0.02691573090851307 0.04213720187544823 0.11428570747375488
		vertex 0.03414665162563324 0.036524053663015366 0.08571429550647736
		vertex -0.014557430520653725 0.04783390089869499 0.08571429550647736
	endloop
endfacet
facet normal -0.29998892769880836 0.9118188120055607 -0.28034460460455995
	outer loop
		vertex -0.037280332297086716 0.033319320529699326 0.14285710453987122
		vertex 0.010215210728347301 0.04894538223743439 0.14285710453987122
		vertex 0.02303401194512844 0.044378314167261124 0.11428570747375488
	endloop
endfacet
facet normal -0.04302485314243383 0.9589347033752648 0.2803446034341758
	outer loop
		vertex -0.037280332297086716 0.033319320529699326 0.14285710453987122
		vertex 0.02303401194512844 0.044378314167261124 0.11428570747375488
		vertex -0.02691573090851307 0.04213720187544823 0.11428570747375488
	endloop
endfacet
facet normal -0.5347323178432152 0.797162958763218 -0.2803436559472942
	outer loop
		vertex -0.044883500784635544 0.02203342132270336 0.1714286208152771
		vertex -0.0033602602779865265 0.04988697171211243 0.1714286208152771
		vertex 0.010215210728347301 0.04894538223743439 0.14285710453987122
	endloop
endfacet
facet normal -0.2999890501115085 0.9118191840799692 0.28034326344132804
	outer loop
		vertex -0.044883500784635544 0.02203342132270336 0.1714286208152771
		vertex 0.010215210728347301 0.04894538223743439 0.14285710453987122
		vertex -0.037280332297086716 0.033319320529699326 0.14285710453987122
	endloop
endfacet
facet normal -0.7212722403246081 0.6433551895760707 -0.256632919522533
	outer loop
		vertex -0.04895545169711113 0.010166790336370468 0.20000001788139343
		vertex -0.01567303016781807 0.047480061650276184 0.20000001788139343
		vertex -0.0033602602779865265 0.04988697171211243 0.1714286208152771
	endloop
endfacet
facet normal -0.5384140670405416 0.8026516004361257 0.25663339753467196
	outer loop
		vertex -0.04895545169711113 0.010166790336370468 0.20000001788139343
		vertex -0.0033602602779865265 0.04988697171211243 0.1714286208152771
		vertex -0.044883500784635544 0.02203342132270336 0.1714286208152771
	endloop
endfacet
facet normal -0.0 -0.0 1.0
	outer loop
		vertex -0.03328242152929306 -0.037313271313905716 0.20000001788139343
		vertex -0.008804695680737495 -0.0423966608941555 0.20000001788139343
		vertex -0.04895545169711113 0.010166790336370468 0.20000001788139343
	endloop
endfacet
facet normal -0.0 -0.0 1.0
	outer loop
		vertex -0.008804695680737495 -0.0423966608941555 0.20000001788139343
		vertex 0.01567303016781807 -0.047480061650276184 0.20000001788139343
		vertex -0.04895545169711113 0.010166790336370468 0.20000001788139343
	endloop
endfacet
facet normal 0.0 -0.0 1.0
	outer loop
		vertex 0.01567303016781807 -0.047480061650276184 0.20000001788139343
		vertex 0.04895544424653053 -0.010166781023144722 0.20000001788139343
		vertex -0.04895545169711113 0.010166790336370468 0.20000001788139343
	endloop
endfacet
facet normal 0.0 0.0 1.0
	outer loop
		vertex 0.04895544424653053 -0.010166781023144722 0.20000001788139343
		vertex -0.01567303016781807 0.047480061650276184 0.20000001788139343
		vertex -0.04895545169711113 0.010166790336370468 0.20000001788139343
	endloop
endfacet
facet normal 0.0 0.0 1.0
	outer loop
		vertex 0.04895544424653053 -0.010166781023144722 0.20000001788139343
		vertex 0.008804695680737495 0.0423966720700264 0.20000001788139343
		vertex -0.01567303016781807 0.047480061650276184 0.20000001788139343
	endloop
endfacet
facet normal 0.0 0.0 1.0
	outer loop
		vertex 0.04895544424653053 -0.010166781023144722 0.20000001788139343
		vertex 0.03328242152929306 0.037313271313905716 0.20000001788139343
		vertex 0.008804695680737495 0.0423966720700264 0.20000001788139343
	endloop
endfacet
facet normal -0.0 -0.0 -1.0
	outer loop
		vertex 0.02500000037252903 0.04330127313733101 7.450580596923828e-09
		vertex 0.05000000074505806 3.814697002724188e-09 7.450580596923828e-09
		vertex -0.02500000037252903 0.04330127313733101 7.450580596923828e-09
	endloop
endfacet
facet normal -0.0 0.0 -1.0
	outer loop
		vertex 0.05000000074505806 3.814697002724188e-09 7.450580596923828e-09
		vertex 0.03750000149011612 -0.021650632843375206 7.450580596923828e-09
		vertex -0.02500000037252903 0.04330127313733101 7.450580596923828e-09
	endloop
endfacet
facet normal -0.0 0.0 -1.0
	outer loop
		vertex 0.03750000149011612 -0.021650632843375206 7.450580596923828e-09
		vertex 0.02500000037252903 -0.04330127313733101 7.450580596923828e-09
		vertex -0.02500000037252903 0.04330127313733101 7.450580596923828e-09
	endloop
endfacet
facet normal 0.0 0.0 -1.0
	outer loop
		vertex 0.02500000037252903 -0.04330127313733101 7.450580596923828e-09
		vertex -0.02500000037252903 -0.04330127313733101 7.450580596923828e-09
		vertex -0.02500000037252903 0.04330127313733101 7.450580596923828e-09
	endloop
endfacet
facet normal 0.0 0.0 -1.0
	outer loop
		vertex -0.02500000037252903 -0.04330127313733101 7.450580596923828e-09
		vertex -0.03750000149011612 0.021650642156600952 7.450580596923828e-09
		vertex -0.02500000037252903 0.04330127313733101 7.450580596923828e-09
	endloop
endfacet
facet normal 0.0 0.0 -1.0
	outer loop
		vertex -0.02500000037252903 -0.04330127313733101 7.450580596923828e-09
		vertex -0.05000000074505806 3.814697002724188e-09 7.450580596923828e-09
		vertex -0.03750000149011612 0.021650642156600952 7.450580596923828e-09
	endloop
endfacet
endsolid Twisted_Vase_Basic